<svg id="Capa_1" data-name="Capa 1" xmlns="http://www.w3.org/2000/svg" viewBox="0 0 1001.86 1041"><defs><style>.cls-1{fill:#481508;}.cls-2{fill:#a86233;}.cls-3{fill:#dda06a;}.cls-4{fill:#d1864c;}.cls-5{fill:#eab68c;}.cls-6{fill:#2f2909;}.cls-7{fill:#6ab72e;}.cls-8{fill:#513213;}.cls-9{fill:#75787a;}.cls-10{fill:#c5c6cb;}.cls-11{fill:#b3b2b3;}.cls-12{fill:#b2b1b4;}.cls-13{fill:#776b60;}.cls-14{fill:#766b61;}.cls-15{fill:#766a60;}</style></defs><path class="cls-1" d="M759.41,564a87.5,87.5,0,0,0,12.65,18.72c13.4,14.75,33.09,22.84,52.93,24.73,27.89,2.65,55.47-6.05,82.14-14.64,18.88-6.08,37.88-12.21,55.35-21.62,9.55-5.14,18.88-11.54,24.5-20.81,3.77-6.21,5.65-13.35,7.24-20.43a313.41,313.41,0,0,0,7.49-78.5c-.16-5.39-.49-10.86-2.33-15.92-2-5.49-5.68-10.19-9.43-14.66-8-9.56-17.12-18.91-28.86-23.09s-24.45-2.74-36.67-.93c-39.07,5.8-77.83,15.36-114.16,31.08-17.44,7.54-37.6,16.22-52.26,28.58-11.2,9.44-12.08,29.25-12.66,43A128.81,128.81,0,0,0,759.41,564Z"/><path class="cls-2" d="M713.27,364.19c-1.8,3.28-3.44,7.07-6.83,8.64a14.15,14.15,0,0,1-4.33,1,125.31,125.31,0,0,1-20.86.58,2.11,2.11,0,0,1-1.06-.26,1.62,1.62,0,0,1-.57-1.44c0-1.83,1.37-3.36,2.69-4.64,9.43-9.23,21.6-15,33.53-20.67,2.43-1.15,5.06-2.33,7.7-1.83a42.85,42.85,0,0,1,4.33,1.53,3.35,3.35,0,0,0,3.33-.34C723.74,349.31,717,357.47,713.27,364.19Z"/><path class="cls-1" d="M723.34,370.68c-8.59,7.87-16.64,16.44-25.86,23.48-24.93,19-27.37,44.7-22.26,72.59,7.26,39.6,25.13,75.38,41,111.85,5.3,12.17,10.37,24.45,16.23,36.34,22.48,45.55,24.72,93.36,17.71,142.67-4.63,32.63-11.39,65.07-11.12,98.29.29,35.9,6.5,70.43,23.09,102.64a44.87,44.87,0,0,1,3,6.59c2,6.21,8.08,12.74,2,19-5.66,5.83-14.08,4.61-20.51,1.71-11-5-14.18-.72-14.56,9.46a44.83,44.83,0,0,1-1.37,8.33c-2.88,12.66-6.65,14.54-18.63,9.17a58.49,58.49,0,0,1-9.52-5.2c-14.17-9.9-28.65-11.89-43.88-2.4a30,30,0,0,1-6.61,2.9c-10.07,3.28-12.69,0-14.4-10.64-5.42-33.8-1.11-67.77-2.78-102.65-8,2.37-12.52,8.86-18.75,12.67-4.47,2.74-1.26,5.31.3,7.88,4.4,7.21,9,14.31,13.14,21.65,2,3.56,3.13,7.72.19,11.38-3.24,4-7.54,4-12.06,2.24-2.63-1-5.39-1.67-8-2.69-4.27-1.68-7.72-2.54-8,4.06-.42,11.8-8,12.41-16.95,10.26-9.12-2.2-16.93-7.33-25.12-11.61-3.53-1.84-6.52-3.63-11.18-2-17.65,6.12-17.92,6.19-11.24,23.84,3.85,10.15,8.13,20.14,11.77,30.37,4.25,12,.81,15.85-11.43,13.58-.4-.08-.78-.23-1.17-.31-18.75-3.6-18.75-3.59-24.35,14.51-3.32,10.73-8.11,12.88-17.82,7.8-3.56-1.87-7.26-3.69-10.34-6.21-9.9-8.09-19.14-11.37-30.66-1.72-7.31,6.12-13.21.22-15.47-7-4-12.64-7-25.58-10.05-38.5-.94-4-1.66-6.37-6.63-6.3-19.58.29-39.16.12-59.39.12,1.05,7,5.1,7.89,7.5,10.18,9.1,8.67,9.06,11.56-2.06,17.34-5.13,2.67-2,4.92-.87,7.56,5.12,11.65,3.88,13.75-8.82,14.26a83.88,83.88,0,0,1-13.26-.45c-6.89-.83-13.61-3.75-15.22,7.75-1,7.1-8.28,5-13.11,3.43-18-5.69-36.11-11.29-52.68-20.67a166.67,166.67,0,0,0-80.66-21.84c-20.23-.33-40-4.21-59.2-10.57-9.63-3.18-20.22-6.79-23.74-17.09-17.54-51.36-50.74-94.9-71.51-144.59A443.11,443.11,0,0,1,2.79,739.9C-.91,721.45-1.46,703.07,4.41,685,22.92,627.89,43,571.44,77.12,521.35a310.14,310.14,0,0,1,25.52-32.11c16.75-18.69,30-39.75,44-60.48,19-28.39,20.66-59.29,16.19-91.63-.83-6-3.76-7.72-9.08-9-9.34-2.28-18.48-5.46-27.63-8.5-7.46-2.48-13.11-7.54-18.49-13.14-7-7.32-7.63-14.06-.86-22.18,11.68-14,25.42-24.91,43.1-29.55,10-2.63,13.18-8.75,16.22-18,6.16-18.68,5.81-35.35-5.93-51.89-4.27-6-6.19-14-8.08-21.31-3.23-12.63,1.69-18.46,14.61-18.28,10.19.15,19.86,3.24,29.48,6.06,5,1.46,8,1.19,10.8-3.76,22.26-39.95,58.76-63,98.34-82.3C356.1,40.46,410.3,27.76,466,19.88,509.8,13.67,553.5,6.62,597.46,1.24c27.22-3.33,52.89-.23,77.21,12.88C681.13,17.61,687.18,21.39,692,27c22.6,26.23,44.62,52.86,63.84,81.8,24.58,37,31,78.84,34.62,121.6.73,8.68-3.12,16.4-7.16,23.87l-7.63,2.15c-.79-.8-1.57-1.6-2.36-2.39-.08-1.59-.17-3.17-.25-4.76,7.51-7,8-16.11,7.13-25.39-1.6-17.39-3.52-34.76-5.3-52.14a142.66,142.66,0,0,0-11.54-32.93C742.61,96.11,710.63,62,678.67,28c-6-6.35-13.73-12.25-24-10.93l.17.12c-.38-4-2.89-2.07-4.84-1.73l-5-.59C638.47,9.72,630.68,10,623.35,11,564.7,18.74,506.1,26.85,447.48,34.86c-45.35,5.65-88.41,18.66-130,37.67-47.7,21.77-87.59,51.53-111.88,99.28-12.75,20.25-23,41.53-28.37,65.06-1.85,8.07-.41,12.37,8.29,12.82,1.45,3,.37,5.36-2.1,7.27-26.16,1.68-47.57,13.45-65.9,31.42-2.49,2.45-6.74,5-4.38,9.93,2.74,8.78,10.56,11.83,17.92,14.2,18.87,6.08,38,11.22,57.08,16.73,3.33,2.72,7,5.13,9.9,8.22,3.4,3.6,4.15,7.13-2.53,7.84-1.16-1.08-2.16-2.47-3.51-3.19-5.26-2.8-11.5-8.69-16.23-6-5.42,3.11-1.26,10.86-.66,16.58,2.25,21.47,1.73,42.46-7.81,62.56-11.95,25.16-27.16,48.19-44.19,70.11l-2.64,3.3.17-.24c-26.31,29.06-49.52,60.25-64.3,96.88-10.82,26.81-20.44,54.11-31.42,80.86-20.4,49.73-5,95.75,13.53,141.61,2.62,7.94,4.72,16.09,8,23.77C64.21,874.06,92,912.11,102.43,957.94c2.48,10.87,11.4,15.78,21.46,19.16,20.46,6.87,41.67,8.85,63,9.16,26.46.39,50.87,6.55,72.76,21.77,15.41,10.72,32.85,16.85,50.7,21.85,3.89,1.08,8.74,5.07,12.22.8,3.15-3.85,1.82-9.38.44-14-3-9.89-9.74-17.45-16.39-25-1.62-1.84-3.19-4.15-.55-6.18,1.9-1.46,3.95,0,5.33,1.36,5.81,5.59,12.5,11.27,14.68,18.86,4.35,15.1,15.64,15,27.56,15.27,7.1.15,9-2.15,4.86-8.29-7.18-10.68-14.86-21.05-21.43-32.08-23.49-39.46-63.72-43.43-103.12-49.35-7.8-2.79-16.45-3.71-22.54-10.25.49-7.62,5.84-13,9-19.44,15.37-31.18,18.82-62.5,1.9-94.29l.24.2a3.8,3.8,0,0,0-.59-2.15c7.91-2.91,7.72,5.16,11.2,8.25,8.83,27.79,8.72,55.21-2.47,82.5-3.05,7.46-12.43,15.34-7.9,22.13,4.11,6.16,15.68,3.69,23.82,5.68,31.11,7.61,63.39,12.32,86.39,38.52,6.88,7.83,16.23,10.86,27.23,9.43s22.42-1.64,33.65-2c34.41-1,34.42-.88,23.72-34.36-2.12-13.63-6-27.15-13.85-38.16-17.8-24.83-19.57-52.9-19.59-81.65,0-2.39-1.42-5.88,4.1-7,1,9.19,2.3,18.22,2.94,27.3,1.4,19.72,5.88,38.12,20.91,52.35,11.5,26.74,17.31,54.92,21.72,83.54,2.14,13.85,5.24,27.58,8.56,41.21,3.2,13.09,4.7,13.92,15.48,6.2,8.41-6,15.28-5.31,22.8.51,2.54,2,5.33,3.58,8.05,5.28,13.17,8.24,13.8,8,18.16-6.53,4.28-14.27,6.91-15.86,21.55-13.13,2.37.44,4.8.55,7.14,1.09,5.88,1.38,6.5-1.34,4.38-5.73-14.23-29.42-24.08-60.29-31.1-92.13.92-18.47,2.35-37,.22-55.39-2.07-17.94-16.55-33.69-9.34-53.71,2.44,7.3,6.74,13.45,9.91,20.21,9.91,21.09,15.78,42.78,12.55,66.47a83.74,83.74,0,0,0,2.37,34.67c.36,3.16.52,6.36,1.12,9.48,3.27,17.08,3.63,17.69,19.44,9.26a552.69,552.69,0,0,0,82.75-53.49c4.3-3.39,6.13-7.17,5.1-12.44-3.51-18-4.76-36.56-11.25-54-2.85-21.55-11.45-41.42-18.44-62,12.1,12.1,19.4,26.76,25.48,42.16-1.2,5,1.36,9.44,2.31,14.08,7.79,37.78,15.82,75.51,13.85,114.47-1.06,20.93-1,41.79,2.55,62.59,1,5.69,1.91,8.81,7.78,5.51,19.18-10.77,37-7.05,54.24,4.54,9.27,6.24,12.56,3.8,13.81-7.24,2.56-22.66,3.14-22.6,24.9-17.36a17.55,17.55,0,0,0,2.34.53c2.38.25,5.22,1.08,6.82-1,1.75-2.27-.5-4.42-1.55-6.5-4.67-9.33-9.64-18.54-13.94-28-15.81-35-18.35-72-17.11-109.7,4.35-25.27,8.75-50.53,13-75.81,8.11-47.83,5-93.94-16.45-138.67-22.67-47.33-45.73-94.71-56.46-146.72V432.09a184.84,184.84,0,0,1-41.64,27.24c-3.49-1-5.48-3.07-4.86-6.95,9.94-5.9,20.44-10.85,28.66-19.41,20.42-21.24,39-44.37,62.56-62.42ZM350.6,986l-1.52-.79.84,1.45c4.35,4.88,4.28,16.34,16.72,11.27C361.69,992.1,356.85,988.1,350.6,986Zm211.25-43.2c8.44,4,14.5,7,20.72,9.65,6.58,2.8,11.42,2.95,11.75-6.68.3-8.56,5.65-10.8,13.48-7.9,4.59,1.71,9,4.49,15.54,3.49-4.56-7.86-8.69-14.69-12.52-21.69-2.08-3.79-4-5.32-8.31-2.51C589.76,925.48,576.76,933.43,561.85,942.79ZM176.86,199c4.23-7.32,7.46-12.84,10.62-18.4,11.9-20.94,10.52-23.48-13.94-25.6-1.6-.14-3.21-.13-4.81-.25-6.82-.48-8.56,3.16-7,9A114.88,114.88,0,0,0,176.86,199Z"/><path class="cls-3" d="M698.83,363.27a30.45,30.45,0,0,0,8.27-7.19,49.67,49.67,0,0,1,3.83-4.7c1.66-1.62,4.38-3.3,5.4-5.42a14.39,14.39,0,0,0-1.34,4.39c-1.78-.08-4.47-.66-6,.34s-2.65,3.52-3.94,4.83c-3.12,3.16-6.89,5.56-10.32,8.34-5.77,4.66-10.82,10.15-16.59,14.9a210.26,210.26,0,0,0-20.38,19.44c-12.65,13.65-23.88,28.51-35.53,43-2.28,2.83-7.49,5.83-3.83,11.18-.62,3.88,1.37,5.94,4.86,6.95,16.86,13.89,34.37,27.25,41.28,49.44,4.33,14.51,5.83,30,11,43.94,11.42,30.78,25.21,60.69,38.38,90.8,6.65,15.19,11.89,30.72,13.25,47.28,3.56,43.46-6.35,86.43-5.05,129.83.08,2.68-1.42,5.4-2.18,8.1-6.43,14.84-18.24,21.54-33.89,22.61-20.38,1.4-32.76-9.54-42.17-26.14-4.83-8.51-6.25-19.14-15.1-25.25-6.08-15.4-13.38-30.06-25.48-42.16,7,20.53,15.59,40.4,18.44,62-2.37,1.38-2.72,3.73-3.12,6.17-4.2,25.84-16.78,46.48-37.89,62.14-17.55,13-37.23,22.26-56.15,32.86a83.74,83.74,0,0,1-2.37-34.67c3.23-23.69-2.64-45.38-12.55-66.47-3.17-6.76-7.47-12.91-9.91-20.21-7.21,20,7.27,35.77,9.34,53.71,2.13,18.39.7,36.92-.22,55.39-1.21,1-2.75,1.73-3.58,3-9.74,14.47-17.66,17.32-34.2,11.77-10.23-3.43-19.57-8.5-28.74-14.35-10.32-6.57-18.12-16.8-30.22-20.69-15-14.23-19.51-32.63-20.91-52.35-.64-9.08-1.93-18.11-2.94-27.3-5.52,1.17-4.11,4.66-4.1,7,0,28.75,1.79,56.82,19.59,81.65,7.89,11,11.73,24.53,13.85,38.16-23.32.32-46.67,1.18-69.87-2.29-23.58-3.52-46.47-8.68-67.08-21.89-12.33-7.9-18.6-18.39-19.86-32.53-1.82-20.38-8.58-39.2-18.48-56.94-2.06-3.69-3.42-8.52-9.15-8.3-3.48-3.09-3.29-11.16-11.2-8.25-.21.27-.65.69-.59.78a11.7,11.7,0,0,0,1.18,1.37l-.24-.2c-1.28,18.31,2.66,37-2.77,54.91-3.7,12.17-5.11,24.86-9.95,36.82-2.77,6.85-5.42,15.26,1.83,22,6.09,6.54,14.74,7.46,22.54,10.25,9.21,15.19,9.06,20-3.9,26.31-28,13.65-57.86,19.9-89,16.27-19.55-2.27-29.48-12.26-32.81-31.63-5.29-30.72-12.15-60.7-30.42-86.89-21.56-30.88-39.63-63.46-47.36-100.88-.21-1-1.51-1.8-2.3-2.69-1.32-9.12.84-18,2-26.92,4.52-35.12,21-66.29,32.62-99.08,12.58-35.5,32.91-67.71,43.82-103.89,15-6.68,22.56-21.08,32.85-32.41,19.19-21.12,35.43-44.37,44-72.27,7.18-23.48,4.34-48.57,12.08-71.9,6.68-.71,5.93-4.24,2.53-7.84-2.92-3.09-6.57-5.5-9.9-8.22.06-4.75-3.48-6.87-6.72-9.23-11.95-8.7-25.46-13.33-40-14.87-8.52-.9-16.58-2.61-23.31-8.3,6.81-8.73,14.08-16.38,26.73-11.25.7,4.53,4.25,3.93,7.37,4.1,6.34,15,20.06,16.48,33.92,3.55,5.92-3.25,1.85-5.59-.86-7.74-5.49-4.35-12.44-5.24-18.79-7.53-.48-4.15,3.14-5.88,4.81-8.74,3.1-5.31,11.37-5.09,12.15-12.27,2.47-1.91,3.55-4.23,2.1-7.27,9.22-26,15.08-53.18,28.2-77.74,1.26-3.9,3.66-6.91,6.46-9.93C249,130.87,282,105.33,320.77,87.66c25.85-11.78,50.9-25.4,78.09-34.12,7.17-.81,14.32-1.86,21.5-2.39a908.52,908.52,0,0,0,93-11.45c35.91-6.43,71.18-16.17,107.51-20.36-9,9.54-18.4,18.74-26.95,28.68C576.78,68,571.1,91.36,582,115.27c28,61.15,76.75,95.43,143.06,105.09,2.85.42,5.57.67,7.48,3.13-1.07,9.78-7.5,17.44-10.43,26.48-1.45,4.5-4.27,9.14,2.23,12.13,2.13,5.55,7,5,10.88,3.72,4.73-1.49,9-4.42,13.48-6.73l3.29,4.29c1.36,1.77-.82,10.5-1.14,12.74a115.11,115.11,0,0,1-11.68,36.52,132,132,0,0,1-14.13,21.78c-2.4,3-5.46,5.95-7.4,9.31-2.14,3.68-3.19,7-6.36,10.1a57.81,57.81,0,0,1-5.5,4.63Q692.62,368.54,679,378c-4,2.75-8.42,5.15-11.58,8.73-3.71,4.21-7.59,8.28-11.36,12.45L630.12,427.8c-6.14,6.8-12.49,14-14.74,22.85-3.13,12.39,2.39,25.22,8.7,36.33q5,8.82,10.82,17.18c23.9,34.44,32.28,77.35,40.43,118.47,2.64,13.33,4.16,28.78-4.82,39a5.8,5.8,0,0,1-2.68,1.95c-1.73.47-3.48-.51-5-1.45-7.64-4.72-15.4-9.54-21.33-16.28-6.79-7.73-10.75-17.47-14.58-27l-78.21-194.6C535,390.09,569,354,590.21,323.94c2.28-3.22,4.71-6.5,8.14-8.44,3.74-2.11,8.21-2.37,12.5-2.5a383.08,383.08,0,0,1,40.52.86c12.62.94,25.46,2.59,36.85,8.11,5.87,2.85,11.23,6.67,17.09,9.55A59.67,59.67,0,0,0,722,336.85c.57,1.12-.22,1.7-.31,2.95M303.78,240.72c6.59,7,15,6.53,23.26,5,25.32-4.71,45.52-29.28,49.31-59.51-1.32-5.86,11.37-6.8,5.07-14.41-9.18-4.21-18.94-2.26-28.31-1.9-36.51,1.42-59.42,28.33-56.07,65C298.18,238.09,299.69,240.88,303.78,240.72ZM409.66,481.65c16-1.57,29.89-5.84,40.81-17.21,2.3-2.4,4.31-5,2.49-8.54-1.47-2.85-4.24-3.59-7.17-3.51-3.19.09-6.74-.37-9.51.84-18.64,8.17-37.51,6.7-56.58,2.21-3.1-.73-6.81-1.63-9,1.38-2.51,3.52-.15,6.6,2,9.78C381.88,480.44,397.09,478.41,409.66,481.65Z"/><path class="cls-4" d="M732.58,223.49c-1.91-2.46-4.63-2.71-7.48-3.13C658.79,210.7,610,176.42,582,115.27,571.1,91.36,576.78,68,593.94,48c8.55-9.94,17.94-19.14,26.95-28.68,7.36-5.08,16.9,1.44,24.1-4.5l5,.59,4.84,1.73-.17-.12c9.18,10.44,20.31,19.13,27.4,31.46,16.25,28.25,36.21,53.65,58.12,77.78,8.94,9.86,19.24,19.43,23.14,33.1l2.59,3-.13-.21q0,6.06,0,12.12c-5.35,17.13-13.28,32.51-29,42.57Zm-80.45-107c9.77,4,7.9-2.55,6.12-7.41-4.37-11.9-27.41-19.59-38.18-12.86-4.4,2.74-7.37,6.18.69,8.27C628.33,116,640.63,115.21,652.13,116.48Z"/><path class="cls-2" d="M628.72,799.94c8.85,6.11,10.27,16.74,15.1,25.25,9.41,16.6,21.79,27.54,42.17,26.14,15.65-1.07,27.46-7.77,33.89-22.6l4.84,3.09c-1.24,37.65,1.3,74.74,17.11,109.7,4.3,9.5,9.27,18.71,13.94,28,1.05,2.08,3.3,4.23,1.55,6.5-1.6,2.08-4.44,1.25-6.82,1a17.55,17.55,0,0,1-2.34-.53c-21.76-5.24-22.34-5.3-24.9,17.36-1.25,11-4.54,13.48-13.81,7.24-17.21-11.59-35.06-15.31-54.24-4.54-5.87,3.3-6.81.18-7.78-5.51-3.55-20.8-3.61-41.66-2.55-62.59,2-39-6.06-76.69-13.85-114.47C630.08,809.38,627.52,805,628.72,799.94Z"/><path class="cls-2" d="M28.15,751.77c.79.89,2.09,1.68,2.3,2.69,7.73,37.42,25.8,70,47.36,100.88,18.27,26.19,25.13,56.17,30.42,86.89,3.33,19.37,13.26,29.36,32.81,31.63,31.12,3.63,61-2.62,89-16.27,13-6.3,13.11-11.12,3.9-26.31,39.4,5.92,79.63,9.89,103.12,49.35,6.57,11,14.25,21.4,21.43,32.08,4.13,6.14,2.24,8.44-4.86,8.29-11.92-.26-23.21-.17-27.56-15.27-2.18-7.59-8.87-13.27-14.68-18.86-1.38-1.34-3.43-2.82-5.33-1.36-2.64,2-1.07,4.34.55,6.18,6.65,7.58,13.41,15.14,16.39,25,1.38,4.58,2.71,10.11-.44,14-3.48,4.27-8.33.28-12.22-.8-17.85-5-35.29-11.13-50.7-21.85-21.89-15.22-46.3-21.38-72.76-21.77-21.3-.31-42.51-2.29-63-9.16-10.06-3.38-19-8.29-21.46-19.16C92,912.11,64.21,874.06,46.36,831.57c-3.23-7.68-5.33-15.83-8-23.77.73-4.85-.52-9.39-1.63-14.08C33.5,779.82,28.38,766.29,28.15,751.77Z"/><path class="cls-2" d="M412.07,888.34c12.1,3.89,19.9,14.12,30.22,20.69,9.17,5.85,18.51,10.92,28.74,14.35,16.54,5.55,24.46,2.7,34.2-11.77.83-1.23,2.37-2,3.58-3,7,31.84,16.87,62.71,31.1,92.13,2.12,4.39,1.5,7.11-4.38,5.73-2.34-.54-4.77-.65-7.14-1.09-14.64-2.73-17.27-1.14-21.55,13.13-4.36,14.54-5,14.77-18.16,6.53-2.72-1.7-5.51-3.33-8.05-5.28-7.52-5.82-14.39-6.54-22.8-.51-10.78,7.72-12.28,6.89-15.48-6.2-3.32-13.63-6.42-27.36-8.56-41.21C429.38,943.26,423.57,915.08,412.07,888.34Z"/><path class="cls-2" d="M233.12,813.6c5.73-.22,7.09,4.61,9.15,8.3,9.9,17.74,16.66,36.56,18.48,56.94,1.26,14.14,7.53,24.63,19.86,32.53,20.61,13.21,43.5,18.37,67.08,21.89,23.2,3.47,46.55,2.61,69.87,2.29,10.7,33.48,10.69,33.4-23.72,34.36-11.23.31-22.53.5-33.65,2s-20.35-1.6-27.23-9.43c-23-26.2-55.28-30.91-86.39-38.52-8.14-2-19.71.48-23.82-5.68-4.53-6.79,4.85-14.67,7.9-22.13C241.84,868.81,242,841.39,233.12,813.6Z"/><path class="cls-5" d="M28.15,751.77c.23,14.52,5.35,28.05,8.63,42,1.11,4.69,2.36,9.23,1.63,14.08C19.89,761.94,4.48,715.92,24.88,666.19c11-26.75,20.6-54.05,31.42-80.86,14.78-36.63,38-67.82,64.3-96.88-1.26,12.58-10.3,21.89-14,33.43-10.91,36.18-31.24,68.39-43.82,103.89-11.62,32.79-28.1,64-32.62,99.08C29,733.78,26.83,742.65,28.15,751.77Z"/><path class="cls-5" d="M724.72,831.82l-4.84-3.09c.76-2.71,2.26-5.43,2.18-8.11-1.3-43.4,8.61-86.37,5.05-129.83-1.36-16.56-6.6-32.09-13.25-47.28-13.17-30.11-27-60-38.38-90.8-5.16-13.94-6.66-29.43-11-43.94,1.23-12.72-2.74-25.47.36-38.15,10.73,52,33.79,99.39,56.46,146.72,21.43,44.73,24.56,90.84,16.45,138.67C733.47,781.29,729.07,806.55,724.72,831.82Z"/><path class="cls-2" d="M524.52,920.9c18.92-10.6,38.6-19.84,56.15-32.86,21.11-15.66,33.69-36.3,37.89-62.14.4-2.44.75-4.79,3.12-6.17,6.49,17.42,7.74,35.94,11.25,54,1,5.27-.8,9-5.1,12.44a552.69,552.69,0,0,1-82.75,53.49c-15.81,8.43-16.17,7.82-19.44-9.26C525,927.26,524.88,924.06,524.52,920.9Z"/><path class="cls-5" d="M398.86,53.54c-27.19,8.72-52.24,22.34-78.09,34.12C282,105.33,249,130.87,220.14,162c-2.8,3-5.2,6-6.46,9.93l-8.12-.14c24.29-47.75,64.18-77.51,111.88-99.28,41.63-19,84.69-32,130-37.67-3.67,6-10.45,4.79-15.85,6.65C420.61,45.28,408.33,45.54,398.86,53.54Z"/><path class="cls-2" d="M106.57,521.88c3.73-11.54,12.77-20.85,14-33.43l-.17.24,2.64-3.3c17-21.92,32.24-44.95,44.19-70.11,9.54-20.1,10.06-41.09,7.81-62.56-.6-5.72-4.76-13.47.66-16.58,4.73-2.72,11,3.17,16.23,6,1.35.72,2.35,2.11,3.51,3.19-7.74,23.33-4.9,48.42-12.08,71.9-8.54,27.9-24.78,51.15-44,72.27C129.13,500.8,121.54,515.2,106.57,521.88Z"/><path class="cls-2" d="M398.86,53.54c9.47-8,21.75-8.26,32.77-12,5.4-1.86,12.18-.61,15.85-6.65C506.1,26.85,564.7,18.74,623.35,11c7.33-1,15.12-1.25,21.64,3.87-7.2,5.94-16.74-.58-24.1,4.5-36.33,4.19-71.6,13.93-107.51,20.36a908.52,908.52,0,0,1-93,11.45C413.18,51.68,406,52.73,398.86,53.54Z"/><path class="cls-5" d="M763.37,159.38c-3.9-13.67-14.2-23.24-23.14-33.1-21.91-24.13-41.87-49.53-58.12-77.78-7.09-12.33-18.22-21-27.4-31.46,10.23-1.32,18,4.58,24,10.93,32,34,63.94,68.14,84.67,110.81a142.75,142.75,0,0,1,11.54,32.92c-6-.36-5.1-7.22-9-9.5l.12.21Z"/><path class="cls-2" d="M618.35,452.38c-3.66-5.35,1.55-8.35,3.83-11.18,19.69-24.49,38.24-50.09,64.14-68.8l23.25-1.85C686,388.6,667.43,411.73,647,433,638.79,441.53,628.29,446.48,618.35,452.38Z"/><path class="cls-2" d="M664.85,470.62c-3.1,12.68.87,25.43-.36,38.15-6.91-22.19-24.42-35.55-41.28-49.44a184.84,184.84,0,0,0,41.64-27.24Z"/><path class="cls-5" d="M211.38,921c-7.25-6.74-4.6-15.15-1.83-22,4.84-12,6.25-24.65,9.95-36.82,5.43-17.9,1.49-36.6,2.77-54.91,16.92,31.79,13.47,63.11-1.9,94.29C217.22,908,211.87,913.41,211.38,921Z"/><path class="cls-2" d="M561.85,942.79c14.91-9.36,27.91-17.31,40.66-25.64,4.32-2.81,6.23-1.28,8.31,2.51,3.83,7,8,13.83,12.52,21.69-6.51,1-11-1.78-15.54-3.49-7.83-2.9-13.18-.66-13.48,7.9-.33,9.63-5.17,9.48-11.75,6.68C576.35,949.79,570.29,946.74,561.85,942.79Z"/><path class="cls-2" d="M176.86,199a114.88,114.88,0,0,1-15.18-35.23c-1.51-5.86.23-9.5,7-9,1.6.12,3.21.11,4.81.25,24.46,2.12,25.84,4.66,13.94,25.6C184.32,186.12,181.09,191.64,176.86,199Z"/><path class="cls-2" d="M205.56,171.81l8.12.14c-13.12,24.56-19,51.76-28.2,77.74-8.7-.45-10.14-4.75-8.29-12.82C182.57,213.34,192.81,192.06,205.56,171.81Z"/><path class="cls-2" d="M765.83,162.2c3.95,2.28,3.08,9.14,9,9.5,1.78,17.39,3.7,34.76,5.3,52.15.86,9.28.38,18.38-7.13,25.39-3.11-3.62-7.72-6.29-7.6-12,4.18-2.23,1.51-4.8.37-7.29,4.89-18.55,2.67-37.11.06-55.67Z"/><path class="cls-5" d="M144.78,285.59c-12.65-5.13-19.92,2.52-26.73,11.26l-5,1.46c-2.36-5,1.89-7.48,4.38-9.93,18.33-18,39.74-29.74,65.9-31.42-.78,7.18-9,7-12.15,12.27-1.67,2.86-5.29,4.59-4.81,8.74C158.6,278.79,150.55,279,144.78,285.59Z"/><path class="cls-2" d="M113.1,298.31l5-1.46c6.73,5.68,14.79,7.39,23.31,8.29,14.56,1.54,28.07,6.17,40,14.87,3.24,2.36,6.78,4.48,6.72,9.23-19-5.51-38.21-10.65-57.08-16.73C123.66,310.14,115.84,307.09,113.1,298.31Z"/><path class="cls-6" d="M765.45,237.28c-.12,5.67,4.49,8.34,7.6,12,.08,1.59.17,3.17.25,4.76l-.64.57c-5.83-5.44-11.42-11.18-17.62-16.17-2.17-1.74-6-3.69-8.84-1.24-3.29,2.8-.38,6,.91,8.66,5.61,11.75,15.95,19.86,23.59,30.05l-8.14-2.14L752,263.38l-3.29-4.29c-3.11-4.24-4.65-9.68-9.51-12.61.61-16.34,2.08-17.33,17.17-11.91C759.36,235.63,762.43,236.38,765.45,237.28Z"/><path class="cls-2" d="M350.61,986c6.24,2.13,11.08,6.13,16,11.95-12.44,5.07-12.37-6.39-16.72-11.27Z"/><path class="cls-5" d="M654.88,17.16,650,15.43C652,15.09,654.5,13.15,654.88,17.16Z"/><path class="cls-2" d="M349.92,986.65l-.84-1.45,1.52.78Z"/><path class="cls-5" d="M222.51,807.5a11.7,11.7,0,0,1-1.18-1.37c-.06-.09.38-.51.59-.78A3.8,3.8,0,0,1,222.51,807.5Z"/><path class="cls-5" d="M123.07,485.39l-2.64,3.3Z"/><path class="cls-6" d="M773.3,254c.79.79,1.57,1.59,2.36,2.39l-.58.61-2.42-2.43Z"/><path class="cls-2" d="M752,263.38l10.53,10.35c2,30.1-11.45,53.64-31.53,74.37-5.62-1.14-10.62,2.09-16,2.25.63-4.63,3.48-8,6.36-11.4C740,317.19,751,292.29,752,263.38Z"/><path class="cls-1" d="M731,348.1c20.08-20.73,33.55-44.27,31.53-74.37l8.14,2.14v0l2.38,2.38h.09q-.07,3.54-.16,7.08c-1.93,23-8.18,44.16-26.26,60.13C742.14,350.24,736.38,347.94,731,348.1Z"/><path class="cls-7" d="M780.4,263.84c-.86-1-1.71-2-2.56-3Z"/><path class="cls-1" d="M381.42,171.8c6.3,7.61-6.39,8.55-5.07,14.41-1.19,1-3,1.82-3.5,3.11-13,30.66-36.16,47.55-69.07,51.4-4.09.16-5.6-2.63-6.74-5.86a65.52,65.52,0,0,0,2.95-6.52c9-26.88,28.26-41.73,55.12-48.27C364,177.9,372.66,174.59,381.42,171.8ZM315,217.34c-2.43,3.92-5.46,7.08-5.53,12.39C320,229.79,321.34,225.75,315,217.34Z"/><path class="cls-5" d="M409.66,481.65c-12.57-3.24-27.78-1.21-37-15-2.11-3.18-4.47-6.26-2-9.78,2.15-3,5.86-2.11,9-1.38,19.07,4.49,37.94,6,56.58-2.21,2.77-1.21,6.32-.75,9.51-.84,2.93-.08,5.7.66,7.17,3.51,1.82,3.53-.19,6.14-2.49,8.54C439.55,475.81,425.64,480.08,409.66,481.65Z"/><path class="cls-5" d="M381.42,171.8c-8.76,2.79-17.4,6.1-26.31,8.27C328.25,186.61,309,201.46,300,228.34a65.52,65.52,0,0,1-2.95,6.52c-3.35-36.63,19.56-63.54,56.07-65C362.48,169.54,372.24,167.59,381.42,171.8Z"/><path class="cls-2" d="M303.78,240.72c32.91-3.85,56.08-20.74,69.07-51.4.55-1.29,2.31-2.08,3.5-3.11-3.79,30.23-24,54.8-49.31,59.51C318.78,247.25,310.37,247.76,303.78,240.72Z"/><path class="cls-1" d="M765.45,237.28c-3-.9-6.09-1.65-9.05-2.71-15.09-5.42-16.56-4.43-17.17,11.92-3.12,6.95-7.24,12.94-14.85,15.61-6.5-3-3.68-7.63-2.23-12.13,2.93-9,9.36-16.7,10.43-26.48l4.29-6.6c12.46-1.84,18.55,10.38,29,13.1C767,232.48,769.63,235.05,765.45,237.28Z"/><path class="cls-1" d="M144.78,285.59c5.77-6.64,13.82-6.8,21.64-7.62,6.35,2.29,13.3,3.18,18.79,7.53,2.71,2.15,6.78,4.49.86,7.74-11-4.43-22-8.58-33.92-3.55C149,289.52,145.48,290.12,144.78,285.59Z"/><path class="cls-2" d="M152.15,289.69c11.95-5,22.95-.88,33.92,3.55C172.21,306.17,158.49,304.73,152.15,289.69Z"/><path class="cls-2" d="M724.38,262.1c7.61-2.67,11.73-8.66,14.85-15.61,4.86,2.92,6.4,8.36,9.51,12.6-4.47,2.31-8.75,5.24-13.48,6.73C731.34,267.06,726.51,267.65,724.38,262.1Z"/><path class="cls-3" d="M765.82,230c-10.4-2.72-16.49-14.94-29-13.1,15.73-10.06,23.66-25.44,29-42.57C768.49,192.88,770.71,211.44,765.82,230Z"/><path class="cls-1" d="M620.76,104.48c-8.06-2.09-5.09-5.53-.69-8.27,10.77-6.73,33.81,1,38.18,12.86,1.78,4.86,3.65,11.36-6.11,7.42C644.17,106,633.7,102,620.76,104.48Z"/><path class="cls-2" d="M620.76,104.48c12.94-2.48,23.41,1.49,31.38,12C640.63,115.21,628.33,116,620.76,104.48Z"/><path class="cls-2" d="M763.37,159.38l2.58,3Z"/><path class="cls-2" d="M635.1,558.89a30.36,30.36,0,0,1-1.61-2.75c0-.09.8-.6,1.23-.91.32,1,.65,2.1,1,3.15Z"/><path class="cls-2" d="M637.17,564l-2.07-5.1.58-.51c2,1,2.16,3,2.36,4.92Z"/><path class="cls-2" d="M641.47,571.53a10.82,10.82,0,0,1,.49,1.94c0,.21-.48.47-.75.7a12.23,12.23,0,0,1-.54-1.92C640.65,572.05,641.16,571.79,641.47,571.53Z"/><path class="cls-2" d="M632.45,549.83l-.87.76a12.11,12.11,0,0,1-.64-2c0-.2.5-.49.77-.74C632,548.54,632.21,549.19,632.45,549.83Z"/><path class="cls-6" d="M773.07,278.29l-2.38-2.38Z"/><path class="cls-3" d="M315,217.34c6.3,8.41,5,12.45-5.53,12.39C309.58,224.42,312.61,221.26,315,217.34Z"/><path class="cls-8" d="M938.54,399.71c12.17,8.48,24.59,16.53,34.89,27.49,20.22,21.54,18.88,48.89,14.79,76.1-2.29,15.28-5.07,31.17-14.67,43.76-10.72,14-30.5,20.51-46.39,26.74-22.41,8.79-45.63,14.86-68.73,21.16-17.92,4.88-36.6,5.15-53.76-3.22-26.77-13-44.43-33.41-48.15-64.21-2.76-22.9,1.24-44.88,7.73-66.63,1.75-4.12,5.7-4.1,9.2-4.86,15.82-3.42,31.81-5.94,47.42-10.45,26.87-7.77,52.11-19.58,77.76-30.4,11.15-4.7,22.35-9.27,33.17-14.71C933.89,399.43,936.11,398.3,938.54,399.71Z"/><path class="cls-9" d="M938.54,399.71c-21.9,11.13-44.79,20.06-67.3,29.81-27.13,11.76-54.85,21.75-84.37,26.14-7.58,1.12-15.41,2.11-22.62,5.23l-9.92,3.66c-3.6-2.45-3.19-6.08-2.9-9.69a14.05,14.05,0,0,1,1.26-4c7.75-12.79,10.84-27.28,14.85-41.4a159.15,159.15,0,0,0,4.2-16.34c1.21-7,5.19-11.73,11.23-15a133.9,133.9,0,0,1,14.15-6.5c8-3.13,11.26-12.32,6.85-20.15-5.41-9.62-10.47-19.43-16.15-28.91q-14.69-24.51-29-49.27c-2.83-4.94-7-8.77-10-13.52a7.3,7.3,0,0,1,2.71-7.2c2.83-.38,3.48,2.06,4.7,3.71,4.63,6.27,8.34,13.12,12.29,19.81,1.74,3,3.41,4.77,7.12,2.32s3.84-4.61,1.37-7.92c-8.15-10.91-15.14-22.59-22.16-34.24-2-3.38-4.25-5.36-8.27-2.4-3.1,2.29-3.89,4.42-.89,7.31,2.34,2.25,4.76,4.52,4.37,8.25-1.35,3.51-3.05,5.88-6.59,1.95-1.17-4.2-4.83-6.53-7.39-9.67-2.67-3.29-2.58-6.18.44-9.09a35.72,35.72,0,0,1,5-4.13c9.63-6.47,13.3-5.74,19.3,4A543.09,543.09,0,0,0,794,281.09c1.49,1.88,1.81,4.5,3.87,6C807.26,300.5,816.56,314,825,328c2.2,3.66,5,5.12,9.48,5,11.47-.17,21.32,4.63,30,11.81,2.95,2.44,5.86,3.38,9.43,1.95.76,1.47,1.86,2.24,3.58,1.73,5.39-2.05,10.2-.08,14.73,2.48,5.58,3.15,10.11,7.77,15.23,11.56-.4.55-2.55.6-.57,1.82,1.38.85,2.85,1.54,4.28,2.3,7.91,5.33,16.94,8.7,24.75,14.22a22.75,22.75,0,0,1,3.07,2.27c8.14,3.73,11.95,11.67,17.47,17.95-2.06-.4-4.18-.68-5.79-2.22C946.3,394.71,942.35,396.15,938.54,399.71Z"/><path class="cls-10" d="M816.12,441.28C805.2,444.83,786.8,446.61,769,451c-3.37.82-3.87-.25-2.7-3.25,6.63-16.93,11.1-34.52,15.37-52.15,1.4-5.77,5.61-8.54,10.4-10.71a129.24,129.24,0,0,1,20.65-7.66c20.29-5.25,40.78-9.85,60.19-18,7.29-3.06,13.62-1.54,18.92,4,10.86,11.37,24.94,17.69,38.41,25,1.45.79,3.72,1.19,3.82,3.1.11,2.19-2.39,2.12-3.82,2.87-19.33,10.14-39.77,17.84-59.67,26.7A481.08,481.08,0,0,1,816.12,441.28Z"/><path class="cls-11" d="M818.64,366.05c-11.58-20.31-22.45-39.38-33.33-58.43-1.28-2.25-2.56-4.49-4-6.66-7-10.93-7-10.83,5.41-14.91,3.09-1,4.52.68,5.84,2.63,15,22.08,30.39,43.92,43.18,67.41.88,1.61,2.65,4,.62,5.06s-3.33-.81-4.1-3.34-2.88-5-6-1.43C823.86,359.21,819.4,360.24,818.64,366.05Z"/><path class="cls-12" d="M749.23,249.67c-.32-4.21-4-6-6.43-8.56-2.74-2.84-3-5,.48-7.19a57.63,57.63,0,0,0,5.31-3.68c2.23-1.79,3.73-1.34,5.22,1,9,14.13,17.42,28.68,27.65,42,1.13,1.46.86,2.78-.56,3.92-.34.26-.66.55-1,.82-8.43,6.61-8.34,6.55-14-2.86-4.54-7.46-8.52-15.3-14.27-22C748.77,253.36,748.87,251.6,749.23,249.67Z"/><path class="cls-13" d="M901.78,384.41c1.78,4.78.19,8.8-3.36,11.62-3.87,3.09-7.21.32-10.31-2.2-6-4.85-9-11.94-13-18.16-2.76-4.28,2.4-9.12,8.23-7.64A25.67,25.67,0,0,1,901.78,384.41Z"/><path class="cls-14" d="M854.68,400.77a13.48,13.48,0,0,1-.07,8.91c-2,6.16-7.67,7.76-12.69,3.65C835.45,408,832.06,396,834.49,388c1.5-5,4.84-3.59,7.62-2.17C848.32,389,852,394.5,854.68,400.77Z"/><path class="cls-15" d="M804.26,411.94c1.73,6,1.83,12-1.9,17.36-1.5,2.17-3.53,4-6.46,3.54s-4.29-2.58-5.09-5.25c-2-6.56-2.58-13.14.19-19.59,1.17-2.72,2.44-5.94,6.2-5.76,3.95.2,5.14,3.41,6.14,6.6C803.66,409.87,804,410.91,804.26,411.94Z"/></svg>