<svg id="Capa_1" data-name="Capa 1" xmlns="http://www.w3.org/2000/svg" viewBox="0 0 800 704"><defs><style>.cls-1{fill:#9adfef;}.cls-2{fill:#23c2f0;}.cls-3{fill:#3da035;}.cls-4{fill:#1fb161;}.cls-5{fill:#fbfbfa;}.cls-6{fill:#5cc08a;}.cls-7{fill:#95c8e9;}.cls-8{fill:#e1eae5;}.cls-9{fill:#eaedeb;}.cls-10{fill:#c6520d;}.cls-11{fill:#fbcb59;}.cls-12{fill:#e6a745;}.cls-13{fill:#c38d58;}.cls-14{fill:#b16826;}.cls-15{fill:#d98941;}.cls-16{fill:#fabc49;}.cls-17{fill:#ededed;}.cls-18{fill:#76be72;}.cls-19{opacity:0.5;}.cls-20{fill:#44474f;}.cls-21{fill:#168aa5;}.cls-22{fill:#4c1c10;}.cls-23{fill:#4c271f;}.cls-24{fill:#dca06a;}.cls-25{fill:#d1854e;}.cls-26{fill:#a76134;}.cls-27{fill:#e8b48c;}.cls-28{fill:#a66135;}.cls-29{fill:#e2ac84;}</style></defs><path class="cls-1" d="M383.78,544.65s161.87-336.41,250.16-288.4-157.68,201-201.74,300.48Z"/><path class="cls-2" d="M404.35,564.69s131.43-157.61,181.5-117.5-116.2,84.54-152.71,131.73Z"/><path class="cls-2" d="M420.38,572.79c24.64-33,62.39-60.09,89.72-76.95a486.73,486.73,0,0,1,54-29l-.64-1.52a486.16,486.16,0,0,0-54.17,29.07c-27.46,16.94-65.39,44.11-90.18,77.37Z"/><path class="cls-3" d="M558.44,235.73c2.53-9.13,6.13-11,9.66-10s5.62,4.53,3.1,13.65C566.6,256,558,262.19,558,262.19S553.78,252.59,558.44,235.73Z"/><path class="cls-3" d="M649.37,373.15c7.91.09,10.24,2.68,10.2,5.82s-2.42,5.68-10.34,5.58c-14.42-.17-21.32-6-21.32-6S634.74,373,649.37,373.15Z"/><path class="cls-3" d="M635.61,355.43c5.6-5,8.83-4.64,10.75-2.41s1.81,5.51-3.8,10.49c-10.21,9.05-18.63,9.39-18.63,9.39S625.24,364.62,635.61,355.43Z"/><path class="cls-2" d="M373.63,617.74s-60.3-178.5-107.4-160.07,66.51,110.52,82.44,163.05Z"/><path class="cls-4" d="M172.05,25h7.22c-.39,2.51.79,4.39,3.13,4.51,3.11.15,5.95,1.11,8.89,1.83a15.07,15.07,0,0,1,5,3.17c3,3.33,6.3,5.7,11,3.31L210,40.29c-.14.84-.07,2,.85,1.9,3.94-.27,7.56,2.66,11.62,1.05a3.13,3.13,0,0,1,3.33.85c3.94,3.93,9.56,5.28,13.63,9a2.69,2.69,0,0,0,2.17.86,1.7,1.7,0,0,0,1.84.74H245l.2.18.17-.15c1,.4,1.9,1.37,2.92.94,3.51-1.45,4.73,1.06,6.06,3.34.59,1,.81,2.24,1.93,2.89l-.83,1.53c-.06,2.26-.18,4.52-.18,6.78q-.06,37.15-.1,74.32c-.81,1.07-.51,2.31-.51,3.49q0,49.08,0,98.16a12.91,12.91,0,0,0,.87,4.67l-16.07.33a131.9,131.9,0,0,0-16,0,128.45,128.45,0,0,0-16.06,0,131.9,131.9,0,0,0-16,0,128.45,128.45,0,0,0-16.06,0,131.9,131.9,0,0,0-16,0,128.45,128.45,0,0,0-16.06,0,131.9,131.9,0,0,0-16,0,128.45,128.45,0,0,0-16.06,0,131.9,131.9,0,0,0-16,0,128.45,128.45,0,0,0-16.06,0l-16.07-.47h-16a135.29,135.29,0,0,0-16.11,0l-9.6-.09c-7-1.41-6.57-4.86-2.44-8.68a34.53,34.53,0,0,0,6.89-8.13,25.49,25.49,0,0,0,5.16-5.9,66.64,66.64,0,0,0,8.94-10.33,46.21,46.21,0,0,0,7.35-8.44A34.3,34.3,0,0,0,54,201.44l9-10.37a19.59,19.59,0,0,0,4.85-5.6c2.31-2.54,4.72-5,6.9-7.65,6.73-8.19,14.17-15.79,20.4-24.41a154.75,154.75,0,0,0,13.79-16,5.85,5.85,0,0,0,2.16-2.58,93.91,93.91,0,0,0,11.37-13.48l0,.06a2,2,0,0,0,1.49-1.73,9.05,9.05,0,0,0,3.32-3.8,66.68,66.68,0,0,0,9-10.57c9.64-10.28,18.17-21.52,27.57-32,4.3-4.81,4.66-10.31,4.13-16.2.42-5.33-.11-10.65-.37-16a24,24,0,0,0,.23-8.65C167.26,28.63,168.17,26.07,172.05,25Z"/><path class="cls-5" d="M255.18,144.52q0-37.16.1-74.32c0-2.26.12-4.52.18-6.78,2.8,1,6.09,1.09,6.56,5.26.7,6.23,5.46,9.85,11.8,9.35,4.46-.35,7,1.31,8.18,5.7a7.56,7.56,0,0,0,2.54,3.4c4,3.83,9.58,6,11.95,11.46.48,1.11,1.46.85,2.36,1,3.1.58,6.35.89,9.23,2.06a23.54,23.54,0,0,0,12.1,1.33c6.95-.88,11.44,1.12,14.25,7.69a2.31,2.31,0,0,0,2.6,1.69c2.51.05,5,5.25,3.88,7.77-1.5-1.41-3-2.81-2.65-5.18.12-.55-.08-1.08-.59-1.18-.71-.14-1.14.31-1.19,1l0,0c-.8,1.09-1,2.18,0,3.29l0,0a4.33,4.33,0,0,0,1.64,4.06l0,0a1.41,1.41,0,0,0,.89,1.31l3.59,3.51c3,3.54,3.88,8.1,6,12,.53,1.06,1.07,2.12,1.61,3.17l.78,3.28a2.73,2.73,0,0,0-.75-.12v0a9.06,9.06,0,0,0-3.87-3.41l0,0-.83-.81,0-.07a19.78,19.78,0,0,0-5.73-5.43l-.83-.78-2.05-1.92-1.7-1.59c-2.59-2.48-5.16-5-7.77-7.44-.67-.63-1.5-1.42-2.42-.64-1.19,1-.27,2,.44,2.7,2.18,2.33,4.41,4.6,6.63,6.89l2.31,2.54,2.73,2.89A13.33,13.33,0,0,0,341,142.4a2.63,2.63,0,0,0,1.65,1.59h0a3.58,3.58,0,0,0,1.85,2.2l0,0a3,3,0,0,0,1.61,1.74l3.07,3.21c.23,1.19.37,2.32-1.39,2.33l-7.55-4.13c-.13-.77-.2-1.6-1.28-1.64l0,0a.83.83,0,0,0-.84-.84h0l-.69-.92a6.38,6.38,0,0,0-3.26-3.17l-1.39-1-1-.58c-2-1.87-4.7-2.28-7.2-3.07-1.9-.6-3.75-1.21-5-2.94-.62-.86-.84-2.85-2.33-2-1.68.91-.65,2.55,0,3.82a8.36,8.36,0,0,0,1.23,1.52c.27.27.53.54.8.8l.86.77c5.22,3.26,11.38,5.14,15.28,10.35.41.73.81,1.47,1.83,1.44l0,0c-.1.71.39,1,.89,1.26l6.33,4.2c-.72.41-1.35,1.09-2.31.74-2.17-2.38-5.35-1.57-8-2.51a1.54,1.54,0,0,0-1.63-.53c-.12-.24-.18-.6-.37-.7-6.6-3.51-13.77-5.58-20.75-8.12-.75-.27-1.75-.3-2.11.59-.59,1.42.68,1.87,1.59,2.28q15.84,7.2,31.71,14.33c1.28,1.06.79,1.39-.58,1.38-4.26,0-8.48-.24-12.43-2.18a22,22,0,0,0-13.53-2.19c-2.86.46-5.85.84-8.29-1.5-.49-.46-1.13-.8-1.76-.26-.81.69-.38,1.47,0,2.15a3.62,3.62,0,0,0,2.1,1.73l1.55.92a6.69,6.69,0,0,0,4.07,1.18A36.82,36.82,0,0,1,325,165.68c1.59.92,3.08,2.12,5.09,2l1.53,1c2.3,1.55,5.07,1.3,7.87,2-.6.43-1,1-1.42,1-4.88.29-9.76.55-14.64.72-5.71.2-11.42.28-17.13.46-1,0-2.39.08-2.42,1.47s1.31,1.5,2.36,1.53c9,.28,18,1.19,27.08.75l4.78.1,4.27,1.09c-4.81,2.15-9.17,3.61-14,3.35-1.59-.08-3.49-.82-4.6,1.2a1.2,1.2,0,0,0-.7-.06c-3.38-1.35-5.66,1.29-8.34,2.37-1.84.73-3.46,1.88-5.6,1.88-1.27,0-3.46-1.42-3.69.6s2.23,2.26,3.88,2.56,3.4.59,4.75-.91l0,.06c7.57-3.53,15.84-2,23.73-3.21.76-.11,2.76-1,1.83,1.41l0,0c-.74-.11-1.4-.06-1.64.82l0-.05a12.12,12.12,0,0,0-6.19,2.63l-.08.07c-3.42,1.18-6.87,2.28-9.72,4.63l0,0a2.68,2.68,0,0,0-2.44.87l-4,2.42c-2.18-.47-3.75,1-5.51,1.79a1.33,1.33,0,0,0-.8,1.64,1.37,1.37,0,0,0,1.92.86c2.05-.83,4.36-1.09,6.1-2.63l0,0a27.77,27.77,0,0,0,10.5-4l0,0A31.61,31.61,0,0,0,339,191.91l0,0c1.55-.05,3-.27,4.08-1.59l-.05,0c.32,1.12,3.77-2.42,2.21,1.48-3.24,2.15-5.33,5.91-9.46,6.81-1.52.31-3.22.24-4.06,2l0,0c-1.89-.09-3.07,1-4,2.45v0a6.83,6.83,0,0,0-4,4.82l0,0c-.86-.28-1.1.42-1.46.94a3.32,3.32,0,0,1-3.24,2.45c-1.3.29-3.63-.41-3.44,1.55s2.48,1.68,4,1.31c3.1-.78,6.17-1.79,7.21-5.39l1.11-1.08,1.39-.6.14-.26,9.08-4.42a.39.39,0,0,0,.47-.25c2.24.22,3.56-1.77,5.48-2.3l1.11,1.12c-.14.34-.28.68-.43,1l-1.6,1.68-.77.81-.78.83a4.92,4.92,0,0,0-2.3,2.5c-.27.27-.53.54-.8.8l-.76.85a17.61,17.61,0,0,0-4.23,4.59l-.81.81c-2.58,2.69-5.17,5.37-7.73,8.09-.54.58-1.08,1.37-.47,2.14.76,1,1.7.59,2.44-.1,1.35-1.26,2.64-2.6,4-3.91l.85-.76,1.68-1.54c.26-.27.53-.53.79-.79l1.27-1.15,2.5-2.31L340,212.8a14.34,14.34,0,0,0,4-3.79,7.92,7.92,0,0,0,3-2.69l.82-.78,1.65-1.56c1.46-.22,1.86-2.89,3.94-1.71.26,3.37-2.12,5.52-3.72,8l-.37.78,0,0-1.71,1.51-.84.78a4.18,4.18,0,0,0-2.34,2.48l-1.05,1.4a16.56,16.56,0,0,0-1.2,1.56c-2.62,4.26-1.91,10.39-7.32,13.13-.19.09-.29.79-.15,1a1.69,1.69,0,0,0,2.11.59c3.17-.87,5.15-3.11,6.49-6,1.11-2.4,2.14-4.83,3.2-7.25l4.58-5.07-.07,0a2.9,2.9,0,0,0,2.47-2.44l0,.08c.68,0,1.21-.19.73-1l4.77-6.59c.06,4.08-1.63,6.91-2.38,10-.2,3.69-3.51,6.39-3.27,10.23-3.22,4-3.89,9.08-5.63,13.7a1.88,1.88,0,0,0,.52,1.73c.81.53,1.56-.09,1.89-.85,1.72-4,4.36-7.56,5-12H355a31.41,31.41,0,0,0,5.67-12l0,0c.82-.28.93-.92.81-1.65l0,0c2-1.93,2.63-4.5,3.45-7l.48-1.11c2.06,5,.54,9.78-1.42,14.36a24.44,24.44,0,0,0-2,14c.44,2.68.64,5.3-1.39,7.54-.53.58-1.1,1.36-.28,2.08s1.78.12,2.46-.47a8.59,8.59,0,0,0,3.34-7c-.42-6.2,1.18-11.83,3.78-17.3,1.74-2.63,1.39-5.92,2.89-9.8.2,1.87.33,2.63.36,3.4.4,9.74.77,19.49,1.21,29.23.07,1.45-.53,3.89,1.62,3.81s1.45-2.49,1.51-4c.33-8.41.58-16.82.9-25.23.11-2.83.36-5.65.55-8.48l.63-.05c.89,2,1.79,4.05,2.68,6.07l.21,1.44c0,2.39,0,4.78.14,7.16.27,4.09.54,8.21,3.64,11.4l-.1,0c.54,2.67,2.73,5,1.7,8-.28.84-.74,2,.61,2.3,1.09.27,1.68-.63,2.05-1.51a11.37,11.37,0,0,0-.51-9.67,21.64,21.64,0,0,1-2.25-11.22,37.75,37.75,0,0,0-.75-11.12l1-1c1.33,1.44.67,4.1,3,4.92l1,4c1.53,3,2.28,6.37,4.65,8.91l-.08.05c.88,4.06,3.13,7.54,4.81,11.27.38.86.88,1.83,2,1.43,1.49-.53.88-1.77.53-2.69-2.33-6.18-4.25-12.52-7.13-18.48-1.24-1.32-.46-3.67-2.38-4.64a7,7,0,0,0-1.51-5.61l0,0a18.24,18.24,0,0,1-.86-3.65c-.07-1.8.89-.81,1.57-.4l1.28,1.15.74.86.73.87.74.85,1,1.39,2.38,4.83a8.34,8.34,0,0,0,2.31,4.94,7,7,0,0,0,3.28,3.9,4.53,4.53,0,0,0,2.56,2.3l1.32,1.11,1.69,1.51c.4,1.12.83,2.22,1.2,3.34.3.94.05,2.5,1.55,2.26s1.49-1.72,1.37-2.91c-.35-3.28-1.52-6.14-4.49-8l-.8-.81-.83-.78c-.73-.88-1.45-1.77-2.17-2.66-.91-1.8-1.81-3.61-2.71-5.41a14.76,14.76,0,0,0-3.13-7.18c-.21-.32-.43-.64-.64-1l-.37-1.14.95-1,2.74,2a13,13,0,0,0,3.67,3.56l1.8,1.63c2.32,3,5.34,5.21,8.16,7.65l1.72,1.54c1.6,1.6,3.16,3.23,4.81,4.76.72.67,1.73,1,2.46.05.58-.74.11-1.54-.46-2.14-1.3-1.33-2.63-2.62-3.95-3.93-1.62-2.14-3-4.56-5.74-5.53l0,0c0-1.72-1.28-2.41-2.45-3.21h0a1.86,1.86,0,0,0-1.62-1.63l0,0a3,3,0,0,0-2.41-2.43h0l-.56-1-.79-.81-.77-.84-2.28-2.5c-.42-.43-.83-.86-1.25-1.28l-1.45-1.54-.5-1.19.66-.78,4.45,1.3,0,0a5.63,5.63,0,0,0,4,2.46l0-.06c0,.59.31.83.86.82l-.08,0a4.47,4.47,0,0,0,2.24,2.55l1.64,1.65c2.64,3.13,6.39,4.18,10.07,5.32,2.05.64,4.08,1.21,5.48,3.05.65.85.93,2.85,2.37,2,1.67-.93.58-2.6,0-3.88a8.14,8.14,0,0,0-1.26-1.52l-.81-.82a4,4,0,0,0-2.34-1.71l-9.05-4.55-4.1-3.92v0a.82.82,0,0,0-.83-.85l0,0c-.29-1.39-1.36-2-2.48-2.64a4,4,0,0,0-2.33-1.63c0-.68,0-1.36-.07-2l3.76,1,2.36.89a24,24,0,0,0,6.42,2.4c5.41,2.08,10.82,4.17,16.24,6.22.86.33,1.89.62,2.39-.53s-.36-1.73-1.23-2.11c-2.65-1.18-5.32-2.31-8-3.45l-1.67-.74-1.62-.8a24.91,24.91,0,0,0-7.16-3.25l-1.64-.8a28.78,28.78,0,0,0-7.13-3.27c-1.15-.59-2.08-1.81-3.62-1.24l-2.24-.87c-.29-1.71.88-1.53,2-1.55a35.87,35.87,0,0,1,12.07,1.94l1.65.8a16.91,16.91,0,0,0,11.47,1.6c1.5,3.64,5.68,4.52,7.86,7.74,1.15,1.7,3.52,2.56,3.57,5.28,0,.48,1.46,1.28,2.27,1.31,2.53.1,3.89,1.61,4.66,3.66,1,2.6,5.81,3.13,3.89,7.26a1.87,1.87,0,0,0,.93.51c2.29-.15,2.71,1.54,3.48,3.15,1.19,2.47,2.44,5,5.84,5.19,1.79.11,2.2,1.68,3,3.17,1.4,2.62.14,5.17.77,7.72,1.1,4.37,6.51,6.41,6.06,11.55,0,.16.65.59.88.51,3.07-1,5.46,1.51,8.42,1.57,3.4.06,5.83,3,8.9,4.18-.1,2-.3,4-.3,6q0,161.61,0,323.21l-31.26.27-1.17.17c-1.07.07-2.13.21-3.2.2-36.32-.31-72.64.36-109-.38-22.57-.46-45.15-.06-67.73-.1-7.74,0-15.49.36-23.21-.51-.59-1-1.18-2-1.76-3.06V538.62c.84-1.18.68-2.55.68-3.87l-.06-124.68.09-30.39c.07-.1.21-.21.2-.31a5.56,5.56,0,0,0-.19-.7l.18-29.52c.94-1.34.5-2.85.51-4.29.16-17.49-.57-35-.06-52.48.2-6.77.67-13.58-.37-20.35l-.27-20c.19-.91.56-2.34-.49-2.43-3.56-.34-2.81-2.84-2.81-5q0-47.44,0-94.9C255.46,148,255.28,146.24,255.18,144.52ZM337,405.2c-.1-3.15,1.37-4.89,1.91-6.9.39-1.41.26-2.71-1.25-3.39a3,3,0,0,0-3.93.91c-1.12,1.44-1.3,3.2-1.67,4.89-1.79,8-2.67,8.79-10.86,9.52-1.33.12-2.68.12-4,.3-2.81.37-4.24,0-4.25-3.63,0-5-5.48-8.56-11.42-8.23-4.85.27-8,3.53-7.94,8.29a15.43,15.43,0,0,0,13.64,15.26,44.31,44.31,0,0,0,9.21.15c1.72-.16,3.95-1,5.06-.22,1.82,1.26-.64,3.26-.36,5,.06.39-.21.86-.07,1.19,1.38,3.43-.7,4-3.4,4.71a9.87,9.87,0,0,0-6.83,10.54,9.69,9.69,0,0,0,8.84,8.45c4.13.2,7.66-1.16,10-4.79,2.5-4,1.34-7.64-.95-11.26-.73-1.15-3-2.15-.94-3.95,3.48-3,4.56-7.12,5.08-11.43.19-1.49.59-2.4,2.3-2.7,12.11-2.08,24.16-4.73,36.58-3.92a27.18,27.18,0,0,1,11.14,3c1.12.59,2.91,1.75.49,2.64-3,1.13-3.27,3.26-2.87,5.73.76,4.67-1.48,8-4.62,10.92a35.79,35.79,0,0,1-9.6,6.47c-3.57,1.65-7.26,3.06-11.82,5h33.35c7.16,0,7.16,0,7.52-7.07.32-6.12,1.61-7.63,7.66-8.86,2.23-.45,4.54-.58,6.7-1.21,2.83-.82,6.95-.45,7.67-4,.77-3.81-3.09-5.26-5.79-6.78-2.22-1.25-2.12-2-.4-3.64,6.67-6.37,13.19-12.9,19.85-19.28,4.05-3.87,8.69-5.71,14.26-3.29a7.83,7.83,0,0,0,1.55.4c4.07.81,8.44-.68,10-3.41,1.94-3.34,1.31-7.88-1.59-11.18a10.29,10.29,0,0,0-9.34-3.56,23.36,23.36,0,0,0-9.37,3.35,69.28,69.28,0,0,0-10.54,8c-1.26,1.12-2.19,1.68-3.66.2-2.92-2.94-6-5.75-9.06-8.5-1.28-1.14-1.17-2.13-.48-3.49,2.46-4.81,5.48-5.57,9.7-2.13a5.22,5.22,0,0,0,5.95.72,5.53,5.53,0,0,0,3.32-5.09,7.28,7.28,0,0,0-6.14-7.72,15.26,15.26,0,0,0-7.88.88c-8,2.86-12.7,9-16.18,16.35a111.61,111.61,0,0,0-5.62,15.43c-.42,1.37-.69,2.48-2.68,1.67-12.81-5.18-25.39-3.48-37.86,1.4C349.31,399.27,343.39,402,337,405.2Zm132.26-40.55c3.83-4.22,7.77-4.31,12.29-.08-3.49-5.86-.85-9,4.09-11.9-6.22,1.48-9.33-1-10.46-7-.45,6.79-4.54,7.62-10,6.68C470.74,358.16,470.74,358.16,469.26,364.65ZM352.56,498.49c6.09-.74,9.33,1.64,9.54,8.25,3.36-6.42,3.36-6.42,11.14-7.53-6.26-2.77-6.32-6.81-3.35-11.95-4.33,4.5-8.28,4.57-12.59-.24C360.39,493,358.13,496.2,352.56,498.49ZM358.17,296c-1.47-2.28-3.21-3.93-3.59-5.84-.45-2.27,2.9-3.26,3.27-6.37-5.15,2.55-8.75,1-11.2-4.41,1,6.23-1.29,9.46-7.83,10.16,6.84.45,8.23,4.45,7.16,10.58C350.76,294.52,350.76,294.52,358.17,296Zm8.16-12.09c4.79,4.12,4.79,4.12,4.15,10.81,5.72-2.25,5.72-2.25,12.27.53-3.59-5.34-1.77-8.81,3.44-11.75-6.44,1.87-8.78-1.54-9.82-7.08C373,283,373,283,366.33,283.89Zm89.41,33.39c-6.58-3.32-4.83-7.59-2.51-12.49-4.61,5-8.38,3.66-12.33-.73,2.2,5.58.59,9.12-5,11.39,6.35-.7,8.93,2.14,9.21,8.06C446.87,318.33,449.21,315,455.74,317.28ZM381.86,487.37c4.43,4.68,2.4,8.24-1.7,11.74,5.65-1.72,9-.08,10.45,5.86-.17-6.56,3.54-8.38,9.06-8.79-5.93-1.58-7.31-5.19-5.08-10.83C388.05,489.61,388.05,489.61,381.86,487.37Zm-68.23-20.65c-.7,6.24-4.19,8-10.1,7.14,5.48,2.77,6.13,6.61,3.53,11.79,4.51-4.59,8.31-3.6,12.31.59-3-5.6-1.06-9.1,4-11.9C316.5,476,314.65,472.21,313.63,466.72Zm12.81,22.34c6,1.42,7.86,4.74,6.31,10.66,3-5.34,6.76-6.4,12.19-3.26-5-4.77-3.08-8.54.83-12.51-6,3.44-9.07.67-11.64-4.46C334.89,485.59,332.51,488.65,326.44,489.06Zm134.23-51.52c6.32-.87,9,1.85,9,7.78,1.55-2.29,2.15-4.78,3.74-6,1.79-1.42,4.51.09,7-.16-1.3-2.18-3.89-2.92-4.58-5.15s1.91-4.21,1.45-6.76c-4.95,2.52-4.95,2.52-12-.53C468.16,432.18,465.56,435.15,460.67,437.54Zm-41.16,60.12c-3-6.67,1.33-8.6,6-10.75-6.27.24-8.31-3.11-8.52-8.85-1.62,6.16-5.75,6.42-10.92,5.39,5.37,3.57,4.32,7.38,1.16,11.86C412.32,491.68,416,492.81,419.51,497.66ZM281.72,446.6c1.47-1.93.55-4.72,2.09-6.31s4.61,0,6.44-1.89c-1.47-1.82-4.27-1.68-5.15-3.79s.89-4.27.24-7.58c-3.44,5.94-7.47,5.18-12.08,1.79,4,5,2.42,8.68-2.41,12.1C277.93,440.89,277.93,440.89,281.72,446.6Zm198.15-26.94c.37-5.57,2.17-9,8.6-8-1.77-2.8-5-2.51-5.69-4.69s1.09-4.42.41-7.73c-3.19,5.93-7.11,6-12,2.22,3.52,5.12,3.06,9-2.25,12.46C474.92,411.82,478.29,413.56,479.87,419.66ZM410,289c-2.63-2.1-5.33-1.1-6.76-2.91s-.4-4.35-2-7.31c-1.7,6.65-5.66,7.06-11,5,4.77,3.66,5.31,7.52,1.55,12.39,5.16-3.72,8.53-1.76,11.79,2.65C401.89,293,404,289.92,410,289ZM315.15,301.5c5.71-.1,8.76,2.28,8.93,8.75,1-7,5.6-6.77,10.61-6.47-5.4-3.08-5.32-6.92-2.32-11.77-4.88,4.24-8.65,3-12.35-1.58C322.6,296.19,320.78,299.42,315.15,301.5Zm-23.93,42.9c-1.35-5.67.27-9,6.31-10.24-6.08-.38-8.34-3.58-8.2-9.31-1.86,6.19-6,6.48-11.17,5.22,5.58,3.45,4.46,7.42,1.52,12C284.57,338.59,288,339.63,291.22,344.4Zm-9.9,72.26c-5.55-3.45-4.45-7.53-1.78-12.24-4.86,4.44-8.45,2.85-11.44-1.77-1.19,3,1,5.29-.17,7.34-1.12,1.9-4.22,1.43-5.83,4.13,6.07-.73,8.31,2.47,8.68,8.3C272.16,416,275.94,415.35,281.32,416.66Zm133.3-114.08c6.18-2.7,9.23.22,11.43,5.44-.47-6.47,3.09-8,8.65-7.93-5.35-2.23-7.38-5.46-5.1-11.29-3.57,5.14-7.4,5.18-12.14,1.57C421.33,295.75,419.63,299.27,414.62,302.58ZM471.48,327c-5.34,3.31-8.55,1-11.19-3.7,1.38,6.48-2.17,8.44-7.5,9.54,6.25.72,7.48,4.6,7.09,10.15,2.47-6.33,6.74-5.29,11.51-3.21C468.39,334.06,468.39,334.06,471.48,327Zm-25,129.43c6.05.95,7.43,4.59,6.69,9.83a11.84,11.84,0,0,0,2.59-2.63c1.38-2.12,3-2.87,5.36-1.44.74.46,1.79,1.24,2.56.45,1-1-.13-2.08-.72-2.76-1.92-2.21-1.54-4,.51-5.8.74-.66,1.78-1.29,1.61-3.22-4.92,2.93-8.54,1.4-11.17-4C455.1,453.25,452.06,455.57,446.51,456.41ZM294.71,320.06c6.05-2.77,8.68.39,11,5.41-.64-6.61,3.47-7.78,8.49-8.46-6-1.59-6.67-5.43-5.39-10.74-3.33,5.31-7.24,4.57-11.75,1.93C300.54,313.09,299.36,316.54,294.71,320.06Zm178.1,69.19c5.44-3.91,8.75-1.64,11.25,3l6.43-10.84c-6.31-2.29-6.31-2.29-7.79-9.19-1.33,2-2.22,4.25-3.88,5.53-2,1.53-4.46-1.18-7.49-.09C476.23,380.8,476.83,384.45,472.81,389.25ZM280,379.65c-5.31,2.35-8.83,1-11.33-4.39.9,6.28-2,8.68-7.51,8.93,2.21,1.53,4.51,2.2,5.94,3.7,1.64,1.7-.9,4.46,1,7.57,1.92-6.41,5.92-6.17,10.88-3.93C274.91,387,276,383.38,280,379.65Zm-13.42-23.47c5,2.86,6.39,6.35,3.53,11.74,4.45-4.72,8.33-4,12.45.29-3-5.27-1.71-8.93,3.33-11.88-6.36,1.4-8.64-1.78-9.54-7.25C275,354.35,273.14,358.05,266.56,356.18ZM296.8,449c-2.12,5.51-5.4,7.19-11.13,4.44,5.13,4.23,3.87,8.26-.21,12.8,3.34-1.14,5.32-2.3,7.34-2.39,2.48-.11,2.63,3.48,5.57,4.34-2-5.92,1.34-8.27,6.61-9.89C298.44,458.23,296.4,454.88,296.8,449Zm131.8,23.65c1.63,1.34,3.87,2.37,4.73,4.09,1,1.95-1.6,4.08-1,7.23,3.58-4.52,7.38-4.81,11.77-.66-3-5.2-1.3-8.47,3.42-11.28-6.42,1.34-8.51-2.09-9.65-7.34C436.93,470.27,434.5,473.42,428.6,472.63Z"/><path class="cls-6" d="M340.91,120.15c1.09-2.52-1.37-7.72-3.88-7.77a2.31,2.31,0,0,1-2.6-1.69c-2.81-6.57-7.3-8.57-14.25-7.69a23.54,23.54,0,0,1-12.1-1.33c-2.88-1.17-6.13-1.48-9.23-2.06-.9-.17-1.88.09-2.36-1-2.37-5.49-8-7.63-11.95-11.46a7.56,7.56,0,0,1-2.54-3.4c-1.22-4.39-3.72-6-8.18-5.7-6.34.5-11.1-3.12-11.8-9.35-.47-4.17-3.76-4.29-6.56-5.26l.83-1.53c3.86.48,6.93,2,7.67,6.25,1,5.49,4.71,8.48,10.05,7.87,3.95-.45,8.6,2.35,9.58,6.22a5.3,5.3,0,0,0,3.8,4.1,8.86,8.86,0,0,0,3.31,2.89c.71,2.89,4.51,2.51,5.44,4.88,1.4,3.58,4.24,4,7.38,4.1,5.26,1.64,10.43,3.76,16.13,2.9,4.62-2.16,8.74.17,12.09,2.48,3,2.1,4.33,6.42,8.44,7.73.65.2,1.07,1.45,1.41,2.28,1.05,2.54,2,5.12,3,7.68-.21,4.48,3.29,5.67,6.4,7.21,1.26,2,2.33,4.5,4.49,5.42,6.33,2.7,9.37,9.38,15.6,12.24,5.15,2.36,7,8.91,12.78,10.75,3.3,1.05,5,4.92,8.58,5.3a15.48,15.48,0,0,1,7.38,2.62c1.4,2,2.92,3.92,5.41,4.69a3.92,3.92,0,0,0,3.65.39l1-.34c1.37,1.38,3.35,2.16,4.1,4.17.93,2.53,2.94,2.68,5.36,3.05,4.24.67,9-.49,12.65,2.81,4.37.36,5.36,3.3,5.35,7,2.18,4.86,6.94,7,10.67,10.29-.64,4.22,2.77,3.92,5.23,4.69,1.12,1.93,2,4,3.76,5.55,2.76,2.43,4.44,5.73,6.45,8.76-.06.94.6,1.34,1.29,1.71.18,1.57,1.18,2.16,2.62,2.5,2.77.64,4,2.52,5.34,5.1,1.55,2.9-1.1,6.19,1.67,8.48.7,3.74,4.48,5.53,5.67,9L496.16,248c.37.57.75,1.14,1.13,1.7,0,.5,0,1,0,1.48L495.7,251c-3.07-1.22-5.5-4.12-8.9-4.18-3-.06-5.35-2.56-8.42-1.57-.23.08-.89-.35-.88-.51.45-5.14-5-7.18-6.06-11.55-.63-2.55.63-5.1-.77-7.72-.8-1.49-1.21-3.06-3-3.17-3.4-.21-4.65-2.72-5.84-5.19-.77-1.61-1.19-3.3-3.48-3.15a1.87,1.87,0,0,1-.93-.51c1.92-4.13-2.91-4.66-3.89-7.26-.77-2.05-2.13-3.56-4.66-3.66-.81,0-2.27-.83-2.27-1.31-.05-2.72-2.42-3.58-3.57-5.28-2.18-3.22-6.36-4.1-7.86-7.74,0-.38,0-.76-.07-1.14l-.15-1.56.12-1.44a2,2,0,0,0-1.49-2.08c-3.39-1.15-6.56-4.16-10.46-1.33l.06,0c-.68-3.63-2.89-2.53-5-1.62l-1.72-.26-3.56-2.18c-1.23-4.94-5-5.12-9-4.8-3.87-3.44-6.74-8.58-13.16-7.55L388.36,163c-.45-1.7-1.77-2.45-3.25-3.2-2.84-1.45-6.47-2.47-8.16-4.83a34.45,34.45,0,0,0-7.61-8.08,19.11,19.11,0,0,1-7.16-5.56v0a1.6,1.6,0,0,0-.84-1.63c-.61-1-1.67-.75-2.56-1-2.34-.94-3.6-3.69-6.41-3.85-1.29-3.16-2.68-6.18-7-5.68-.22-.5-.44-1-.65-1.49C343.32,125.24,343.32,122.08,340.91,120.15Z"/><path class="cls-6" d="M255.18,144.52c.1,1.72.28,3.45.28,5.17q0,47.44,0,94.9c0,2.13-.75,4.63,2.81,5,1,.09.68,1.52.49,2.43l-1.17-.09a2.11,2.11,0,0,0-2.16-.61.51.51,0,0,1,.05-.45,12.91,12.91,0,0,1-.87-4.67q.06-49.08,0-98.16C254.67,146.83,254.37,145.59,255.18,144.52Z"/><path class="cls-5" d="M245,54.69a.29.29,0,0,0,.37,0l-.17.15Z"/><path class="cls-7" d="M495.7,251l1.63.21c3.25,5.91,10.2,6.52,14.86,10.41,3,.36,3.76,4.47,7.14,4.11a15.58,15.58,0,0,1,2.79,5c.83,2.74,2.32,5.88,6.12,6.17,2.57.86,3.29,3.95,5.82,4.86.76,2.72,4.58,2.85,5.06,5.34.58,3,2.59,4.72,4.33,6.78.88,1.56,2.08,2.63,4,2.32,1.51-.24,2.35.71,3.23,1.64,0,1.3-1,2.4-.55,3.86.88,2.6,2,5.21.62,8.06-.35.72.28,1.95,1.13,1.59,3.05-1.27,5.53,1.71,8.45.9,2.21.33,2.65,3.53,5.2,3.27,5.26-.55,10.21,2.39,15.69.94,3.08-.81,7.69,3.34,6.85,5.59-1.3,3.48.61,6,1.73,8.71.82,2,1.48,3.63,1.17,5.91-.43,3.24,2.81,5.27,6,4.19,1.53-.51,3-1.09,4.37.48,2.09,2.41,4.55,2.37,7.12.78,2.83-.26,5.65-.78,7.69-2.87a10.58,10.58,0,0,1,7.54-3.07c2.08,3.42,5.26,5.8,8.1,8.5a8.53,8.53,0,0,0,5.27,2.17c6.14.72,13,.38,16,7.93a4.39,4.39,0,0,0,3.39,2.59c1.24,3.92,5.45,2.93,7.94,4.79.26,4.41,2.43,6.42,6.94,5.52a4.48,4.48,0,0,1,1.19.11c1,2.61,4.18,3.5,5.11,5.79,1.64,4,3.46,6.18,8,3.87.7-.35,2,.41,3,.66.4,3.34,1,7.08,4.41,8.18,4.05,1.3,7.17,4.71,11.65,4.8.09,1.06-.18,2.21.82,3,1.27,4.94,9.72,11.19,15.25,11.3,2,3.45,6.56,2.11,9,4.76,1.24,1.6,1.87,3.47,3.89,4.72,2.79,1.73,1.37,6.5-2.2,8.46-1.29.71-3.39.51-3.25,2.85a29.42,29.42,0,0,1-7.76,1.58c-1.42.16-3.36.9-2.55,2.18,2.61,4.09-.8,8.19.52,12.17a27.15,27.15,0,0,1,.65,3.51c.46,2.54-.77,4-3,5S712.35,451,711,449c-.71-1.09-1.09-3.23-3-2.44-1.51.62-.84,2.38-.75,3.62.16,2.23-.46,3.93-2.53,5-3.09,1.5-7.57-1.4-9.71,3.08-3.62,2.23-3.81,4.45-.37,6.88s6.13,5.07,7.08,9.24c-1.28,6.35-1.79,13.2-9.8,15.22-1.11.1-2.34-.33-3.23.72-3.67-.34-6.16,3-9.59,3.15-3.75.16-5.67,2.16-6.59,5.51-3.31,2.63-6.43,5.51-10.23,7.46-1.52,1-.93,2.32-.24,3.46,1.75,2.89,2.45,5.72.56,8.9a3,3,0,0,0,.41,3.68,2.83,2.83,0,0,0,1,1.65c3.49,3.81,6.91,7.61,6.44,13.43a17.53,17.53,0,0,0,.9,6.65c1.74,5.27-.25,10.21-2.22,14.51a48.23,48.23,0,0,0-3.78,11.81c-1.29,1.53-1.77,3.45-2.57,5.22-1.19,2.67-2.67,5.17-6.13,5.29H624.52l-16-.07v0l-.83-.55-15.22,0a133.55,133.55,0,0,0-16.13,0h-16a133.55,133.55,0,0,0-16.13,0h-16a131.36,131.36,0,0,0-16.12,0l-14.43,0-.88-.19-1.64.25-.06-.22.2-.11q0-161.59,0-323.21C495.4,255,495.6,253,495.7,251Z"/><path class="cls-4" d="M258.07,538.62q0,19.07,0,38.12c-.34.6-.67,1.2-1,1.81l-.48-24a86.59,86.59,0,0,0,0-16.18l.54-1.54Z"/><path class="cls-8" d="M256.59,538.37a86.59,86.59,0,0,1,0,16.18l-1.09-.1v0q0-8,0-16.05Z"/><path class="cls-6" d="M257.06,578.55c.33-.61.66-1.21,1-1.81.58,1,1.17,2,1.76,3.06l-1.39.38-1.55-.86A1.71,1.71,0,0,1,257.06,578.55Z"/><path class="cls-4" d="M258.43,580.18l1.39-.38c7.72.87,15.47.49,23.21.51,22.58,0,45.16-.36,67.73.1,36.33.74,72.65.07,109,.38,1.07,0,2.13-.13,3.2-.2a.84.84,0,0,0,1.17-.17l31.26-.27-.2.11.06.22c0,.39.06.78.1,1.17l-15.24.35a115.39,115.39,0,0,0-16.21.07L448,582.5H383.85a130.23,130.23,0,0,0-16.05,0c-16.05-.56-32.1-1.17-48.16-.49a123.8,123.8,0,0,0-16,0c-12-.08-24-.06-36-.28C264.54,581.69,261.18,582.47,258.43,580.18Z"/><path class="cls-9" d="M607.69,580.35l.83.55Z"/><path class="cls-6" d="M495.32,581.65c0-.39-.07-.78-.1-1.17l1.64-.25q0,.35,0,.69l-.7.84Z"/><path class="cls-9" d="M496.86,580.92q0-.34,0-.69l.88.19Z"/><path class="cls-10" d="M337,405.2c6.39-3.22,12.31-5.93,18.39-8.31,12.47-4.88,25.05-6.58,37.86-1.4,2,.81,2.26-.3,2.68-1.67a111.61,111.61,0,0,1,5.62-15.43c3.48-7.33,8.16-13.49,16.18-16.35a15.26,15.26,0,0,1,7.88-.88,7.28,7.28,0,0,1,6.14,7.72,5.53,5.53,0,0,1-3.32,5.09,5.22,5.22,0,0,1-5.95-.72c-4.22-3.44-7.24-2.68-9.7,2.13-.69,1.36-.8,2.35.48,3.49,3.09,2.75,6.14,5.56,9.06,8.5,1.47,1.48,2.4.92,3.66-.2a69.28,69.28,0,0,1,10.54-8,23.36,23.36,0,0,1,9.37-3.35,10.29,10.29,0,0,1,9.34,3.56c2.9,3.3,3.53,7.84,1.59,11.18-1.58,2.73-5.95,4.22-10,3.41a7.83,7.83,0,0,1-1.55-.4c-5.57-2.42-10.21-.58-14.26,3.29-6.66,6.38-13.18,12.91-19.85,19.28-1.72,1.63-1.82,2.39.4,3.64,2.7,1.52,6.56,3,5.79,6.78-.72,3.55-4.84,3.18-7.67,4-2.16.63-4.47.76-6.7,1.21-6,1.23-7.34,2.74-7.66,8.86-.36,7.06-.36,7.06-7.52,7.07H354.43c4.56-1.9,8.25-3.31,11.82-5a35.79,35.79,0,0,0,9.6-6.47c3.14-3,5.38-6.25,4.62-10.92-.4-2.47-.16-4.6,2.87-5.73,2.42-.89.63-2-.49-2.64a27.18,27.18,0,0,0-11.14-3c-12.42-.81-24.47,1.84-36.58,3.92-1.71.3-2.11,1.21-2.3,2.7-.52,4.31-1.6,8.39-5.08,11.43-2.06,1.8.21,2.8.94,3.95,2.29,3.62,3.45,7.31.95,11.26-2.3,3.63-5.83,5-10,4.79a9.69,9.69,0,0,1-8.84-8.45,9.87,9.87,0,0,1,6.83-10.54c2.7-.75,4.78-1.28,3.4-4.71-.14-.33.13-.8.07-1.19-.28-1.78,2.18-3.78.36-5-1.11-.77-3.34.06-5.06.22a44.31,44.31,0,0,1-9.21-.15A15.43,15.43,0,0,1,293.59,407c0-4.76,3.09-8,7.94-8.29,5.94-.33,11.41,3.23,11.42,8.23,0,3.62,1.44,4,4.25,3.63,1.32-.18,2.67-.18,4-.3,8.19-.73,9.07-1.52,10.86-9.52.37-1.69.55-3.45,1.67-4.89a3,3,0,0,1,3.93-.91c1.51.68,1.64,2,1.25,3.39C338.37,400.31,336.9,402.05,337,405.2Zm38.16,37.09c11.46,3.78,17.38-2.24,21.52-11.94,2.46-5.77,2.81-5.64,9.05-4.5a2.23,2.23,0,0,0,2.51-.66,2,2,0,0,0-.19-2.59,11.48,11.48,0,0,0-1.62-2.27c-2.2-1.86-1.67-3.28.05-5.3,4.25-5,8.93-9.56,13.49-14.25,6.33-6.54,13-12.67,21.1-17,2-1.1,4.21-2.38,6.71-.89,1.25.75,3.09,1.66,3.75-.05s-1.44-2.28-2.75-2.82a9.82,9.82,0,0,0-2.73-.46c-5.59-.57-9.74,2.66-13.66,5.75-10.1,7.94-18.7,17.45-26.95,27.26-.92,1.09-1.6,2.89-3.16,2.69s-1.4-2.07-1.8-3.28c-2.28-7-7.17-11.48-14-13.75a40,40,0,0,0-23.63-.31c-8.84,2.42-16.64,7.14-24.85,11-1.28.6-2.74,1.9-4.05.78s.16-2.71.4-4.06c.47-2.65,2.39-5.07,1.5-8-2.43,2.66-2.47,6.08-3.32,9.2-.8,2.91-2.09,5.25-5.15,6.06a49,49,0,0,1-16.2,1.9c-3.34-.25-4.8-2.15-4.2-5.42.23-1.3.85-2.55.52-3.92a3.18,3.18,0,0,0-2.72-2.58,2.2,2.2,0,0,0-2.44,1c-.79,1.35,0,2.33.91,3.14,1.31,1.14,1.21,2.6,1.09,4.07-.28,3.43,1.82,5.13,4.71,5.31,5.59.34,11.26.74,16.79-.31,3.38-.64,3.28.36,2.49,2.94-1,3.14-3.06,6.14-1.85,10.42,2.3-3.78,2.68-7.53,3.8-11a5.76,5.76,0,0,1,3.83-4.08A120.14,120.14,0,0,1,363.94,407c6.82-.72,13.86-.66,19,5.09,2.71,3.05,5.7,3.14,9.39,2.54-2.43-4.31-7.05-6-9.69-9.9,9.41.2,15.66,10.54,12.67,18.28C391.61,432.53,385.69,439.93,375.16,442.29Zm29.48-33.93c4.73-5.3,9.38-10.75,14.77-15.46.71-.62.9-1.26.15-2l-9.42-9.41c-2.39,5.21-4.14,10.17-6.83,14.55C400.5,400.63,401,404.35,404.64,408.36Zm17.88-39.24c2,.3,3.59-.31,3.53-2.33-.06-2.23-1.8-3.24-3.88-3.13-1.91.1-3.51,1.22-5.05,2.29-10.52,7.33-15.62,18.23-19.57,29.88-.38,1.11-1.6,2.78.36,3.39s1.89-1.45,2.26-2.59c2.3-7,5.08-13.82,9.28-19.88C412.56,372.28,415,365.86,422.52,369.12ZM319.23,447.56c1-.23,1.75-.73,1.65-1.88a1.49,1.49,0,0,0-1.62-1.44,1.53,1.53,0,0,0-1.65,1.8C317.68,446.94,318.37,447.39,319.23,447.56Zm8.22-6.9c-.19-1-.68-1.7-1.81-1.6a1.58,1.58,0,1,0,1.81,1.6ZM318,436.14a1.53,1.53,0,0,0-1.6,1.4,1.46,1.46,0,0,0,1.49,1.85,1.48,1.48,0,0,0,1.64-1.35C319.64,436.94,319,436.35,318,436.14Z"/><path class="cls-6" d="M258.07,538.62l-.94-1.79q-.15-15.23-.28-30.45c0-.28,0-.56.08-.83q0-7.65-.1-15.29,0-8,0-16c0-.28,0-.56.08-.83q0-7.65-.1-15.29,0-8,0-16l.08-.83q0-7.65-.1-15.29,0-8,0-15.93l.65-.19,1.23.11.06,124.68C258.75,536.07,258.91,537.44,258.07,538.62Z"/><path class="cls-11" d="M469.26,364.65c1.48-6.49,1.48-6.49-4.11-12.3,5.49.94,9.58.11,10-6.68,1.13,6,4.24,8.48,10.46,7-4.94,2.89-7.58,6-4.09,11.9C477,360.34,473.09,360.43,469.26,364.65Z"/><path class="cls-11" d="M352.56,498.49c5.57-2.29,7.83-5.46,4.74-11.47,4.31,4.81,8.26,4.74,12.59.24-3,5.14-2.91,9.18,3.35,11.95-7.78,1.11-7.78,1.11-11.14,7.53C361.89,500.13,358.65,497.75,352.56,498.49Z"/><path class="cls-11" d="M358.17,296c-7.41-1.46-7.41-1.46-12.19,4.12,1.07-6.13-.32-10.13-7.16-10.58,6.54-.7,8.79-3.93,7.83-10.16,2.45,5.44,6.05,7,11.2,4.41-.37,3.11-3.72,4.1-3.27,6.37C355,292.05,356.7,293.7,358.17,296Z"/><path class="cls-11" d="M366.33,283.89c6.69-.94,6.69-.94,10-7.49,1,5.54,3.38,9,9.82,7.08-5.21,2.94-7,6.41-3.44,11.75-6.55-2.78-6.55-2.78-12.27-.53C371.12,288,371.12,288,366.33,283.89Z"/><path class="cls-11" d="M455.74,317.28c-6.53-2.28-8.87,1.05-10.64,6.23-.28-5.92-2.86-8.76-9.21-8.06,5.6-2.27,7.21-5.81,5-11.39,4,4.39,7.72,5.73,12.33.73C450.91,309.69,449.16,314,455.74,317.28Z"/><path class="cls-11" d="M381.86,487.37c6.19,2.24,6.19,2.24,12.73-2-2.23,5.64-.85,9.25,5.08,10.83-5.52.41-9.23,2.23-9.06,8.79-1.47-5.94-4.8-7.58-10.45-5.86C384.26,495.61,386.29,492.05,381.86,487.37Z"/><path class="cls-11" d="M313.63,466.72c1,5.49,2.87,9.26,9.73,7.62-5.05,2.8-7,6.3-4,11.9-4-4.19-7.8-5.18-12.31-.59,2.6-5.18,1.95-9-3.53-11.79C309.44,474.74,312.93,473,313.63,466.72Z"/><path class="cls-12" d="M344.34,199.79c-1.92.53-3.24,2.52-5.48,2.3-.26-1.78-.92-3.17-3.08-3a1.14,1.14,0,0,1-.07-.41c4.13-.9,6.22-4.66,9.46-6.81,1.57-.09,3.33-1,2.92-2.34-.59-2-2.33-.44-3.59-.17a1.94,1.94,0,0,0-1.54,1l.05,0a4.05,4.05,0,0,0-4.08,1.59l0,0A23.15,23.15,0,0,0,327.73,196l0,0a21.72,21.72,0,0,0-10.5,4l0,0c-.83-.3-1.86.41-2.51-.45-.1-.12.52-.79.8-1.21l4-2.42c.92,0,1.91.21,2.44-.87l0,0c3.58-.82,7-2,9.72-4.63l.08-.07c1.89,0,3.58-1.28,5.53-.85.29.33.49,1,1,.27l-1.05-.26c.22-.59.45-1.19.67-1.79l0,.05c.73.1,1.36,0,1.64-.82l0,0,4.13-.69-.93,1.48c-.94.21-2.14-.08-2.58,1.33A2.91,2.91,0,0,0,343,188c2.59.33,4.58-1.84,7.12-1.73a4.29,4.29,0,0,1,1.62,3.19c-1.79,1.13-3.68,2.13-4.89,4l-1.56,1.64-.34.39.39-.34a1.61,1.61,0,0,0,1.72-1.51l2.21-.19.1,1.56Z"/><path class="cls-11" d="M326.44,489.06c6.07-.41,8.45-3.47,7.69-9.57,2.57,5.13,5.67,7.9,11.64,4.46-3.91,4-5.87,7.74-.83,12.51-5.43-3.14-9.22-2.08-12.19,3.26C334.3,493.8,332.4,490.48,326.44,489.06Z"/><path class="cls-11" d="M460.67,437.54c4.89-2.39,7.49-5.36,4.66-10.85,7.06,3.05,7.06,3.05,12,.53.46,2.55-2.18,4.43-1.45,6.76s3.28,3,4.58,5.15c-2.52.25-5.24-1.26-7,.16-1.59,1.25-2.19,3.74-3.74,6C469.68,439.39,467,436.67,460.67,437.54Z"/><path class="cls-11" d="M419.51,497.66c-3.52-4.85-7.19-6-12.27-2.35,3.16-4.48,4.21-8.29-1.16-11.86,5.17,1,9.3.77,10.92-5.39.21,5.74,2.25,9.09,8.52,8.85C420.84,489.06,416.49,491,419.51,497.66Z"/><path class="cls-11" d="M281.72,446.6c-3.79-5.71-3.79-5.71-10.87-5.68,4.83-3.42,6.37-7.13,2.41-12.1,4.61,3.39,8.64,4.15,12.08-1.79.65,3.31-1.11,5.49-.24,7.58s3.68,2,5.15,3.79c-1.83,1.91-4.83.23-6.44,1.89S283.19,444.67,281.72,446.6Z"/><path class="cls-11" d="M479.87,419.66c-1.58-6.1-4.95-7.84-11-5.73,5.31-3.43,5.77-7.34,2.25-12.46,4.92,3.82,8.84,3.71,12-2.22.68,3.31-1.07,5.6-.41,7.73s3.92,1.89,5.69,4.69C482,410.62,480.24,414.09,479.87,419.66Z"/><path class="cls-11" d="M410,289c-6,.93-8.09,4-6.4,9.81-3.26-4.41-6.63-6.37-11.79-2.65,3.76-4.87,3.22-8.73-1.55-12.39,5.37,2.07,9.33,1.66,11-5,1.55,3,.54,5.53,2,7.31S407.35,286.89,410,289Z"/><path class="cls-13" d="M382.17,214.46l-2.68-6.07-.63.05c-.19,2.83-.44,5.65-.55,8.48-.32,8.41-.57,16.82-.9,25.23-.06,1.49.52,3.91-1.51,4s-1.55-2.36-1.62-3.81c-.44-9.74-.81-19.49-1.21-29.23,0-.77-.16-1.53-.36-3.4-1.5,3.88-1.15,7.17-2.89,9.8l-.43-.36c.93-4.85,2.14-9.67,1.59-14.68l.12-2.15c1.26.12,2.88-.53,3.23,1.51.14,6.73-.94,13.5.67,20.18v17.07l1.66,0V224.8a3.07,3.07,0,0,0,.74-2.58l-.06-18.39c.29-2.11,2-1.38,3.18-1.53v.84c-.94.85-.95,1.63.15,2.35h0c0,1.13-.41,2.38.81,3.21v0C381.26,210.66,382.71,212.44,382.17,214.46Z"/><path class="cls-11" d="M315.15,301.5c5.63-2.08,7.45-5.31,4.87-11.07,3.7,4.61,7.47,5.82,12.35,1.58-3,4.85-3.08,8.69,2.32,11.77-5-.3-9.62-.49-10.61,6.47C323.91,303.78,320.86,301.4,315.15,301.5Z"/><path class="cls-11" d="M291.22,344.4c-3.2-4.77-6.65-5.81-11.54-2.33,2.94-4.58,4.06-8.55-1.52-12,5.2,1.26,9.31,1,11.17-5.22-.14,5.73,2.12,8.93,8.2,9.31C291.49,335.39,289.87,338.73,291.22,344.4Z"/><path class="cls-11" d="M281.32,416.66c-5.38-1.31-9.16-.67-10.54,5.76-.37-5.83-2.61-9-8.68-8.3,1.61-2.7,4.71-2.23,5.83-4.13,1.2-2.05-1-4.36.17-7.34,3,4.62,6.58,6.21,11.44,1.77C276.87,409.13,275.77,413.21,281.32,416.66Z"/><path class="cls-11" d="M414.62,302.58c5-3.31,6.71-6.83,2.84-12.21,4.74,3.61,8.57,3.57,12.14-1.57-2.28,5.83-.25,9.06,5.1,11.29-5.56-.07-9.12,1.46-8.65,7.93C423.85,302.8,420.8,299.88,414.62,302.58Z"/><path class="cls-11" d="M471.48,327c-3.09,7.08-3.09,7.08-.09,12.78-4.77-2.08-9-3.12-11.51,3.21.39-5.55-.84-9.43-7.09-10.15,5.33-1.1,8.88-3.06,7.5-9.54C462.93,328,466.14,330.29,471.48,327Z"/><path class="cls-11" d="M446.51,456.41c5.55-.84,8.59-3.16,7.43-9.56,2.63,5.39,6.25,6.92,11.17,4,.17,1.93-.87,2.56-1.61,3.22-2.05,1.83-2.43,3.59-.51,5.8.59.68,1.73,1.73.72,2.76-.77.79-1.82,0-2.56-.45-2.35-1.43-4-.68-5.36,1.44a11.84,11.84,0,0,1-2.59,2.63C453.94,461,452.56,457.36,446.51,456.41Z"/><path class="cls-11" d="M294.71,320.06c4.65-3.52,5.83-7,2.36-11.86,4.51,2.64,8.42,3.38,11.75-1.93-1.28,5.31-.61,9.15,5.39,10.74-5,.68-9.13,1.85-8.49,8.46C303.39,320.45,300.76,317.29,294.71,320.06Z"/><path class="cls-11" d="M472.81,389.25c4-4.8,3.42-8.45-1.48-11.57,3-1.09,5.5,1.62,7.49.09,1.66-1.28,2.55-3.54,3.88-5.53,1.48,6.9,1.48,6.9,7.79,9.19l-6.43,10.84C481.56,387.61,478.25,385.34,472.81,389.25Z"/><path class="cls-11" d="M280,379.65c-4,3.73-5.07,7.31-1,11.88-5-2.24-9-2.48-10.88,3.93-1.93-3.11.61-5.87-1-7.57-1.43-1.5-3.73-2.17-5.94-3.7,5.54-.25,8.41-2.65,7.51-8.93C271.15,380.64,274.67,382,280,379.65Z"/><path class="cls-11" d="M266.56,356.18c6.58,1.87,8.47-1.83,9.77-7.1.9,5.47,3.18,8.65,9.54,7.25-5,2.95-6.3,6.61-3.33,11.88-4.12-4.26-8-5-12.45-.29C273,362.53,271.54,359,266.56,356.18Z"/><path class="cls-11" d="M296.8,449c-.4,5.9,1.64,9.25,8.18,9.3-5.27,1.62-8.63,4-6.61,9.89-2.94-.86-3.09-4.45-5.57-4.34-2,.09-4,1.25-7.34,2.39,4.08-4.54,5.34-8.57.21-12.8C291.4,456.17,294.68,454.49,296.8,449Z"/><path class="cls-11" d="M428.6,472.63c5.9.79,8.33-2.36,9.27-8,1.14,5.25,3.23,8.68,9.65,7.34-4.72,2.81-6.42,6.08-3.42,11.28-4.39-4.15-8.19-3.86-11.77.66-.6-3.15,2-5.28,1-7.23C432.47,475,430.23,474,428.6,472.63Z"/><path class="cls-6" d="M259.05,272c1,6.77.57,13.58.37,20.35-.51,17.5.22,35,.06,52.48,0,1.44.43,2.95-.51,4.29l-1.21-.13c-.15-14.35-.47-28.7-.41-43,0-8.09.66-16.19.21-24.29l.25-9.56Z"/><path class="cls-12" d="M349.65,210.3c1.6-2.51,4-4.66,3.72-8l0,0,1.14-.81c1.52-.09,1.5-2.16,3-2.33-.09,1-.19,2-.28,2.94-.59.53-1.26,1-1.18,1.94,0,.1.21.28.27.26.88-.3,1.07-1.09,1.28-1.86,1.41-.84,1.51-3,3.37-3.36a4.46,4.46,0,0,1,2.88,1.57c-.42,3.06-2.43,5.68-2.4,8.86-.21.27-.42.55-.61.84a2.59,2.59,0,0,0,.28.23l.34-1.06,1.58-1.63c.42,2.38-2,4.09-1.53,6.49l0,0c-.78.3-.88.94-.81,1.65l0,0L359,217.55c-.61-1-.79-2.41-2.42-2.37.75-3,2.44-5.87,2.38-10l-4.77,6.59c-.24.35-.48.7-.73,1l0-.08a3.74,3.74,0,0,0-2.47,2.44l.07,0-1-.17c-.26-.81-.51-1.62-.76-2.43l0-1.6,0,0C349.76,211,349.94,210.76,349.65,210.3Zm5.13-2.82a3.9,3.9,0,0,0,.7-.85c.14-.3.12-.79-.42-.59-.28.11-.48.53-.62.85C354.39,207,354.63,207.24,354.78,207.48Z"/><path class="cls-14" d="M338.12,176.62l-4.78-.1c0-.21,0-.43,0-.65H346V175H335c3.43-2.54,7.49-.8,11.08-2.47H343c.73-1.23,3.19,0,3.2-2.22.1-2.08-1.63-1.52-2.66-1.69-2.79-.48-5.61-.77-8.58-1.16,1.93-1.23,4.59.81,5.76-2,2.08-.32,4.38.89,6.25-.91,1.06-.07,1.61-.39.48-1.26-.92-.71-2.31-.73-2.91-1.94,2.06,0,4.21-.2,5,2.41-2.12,5.51-2.23,11.18-1.44,16.93l-7.6,1.63c-.74-.19-1.91-.39-.33-1.11,1.75-.79,3.64-1.27,5.43-2,1.46-.6.74-.91-.24-1.07C343.53,174.91,340.54,177.08,338.12,176.62Z"/><path class="cls-13" d="M346.19,170.3c0,2.27-2.47,1-3.2,2.22l-36.78,1.41.05,1.1a252.6,252.6,0,0,1,27.1.84c0,.22,0,.44,0,.65-9,.44-18.06-.47-27.08-.75-1.05,0-2.38-.11-2.36-1.53s1.39-1.44,2.42-1.47c5.71-.18,11.42-.26,17.13-.46,4.88-.17,9.76-.43,14.64-.72.43,0,.82-.56,1.42-1-2.8-.69-5.57-.44-7.87-2Z"/><path class="cls-13" d="M369.82,219.49c-2.6,5.47-4.2,11.1-3.78,17.3a8.59,8.59,0,0,1-3.34,7c-.68.59-1.54,1.28-2.46.47s-.25-1.5.28-2.08c2-2.24,1.83-4.86,1.39-7.54a24.44,24.44,0,0,1,2-14c2-4.58,3.48-9.33,1.42-14.36l0,0c.06-.88,0-1.82.77-2.47,1.82,2,.49,4.35.93,6.5-.14,3.8.54,7.72-1.74,11.19-4.13,5.89-1.53,12.43-1.58,18.76.77-6.3,1.41-12.6,3.32-18.67h0l.83-.81c.52-.55,1-1.1,1.55-1.64Z"/><path class="cls-12" d="M345.4,129.16c4.28-.5,5.67,2.52,7,5.68-.8.7-.46,1.3.11,2,1.66,1.95,3.28,3.94,4.92,5.91-.32,2.2,2.6,2.89,2.35,5.06l-3.1-2.52-.82-.79-.47-.32.33.47.75.86c.2,2,2.21,3.33,1.77,5.5l-1.63-.1-.12-1q-3.15-3.9-6.29-7.79c-.54-1.05-1.08-2.11-1.61-3.17C348.82,135.26,346.58,132.38,345.4,129.16Z"/><path class="cls-13" d="M342.61,163.33Q326.76,156.18,310.9,149c-.91-.41-2.18-.86-1.59-2.28.36-.89,1.36-.86,2.11-.59,7,2.54,14.15,4.61,20.75,8.12.19.1.25.46.37.7-5.16-1.41-9.82-4.36-15.27-4.82-.3-.2-.59-.41-.89-.6a3.15,3.15,0,0,0-.23.29l1.09.34a132.42,132.42,0,0,0,15.23,7.22,23.79,23.79,0,0,0,9.62,4.05c.28.51.57,1,.85,1.54C342.83,163.08,342.72,163.21,342.61,163.33Z"/><path class="cls-15" d="M357.44,199.16c-1.47.17-1.45,2.24-3,2.33-.18-.49-.52-.86-1-.54s-.87.83-.11,1.35l0,0c-2.08-1.18-2.48,1.49-3.94,1.71l-.15-.15c-.24-1.31-.48-2.62-.73-3.94a1.13,1.13,0,0,0,.27-.13c.05,0,0-.13.06-.2l-.34.32-3.18,2.44-.34-.39c.15-.34.29-.68.43-1,1.3-2,4.75-2.56,3.94-5.95,0-.52-.07-1-.1-1.56l0,0c.27-.28.55-.55.82-.82h0c.34-.19,1.49.5.86-.77a1.84,1.84,0,0,1,1.68-.81l7.1,6.45-1.45.87-.63-.36-.26,1.09Z"/><path class="cls-12" d="M411.21,194a4,4,0,0,1,2.33,1.63,3.65,3.65,0,0,0,2.48,2.64l0,0,.83.85v0c-.05.32-.09.64-.14,1l-2.43.74-1.62.08.08,0c-.28-.28-.57-.55-.86-.82l0,.06c-.75-1.79-2.28-2.3-4-2.46l0,0a19.91,19.91,0,0,0-8.52-4.21l-1.11-1.64.59-.66c1.12.35,2.11,1.22,3.41.85a.8.8,0,0,0,.81.79l.84.63.29-.46-1.06-.24a.78.78,0,0,0-.79-.81l-1.69-2.39,3.27.9C406.24,191.77,408.51,193.3,411.21,194Z"/><path class="cls-13" d="M386.91,211.29a37.75,37.75,0,0,1,.75,11.12,21.64,21.64,0,0,0,2.25,11.22,11.37,11.37,0,0,1,.51,9.67c-.37.88-1,1.78-2.05,1.51-1.35-.34-.89-1.46-.61-2.3,1-3-1.16-5.33-1.7-8,2.84.79,1.9,4.2,3.95,5.73.7-2.07-.07-3.86-.84-5.46a33.07,33.07,0,0,1-2.95-15.53c.06-2.18.77-4.54-.7-6.59l-.09-4.25Z"/><path class="cls-12" d="M385.52,212.65c1.47,2.06.76,4.42.7,6.6a33.07,33.07,0,0,0,2.95,15.53c.77,1.6,1.54,3.39.84,5.46-2.05-1.53-1.11-4.94-3.95-5.73l.1,0a42.37,42.37,0,0,1-2.39-16.93c.07-.91-.52-1.43-1.39-1.63l-.21-1.44c.54-2-.91-3.8-.7-5.78l1.58.84,0,0c0,.52.05,1,.07,1.56l2,8,.32,0v-6.26Z"/><path class="cls-15" d="M390.92,215.19c-2.35-.82-1.69-3.48-3-4.92l-2.55-6.05,0-2.85c.73-1.27,2-1.49,3.28-1.68,1.57,3.18,1.82,6.94,4.26,9.74l-.05,0a4.67,4.67,0,0,0,.64,3.34C392.43,213.36,392.69,215.33,390.92,215.19Z"/><path class="cls-13" d="M347,164.58c-1.87,1.8-4.17.59-6.26.91l-8.18-.13c-7.45-5-15.69-4.23-24-3.26a5,5,0,0,0-.42.36,3.62,3.62,0,0,1-2.1-1.73c-.4-.68-.83-1.46,0-2.15.63-.54,1.27-.2,1.76.26,2.44,2.34,5.43,2,8.29,1.5a22,22,0,0,1,13.53,2.19c3.95,1.94,8.17,2.15,12.43,2.18,1.37,0,1.86-.32.58-1.38.11-.12.22-.25.33-.36Z"/><path class="cls-16" d="M335.78,199.08c2.16-.16,2.82,1.23,3.08,3a.39.39,0,0,1-.47.25c-3.77-.05-7,1.06-9.08,4.42l-.14.26-1.39.6-1.11,1.07c-2,.33-2.75,2.43-4.46,3.11-1.14.46-2.62,2.08-3.27-.57a3.32,3.32,0,0,0,3.24-2.45c.63-.08,1.28-.16,1.46-.94l0,0c1.82-1.21,3.69-2.37,4-4.82v0a4.44,4.44,0,0,0,4-2.45l0,0A4.61,4.61,0,0,0,335.78,199.08Z"/><path class="cls-13" d="M343.76,186.27l-4.13.69c.93-2.43-1.07-1.52-1.83-1.41-7.89,1.21-16.16-.32-23.73,3.21.76-1.42,2.32-1.61,3.57-2.23,4-2,8.28-.68,12.41-1.18,1.39-.08,2.93.62,4.07-.76a9.46,9.46,0,0,0,6.44-1.5c2.78,0,5.31-1.17,8-1.65v2.4h0a1.64,1.64,0,0,0-1.62.83h0a1.5,1.5,0,0,0-1.62.8h0a1.5,1.5,0,0,0-1.61.81Z"/><path class="cls-12" d="M340.23,149.31l7.55,4.13,1.49,1.59-2.26-.16c-.3-.36-.84-.84-1.09-.37s.53.45.87.64l1.78,2.21-4.12-.1-6.33-4.2c0-.6-.22-1.11-.89-1.26l0,0-.78-1.79.75-3,.94-.13h0l.84.84,0,0Z"/><path class="cls-15" d="M404.3,205.87l-2.74-2c-1.42-1.59-2.53-3.57-4.92-4l.06,0a1.28,1.28,0,0,0-1.18-1.58l0,.7c-.68.1-1.4-.77-2.05.08a1.9,1.9,0,0,1-.76-1.74,4.45,4.45,0,0,1,2.91-2.41c1,1.07,1.76,2.43,3.44,2.59l.81.79c.25.56.54,1.09,1.27,1.06a.38.38,0,0,0,.19-.3c-.1-.82-.75-.81-1.35-.88l-.78-.8,0-1.55,4.15,2.37,1.45,1.54c0,.31,0,.63-.05.94-.59.3-.49.55.05.76h0a1.55,1.55,0,0,0,.81,1.61h0l.8.8h0a1.66,1.66,0,0,1-1.62.81,1.34,1.34,0,0,0-.13-.27s-.13,0-.2-.06l.32.34c0,.26,0,.52,0,.78A5.22,5.22,0,0,0,404.3,205.87Z"/><path class="cls-13" d="M346.49,220.32c-1.06,2.42-2.09,4.85-3.2,7.25-1.34,2.86-3.32,5.1-6.49,6a1.69,1.69,0,0,1-2.11-.59c-.14-.25,0-.95.15-1,5.41-2.74,4.7-8.87,7.32-13.13a16.56,16.56,0,0,1,1.2-1.56l.45.37-4.1,12-1,1,.47.3.6-1.28c2.26-.43,2.36-2.54,3.07-4.1.9-2,1.33-4.22,3.24-5.61Z"/><path class="cls-13" d="M396.71,219.64c2.88,6,4.8,12.3,7.13,18.48.35.92,1,2.16-.53,2.69-1.14.4-1.64-.57-2-1.43-1.68-3.73-3.93-7.21-4.81-11.27,1.73.44,1.26,2.85,3.36,3.47C399.52,227.26,396.22,223.89,396.71,219.64Zm4.55,15.92c.27-1.13.06-1.71-.48-2.13a.76.76,0,0,0-.61.06C400,234.33,400.47,234.93,401.26,235.56Z"/><path class="cls-15" d="M356.45,149.91l.12,1-.12,1.76a2.29,2.29,0,0,1-.69-.08c-2.09-.68-2.92-3.62-5.65-3.18a1.41,1.41,0,0,0-.7,1.52l-.24.22-3.07-3.21c0-1.1-.46-1.73-1.61-1.74l0,0c0-1.23-.43-2.15-1.85-2.2h0l-.57-1.81,1.85-.87,1.61-.27,0,.07a.76.76,0,0,0,.84.81l0,0a4.51,4.51,0,0,0,3.87,3.41v0c0,1.14.59,1.65,1.7,1.61C353.59,147.63,354.23,150,356.45,149.91Z"/><path class="cls-4" d="M257.76,349l1.21.13-.18,29.52c0,.34,0,.68,0,1l-.09,30.39-1.23-.11.24-15.7c0-.71,0-1.42-.05-2.13q0-15,.05-30c0-.71,0-1.42-.05-2.13Q257.71,354.54,257.76,349Z"/><path class="cls-16" d="M330.05,185.35c-4.13.5-8.43-.78-12.41,1.18-1.25.62-2.81.81-3.57,2.23l0-.06-5.16-.24,14.16-6.26a1.2,1.2,0,0,1,.7.06l5.62.07C329.62,183.34,329.84,184.35,330.05,185.35Z"/><path class="cls-12" d="M342.08,161.43a23.81,23.81,0,0,1-9.61-4.05,2.77,2.77,0,0,0,1.7-1.9c2.62.94,5.8.13,8,2.51,2.6,2,5.76,2.48,8.79,3.35a2.58,2.58,0,0,1-1.4,2.45c-.79-2.61-2.94-2.41-5-2.41h0a2.34,2.34,0,0,0-2.55-1.32c-.62.13.1.8.2,1.24Z"/><path class="cls-13" d="M355.09,228c-.66,4.41-3.3,8-5,12-.33.76-1.08,1.38-1.89.85a1.88,1.88,0,0,1-.52-1.73c1.74-4.62,2.41-9.69,5.63-13.7-.06,2.55-1.91,4.72-1.55,7.35-.21.3-.41.59-.6.89a3.15,3.15,0,0,0,.29.23l.34-1.09C353.43,231.59,353.15,229,355.09,228Z"/><path class="cls-12" d="M396.71,219.64c-.49,4.25,2.81,7.62,3.13,11.94-2.1-.62-1.63-3-3.36-3.47l.08-.05c-.53-3.5-1.47-6.79-4.65-8.91l-1-4c1.77.14,1.51-1.83,2.53-2.46.09.83-.11,1.79.88,2.27C396.25,216,395.47,218.32,396.71,219.64Z"/><path class="cls-13" d="M332.12,132.83c-2.22-2.29-4.45-4.56-6.63-6.89-.71-.75-1.63-1.7-.44-2.7.92-.78,1.75,0,2.42.64,2.61,2.47,5.18,5,7.77,7.44-.14.15-.27.31-.41.47-.7.35-2.1-1.74-2.23.63Z"/><path class="cls-13" d="M433.1,196.34c2.66,1.14,5.33,2.27,8,3.45.87.38,1.71,1,1.23,2.11s-1.53.86-2.39.53c-5.42-2.05-10.83-4.14-16.24-6.22l.3-.37c3.74.19,6.89,2.64,11.37,3.19-1.27-1.15-1.93-1.74-2.58-2.34Zm4,3.19c-.05-.09-.08-.23-.16-.25s-.21,0-.32,0l.22.39Z"/><path class="cls-16" d="M355.09,228c-1.94,1-1.66,3.57-3.32,4.77l0,0c-.36-2.63,1.49-4.8,1.55-7.35-.24-3.84,3.07-6.54,3.27-10.23,1.63,0,1.81,1.38,2.42,2.37-1,3.63-3.75,6.55-4,10.46Z"/><path class="cls-12" d="M332.52,165.36l8.18.13c-1.16,2.77-3.82.73-5.75,2,3,.39,5.79.68,8.58,1.16,1,.17,2.76-.39,2.66,1.69l-14.55-1.69-1.53-1-.84-1.42C330.1,165,331.39,165.48,332.52,165.36Zm.3,1.25-.61-.05c.09.07.19.2.29.21S332.71,166.67,332.82,166.61Z"/><path class="cls-13" d="M433.09,210a8.14,8.14,0,0,1,1.26,1.52c.63,1.28,1.72,3,0,3.88-1.44.8-1.72-1.2-2.37-2-1.4-1.84-3.43-2.41-5.48-3.05-3.68-1.14-7.43-2.19-10.07-5.32.11-.14.22-.27.34-.4,4.15,1.9,7.85,5,12.76,4.92l0,0c1,.33,1.41,2.88,3.11.9Z"/><path class="cls-13" d="M323.09,182.2l-14.16,6.26,5.16.24c-1.35,1.5-3.1,1.2-4.75.91s-4.12-.51-3.88-2.56,2.42-.6,3.69-.6c2.14,0,3.76-1.15,5.6-1.88C317.43,183.49,319.71,180.85,323.09,182.2Z"/><path class="cls-13" d="M329.41,182.33l-5.62-.07c1.11-2,3-1.28,4.6-1.2,4.83.26,9.19-1.2,14-3.35l-4.27-1.09c2.42.46,5.41-1.71,7.23,1.55l-9.59,3.34h-2.41l-2.56.82Z"/><path class="cls-12" d="M340.91,120.15c2.41,1.93,2.41,5.09,3.84,7.52l-2.22-.77-3.59-3.51c-.06-.6-.22-1.12-.89-1.31l0,0c-.23-1.48-.44-3-1.64-4.06l0,0,0-3.29,0,0,1.78.13C337.89,117.34,339.41,118.74,340.91,120.15Z"/><path class="cls-13" d="M318.5,138.47a8.36,8.36,0,0,1-1.23-1.52c-.64-1.27-1.67-2.91,0-3.82,1.49-.81,1.71,1.18,2.33,2,1.27,1.73,3.12,2.34,5,2.94,2.5.79,5.16,1.2,7.2,3.07l-.24.28c-3.95-1-7.94-2-11.5-4.1-.9-.54-1.13-.17-1.14.68C318.8,138.18,318.64,138.32,318.5,138.47Z"/><path class="cls-16" d="M334.17,155.48a2.77,2.77,0,0,1-1.7,1.9,132.42,132.42,0,0,1-15.23-7.22l0,0c5.45.46,10.11,3.41,15.27,4.82A1.54,1.54,0,0,1,334.17,155.48Z"/><path class="cls-13" d="M331.17,221c-1.32,1.31-2.61,2.65-4,3.91-.74.69-1.68,1.06-2.44.1-.61-.77-.07-1.56.47-2.14,2.56-2.72,5.15-5.4,7.73-8.09l.35.35c-.53,1.06-1.07,2.12-1.61,3.18l0,0a2.68,2.68,0,0,0-1.88,1.74c-.16.66.6.57,1.06.62Z"/><path class="cls-16" d="M409.77,211.06l-1.8-1.63,0-1.54a2.58,2.58,0,0,1,1.55-1.55l.88-.09h0a2.16,2.16,0,0,0,2.41,2.43l0,0c-.06,1.15.47,1.7,1.62,1.63h0c0,1.72,1,2.58,2.45,3.21l0,0c.24,1.23,1.73,1.86,1.58,3.28-1.84,0-2.59-1.63-3.79-2.6C413.07,213,412.14,210.88,409.77,211.06Z"/><path class="cls-13" d="M411.26,223.82c3,1.82,4.14,4.68,4.49,8,.12,1.19.09,2.68-1.37,2.91s-1.25-1.32-1.55-2.26c-.37-1.12-.8-2.22-1.2-3.34.13-.14.25-.28.39-.42.4-.19,1.12-.34,1.14-.57.09-.81-.61-.9-1.24-.95v0l-.93-3.12Zm2.88,6.47L414,230c-.08.08-.23.2-.21.22a1.87,1.87,0,0,0,.29.34Z"/><path class="cls-13" d="M382.38,215.9c.87.2,1.46.72,1.39,1.63a42.37,42.37,0,0,0,2.39,16.93c-3.1-3.19-3.37-7.31-3.64-11.4C382.36,220.68,382.42,218.29,382.38,215.9Z"/><path class="cls-13" d="M318.94,211.23c.65,2.65,2.13,1,3.27.57,1.71-.68,2.47-2.78,4.46-3.11-1,3.61-4.11,4.62-7.21,5.4-1.48.37-3.78.66-4-1.31S317.64,211.52,318.94,211.23Z"/><path class="cls-13" d="M335.44,150.39c-3.9-5.21-10.06-7.09-15.28-10.35.14-.14.27-.29.4-.43,5.87,2.32,12,4.21,15.28,10.4Z"/><path class="cls-13" d="M422.51,219c1.32,1.31,2.65,2.6,3.95,3.93.57.6,1,1.4.46,2.14-.73.94-1.74.62-2.46-.05-1.65-1.53-3.21-3.16-4.81-4.76l.41-.4c.79.17,2,1.85,2.11-.54Z"/><path class="cls-13" d="M422.05,185.77a35.63,35.63,0,0,0-12.07-2c-1.08,0-2.25-.16-2,1.55l-1.74.09h0a1.59,1.59,0,0,0-1.64-.81V184c.91-1.57,2.43-1,3.75-1.07,4.71.45,9.77-1,13.94,2.48C422.26,185.53,422.16,185.65,422.05,185.77Z"/><path class="cls-13" d="M315.6,198.28c-.28.42-.9,1.09-.8,1.21.65.86,1.68.15,2.51.45-1.74,1.54-4.05,1.8-6.1,2.63a1.37,1.37,0,0,1-1.92-.86,1.33,1.33,0,0,1,.8-1.64C311.85,199.27,313.42,197.81,315.6,198.28Z"/><path class="cls-13" d="M392.86,209.43c-2.44-2.8-2.69-6.56-4.26-9.74l1.64-.79c0,2.76,3.69,3.59,3.33,6.51v0c-.68-.41-1.64-1.4-1.57.4A18.24,18.24,0,0,0,392.86,209.43Z"/><path class="cls-13" d="M403.27,198.24l-4.15-2.37.24-2.51a19.91,19.91,0,0,1,8.52,4.21l-4.45-1.3c-.5-.06-1.33-.31-1.42-.14-.39.68.46.63.76.92Z"/><path class="cls-13" d="M355,228c.21-3.91,3-6.83,4-10.46l1.71-1.58A31.41,31.41,0,0,1,355,228Z"/><path class="cls-13" d="M350.93,161.34c-3-.87-6.19-1.38-8.79-3.35,1,.35,1.59-.33,2.31-.74l4.11.1h0c-.18,1.25,1,1.54,1.58,2.29l.81,1A5.46,5.46,0,0,1,350.93,161.34Z"/><path class="cls-4" d="M259.05,272l-1.24.09-.57-6.43c.76-4.58.13-9.2.37-13.79l1.17.09Z"/><path class="cls-13" d="M325,165.68a36.82,36.82,0,0,0-11.26-1.12,6.69,6.69,0,0,1-4.07-1.18c.14-.15.26-.3.39-.46a53.93,53.93,0,0,0,11.35.86,5,5,0,0,1,3.92,1.51Q325.19,165.5,325,165.68Z"/><path class="cls-13" d="M342.53,126.9l2.22.77c.21.5.43,1,.65,1.49,1.18,3.22,3.42,6.1,3.15,9.79C346.41,135,345.49,130.44,342.53,126.9Z"/><path class="cls-13" d="M435.1,187c0,.38,0,.76.07,1.14a16.91,16.91,0,0,1-11.47-1.6l.28-.35A35.55,35.55,0,0,0,435.1,187Z"/><path class="cls-8" d="M411.21,194c-2.7-.67-5-2.2-7.29-3.64l.77-.87c1.36-.22,2.48.52,3.69.91l2.76,1.56C411.16,192.61,411.18,193.29,411.21,194Z"/><path class="cls-13" d="M409.77,211.06c2.37-.18,3.3,1.89,4.79,3.08,1.2,1,1.95,2.58,3.79,2.6l0,0c0,.51.07,1,.1,1.53l-.5.46C415.11,216.27,412.09,214,409.77,211.06Z"/><path class="cls-13" d="M327.73,196A23.15,23.15,0,0,1,339,191.91,31.61,31.61,0,0,1,327.73,196Z"/><path class="cls-13" d="M391.91,219.15c3.18,2.12,4.12,5.41,4.65,8.91C394.19,225.52,393.44,222.13,391.91,219.15Z"/><path class="cls-8" d="M356.45,149.91c-2.22.05-2.86-2.28-4.56-3-.32-.49-.63-1-.95-1.49l-.78-3.28Q353.29,146,356.45,149.91Z"/><path class="cls-13" d="M420.89,202.94l9.05,4.55-.45.5c-3.3-1-6.84-1.44-8.86-4.77Z"/><path class="cls-13" d="M317.27,200a21.72,21.72,0,0,1,10.5-4A27.77,27.77,0,0,1,317.27,200Z"/><path class="cls-13" d="M345.55,141l-1.62.27c-1.18-2-3.77-3-4.34-5.5l.23-.2A19.78,19.78,0,0,1,345.55,141Z"/><path class="cls-9" d="M349.39,195c.81,3.39-2.64,3.95-3.94,5.95l-1.11-1.12Z"/><path class="cls-15" d="M349.26,155l-1.48-1.59c1.76,0,1.62-1.14,1.39-2.33l.24-.22,1.58,0h0l.82.82v0c-.66,1.28,1.39,3.13-.85,4.08h0a1.43,1.43,0,0,0-1.6-.8Z"/><path class="cls-13" d="M331.74,190.39C329,193,325.6,194.2,322,195,324.87,192.67,328.32,191.57,331.74,190.39Z"/><path class="cls-13" d="M418.35,216.74c.15-1.42-1.34-2.05-1.58-3.28,2.76,1,4.12,3.39,5.74,5.53l-.34.31-2.23-1,0,0a2.41,2.41,0,0,0-1.63-1.62Z"/><path class="cls-8" d="M385.35,204.22l2.55,6.05-1,1-1.48-2.87-.57-1.08C385.3,206.34,384.14,205.1,385.35,204.22Z"/><path class="cls-13" d="M329.31,206.76c2.11-3.36,5.31-4.47,9.08-4.42Z"/><path class="cls-13" d="M361.44,214.38c-.47-2.4,1.95-4.11,1.53-6.49h0l1.6-.82.32.31C364.07,209.88,363.4,212.45,361.44,214.38Z"/><path class="cls-15" d="M401.62,207a14.76,14.76,0,0,1,3.13,7.18c-.06.34-.12.69-.17,1A5.62,5.62,0,0,1,403,212a4.45,4.45,0,0,0-1.52-2.51l-.06-2.37Z"/><path class="cls-13" d="M343,190.38a1.94,1.94,0,0,1,1.54-1c1.26-.27,3-1.79,3.59.17.41,1.37-1.35,2.25-2.92,2.34C346.73,188,343.28,191.5,343,190.38Z"/><path class="cls-8" d="M396.64,199.89c2.39.41,3.5,2.39,4.92,4l-.95,1-2.28-2.12Z"/><path class="cls-13" d="M422.65,191.55a24.91,24.91,0,0,1,7.16,3.25l-.27.31a14.12,14.12,0,0,1-7.2-3.23Z"/><path class="cls-13" d="M350.09,215.08l1,.17-4.58,5.07-.43-.45C346.59,217.6,348.49,216.47,350.09,215.08Z"/><path class="cls-13" d="M413.88,187.48a28.78,28.78,0,0,1,7.13,3.27l-.29.34c-2.56-.71-5.15-1.36-7.2-3.22Z"/><path class="cls-13" d="M341,142.41a13.47,13.47,0,0,1-3.84-4.15l.3-.29a5.68,5.68,0,0,1,3.91,4.11Z"/><path class="cls-13" d="M327.66,203.05c-.35,2.45-2.22,3.61-4,4.82A6.83,6.83,0,0,1,327.66,203.05Z"/><path class="cls-15" d="M344,209a14.34,14.34,0,0,1-4,3.79l-1.06-.08a11.4,11.4,0,0,1,4.78-4.05Z"/><path class="cls-13" d="M338,187.69c-.22.6-.45,1.2-.67,1.79h0c-2-.43-3.64.89-5.53.85A12.12,12.12,0,0,1,338,187.69Z"/><path class="cls-13" d="M423.68,196.21a24,24,0,0,1-6.42-2.4l.29-.37a11.25,11.25,0,0,1,6.43,2.4Z"/><path class="cls-13" d="M406.06,224.17a7,7,0,0,1-3.28-3.9l.42-.41c1.34,1.13,2.87,2.12,3.12,4.08Z"/><path class="cls-13" d="M404.58,215.19c.05-.34.11-.69.17-1,.9,1.8,1.8,3.61,2.71,5.41L407,220A6.06,6.06,0,0,1,404.58,215.19Z"/><path class="cls-13" d="M411.14,191.93l-2.76-1.56a9.72,9.72,0,0,1,6.78,2.26l-.26.3Z"/><path class="cls-13" d="M334.23,142.79a6.38,6.38,0,0,1,3.26,3.17c-.1.11-.21.21-.31.3a4.34,4.34,0,0,1-3.23-3.18A3.83,3.83,0,0,0,334.23,142.79Z"/><path class="cls-13" d="M329.26,166.22l.85,1.42c-2,.16-3.5-1-5.09-2,.11-.12.22-.25.32-.38Z"/><path class="cls-12" d="M406.28,185.46l1.74-.09,2.25.87.91,1.55-.13.16-2.35-.11,0,0C408.25,186.71,406.56,186.81,406.28,185.46Z"/><path class="cls-13" d="M402.78,220.27a8.34,8.34,0,0,1-2.31-4.94l.27-.25.76,0,1.71,4.74C403.06,220,402.92,220.13,402.78,220.27Z"/><path class="cls-13" d="M333.78,214A17.61,17.61,0,0,1,338,209.4l.18.17c-.55,2.28-2.36,3.48-4.07,4.77Z"/><path class="cls-13" d="M400.47,215.33l-2.38-4.83.26-.25,1.44.15c.32,1.56.63,3.12.95,4.68Z"/><path class="cls-13" d="M335.78,199.08a4.61,4.61,0,0,1-4.13,1.56c.84-1.73,2.54-1.66,4.06-2A1.14,1.14,0,0,0,335.78,199.08Z"/><path class="cls-13" d="M416.65,200c.05-.32.09-.64.14-1l4.1,3.92-.26.28C418.71,202.86,417.78,201.29,416.65,200Z"/><path class="cls-13" d="M394.33,215c-1-.48-.79-1.44-.88-2.27a4.67,4.67,0,0,1-.64-3.34A7,7,0,0,1,394.33,215Z"/><path class="cls-13" d="M331.67,200.62a4.44,4.44,0,0,1-4,2.45C328.6,201.61,329.78,200.53,331.67,200.62Z"/><path class="cls-15" d="M407.94,207.89l0,1.54a13,13,0,0,1-3.67-3.56,5.22,5.22,0,0,1,.43-.39Z"/><path class="cls-13" d="M407.84,197.55c1.74.16,3.27.67,4,2.46A5.63,5.63,0,0,1,407.84,197.55Z"/><path class="cls-13" d="M350.2,145.3a4.51,4.51,0,0,1-3.87-3.41A9.06,9.06,0,0,1,350.2,145.3Z"/><path class="cls-13" d="M344.41,215.82a4.18,4.18,0,0,1,2.34-2.48l.33.3a2.85,2.85,0,0,1-2.4,2.43Z"/><path class="cls-13" d="M339.57,207.75a4.92,4.92,0,0,1,2.3-2.5l.3.28a2.54,2.54,0,0,1-2.39,2.45Z"/><path class="cls-13" d="M338.93,191.94a4.05,4.05,0,0,1,4.08-1.59C342,191.67,340.48,191.89,338.93,191.94Z"/><path class="cls-13" d="M412.77,208.68a2.16,2.16,0,0,1-2.41-2.43A3,3,0,0,1,412.77,208.68Z"/><path class="cls-13" d="M411.18,187.79l-.91-1.55c1.53-.57,2.46.65,3.61,1.24l-.36.39Z"/><path class="cls-13" d="M408.62,226.47a4.53,4.53,0,0,1-2.56-2.3l.26-.23a2.52,2.52,0,0,1,2.53,2.28Z"/><path class="cls-13" d="M406,201.05l2.28,2.51c-.12.11-.23.23-.35.35l-1.57,0h0l-.8-.8h0l0-1.59A3.89,3.89,0,0,0,406,201.05Z"/><path class="cls-13" d="M336.44,118.06c1.2,1.09,1.41,2.58,1.64,4.06A4.33,4.33,0,0,1,336.44,118.06Z"/><path class="cls-15" d="M398.33,202.74l2.28,2.12c.12.39.24.77.37,1.15l-.32.32C399.29,205.52,398.19,204.53,398.33,202.74Z"/><path class="cls-13" d="M337.16,138.26l-2.73-2.89a6.38,6.38,0,0,0,.53-.51,4.69,4.69,0,0,1,2.5,3.11Z"/><path class="cls-13" d="M429.94,207.49a4,4,0,0,1,2.34,1.71c-.13.13-.25.27-.37.4l-2.35-.1,0,0-.09-1.53Z"/><path class="cls-13" d="M412.6,200.8l1.62-.08,1,2.28-.39.35A4.47,4.47,0,0,1,412.6,200.8Z"/><path class="cls-13" d="M407.46,219.57c.72.89,1.44,1.78,2.17,2.66l-.22.25A2.67,2.67,0,0,1,407,220Z"/><path class="cls-15" d="M347,206.32a7.92,7.92,0,0,1-3,2.69l-.29-.34c.74-1.24,1.61-2.3,3.2-2.42Z"/><path class="cls-13" d="M416.8,213.49c-1.4-.63-2.48-1.49-2.45-3.21C415.52,211.08,416.84,211.77,416.8,213.49Z"/><path class="cls-13" d="M338.26,214.47l-2.5,2.31-.16-.16a2.62,2.62,0,0,1,2.43-2.38Z"/><path class="cls-13" d="M334.43,135.37l-2.31-2.54.48-.41,2.36,2.44A6.38,6.38,0,0,1,334.43,135.37Z"/><path class="cls-13" d="M351,215.22a3.74,3.74,0,0,1,2.47-2.44A2.9,2.9,0,0,1,351,215.22Z"/><path class="cls-13" d="M416,198.24a3.65,3.65,0,0,1-2.48-2.64C414.66,196.2,415.73,196.85,416,198.24Z"/><path class="cls-13" d="M338.26,115l-1.78-.13c0-.74.48-1.19,1.19-1C338.18,113.89,338.38,114.42,338.26,115Z"/><path class="cls-13" d="M336.5,114.82l0,3.29C335.46,117,335.7,115.91,336.5,114.82Z"/><path class="cls-13" d="M338.92,212.72l1.06.08-1.72,1.67-.23-.23C338.33,213.74,338.62,213.23,338.92,212.72Z"/><path class="cls-13" d="M336.94,132.91l2.05,1.92-.18.21a2.78,2.78,0,0,1-2.35-1.69C336.63,133.21,336.79,133.06,336.94,132.91Z"/><path class="cls-13" d="M333.7,218.72,332,220.26l-.35-.35c0-.52,0-1,0-1.56l0,0h1.58C333.42,218.46,333.56,218.59,333.7,218.72Z"/><path class="cls-13" d="M414.37,210.29c-1.15.07-1.68-.48-1.62-1.63A1.86,1.86,0,0,1,414.37,210.29Z"/><path class="cls-13" d="M419.65,220.25l-1.72-1.54.5-.46,1.53.09,0,0,.12,1.53Z"/><path class="cls-13" d="M411.63,229.09l-1.69-1.51c.15-.16.29-.32.43-.49l1.56.08v0c0,.51.06,1,.1,1.52C411.88,228.81,411.76,229,411.63,229.09Z"/><path class="cls-13" d="M342.66,144c1.42.05,1.82,1,1.85,2.2A3.58,3.58,0,0,1,342.66,144Z"/><path class="cls-13" d="M335.24,131.32l1.7,1.59c-.15.15-.31.3-.48.44l-1.63-1.56C335,131.63,335.1,131.47,335.24,131.32Z"/><path class="cls-13" d="M340.23,149.31,339,147.67C340,147.71,340.1,148.54,340.23,149.31Z"/><path class="cls-13" d="M322.05,195c-.53,1.08-1.52.87-2.44.87A2.68,2.68,0,0,1,322.05,195Z"/><path class="cls-15" d="M349.43,204l-1.65,1.56-.09-.08a1.57,1.57,0,0,1,1.59-1.63Z"/><path class="cls-13" d="M417.26,193.81l-2.36-.89.26-.29c.87,0,1.81-.09,2.39.81Z"/><path class="cls-13" d="M350.94,145.4c.32.5.63,1,.95,1.49-1.11,0-1.71-.47-1.7-1.61A2.73,2.73,0,0,1,350.94,145.4Z"/><path class="cls-13" d="M344.49,146.16c1.15,0,1.64.64,1.61,1.74A3,3,0,0,1,344.49,146.16Z"/><path class="cls-15" d="M343.42,203.61l1.6-1.68.34.39-1.55,1.56A4.56,4.56,0,0,1,343.42,203.61Z"/><path class="cls-13" d="M342.09,142.18l.57,1.81A2.62,2.62,0,0,1,341,142.4c.13-.1.25-.21.37-.32A4.45,4.45,0,0,1,342.09,142.18Z"/><path class="cls-13" d="M349.3,211.05l0,1.6-1.47.22-.27-.31Z"/><path class="cls-13" d="M336.49,150l.78,1.79c-1,0-1.42-.71-1.83-1.44l.4-.38.32,0Z"/><path class="cls-13" d="M416.48,205l-1.64-1.65.38-.35c.53.54,1.07,1.07,1.6,1.6C416.7,204.73,416.59,204.86,416.48,205Z"/><path class="cls-13" d="M431.43,195.6l1.67.74-.33.35a1.76,1.76,0,0,1-1.62-.78A4.12,4.12,0,0,1,431.43,195.6Z"/><path class="cls-13" d="M327.78,207.62l1.39-.6Z"/><path class="cls-13" d="M429.81,194.8l1.62.8a4.12,4.12,0,0,0-.28.31,1.76,1.76,0,0,1-1.61-.8Z"/><path class="cls-13" d="M409.94,227.58l-1.32-1.11.23-.25,1.52.87C410.23,227.26,410.09,227.42,409.94,227.58Z"/><path class="cls-13" d="M323.64,207.84c-.18.78-.83.86-1.46.94C322.54,208.26,322.78,207.56,323.64,207.84Z"/><path class="cls-13" d="M309.69,163.38l-1.55-.92a5,5,0,0,1,.42-.36l1.52.82C310,163.08,309.83,163.23,309.69,163.38Z"/><path class="cls-13" d="M394.85,206.53l-1.28-1.15v0l1.54.85Z"/><path class="cls-13" d="M337.23,151.79c.67.15.85.66.89,1.26C337.62,152.78,337.13,152.5,337.23,151.79Z"/><path class="cls-13" d="M353.44,212.86c.25-.34.49-.69.73-1C354.65,212.67,354.12,212.82,353.44,212.86Z"/><path class="cls-13" d="M421,190.75l1.64.8-.31.33a1.76,1.76,0,0,1-1.62-.79Z"/><path class="cls-13" d="M360.65,216c-.07-.71,0-1.35.81-1.65C361.58,215.08,361.47,215.72,360.65,216Z"/><path class="cls-13" d="M338.05,122.08c.67.19.83.71.89,1.31A1.41,1.41,0,0,1,338.05,122.08Z"/><path class="cls-13" d="M343.36,217.22l1.05-1.4.27.25c-.29.51-.58,1-.86,1.53Z"/><path class="cls-13" d="M404.67,200.72c0-.31,0-.63.05-.94.42.42.83.85,1.25,1.28a4.79,4.79,0,0,1-.47.43l-.78,0h0A6.33,6.33,0,0,0,404.67,200.72Z"/><path class="cls-13" d="M332.84,141.76l1.39,1a3.83,3.83,0,0,1-.28.29l-1.53-.87Z"/><path class="cls-13" d="M398.09,210.5l-1-1.39.43-.4a1.75,1.75,0,0,1,.86,1.54Z"/><path class="cls-13" d="M335.76,216.78l-1.27,1.15-.39-.41,1.5-.9Z"/><path class="cls-13" d="M339.67,186.92c-.28.81-.91.92-1.64.82C338.27,186.86,338.93,186.81,339.67,186.92Z"/><path class="cls-13" d="M423.7,186.56l-1.65-.8.32-.34a1.75,1.75,0,0,1,1.61.79Z"/><path class="cls-15" d="M401,206c.21.33.43.65.64,1l-.18.16-.78-.81Z"/><path class="cls-13" d="M341.87,205.25l.78-.83.31.3-.79.81Z"/><path class="cls-13" d="M365.37,206.28l-.48,1.11-.32-.31.77-.82Z"/><path class="cls-13" d="M416.8,199.06l-.83-.85A.82.82,0,0,1,416.8,199.06Z"/><path class="cls-13" d="M409.63,222.23l.83.78-.24.24-.81-.77Z"/><path class="cls-13" d="M338,209.4l.76-.85.21.22-.79.8Z"/><path class="cls-13" d="M397.06,209.11l-.74-.85c.13-.12.25-.24.37-.37l.8.82Z"/><path class="cls-13" d="M338.77,208.55c.27-.26.53-.53.8-.8l.21.22-.8.8Z"/><path class="cls-13" d="M396.32,208.26l-.73-.87c.1-.1.21-.2.31-.31l.79.81C396.57,208,396.45,208.14,396.32,208.26Z"/><path class="cls-13" d="M346.75,213.34l.84-.78.27.31-.78.77Z"/><path class="cls-13" d="M411.82,200c.29.27.58.54.86.82C412.13,200.78,411.8,200.54,411.82,200Z"/><path class="cls-13" d="M334.49,217.93c-.26.26-.53.52-.79.79-.14-.13-.28-.26-.41-.4l.81-.8Z"/><path class="cls-13" d="M409,204.4l.79.81-.35.33-.77-.82Z"/><path class="cls-13" d="M333,214.8l.81-.81.34.35-.8.81Z"/><path class="cls-13" d="M339,147.71l-.84-.84A.83.83,0,0,1,339,147.71Z"/><path class="cls-13" d="M332,220.26l-.85.76-.3-.31.8-.8Z"/><path class="cls-13" d="M338.18,146.88l-.94.13c0-.25,0-.5-.06-.75.1-.09.21-.19.31-.3Z"/><path class="cls-6" d="M464.1,580.42a.84.84,0,0,1-1.17.17Z"/><path class="cls-6" d="M258.78,379.68c0-.33,0-.67,0-1a5.56,5.56,0,0,1,.19.7C259,379.47,258.85,379.58,258.78,379.68Z"/><path class="cls-13" d="M342.65,204.42l.77-.81a4.56,4.56,0,0,0,.39.27l-.85.84Z"/><path class="cls-13" d="M408.25,203.56l.77.84-.33.32-.79-.81C408,203.79,408.13,203.67,408.25,203.56Z"/><path class="cls-13" d="M410.46,223l.8.81-.26.23-.78-.8Z"/><path class="cls-13" d="M432.28,209.2l.81.82-.42.38-.76-.8C432,209.47,432.15,209.33,432.28,209.2Z"/><path class="cls-13" d="M346.36,141.92a.76.76,0,0,1-.84-.81Z"/><path class="cls-13" d="M331.83,141.18l1,.58-.42.45-.83-.75Z"/><path class="cls-13" d="M349.65,210.3c.29.46.11.69-.37.78C349.41,210.82,349.53,210.56,349.65,210.3Z"/><path class="cls-13" d="M320.16,140l-.86-.77.45-.44.81.78C320.43,139.75,320.3,139.9,320.16,140Z"/><path class="cls-15" d="M347.78,205.54l-.82.78-.06-.07.79-.79Z"/><path class="cls-13" d="M319.3,139.27c-.27-.26-.53-.53-.8-.8.14-.15.3-.29.45-.43l.8.79Z"/><path class="cls-13" d="M339,134.83l.83.78-.22.2-.79-.77Z"/><path class="cls-13" d="M410.37,206.25l-.88.09c0-.27,0-.53,0-.8l.35-.33C410,205.56,410.19,205.9,410.37,206.25Z"/><path class="cls-13" d="M395.59,207.39l-.74-.86.26-.27c.26.28.53.55.79.82C395.8,207.19,395.69,207.29,395.59,207.39Z"/><path class="cls-16" d="M350.93,161.34a5.46,5.46,0,0,0,0-.7c0-.29,0-.58,0-.87l0,0a3.24,3.24,0,0,0,1.83-2.45c1-.06,1.33-.69,1.38-1.58l1.66-1.5-.06-1.72a2.29,2.29,0,0,0,.69.08,1.79,1.79,0,0,0,1.8-.84L359,151c1.85-.46,3.75-.85,4.15-3.2a3.31,3.31,0,0,0,.55.07c2,.36,3.78-.61,5.67-.92A34.45,34.45,0,0,1,377,155c1.69,2.36,5.32,3.38,8.16,4.83,1.48.75,2.8,1.5,3.25,3.2-4.21,0-8.72-.94-11.18,3.94-1.54,6-.8,9.55,2.28,10.69q-.79-2.4-1.56-4.79c-.32-1-.89-2.15.71-2.54,1.34-.33,1.13.75,1.51,1.58,1.14,2.5,6,3.37,8.85,1.47,2.22-1.46,4.26-3.35,2.11-6.42l1.6,0,.23.16-.26-.14c0-1.36-1.41-1.76-1.95-2.76,6.42-1,9.29,4.11,13.16,7.55.92,5.08-1.12,9.72-2.23,14.49-.66,1-1.77,1.73-1.71,3.12l-1.08,1.66-.59.66a8.92,8.92,0,0,0-2.67,3.24,4.45,4.45,0,0,0-2.91,2.41,2,2,0,0,0-1.83.9l-.6.63-1.64.79c-1.28.19-2.55.41-3.28,1.68-1,.14-2.2-.19-3,.78l-1.78.15c-1.23.15-2.89-.58-3.18,1.53a2.68,2.68,0,0,1-.49,0c-.69-1.12-1.37-1-2.06,0a2.37,2.37,0,0,1-.46,0c-.35-2-2-1.39-3.23-1.51l-1.72-.19a5.33,5.33,0,0,0-4-1.43l-1.63,0a4.46,4.46,0,0,0-2.88-1.57c-.39-.52-.77-1.05-1.15-1.57l-7.1-6.45-.89-1.63a4.29,4.29,0,0,0-1.62-3.19l-1.61-2.4c0-.8,0-1.6,0-2.4l-.45-.72c-.79-5.75-.68-11.42,1.44-16.93A2.58,2.58,0,0,0,350.93,161.34ZM375,169.41c-.22-.57-.45-1.14-.68-1.71-.11-3.62-3.12-4.09-5.56-4.6-3.57-.76-7-.1-9.29,3.53,5.17-2.33,10.18-3.68,14.5,1.36l.23,1.43c.6,3.06-1.36,5.64-1.64,8.54C375.73,175.76,374.94,172.46,375,169.41Zm5.61,16,.05,0c-2.75-2.69-5.9-1.07-8.93-.82a2.82,2.82,0,0,0-2.8,2.28c-.17,1.12,1,.86,1.74.93,1.05,1.79,3.16,3.29,1.39,6,2.62-2.84,5-2.5,7.67-.05-.18-1.72-2.11-3.16.08-4.36,3.56-1.82,3.59-1.88,1.56-3.22Zm-14.23-11.17c3.47.06,6.27-1.73,5.72-4.06-.7-3-3.64-3.7-6.21-3.86s-5.26.61-6.29,3.26C359,171.23,363.51,174.2,366.39,174.24Zm8.74,7.8c2.38,0,4.1.13,5.8,0a1.48,1.48,0,0,0,1.17-1.83c-.36-1.46-1.12-.11-1.64-.19-1.78-.24-3.32.87-5,.71-2-.19-5.72-1.46-5.6-.24C370.19,183.89,373.79,181.32,375.13,182Z"/><path class="cls-14" d="M401.63,186.28c1.11-4.77,3.15-9.41,2.23-14.49,4-.32,7.78-.14,9,4.8-2.07.78-4.65-1-6.42,1.29-2.26,1.41-.06,1.65.61,1.79a37.34,37.34,0,0,0,11.3,1h0c1.64,1.87.08,1.71-1,1.42-4.18-1.14-8.35-.36-13.61-.84,2.17,1.57,3.76.51,4.74,1.71-1.32.11-2.84-.5-3.75,1.07a4.58,4.58,0,0,0-.94.15c0,.69.54.48.94.52v0c.28.8.94.86,1.64.81h0c.28,1.35,2,1.25,2.44,2.4l-4,0h0a2.26,2.26,0,0,0-2.43-1.5A4.91,4.91,0,0,0,401.63,186.28Z"/><path class="cls-12" d="M408.43,182.94c-1-1.2-2.57-.14-4.74-1.71,5.26.48,9.43-.3,13.61.84,1.09.29,2.65.45,1-1.42,5.59,1.46,10.69,4.62,16.64,4.81l.15,1.56a35.55,35.55,0,0,1-11.12-.81,1.75,1.75,0,0,0-1.61-.79C418.2,181.94,413.14,183.39,408.43,182.94Z"/><path class="cls-17" d="M357.39,142.71c-1.64-2-3.26-4-4.92-5.91-.57-.66-.91-1.26-.11-2,2.81.16,4.07,2.91,6.41,3.85a15,15,0,0,0,1.54,5.11c.13.86.21,1.71-1,.74C358.64,144,358,143.32,357.39,142.71Z"/><path class="cls-9" d="M423.12,180.61c3.9-2.83,7.07.18,10.46,1.33a2,2,0,0,1,1.49,2.08C430.75,184.07,426.56,183.65,423.12,180.61Z"/><path class="cls-14" d="M390.7,164.24c.54,1,1.92,1.4,1.95,2.76l0,0-1.6,0v0c-5-3.53-9.32-3.24-12.82.88l-1.09-.9c2.46-4.88,7-4,11.18-3.94Z"/><path class="cls-13" d="M423.12,180.61c3.44,3,7.63,3.46,11.95,3.41l-.12,1.44c-5.95-.19-11.05-3.35-16.64-4.81h0c-.61-.9-1.64-.61-2.47-.89-2.94-1-6.29.11-9-1.84l9.57.84,1.72.26c1.67.56,3.17,1.66,5,1.62Z"/><path class="cls-15" d="M360.31,143.8a15,15,0,0,1-1.54-5.11c.89.24,2,0,2.56,1,.07.65.15,1.3.84,1.63v0c.5,2.16,1,4.32,1.49,6.48a3.57,3.57,0,0,1-.56-.07l-.93-.19C361.68,146.25,361.86,144.59,360.31,143.8Z"/><path class="cls-14" d="M363.67,147.82c-.5-2.16-1-4.32-1.49-6.48a19.11,19.11,0,0,0,7.16,5.56C367.45,147.21,365.66,148.18,363.67,147.82Z"/><path class="cls-8" d="M416.43,178.77l-9.57-.84a.35.35,0,0,0-.42-.05c1.77-2.31,4.35-.51,6.42-1.29Z"/><path class="cls-9" d="M423.18,180.65c-1.86,0-3.36-1.06-5-1.62C420.29,178.12,422.5,177,423.18,180.65Z"/><path class="cls-14" d="M362.17,141.31c-.69-.33-.77-1-.84-1.63A1.6,1.6,0,0,1,362.17,141.31Z"/><path class="cls-15" d="M375.16,442.29c10.53-2.36,16.45-9.76,20.11-19.25,3-7.74-3.26-18.08-12.67-18.28,2.64,3.88,7.26,5.59,9.69,9.9-3.69.6-6.68.51-9.39-2.54-5.1-5.75-12.14-5.81-19-5.09a120.14,120.14,0,0,0-29.79,7.33,5.76,5.76,0,0,0-3.83,4.08c-1.12,3.46-1.5,7.21-3.8,11-1.21-4.28.87-7.28,1.85-10.42.79-2.58.89-3.58-2.49-2.94-5.53,1.05-11.2.65-16.79.31-2.89-.18-5-1.88-4.71-5.31.12-1.47.22-2.93-1.09-4.07-.93-.81-1.7-1.79-.91-3.14a2.2,2.2,0,0,1,2.44-1,3.18,3.18,0,0,1,2.72,2.58c.33,1.37-.29,2.62-.52,3.92-.6,3.27.86,5.17,4.2,5.42a49,49,0,0,0,16.2-1.9c3.06-.81,4.35-3.15,5.15-6.06.85-3.12.89-6.54,3.32-9.2.89,2.89-1,5.31-1.5,8-.24,1.35-1.81,2.85-.4,4.06s2.77-.18,4.05-.78c8.21-3.83,16-8.55,24.85-11a40,40,0,0,1,23.63.31c6.79,2.27,11.68,6.75,14,13.75.4,1.21.33,3.09,1.8,3.28s2.24-1.6,3.16-2.69c8.25-9.81,16.85-19.32,26.95-27.26,3.92-3.09,8.07-6.32,13.66-5.75a9.82,9.82,0,0,1,2.73.46c1.31.54,3.37,1.22,2.75,2.82s-2.5.8-3.75.05c-2.5-1.49-4.67-.21-6.71.89-8.09,4.33-14.77,10.46-21.1,17-4.56,4.69-9.24,9.25-13.49,14.25-1.72,2-2.25,3.44-.05,5.3a11.48,11.48,0,0,1,1.62,2.27,2,2,0,0,1,.19,2.59,2.23,2.23,0,0,1-2.51.66c-6.24-1.14-6.59-1.27-9.05,4.5C392.54,440.05,386.62,446.07,375.16,442.29Z"/><path class="cls-5" d="M404.64,408.36c-3.63-4-4.14-7.73-1.33-12.33,2.69-4.38,4.44-9.34,6.83-14.55l9.42,9.41c.75.75.56,1.39-.15,2C414,397.61,409.37,403.06,404.64,408.36Z"/><path class="cls-15" d="M422.52,369.12c-7.57-3.26-10,3.16-13.07,7.63-4.2,6.06-7,12.87-9.28,19.88-.37,1.14-.35,3.18-2.26,2.59s-.74-2.28-.36-3.39c3.95-11.65,9.05-22.55,19.57-29.88,1.54-1.07,3.14-2.19,5.05-2.29,2.08-.11,3.82.9,3.88,3.13C426.11,368.81,424.55,369.42,422.52,369.12Z"/><path class="cls-8" d="M319.23,447.56c-.86-.17-1.55-.62-1.62-1.52a1.53,1.53,0,0,1,1.65-1.8,1.49,1.49,0,0,1,1.62,1.44C321,446.83,320.24,447.33,319.23,447.56Z"/><path class="cls-8" d="M327.45,440.66a1.62,1.62,0,1,1-1.81-1.6C326.77,439,327.26,439.67,327.45,440.66Z"/><path class="cls-8" d="M318,436.14c1.06.21,1.68.8,1.53,1.9a1.48,1.48,0,0,1-1.64,1.35,1.46,1.46,0,0,1-1.49-1.85A1.53,1.53,0,0,1,318,436.14Z"/><path class="cls-8" d="M256.85,442.2a5.46,5.46,0,0,1-.57,0l.65-.79C256.9,441.65,256.88,441.92,256.85,442.2Z"/><path class="cls-8" d="M256.85,474.29a5.46,5.46,0,0,1-.57,0l.65-.79C256.9,473.73,256.88,474,256.85,474.29Z"/><path class="cls-8" d="M256.27,506.34l.66-.79c0,.27-.05.55-.08.83Z"/><path class="cls-14" d="M348.53,183.84l1.61,2.4c-2.54-.11-4.53,2.06-7.12,1.73l-.19-.22.93-1.48h0c.69,0,1.32-.06,1.61-.81h0c.7.06,1.33,0,1.62-.8h0a1.44,1.44,0,0,0,1.62-.83Z"/><path class="cls-14" d="M351.76,189.43l.89,1.63a1.84,1.84,0,0,0-1.68.81l-.86.77h0c-.27.27-.55.54-.82.82l0,0-2.21.19-.21-.18C348.08,191.56,350,190.56,351.76,189.43Z"/><path class="cls-14" d="M343,188a2.91,2.91,0,0,1-2.77,1.11c.44-1.41,1.64-1.12,2.58-1.33Z"/><path class="cls-14" d="M345.31,195.05l1.56-1.64.21.18a1.61,1.61,0,0,1-1.72,1.51Z"/><path class="cls-14" d="M337.34,189.48l1.05.26c-.55.71-.75.06-1-.27Z"/><path class="cls-14" d="M345.36,195.1l-.39.34.34-.39Z"/><path class="cls-12" d="M369.39,219.13c-.52.54-1,1.09-1.55,1.64l-.83.81h0l-1.74-.09c2.28-3.47,1.6-7.39,1.74-11.19,1.95-2.08-.59-5.25,1.75-7.23v9.61c.7-2.79.33-5.77,2.19-8.22C371.53,209.46,370.32,214.28,369.39,219.13Z"/><path class="cls-12" d="M374.33,203.81a2.37,2.37,0,0,0,.46,0c.73,3.26-.33,6.7,1.53,9.94l.53-9.94a2.68,2.68,0,0,0,.49,0l.06,18.39a3.07,3.07,0,0,1-.74,2.58c-.27-1.45.38-3.08-.82-4.77-1.15,1.4-.66,2.76-.84,4C373.39,217.31,374.47,210.54,374.33,203.81Z"/><path class="cls-16" d="M375,224c.18-1.2-.31-2.56.84-4,1.2,1.69.55,3.32.82,4.77V241l-1.66,0Z"/><path class="cls-14" d="M371,204.45c-1.86,2.45-1.49,5.43-2.19,8.22v-9.61l.59-.95,1.72.19Z"/><path class="cls-14" d="M380.52,202.3l1.78-.15.09,1c.28,2.13,1,4.21.66,6.4l-1.58-.84v0c.06-1.15.34-2.36-.81-3.21h0l-.15-2.35Z"/><path class="cls-12" d="M380.65,205.49c1.15.85.87,2.06.81,3.21C380.24,207.87,380.68,206.62,380.65,205.49Z"/><path class="cls-12" d="M380.51,203.14l.15,2.35C379.56,204.77,379.57,204,380.51,203.14Z"/><path class="cls-16" d="M347.08,213.64l.78-.77,1.47-.22c.25.81.5,1.62.76,2.43-1.6,1.39-3.5,2.52-4,4.79-1.92,1.39-2.35,3.62-3.25,5.61-.71,1.56-.81,3.67-3.07,4.1l0,0,4.1-12,.87-1.52A2.85,2.85,0,0,0,347.08,213.64Z"/><path class="cls-14" d="M363.78,200.65l1.63,0,.12.93c-.72,2.15-2.71,3.79-2.56,6.29h0l-1.58,1.63h0C361.35,206.33,363.36,203.71,363.78,200.65Z"/><path class="cls-14" d="M359.75,197.51c.38.52.76,1.05,1.15,1.57-1.86.38-2,2.52-3.37,3.36l-.37-.34c.09-1,.19-2,.28-2.94l0,0,.89-.73Z"/><path class="cls-14" d="M354.78,207.48c-.15-.24-.39-.48-.34-.59.14-.32.34-.74.62-.85.54-.2.56.29.42.59A3.9,3.9,0,0,1,354.78,207.48Z"/><path class="cls-14" d="M357.53,202.44c-.21.77-.4,1.56-1.28,1.86-.06,0-.26-.16-.27-.26-.08-.93.59-1.41,1.18-1.94Z"/><path class="cls-5" d="M353.33,202.3c-.76-.52-.44-1,.11-1.35s.85.05,1,.54Z"/><path class="cls-14" d="M361.39,209.52l-.34,1.06a2.59,2.59,0,0,1-.28-.23c.19-.29.4-.57.61-.84Z"/><path class="cls-12" d="M333.36,175.87a252.6,252.6,0,0,0-27.1-.84l-.05-1.1L343,172.52h3.07c-3.59,1.67-7.65-.07-11.08,2.47h11v.88Z"/><path class="cls-16" d="M330.79,182.33l2.56-.82c.8,1.25,1.61,2.39,2.41,0l9.59-3.34c1,.16,1.7.47.24,1.07-1.79.73-3.68,1.21-5.43,2-1.58.72-.41.92.33,1.11,0,.25,0,.49.07.74a9.46,9.46,0,0,1-6.44,1.5C333.36,183.33,331,184.41,330.79,182.33Z"/><path class="cls-12" d="M347,164.58l-4-1.61c-.28-.52-.57-1-.85-1.54l.1-.13,2.35.08h0c.6,1.21,2,1.23,2.91,1.94C348.57,164.19,348,164.51,347,164.58Z"/><path class="cls-12" d="M340.56,183.09c0-.25-.05-.49-.07-.74l7.6-1.63.45.72C345.87,181.92,343.34,183.13,340.56,183.09Z"/><path class="cls-16" d="M365.3,221.48l1.74.09c-1.91,6.07-2.55,12.37-3.32,18.67C363.77,233.91,361.17,227.37,365.3,221.48Z"/><path class="cls-15" d="M365.53,201.61l-.12-.93a5.33,5.33,0,0,1,4,1.43l-.59.95c-2.34,2,.2,5.15-1.75,7.23-.44-2.15.89-4.55-.93-6.5C366.12,203,366.34,202.17,365.53,201.61Z"/><path class="cls-12" d="M365.53,201.61c.81.56.59,1.4.58,2.18-.82.65-.71,1.59-.77,2.47l-.77.82-1.6.82C362.82,205.4,364.81,203.76,365.53,201.61Z"/><path class="cls-16" d="M367,221.58l.83-.81Z"/><path class="cls-14" d="M362.18,147.56l.93.19c-.39,2.35-2.29,2.74-4.14,3.2h-.81l0,0c.44-2.17-1.57-3.54-1.77-5.5l.21-.22,3.1,2.52h0c.06.63.17,1.36,1,1.23.55-.09.49-.74.39-1.23Z"/><path class="cls-13" d="M362.18,147.56l-1.05.21h-1.39c.25-2.17-2.67-2.86-2.35-5.06.64.61,1.25,1.27,1.93,1.83,1.2,1,1.12.12,1-.74C361.86,144.59,361.68,146.25,362.18,147.56Z"/><path class="cls-14" d="M358.25,151.79a1.79,1.79,0,0,1-1.8.84l.12-1.76,1.63.1,0,0Z"/><path class="cls-14" d="M356.43,145.47l-.75-.86.14-.15.82.79Z"/><path class="cls-14" d="M355.68,144.61l-.33-.47.47.32Z"/><path class="cls-16" d="M317.24,150.16l-1.09-.34a3.15,3.15,0,0,1,.23-.29c.3.19.59.4.89.6Z"/><path class="cls-12" d="M347.69,205.46l-.79.79c-1.59.12-2.46,1.18-3.2,2.42a11.4,11.4,0,0,0-4.78,4.05c-.3.51-.59,1-.89,1.52a2.62,2.62,0,0,0-2.43,2.38l-1.5.9-.81.8h-1.58c.54-1.06,1.08-2.12,1.61-3.18l.8-.81c1.71-1.29,3.52-2.49,4.07-4.77l.79-.8.8-.8a2.52,2.52,0,0,0,2.39-2.44l.79-.81.85-.84,1.55-1.56,3.18-2.44h0c.25,1.32.49,2.63.73,3.94A1.57,1.57,0,0,0,347.69,205.46Z"/><path class="cls-12" d="M350.11,192.64l.86-.77C351.6,193.14,350.45,192.45,350.11,192.64Z"/><path class="cls-12" d="M358.3,198.38l-.89.73.26-1.09Z"/><path class="cls-12" d="M348.54,199.88l.34-.32c0,.07,0,.16-.06.2a1.13,1.13,0,0,1-.27.13Z"/><path class="cls-12" d="M349.32,193.45l.82-.82Z"/><path class="cls-16" d="M416.82,204.6c-.53-.53-1.07-1.06-1.6-1.6-.33-.76-.66-1.52-1-2.28l2.43-.74c1.13,1.31,2.06,2.88,4,3.24,2,3.33,5.56,3.82,8.86,4.77l.09,1.53C424.67,209.59,421,206.5,416.82,204.6Z"/><path class="cls-14" d="M395.58,195a8.92,8.92,0,0,1,2.67-3.24l1.11,1.64-.24,2.51c0,.51,0,1,0,1.55l-.14.13C397.34,197.39,396.56,196,395.58,195Z"/><path class="cls-13" d="M401.63,186.28c.22,0,.44,0,.66.05a2.35,2.35,0,0,0,2.43,1.51h0l0,1.63-.77.87-3.26-.9c-.25,0-.49,0-.74,0C399.86,188,401,187.28,401.63,186.28Z"/><path class="cls-14" d="M399.92,189.4c.25,0,.49,0,.74,0l1.68,2.39-.09.09c-1.3.37-2.29-.5-3.41-.85Z"/><path class="cls-14" d="M403.13,192.63l1.06.24-.29.46c-.28-.21-.56-.42-.83-.64Z"/><path class="cls-14" d="M402.34,191.82a.78.78,0,0,1,.79.81l-.06.06a.78.78,0,0,1-.82-.78Z"/><path class="cls-12" d="M383.05,209.52c.35-2.19-.38-4.27-.66-6.4,2.56.39.62,3.42,2.47,4.22l.57,1.08.09,4.24-.09.07c-.49-.53-1-1.07-1.45-1.61-.17-.63-.18-1.34-1-1.62Z"/><path class="cls-15" d="M384,211.12c.48.54,1,1.08,1.45,1.61V219l-.32,0-2-8Z"/><path class="cls-14" d="M384,211.12l-.88-.06c0-.52,0-1-.07-1.56C383.8,209.78,383.81,210.49,384,211.12Z"/><path class="cls-13" d="M384.86,207.34c-1.85-.8.09-3.83-2.47-4.22l-.09-1c.82-1,2-.64,3-.78l0,2.85C384.14,205.1,385.3,206.34,384.86,207.34Z"/><path class="cls-16" d="M310.08,162.92l-1.52-.82c8.27-1,16.51-1.73,24,3.26-1.13.12-2.42-.37-3.25.86l-3.93-.92a4.92,4.92,0,0,0-3.91-1.52A53.93,53.93,0,0,1,310.08,162.92Z"/><path class="cls-12" d="M330.79,182.33c.21,2.08,2.57,1,3.33,2.26-1.14,1.38-2.68.68-4.07.76-.21-1-.43-2-.64-3Z"/><path class="cls-12" d="M345.35,185.46c-.29.75-.92.85-1.61.81A1.5,1.5,0,0,1,345.35,185.46Z"/><path class="cls-12" d="M347,184.66c-.29.77-.92.86-1.62.8A1.5,1.5,0,0,1,347,184.66Z"/><path class="cls-12" d="M348.57,183.84a1.44,1.44,0,0,1-1.62.83A1.64,1.64,0,0,1,348.57,183.84Z"/><path class="cls-16" d="M319.75,138.83,319,138c0-.85.24-1.22,1.14-.68,3.56,2.12,7.55,3.07,11.5,4.1l.83.75,1.53.87a4.34,4.34,0,0,0,3.23,3.18c0,.25.05.5.06.75l-.75,3h-.33l-.32,0c-3.24-6.19-9.41-8.08-15.28-10.4Z"/><path class="cls-14" d="M352.78,157.35A3.24,3.24,0,0,1,351,159.8a2.34,2.34,0,0,0-2.39-2.45h0l-1.77-2.21.22-.27,2.26.16.06,0c.29.76.91.85,1.6.8h0A2.23,2.23,0,0,0,352.78,157.35Z"/><path class="cls-14" d="M346.79,155.14c-.34-.19-1.16-.07-.87-.64s.79,0,1.09.37Z"/><path class="cls-12" d="M400.66,206.33l.78.81.06,2.37h0l-1.59-.79,0,0c-.24-2.15-2.08-3.23-3.2-4.79h-.81l0,0c0-1.06-.45-1.72-1.62-1.62h0c.36-1.24-.39-2.18-.85-3.19.65-.85,1.37,0,2.05-.08l1.22.88-.06,0,1.69,2.85C398.19,204.53,399.29,205.52,400.66,206.33Z"/><path class="cls-12" d="M409.46,205.54c0,.27,0,.53,0,.8a2.58,2.58,0,0,0-1.55,1.55l-3.21-2.41c0-.26,0-.52,0-.78h0a1.66,1.66,0,0,0,1.62-.81l1.57,0,.79.81Z"/><path class="cls-14" d="M393.43,199.11c.46,1,1.21,1.95.85,3.19-1.78-.81-2.46-2.55-3.44-4a2,2,0,0,1,1.83-.9A1.9,1.9,0,0,0,393.43,199.11Z"/><path class="cls-8" d="M396.7,199.91l-1.22-.88c0-.23,0-.47,0-.7A1.28,1.28,0,0,1,396.7,199.91Z"/><path class="cls-14" d="M399.94,198.22c.6.07,1.25.06,1.35.88a.38.38,0,0,1-.19.3c-.73,0-1-.5-1.27-1.06Z"/><path class="cls-12" d="M404.72,201.47l.78,0,0,1.59A1.55,1.55,0,0,1,404.72,201.47Z"/><path class="cls-12" d="M404.67,200.72a6.33,6.33,0,0,1,.05.76C404.18,201.27,404.08,201,404.67,200.72Z"/><path class="cls-12" d="M404.7,204.7l-.32-.34c.07,0,.16,0,.2.06a1.34,1.34,0,0,1,.13.27Z"/><path class="cls-12" d="M405.52,203.08l.8.8Z"/><path class="cls-14" d="M399.83,198.34l-.81-.79.14-.13.78.8Z"/><path class="cls-16" d="M339.74,229.58l-.6,1.28-.47-.3,1-1Z"/><path class="cls-12" d="M401.26,235.56c-.79-.63-1.22-1.23-1.09-2.07a.76.76,0,0,1,.61-.06C401.32,233.85,401.53,234.43,401.26,235.56Z"/><path class="cls-16" d="M338.81,135l.79.77c.56,2.53,3.15,3.46,4.33,5.5l-1.84.87a4.45,4.45,0,0,0-.72-.1,5.68,5.68,0,0,0-3.91-4.11,4.69,4.69,0,0,0-2.5-3.11l-2.36-2.44c.13-2.37,1.53-.28,2.23-.63l1.63,1.56A2.78,2.78,0,0,0,338.81,135Z"/><path class="cls-14" d="M355.76,152.55l.06,1.72-1.63-.14a5.26,5.26,0,0,0-2.41-2.41v0l-.82-.82h0l-.88-1.55C352.84,148.93,353.67,151.87,355.76,152.55Z"/><path class="cls-12" d="M350.11,149.37l.88,1.55-1.58,0A1.41,1.41,0,0,1,350.11,149.37Z"/><path class="cls-14" d="M344.54,161.38l-2.35-.08c-.1-.44-.82-1.11-.2-1.24A2.34,2.34,0,0,1,344.54,161.38Z"/><path class="cls-16" d="M351.77,232.79l-.34,1.09a3.15,3.15,0,0,1-.29-.23c.19-.3.39-.59.6-.89Z"/><path class="cls-12" d="M404.69,189.46l0-1.63,4,0,0,0c.4.94,1.37,1.06,2.14,1.42.37.16,1.06.47,1.14-.24,0-.31-.6-.71-.93-1.07l.13-.16,2.34.08c2.05,1.86,4.64,2.51,7.2,3.22a1.76,1.76,0,0,0,1.62.79,14.12,14.12,0,0,0,7.2,3.23,144.57,144.57,0,0,0,3.23,1.58c.65.6,1.31,1.19,2.58,2.34-4.48-.55-7.63-3-11.37-3.19a11.25,11.25,0,0,0-6.43-2.4c-.58-.9-1.52-.77-2.39-.81a9.72,9.72,0,0,0-6.78-2.26C407.17,190,406.05,189.24,404.69,189.46Z"/><path class="cls-12" d="M437.07,199.53l-.26.17-.22-.39c.11,0,.23-.07.32,0S437,199.44,437.07,199.53Z"/><path class="cls-13" d="M332.82,166.61c-.11.06-.22.17-.32.16s-.2-.14-.29-.21Z"/><path class="cls-16" d="M431.91,209.6l.76.8c-1.7,2-2.08-.57-3.11-.9Z"/><path class="cls-12" d="M335.76,181.51c-.8,2.39-1.61,1.25-2.41,0Z"/><path class="cls-12" d="M331.67,219.91l-.8.8c-.46-.05-1.22,0-1.06-.62a2.68,2.68,0,0,1,1.88-1.74C331.68,218.87,331.67,219.39,331.67,219.91Z"/><path class="cls-16" d="M410.22,223.25l.78.8.93,3.12-1.56-.08-1.52-.87a2.52,2.52,0,0,0-2.53-2.28c-.25-2-1.78-2.95-3.12-4.08q-.84-2.37-1.7-4.74A4.33,4.33,0,0,1,403,212a5.62,5.62,0,0,0,1.56,3.17A6.06,6.06,0,0,0,407,220a2.67,2.67,0,0,0,2.39,2.47Z"/><path class="cls-16" d="M412,228.67c0-.51-.07-1-.1-1.52.63,0,1.33.14,1.24.95C413.14,228.33,412.42,228.48,412,228.67Z"/><path class="cls-16" d="M414.14,230.29l-.1.29a1.87,1.87,0,0,1-.29-.34s.13-.14.21-.22Z"/><path class="cls-16" d="M420.06,219.85l-.12-1.53,2.23,1C422,221.7,420.85,220,420.06,219.85Z"/><path class="cls-12" d="M406.31,185.47c-.7.05-1.36,0-1.64-.81A1.59,1.59,0,0,1,406.31,185.47Z"/><path class="cls-12" d="M404.68,184.68c-.4,0-.95.17-.94-.52a4.58,4.58,0,0,1,.94-.15Z"/><path class="cls-12" d="M390.84,198.27c1,1.48,1.66,3.22,3.44,4h0a2.19,2.19,0,0,0,1.62,1.62l0,0,0,.8a11.9,11.9,0,0,0,4,4l0,0c0,.53,0,1.05,0,1.57l-.13.11-1.44-.15a1.75,1.75,0,0,0-.86-1.54l-.8-.82-.79-.81c-.26-.27-.53-.54-.79-.82l-1.54-.85c.36-2.92-3.36-3.75-3.33-6.51Z"/><path class="cls-5" d="M402.77,197.05c-.3-.29-1.15-.24-.76-.92.09-.17.92.08,1.42.14Z"/><path class="cls-12" d="M348.56,157.35A2.34,2.34,0,0,1,351,159.8l0,0-.85-.13C349.59,158.89,348.38,158.6,348.56,157.35Z"/><path class="cls-14" d="M350.14,159.64l.85.13c0,.29,0,.58,0,.87Z"/><path class="cls-16" d="M420,218.34l-1.53-.09c0-.51-.06-1-.1-1.53A2.41,2.41,0,0,1,420,218.34Z"/><path class="cls-12" d="M351.78,151.72a5.26,5.26,0,0,1,2.41,2.41l0,1.64c-.05.89-.38,1.52-1.38,1.58a2.23,2.23,0,0,1-1.85-1.55C353.17,154.85,351.12,153,351.78,151.72Z"/><path class="cls-12" d="M350.93,155.8c-.69,0-1.31,0-1.6-.8A1.43,1.43,0,0,1,350.93,155.8Z"/><path class="cls-12" d="M351,150.92l.82.82Z"/><path class="cls-12" d="M403,212a4.33,4.33,0,0,0-1.52,3.1l-.76,0c-.32-1.56-.63-3.12-.95-4.68l.13-.11c.88.46,1.62.65,1.57-.78h0A4.45,4.45,0,0,1,403,212Z"/><path class="cls-14" d="M411.05,188c.33.36,1,.76.93,1.07-.08.71-.77.4-1.14.24-.77-.36-1.74-.48-2.14-1.42Z"/><path class="cls-15" d="M377.18,167l1.09.9c.05.74.36,1.49,1.15.9,3.6-2.66,7.56-2.66,11.67-1.78v0c2.15,3.07.11,5-2.11,6.42-2.89,1.9-7.71,1-8.85-1.47-.38-.83-.17-1.91-1.51-1.58-1.6.39-1,1.53-.71,2.54q.77,2.39,1.56,4.79C376.38,176.5,375.64,173,377.18,167Zm9.91,3.3a1.45,1.45,0,0,0-1.53-1.67c-.87,0-1.54.31-1.66,1.25s.14,1.85,1.3,2A1.51,1.51,0,0,0,387.09,170.25Z"/><path class="cls-15" d="M366.39,174.24c-2.88,0-7.42-3-6.78-4.66,1-2.65,3.77-3.41,6.29-3.26s5.51.85,6.21,3.86C372.66,172.51,369.86,174.3,366.39,174.24Zm1.39-4a1.44,1.44,0,0,0-1.68-1.62,1.39,1.39,0,0,0-1.52,1.4c-.07,1.06.33,1.77,1.48,1.84A1.48,1.48,0,0,0,367.78,170.2Z"/><path class="cls-12" d="M381.38,186.23c2,1.34,2,1.4-1.56,3.22-3.13-.09-6.33.27-9.14-1.61-.73-.07-1.91.19-1.74-.93a2.82,2.82,0,0,1,2.8-2.28c2.86,1.6,6,.36,8.93.82l-.05,0Z"/><path class="cls-14" d="M375.13,182c-1.34-.72-4.94,1.85-5.26-1.6-.12-1.22,3.62.05,5.6.24,1.67.16,3.21-1,5-.71.52.08,1.28-1.27,1.64.19a1.48,1.48,0,0,1-1.17,1.83C379.23,182.17,377.51,182,375.13,182Z"/><path class="cls-14" d="M374,168c-4.31-5.05-9.32-3.7-14.49-1.37,2.31-3.63,5.72-4.29,9.29-3.53,2.44.51,5.45,1,5.56,4.6Z"/><path class="cls-14" d="M370.68,187.84c2.81,1.88,6,1.52,9.14,1.61-2.19,1.2-.26,2.64-.08,4.36-2.64-2.45-5.05-2.79-7.67.05C373.84,191.13,371.73,189.63,370.68,187.84Z"/><path class="cls-14" d="M376.85,203.84l-.53,9.94c-1.86-3.24-.8-6.68-1.53-9.94C375.48,202.82,376.16,202.72,376.85,203.84Z"/><path class="cls-14" d="M380.67,185.45c-3-.46-6.07.78-8.93-.82C374.77,184.38,377.92,182.76,380.67,185.45Z"/><path class="cls-15" d="M375,169.41c-.07,3.05.72,6.35-2.44,8.55.28-2.9,2.24-5.48,1.64-8.54h.4Z"/><path class="cls-15" d="M354.16,155.77l0-1.64,1.63.14Z"/><path class="cls-14" d="M375,169.41l-.4,0h-.4c-.08-.47-.15-.95-.24-1.43l.36-.29C374.56,168.27,374.79,168.84,375,169.41Z"/><path class="cls-15" d="M358.25,151.79l-.09-.85H359Z"/><path class="cls-14" d="M392.65,167l.26.14-.23-.16Z"/><path class="cls-14" d="M381.38,186.23l-.76-.82Z"/><path class="cls-12" d="M406.44,177.88a.35.35,0,0,1,.42.05c2.72,1.95,6.07.85,9,1.84.83.28,1.86,0,2.47.89a37.31,37.31,0,0,1-11.29-1C406.38,179.53,404.18,179.29,406.44,177.88Z"/><path class="cls-12" d="M404.72,187.84a2.35,2.35,0,0,1-2.43-1.51A2.28,2.28,0,0,1,404.72,187.84Z"/><path class="cls-16" d="M391.09,167c-4.11-.88-8.07-.88-11.67,1.78-.79.59-1.1-.16-1.15-.9C381.77,163.73,386.09,163.44,391.09,167Z"/><path class="cls-12" d="M359.75,147.77h1.38c.1.49.16,1.14-.39,1.23C359.92,149.13,359.81,148.4,359.75,147.77Z"/><path class="cls-15" d="M399.88,208.69a11.9,11.9,0,0,1-4-4l.78-.79C397.8,205.46,399.64,206.54,399.88,208.69Z"/><path class="cls-15" d="M401.49,209.51c.05,1.43-.69,1.24-1.57.78,0-.52,0-1,0-1.57Z"/><path class="cls-14" d="M395.89,203.91a2.19,2.19,0,0,1-1.62-1.62C395.44,202.19,395.86,202.85,395.89,203.91Z"/><path class="cls-14" d="M396.68,203.9l-.78.79,0-.8Z"/><path class="cls-14" d="M387.09,170.25a1.51,1.51,0,0,1-1.89,1.57c-1.16-.14-1.43-1-1.3-2s.79-1.27,1.66-1.25A1.45,1.45,0,0,1,387.09,170.25Z"/><path class="cls-14" d="M367.78,170.2a1.48,1.48,0,0,1-1.72,1.62c-1.15-.07-1.55-.78-1.48-1.84a1.39,1.39,0,0,1,1.52-1.4A1.44,1.44,0,0,1,367.78,170.2Z"/><path class="cls-3" d="M224.44,533.14c-4.84-4.62-4.83-7.55-3.05-9.47s4.67-2.11,9.5,2.51c8.81,8.41,9.84,16,9.84,16S233.37,541.67,224.44,533.14Z"/><path class="cls-18" d="M581.65,625.6c-30.71-.32-35.92,45.77-67.4,29.73-26.63-13.58-28.41-16.77-40-10.78a47.54,47.54,0,0,0-10.87,7.83c-3.9,3.72-11,8.89-19.9,8.44C389,658.06,335.06,563,399.36,532.29c4.64-2.21,10.65-2.09,17.23-1.64,35.7,2.5,42.84,21,79.23-13.93s60,32.66,83.59,35.91,45.54.92,58,29.94S612.36,626,581.65,625.6Z"/><g class="cls-19"><path class="cls-20" d="M403.23,593.3l-.73-1.92c.83-.32,84.86-32.23,237.46-.79l-.41,2C487.53,561.28,404.06,593,403.23,593.3Z"/><path class="cls-20" d="M511,555.61c-15.92-22.91-16.19-38.24-16.19-38.89h2c0,.15.31,15.39,15.82,37.71Z"/><path class="cls-20" d="M509.64,578c-3.37-11.36.41-25.73,10.93-41.57a136.67,136.67,0,0,1,17-20.6l1.38,1.49c-.35.34-35.1,34-27.35,60.09Z"/><path class="cls-20" d="M550.36,583.72c-1.93-2.58-2.92-4.19-3-4.26l1.72-1.07c.2.34,21.15,34.28,61.5,42.3l-.39,2C577.72,616.24,557.55,593.31,550.36,583.72Z"/><path class="cls-20" d="M559.69,634.49c-6.83-12.47-7.12-23.42-6.16-30.41a36.17,36.17,0,0,1,3.8-12.41l1.74,1.05c-.1.17-10.11,17.95,2.38,40.77Z"/></g><path class="cls-3" d="M688.77,532.32s-4.11-18.62,4.82-29.89,37.73-25.18,32.11-41.15-25.06-17.94-32.83-10.17-3.43,16.12-8.69,17.16-35.8,2.52-33.56-15.27,21.79-42.59,47.85-43.42,60.74-.48,68.26,34-5.32,48-23.76,56.89-9.86,29.1-16.55,31.87S689.56,538.34,688.77,532.32Z"/><path class="cls-3" d="M682.18,567c2-14.26,10.21-23.15,22.81-23.15s23.09,6.57,26.26,23c2.42,12.55-13.66,23.27-26.26,23.27S680.4,579.65,682.18,567Z"/><path class="cls-20" d="M86.44,244.72S84.29,235,89,229s19.8-13.22,16.85-21.6S92.68,198,88.6,202.1s-1.81,8.46-4.56,9-18.8,1.32-17.62-8,11.44-22.35,25.12-22.78,31.87-.26,35.82,17.83-2.79,25.19-12.47,29.86-5.17,15.27-8.68,16.72S86.86,247.88,86.44,244.72Z"/><path class="cls-20" d="M83,262.92c1.05-7.48,5.36-12.15,12-12.15s12.12,3.45,13.78,12.08c1.27,6.59-7.17,12.22-13.78,12.22S82.05,269.56,83,262.92Z"/><path class="cls-18" d="M665.8,292.45s-3.23-14.65,3.8-23.51,29.68-19.81,25.26-32.38-19.72-14.11-25.83-8-2.7,12.68-6.84,13.5-28.17,2-26.4-12,17.14-33.51,37.65-34.16,47.78-.38,53.7,26.73-4.19,37.76-18.69,44.76-7.76,22.89-13,25.07S666.43,297.18,665.8,292.45Z"/><path class="cls-18" d="M660.62,319.73c1.57-11.22,8-18.22,17.94-18.22s18.17,5.17,20.66,18.12c1.91,9.87-10.75,18.31-20.66,18.31S659.22,329.68,660.62,319.73Z"/><path class="cls-20" d="M204.08,392.63s-1.91-8.62,2.23-13.84,17.48-11.65,14.88-19.05-11.61-8.3-15.21-4.7-1.59,7.46-4,7.94-16.59,1.17-15.55-7.07,10.1-19.71,22.18-20.09,28.13-.22,31.62,15.72-2.46,22.22-11,26.33-4.57,13.47-7.66,14.76S204.45,395.41,204.08,392.63Z"/><path class="cls-20" d="M201,408.67c.92-6.6,4.73-10.71,10.56-10.71s10.7,3,12.17,10.66c1.12,5.8-6.33,10.77-12.17,10.77S200.2,414.53,201,408.67Z"/><path class="cls-21" d="M337.91,586.46S256.69,436.1,213.17,462.6,291.86,549.69,314,594.31Z"/><path class="cls-20" d="M324.57,591c-14.78-31.12-40.4-59.06-59.29-77a386.82,386.82,0,0,0-37.84-31.84l.68-1.18a386.67,386.67,0,0,1,38,31.95c19,18,44.71,46.11,59.59,77.43Z"/><path class="cls-3" d="M357.14,644.15c-14.27,13.29-37,14.32-53.16,9.66-8-2.3-14.83-17.07-38.51-12.8-17,3-19-12.13-26.18-23.12l-.4-.6c-2.79-4.07-6.36-7.49-11.79-9.07a68.71,68.71,0,0,1-16.8-7.45c-.43-.26-.85-.53-1.27-.81-10.22-6.71-17.11-15.94-13.39-25.5.08-.22.18-.45.28-.68a19.81,19.81,0,0,1,3-4.75c13.72-16.52,27.62-10.64,43.68-8.1,8.87,1.41,21.53-10,34-15.5l.53-.23c9.88-4.19,19.57-4.41,27.08,8.8h0l.46.8c16.77,29.09,25.07,18.62,48.68,24,4.39,1,8.35,2.11,11,4.48C388.63,605.39,381.44,629.28,357.14,644.15Z"/><path class="cls-20" d="M350,622.43l.84-1.11c-.48-.38-49.31-37.89-155.16-47.56l-.13,1.4C301,584.79,349.54,622.05,350,622.43Z"/><path class="cls-20" d="M286.77,576.43c14.82-11.83,18-21.81,18.07-22.23l-1.32-.41c0,.1-3.16,10-17.6,21.54Z"/><path class="cls-20" d="M283.36,591.33c4.39-6.76,4.68-16.92.85-29.36a95.18,95.18,0,0,0-7.14-16.84l-1.19.71c.16.29,16.42,29.17,6.33,44.72Z"/><path class="cls-20" d="M255.62,587c1.76-1.3,2.72-2.16,2.76-2.2l-.92-1c-.2.18-20.43,18.23-48.36,15.49l-.14,1.39C231.47,602.87,249.08,591.87,255.62,587Z"/><path class="cls-20" d="M239.76,618.38a33.13,33.13,0,0,0,9.87-18.67,24.76,24.76,0,0,0-.1-8.87l-1.34.34c0,.13,3.17,13.75-9.4,26.2Z"/><path class="cls-3" d="M220,549.08c-6.56-1-8.22-3.37-7.85-6s2.63-4.44,9.2-3.48c12,1.76,17.08,7.34,17.08,7.34S232.19,550.86,220,549.08Z"/><path class="cls-22" d="M242.24,258.8l1.71-1.51c1.66-1.49,9.24-2.26,11.58-3.08,4.33-1.5,8.68-2.93,13.06-4.26q13.55-4.12,27.37-7.16,5.06-1.11,10.15-2a225.4,225.4,0,0,1,41.48-3.55c6.26,0,12.89-.21,18.93,1.39,6.58,1.73,13.13,3.57,19.67,5.45,2.08.6,3.36.3,4.67-1.45,4.82-6.46,11.88-9.19,19.29-11.23,8.42-2.31,11.23.59,8.87,9.17-.82,3-1.95,5.81-3,8.88,3.63.93,6.61-.26,9.63-.75,10.12-1.63,16.33,3.67,12.07,12.4-5.79,11.9.35,17.54,7.44,24.84,15.51,16,32.46,29.28,53.75,37q47.22,17.08,71.75,61.36c6,10.74,12.56,21.14,19.22,31.46,19.93,30.86,21.34,63.55,8.1,96.79-13.64,34.22-36.24,61.68-67.81,81.13a138.79,138.79,0,0,0-26.61,21.78,146.7,146.7,0,0,1-16.94,15.17c-5.73,4.32-11.71,9-19.87,4.13C464,633,461,636.31,458,637c-7.65,1.78-9.44.42-8.75-7.44.14-1.53.19-2.44-1.47-2.84-7.71-1.85-4.38-6.41-2.1-10.06,3.13-5,6.87-9.66,11-15.39-13.54,1.62-25.93,3.21-38.34.66-4.32-.89-3.71,3-4.19,5.11A176.85,176.85,0,0,0,409.92,646a106.49,106.49,0,0,1-2.5,21.78,18.36,18.36,0,0,1-5.17,9.46c-4.89,4.91-9.81,5.34-13.62-.73-4-6.39-8.38-6.27-14.06-2.6a35,35,0,0,1-12.21,5.19c-7.57,1.49-10.9-1.08-9.39-8.49,1.06-5.23-1-5.45-5.07-5.61-10.7-.42-11.88-2.76-6-11.57,11.24-16.85,21.18-34.24,25.39-54.4.78-3.75.57-5.84-3.52-6.87-12.26-3.07-22.6-9.91-31.63-18.27-6.09-5.64-8.46-3.21-11.06,2.56-3.53,7.86-7.06,15.73-10.76,23.51-9.13,19.18-27.48,23.51-45.64,27.87-3.68.89-7.7,0-8.32-4.89-.58-4.53-3.89-2.43-6-2.71-7.83-1.05-7.59-2-5.83-9.68,1.27-5.51,3.07-9.62,7.93-12,12.25-6,17.45-17.68,23-28.83,6.16-12.41,11.42-25.25,17.13-37.88,1.22-2.71,1.76-5.08.49-8.16-11.08-27-16.66-55.58-22.94-83.89-1.62-7.3-4.43-8.48-10.8-7.87-13.54,1.31-27.11,2.09-40.72.24C202.79,430,190,423.42,180.54,410c-8-11.41-15.4-23.09-20.82-35.9-13.51-31.91-3.48-65.66,25.51-84.49,17.3-11.24,34.89-22.13,54.29-29.6ZM477.9,588.67l-2.47,1.7c-9.2,9.41-19.14,18.26-25.25,30.76,6.29,1.35,6.86-6.74,12.41-5.2.46,5.93-6.65,9-6.19,15.4,7.14-.7,11.13-6.84,17.12-7.68,3.12,2-1.56,5.08,1.59,7.13,10.2-4.26,16.95-12.8,24.38-20.32a154.26,154.26,0,0,1,32.32-25.54c15.51-9,29.52-20.45,37.9-37.15l.35-.58-.34-.58v-.16c2.34,2.35,2.34,0,2.83-1.41l-.22,0c1.53-.59,2.29-1.59,1.81-3.28l0,.23c10.64-12.24,16.77-26.95,21.34-42.1,7.16-23.72,6.34-47.61-6.92-68.92-9.79-15.74-19.87-31.33-29.38-47.26-6.32-10.58-13.41-20.59-22.77-28.81-2.41-2.12-4.79-4-8.24-3.71-6.08-9.52-16.16-13.76-25.61-18.32-22.16-10.72-44-21.64-60.25-41-3.85-4.59-8-12.1-12.3-12.3-4.9-.22-10.12,6.21-15.19,9.75-4.31-.73-9.09,1.2-12.91-2.29,1.44-2.7,4.32-2.52,6.69-3.39,10.88-4,19.73-10.3,24.05-21.6,1.2-3.13,1.91-6-3.31-4.35-4.83-4-10.36-2.28-15.76-2-5.63.23-10.85,3.61-16.69,2.11,3.22-3.64.76-4.44-2.43-5.64-15.94-6-32.09-10.37-49.06-5.11-4,1.25-7.87-2.39-11.92,1.17-11.39,10-24.07,11.67-37.7,4.42-1.8-1-4.05-3.44-6.05-.25-6.34,10.1-17.31,11.42-27.3,14.72-3.86,1.28-7.67.9-10.44-1.37-4-3.25-7.24-1.94-10.77,0-12.83,7-25.63,14.05-38.44,21.08-5.58,3.34-11.28,6.5-16.72,10.05-8.85,5.79-16.46,12.79-20.54,22.89-3.57,8.87-3.45,9.07,6,10.78.53,4.13,5,8.77-1.57,12l-6.28-6.75c-8.71,17.8,4.2,47.92,22,69.49l1.55,1.86c5.21,11.39,15.52,15.65,26.6,18.14,14.67,3.3,29.51,2.19,44.28.15l18.79-.25q19.14,1.53,38.28,3c2.07.16,4.24,0,5.65,2-1.41,2.12-3.55,3.13-5.86,3.87-10.89-1.18-21.92.13-32.77-2.06-6-1.21-7.9.84-5.95,7.27,3.84,12.62,6.85,25.48,10.2,38.24-.55,4.63,1.93,8.57,3.06,12.79,7.34,27.38,17.47,53.29,39.9,72.37,2.14,1.83,3.8,4.48,7.12,4.43,6.54,8.66,16.23,12.67,25.41,17.58,6.76,3.62,8.85,1.21,9-5.37l3-25.16c4,3.41,4.49,7.42,5,11.5,1.1,9.69-.44,19.27-.92,28.89-1.63.75-2,2.27-2.41,3.82a179,179,0,0,1-24,54.26c-.9,1.38-3.2,3.12-1.36,4.64a4.92,4.92,0,0,0,6.49-.44c1.63-1.56,2.8-4.67,5.51-2.9,2.15,1.41,1,4.32.79,6.62-.42,3.74-4.78,8.58-1.58,10.72,3.65,2.45,7.88-2.5,11.9-4.09,1.19-.47,2.79-1.11,3.21-2.1,3.1-7.32,6.46-3.6,9.82-.38,1.7,1.63,3.22,3.45,5,5s2.64,4.43,5.55,3.49c2.59-.83,2.77-3.61,3.43-5.81a24.75,24.75,0,0,0,.76-4.62c2.35-23.25.52-47,8.86-69.52,5.21-10.14,9.4-20.87,16.83-29.75,1.56-1.86,2.93-5.58,5.77-4,3.67,2,.46,5.13-.54,7.4-3.55,8-9.73,14.7-11.93,23.42-2.52,3.8-2.3,6.35,3,6.33,9,0,18.16.6,27.09-.44,6-.7,13.36.37,17.25-6.57,5.86-3.16,8.94-10.4,16.42-11.18.31,3.83-4.2,5.22-4.43,8.77l0,0c-1.2-.09-1.71.48-1.62,1.65ZM314.09,572.76c1.59-3.61,8.36-6.11,3.93-11a194.23,194.23,0,0,1-20.63-27.23L285.48,568c-5,3.78-6.49,9.9-9.59,14.89-6.74,10.84-15.49,20.05-24,30.55,4.58.67,7.84,1.14,10.59-2.45,1.51-2,4.34-4.6,6.55-2.93,2.92,2.21-.67,4.45-1.78,6.51s-3,3.68-2.37,7.31c12.67-3.16,26-5.27,34.59-15.84C307.17,596.55,311.6,584.92,314.09,572.76Zm79.36-327.15c4.3,1.94,8.14,3.44,11.76,5.36,3.19,1.68,5.09.17,6.2-2.36,1.71-3.9,4.66-7.7,2.8-12.32-.53-1.32-2.26-.75-3.51-.42C404.45,237.51,398.22,239.2,393.45,245.61Z"/><path class="cls-23" d="M242.24,258.8l-2.72,1.2Z"/><path class="cls-24" d="M420,590.21c2.2-8.72,8.38-15.4,11.93-23.42,1-2.27,4.21-5.41.54-7.4-2.84-1.55-4.21,2.17-5.77,4-7.43,8.88-11.62,19.61-16.83,29.75-7.39,3.15-9.95,11.07-15.69,15.91-6.66,5.62-12.94,3.84-15-4.67-.77-3.28.37-6.81-1.33-10,.48-9.62,2-19.2.92-28.89-.47-4.08-.93-8.09-5-11.5l-3,25.16c-7,0-11.66-5-17.1-8.32-7.91-4.82-13.49-12.71-22-16.68l.08.06-1.68-1.67.11.13-1.46-3.18c-8.79-16.43-17.54-32.89-26.39-49.3-3.27-6.06-9.08-10.75-9.86-18.18-.25-1.53-.42-3.07-.74-4.59-3.49-16.66,2.68-30.34,17.47-38.62,2.24-1.25,4.88-2,5.66-4.9,2.31-.74,4.45-1.75,5.86-3.87,5.8.87,10.65-2,15.56-4.23,1.94-.88,4.57-2.66,4-5.21s-3.6-1.73-5.42-1.46c-16.84,2.45-33.78,1.1-50.67,1.55-3.13.08-6.38.39-7.35,4.34l-18.79.25c3.15-2.75,8.1-.6,11.47-4.42-10.67-1.48-20.95.31-31.17-.27-2.8-.16-6.6,1.48-7.34-3.34,2.33-1.22,5.15-2.64,4.5-5.57-.79-3.6-4.41-3-7.14-3a41.08,41.08,0,0,1-20.71-5.47c9.72-12.15,19.53-24.15,25.81-38.68,6-14,8.73-28.42,7-43.41-1.93-16.14-17.64-27-39.14-28-1.48-.07,4.48-5.42,4.76-5.61a45.11,45.11,0,0,1,8.4-4.19c5.89-2.33,12.08-3.81,18-6q20.22-7.62,40.55-14.94c17.22-6.19,34.74-12.27,53-13.63,5.45-.4,10.91-.38,16.36-.36,9.34,0,18.77.07,28,1.74,9,1.64,17.77,5,26.52,7.58,5.84,1.5,11.06-1.88,16.69-2.11,5.4-.23,10.93-1.91,15.76,2-1.61,5.63-4.86,9.58-10.91,10.65-.24-.68-.48-1.36-.71-2,.05-.51.33-1.3.11-1.48-4.95-4-20.93,2.45-21.86,8.84-.07.46.94,1.08,1.45,1.62,1.8,3.85,5.55,1.85,8.33,2.77-.19,2.61-2.16,3.66-4.06,4.95s-3.3,2.89.22,4c3.82,3.49,8.6,1.56,12.91,2.29,1.42,3.19,4.38,2.23,6.85,2.46,5.35.51,10.3,2,14.18,5.9,27.37,27.3,62.9,41.69,95.62,60.52,3.22,4.34,7.16,8.32,9.53,13.09,9.61,19.35,21.18,37.56,32.53,55.85C584,444,590.2,462.29,590.4,481.64c.16,15.48-5.18,30.6-11.78,44.88-2.28,4.93-5,9.77-4.51,15.5l0-.23c-1.68.5-1.86,1.83-1.81,3.28l.22,0-1.57-.13-1.62-.18.36,1.88.34.58a5.81,5.81,0,0,1-.36.55c-2.34-2.34-3.75-.43-5,1.22-5.45,7.36-12.17,13.54-18.81,19.7A96.07,96.07,0,0,1,499,593c-5.37,1.08-11,1.44-13.28-5.58,5.83-8.68,15.19-14.22,20.71-23.2,1-1.66,3.59-2.89,1.77-5.26s-4.16-1.3-6.33-.2a36.45,36.45,0,0,0-18,19.56c-7.48.78-10.56,8-16.42,11.18A432.7,432.7,0,0,1,420,590.21ZM359.37,285.69c-6.89-.15-13.72,0-20.45-2.54-3.73-1.43-8.11-.94-10.22,3.8-3.38,1.59-3.45,3.61-.69,5.89,12.69,10.47,22.82,14.23,34-.37,1.23-1.6,4-2.59,3.44-4.85C364.65,284.4,361.35,286.62,359.37,285.69Z"/><path class="cls-25" d="M201.29,293.2c21.5,1,37.21,11.82,39.14,28,1.78,15-.91,29.43-7,43.41-6.28,14.53-16.09,26.53-25.81,38.68-4.6-2.16-9.44-6.2-12.79,1.61-2.32,1.61-6.74-4.23-7.7,2.18l-1.55-1.86a17.16,17.16,0,0,0-1.57-8.28c-3.9-8.76-6.7-17.9-9.4-27.11-2.65-9-2.31-18.39-4.77-27.35,6.6-3.19,2.1-7.83,1.57-12,0-2.6-.2-5.23,1.09-7.64a100.33,100.33,0,0,1,22.06-28C196.58,293.1,199,293.44,201.29,293.2Zm-2.23,38.87c.55-2.33.36-5.05-2.27-4.75-6.43.71-8.65,5.86-9.88,11.38-.67,3-.1,6.86,3.42,6.38C197.47,344.11,197.07,337,199.06,332.07Z"/><path class="cls-26" d="M377.89,594.44c1.7,3.16.56,6.69,1.33,10,2,8.51,8.3,10.29,15,4.67,5.74-4.84,8.3-12.76,15.69-15.91-8.34,22.49-6.51,46.27-8.86,69.52a24.75,24.75,0,0,1-.76,4.62c-.66,2.2-.84,5-3.43,5.81-2.91.94-3.91-2-5.55-3.49s-3.26-3.41-5-5c-3.36-3.22-6.72-6.94-9.82.38-.42,1-2,1.63-3.21,2.1-4,1.59-8.25,6.54-11.9,4.09-3.2-2.14,1.16-7,1.58-10.72.25-2.3,1.36-5.21-.79-6.62-2.71-1.77-3.88,1.34-5.51,2.9a4.92,4.92,0,0,1-6.49.44c-1.84-1.52.46-3.26,1.36-4.64a179,179,0,0,0,24-54.26C375.88,596.71,376.26,595.19,377.89,594.44Z"/><path class="cls-27" d="M574.11,542c-.45-5.73,2.23-10.57,4.51-15.5,6.6-14.28,11.94-29.4,11.78-44.88-.2-19.35-6.43-37.63-16.9-54.49-11.35-18.29-22.92-36.5-32.53-55.85-2.37-4.77-6.31-8.75-9.53-13.09.38-3-3.14-4.22-3.3-7,3.45-.33,5.83,1.59,8.24,3.71,9.36,8.22,16.45,18.23,22.77,28.81,9.51,15.93,19.59,31.52,29.38,47.26,13.26,21.31,14.08,45.2,6.92,68.92C590.88,515.07,584.75,529.78,574.11,542Z"/><path class="cls-28" d="M485.67,587.45c2.25,7,7.91,6.66,13.28,5.58a96.07,96.07,0,0,0,47-24.37c6.64-6.16,13.36-12.34,18.81-19.7,1.22-1.65,2.63-3.56,5-1.22-8.37,16.73-22.38,28.18-37.89,37.18a154.26,154.26,0,0,0-32.32,25.54c-7.43,7.52-14.18,16.06-24.38,20.32-3.15-2,1.53-5.13-1.59-7.13-6,.84-10,7-17.12,7.68-.46-6.39,6.65-9.47,6.19-15.4-5.55-1.54-6.12,6.55-12.41,5.2,6.11-12.5,16.05-21.35,25.25-30.76l2.47-1.7-.12.07c1.08,0,1.78-.42,1.62-1.65l0,0Z"/><path class="cls-26" d="M314.09,572.76c-2.49,12.16-6.92,23.79-14.65,33.28-8.62,10.57-21.92,12.68-34.59,15.84-.59-3.63,1.29-5.29,2.37-7.31s4.7-4.3,1.78-6.51c-2.21-1.67-5,1-6.55,2.93-2.75,3.59-6,3.12-10.59,2.45,8.54-10.5,17.29-19.71,24-30.55,3.1-5,4.61-11.11,9.6-14.89a21,21,0,0,1,.61,3c.69,11.51,4.81,13.67,15.36,8.72C305.85,577.66,308.79,573.06,314.09,572.76Z"/><path class="cls-28" d="M396.86,257.76c-15-4.4-28.46-5.85-44.12-5.64-16.65.22-33.48-1.48-49.84,1.59-9.1,1.72-17.86,4.88-26.57,8-24.19,8.74-47.89,18.12-71.94,27.18l-1.64-2.16c12.81-7,25.61-14.09,38.44-21.08,7.71-4.2,17.17-6.12,25.57-8.6,9-2.65,18-5.14,27-7.59,7.46-2,14.93-4,22.54-5.42,26.58-4.84,53-1.37,78.12,8.05C397.62,253.32,400.08,254.12,396.86,257.76Z"/><path class="cls-28" d="M528.14,351.22c.16,2.77,3.68,3.95,3.3,7-32.72-18.83-68.25-33.22-95.62-60.52-3.88-3.87-8.83-5.39-14.18-5.9-2.47-.23-5.43.73-6.85-2.46,5.07-3.54,10.29-10,15.19-9.75,4.29.2,8.45,7.71,12.3,12.3,16.24,19.38,38.09,30.3,60.25,41C512,337.46,522.06,341.7,528.14,351.22Z"/><path class="cls-27" d="M292.53,482.07c.78,7.43,6.59,12.12,9.86,18.18,8.85,16.41,17.6,32.87,26.39,49.3l1.46,3.18-.11-.13,1.68,1.67-.08-.06c-1.67,5.47,4.93,7.87,4.75,12.79-3.32,0-5-2.6-7.12-4.43-22.43-19.08-32.56-45-39.9-72.37-1.13-4.22-3.61-8.16-3.06-12.79C290,476.91,289.79,481.44,292.53,482.07Z"/><path class="cls-24" d="M314.09,572.76c-5.3.3-8.24,4.9-12.63,7-10.55,4.95-14.67,2.79-15.36-8.72a21,21,0,0,0-.61-3c3.82-10.76,7.65-21.51,11.9-33.44A194.23,194.23,0,0,0,318,561.79C322.45,566.65,315.68,569.15,314.09,572.76Z"/><path class="cls-28" d="M292.53,482.07c-2.74-.63-2.52-5.16-6.13-4.66-3.35-12.76-6.36-25.62-10.2-38.24-1.95-6.43,0-8.48,5.95-7.27,10.85,2.19,21.88.88,32.77,2.06-.78,2.92-3.42,3.65-5.66,4.9-14.79,8.28-21,22-17.47,38.62C292.11,479,292.28,480.54,292.53,482.07Z"/><path class="cls-28" d="M187.18,407c1-6.41,5.38-.57,7.7-2.18a43.3,43.3,0,0,0-1.25,6.09c-.18,2.61,1.57,4.67,3.72,2.76,4.67-4.14,8.58-1.54,13,.11,6.65,2.5,13.65,3.26,20.72,3.48.74,4.82,4.54,3.18,7.34,3.34,10.22.58,20.5-1.21,31.17.27-3.37,3.82-8.32,1.67-11.47,4.42-14.77,2-29.61,3.15-44.28-.15C202.7,422.69,192.39,418.43,187.18,407Z"/><path class="cls-29" d="M169.89,342.44c2.46,9,2.12,18.36,4.77,27.35,2.7,9.21,5.5,18.35,9.4,27.11a17.16,17.16,0,0,1,1.57,8.28c-17.82-21.57-30.73-51.69-22-69.49Z"/><path class="cls-27" d="M276.85,425.08c1-3.95,4.22-4.26,7.35-4.34,16.89-.45,33.83.9,50.67-1.55,1.82-.27,4.8-1.16,5.42,1.46s-2,4.33-4,5.21c-4.91,2.23-9.76,5.1-15.56,4.23-1.41-2-3.58-1.81-5.65-2Q296,426.62,276.85,425.08Z"/><path class="cls-28" d="M336.48,567c.18-4.92-6.42-7.32-4.75-12.79,8.53,4,14.11,11.86,22,16.68,5.44,3.32,10.06,8.29,17.1,8.32-.11,6.58-2.2,9-9,5.37C352.71,579.67,343,575.66,336.48,567Z"/><path class="cls-29" d="M202.75,286.76l1.64,2.16c-1,1.42-3.13,2.09-3.1,4.29-2.3.23-4.71-.11-6.68,1.62a100.33,100.33,0,0,0-22.06,28c-1.29,2.41-1.11,5-1.09,7.64-9.42-1.71-9.54-1.91-6-10.78,4.08-10.1,11.69-17.1,20.54-22.89C191.47,293.26,197.17,290.1,202.75,286.76Z"/><path class="cls-27" d="M485.67,587.45l-6.31-.33c.23-3.55,4.74-4.94,4.43-8.77a36.45,36.45,0,0,1,18-19.56c2.17-1.1,4.48-2.2,6.33.2s-.75,3.6-1.77,5.26C500.86,573.23,491.5,578.77,485.67,587.45Z"/><path class="cls-28" d="M420,590.21a432.7,432.7,0,0,0,47.37-.68c-3.89,6.94-11.25,5.87-17.25,6.57-8.93,1-18.05.42-27.09.44C417.7,596.56,417.48,594,420,590.21Z"/><path class="cls-29" d="M401.88,287c-3.52-1.15-2.05-2.8-.22-4s3.87-2.34,4.06-4.95c6.71,0,9-5.72,12.68-9.71,6.05-1.07,9.3-5,10.91-10.65,5.22-1.68,4.51,1.23,3.31,4.36-4.32,11.3-13.17,17.6-24.05,21.6C406.2,284.52,403.32,284.34,401.88,287Z"/><path class="cls-28" d="M393.45,245.61c4.77-6.41,11-8.1,17.25-9.74,1.25-.33,3-.9,3.51.42,1.86,4.62-1.09,8.42-2.8,12.32-1.11,2.53-3,4-6.2,2.36C401.59,249.05,397.75,247.55,393.45,245.61Z"/><path class="cls-28" d="M569.72,546.61l-.36-1.88,1.61.18-1.25,1.54Z"/><path class="cls-27" d="M569.72,546.45l1.25-1.54,1.58.13C572.06,546.43,572.06,548.8,569.72,546.45Z"/><path class="cls-27" d="M572.33,545.07c-.05-1.45.13-2.78,1.81-3.28C574.62,543.48,573.86,544.48,572.33,545.07Z"/><path class="cls-27" d="M479.4,587.09c.16,1.23-.54,1.63-1.62,1.65C477.69,587.57,478.2,587,479.4,587.09Z"/><path class="cls-27" d="M477.9,588.67l-2.47,1.7Z"/><path class="cls-22" d="M359.37,285.69c2,.93,5.28-1.29,6.09,1.93.58,2.26-2.21,3.25-3.44,4.85-11.19,14.6-21.32,10.84-34,.37-2.76-2.28-2.69-4.3.69-5.89,2.27.52,4.8.56,6.77,1.63C344.21,293.28,352,291.16,359.37,285.69Z"/><path class="cls-22" d="M231,417.3c-7.07-.22-14.07-1-20.72-3.48-4.37-1.65-8.28-4.25-13-.11-2.15,1.91-3.9-.15-3.72-2.76a43.3,43.3,0,0,1,1.25-6.09c3.35-7.81,8.19-3.77,12.79-1.61a41.08,41.08,0,0,0,20.71,5.47c2.73,0,6.35-.59,7.14,3C236.17,414.66,233.35,416.08,231,417.3Z"/><path class="cls-29" d="M359.37,285.69c-7.42,5.47-15.16,7.59-23.9,2.89-2-1.07-4.5-1.11-6.77-1.63,2.11-4.74,6.49-5.23,10.22-3.8C345.65,285.73,352.48,285.54,359.37,285.69Z"/><path class="cls-22" d="M397.39,275.28c-.51-.54-1.52-1.16-1.45-1.62.93-6.39,16.91-12.83,21.86-8.84.22.18-.06,1-.11,1.48C410.26,267.81,404.27,272.54,397.39,275.28Z"/><path class="cls-28" d="M397.39,275.28c6.88-2.74,12.87-7.47,20.3-9,.23.68.47,1.36.71,2-3.65,4-6,9.73-12.68,9.71C402.94,277.13,399.19,279.13,397.39,275.28Z"/><path class="cls-28" d="M330.24,552.73l-1.46-3.18Z"/><path class="cls-28" d="M331.81,554.27l-1.68-1.67Z"/><path class="cls-22" d="M199.06,332.07c-2,4.94-1.59,12-8.73,13-3.52.48-4.09-3.38-3.42-6.38,1.23-5.52,3.45-10.67,9.88-11.38C199.42,327,199.61,329.74,199.06,332.07Z"/></svg>