<svg xmlns="http://www.w3.org/2000/svg" viewBox="0 0 263.11 255.77"><defs><style>.cls-1{isolation:isolate;}.cls-2{fill:#452499;opacity:0.15;mix-blend-mode:multiply;}.cls-3{fill:#25ca68;}.cls-4{fill:#fff;}.cls-5{fill:none;stroke-width:1.23px;}.cls-11,.cls-5{stroke:#2c2355;stroke-linecap:round;stroke-linejoin:round;}.cls-6{fill:#16954d;}.cls-7{fill:#ff99ac;}.cls-8{fill:#ff8197;}.cls-9{fill:#ef6579;}.cls-10{fill:#f32b36;}.cls-11{fill:#2c2355;stroke-width:1.14px;}</style></defs><g class="cls-1"><g id="Capa_1" data-name="Capa 1"><path class="cls-2" d="M219.55,93.4c-2.89-15-6.17-30-12.47-43.94S191.17,22.76,178,15.05c-16.71-9.79-37.26-10.42-56.48-8C99.78,9.7,78.27,16,59.58,27.44S25.15,55.66,16.91,76c-9.25,22.76-8.66,48.32-5.3,72.66,2.94,21.31,8.13,42.9,20.35,60.59,14.26,20.64,37.16,34.25,61.36,40.84s49.73,6.65,74.71,4.33c21.51-2,43.47-6,61.88-17.29s32.68-31.39,31.91-53C260.65,151.44,226.39,128.92,219.55,93.4Z"/><path class="cls-3" d="M210.19,87.55c-2.89-15-6.17-30-12.47-43.94S181.81,16.91,168.64,9.2c-16.71-9.79-37.26-10.42-56.48-8-21.74,2.69-43.25,9-61.94,20.43S15.79,49.81,7.55,70.11c-9.25,22.76-8.66,48.32-5.3,72.66,2.94,21.31,8.13,42.9,20.35,60.59C36.86,224,59.76,237.61,84,244.2s49.73,6.65,74.71,4.33c21.52-2,43.47-6,61.88-17.29s32.68-31.39,31.91-53C251.29,145.59,217,123.07,210.19,87.55Z"/><path class="cls-2" d="M225.42,121.94l-13.33-.86s-68.83-19.87-69.2-19,0-12.27,0-12.27C161.33,87.52,167,71.11,167,71.11,177.83,81,188,69.91,188,69.91a89.66,89.66,0,0,1,20,6.87c-.57-2.65-1.17-5.29-1.82-7.92-4.09-1.6-10.24-3.68-19.4-6.42C150.23,51.51,81.85,66.7,81.85,66.7c1.65,19.81,22.1,8,22.1,8,7.79,13.88,25.76,14,25.76,14v14.7c0,1.3-39,11.64-55.39,23.23s-27.77,36.13-27.77,36.13a29.12,29.12,0,0,0,6.7,3.76L50.66,177.3C46,227.42,88.77,217.6,88.77,217.6l-3.2,27c23.72,6.16,48.67,6.19,73.1,3.92,17.05-1.58,34.38-4.42,50-11.16.92-37.59-5.95-84.68-5.95-84.68A105.26,105.26,0,0,0,227,150.13L226.2,132a13.16,13.16,0,0,0,5.21-1C229.4,128,227.38,125,225.42,121.94Z"/><path class="cls-4" d="M91.21,85.19A110.73,110.73,0,0,0,82.39,78a263.53,263.53,0,0,0-2.64-57.37,11.07,11.07,0,0,0-8-9c-14-3.74-27.38-3.78-39.55-.27a11.15,11.15,0,0,0-7.94,9.12,305.1,305.1,0,0,0-1.94,70.85,11.06,11.06,0,0,0,8.72,9.87,106.1,106.1,0,0,0,41.19.38A11,11,0,0,0,81.12,92c.26-2.18.48-4.37.68-6.56C85,85.32,88.24,85.21,91.21,85.19Z"/><path class="cls-2" d="M82.9,61.35C60.17,84,32.59,81,21.5,78.61c.2,4.24.46,8.49.83,12.73a11.06,11.06,0,0,0,8.72,9.87,106.1,106.1,0,0,0,41.19.38A11,11,0,0,0,81.12,92c.26-2.18.48-4.37.68-6.56,3.24-.14,6.44-.25,9.41-.27A110.73,110.73,0,0,0,82.39,78C82.74,72.45,82.9,66.9,82.9,61.35Z"/><path class="cls-5" d="M23.46,26.42a306.14,306.14,0,0,0-1.13,64.92,11.06,11.06,0,0,0,8.72,9.87,106.1,106.1,0,0,0,41.19.38A11,11,0,0,0,81.12,92c.26-2.18.48-4.37.68-6.56,3.24-.14,6.44-.25,9.41-.27A110.73,110.73,0,0,0,82.39,78a263.53,263.53,0,0,0-2.64-57.37,11.07,11.07,0,0,0-8-9,75.11,75.11,0,0,0-34.57-1.5"/><path class="cls-5" d="M24.27,20.49c-.13.84-.24,1.68-.36,2.52"/><path class="cls-5" d="M32.21,11.37A11.14,11.14,0,0,0,27,14.62"/><path class="cls-6" d="M47,60.35A5.12,5.12,0,0,1,45.2,58.5a5.74,5.74,0,0,1-.88-3.16,3.53,3.53,0,0,1,.93-2.66A6.25,6.25,0,0,1,48,51.33l4.45-1.11c1.9-.5,2.84-1.42,2.84-2.75a2.34,2.34,0,0,0-1.07-1.88,6.16,6.16,0,0,0-3.63-.78,15.94,15.94,0,0,0-4.39.62,13.2,13.2,0,0,0-3.3,1.42,7.09,7.09,0,0,1-1.66-1.79,4.62,4.62,0,0,1-.7-2.54,4.21,4.21,0,0,1,.84-2.6,6.41,6.41,0,0,1,2.36-1.83A13.45,13.45,0,0,1,47.34,37a28.13,28.13,0,0,1,4.59-.36q6.74,0,10.2,2.94a9.87,9.87,0,0,1,3.49,7.83q0,9.12-12.83,11.76Zm-1.84,7.48a5.11,5.11,0,1,1,1.47,3.84A5.33,5.33,0,0,1,45.19,67.83Z"/><path class="cls-7" d="M128.71,81.47c-.2,7.48-.41,15-.1,22.71A39.34,39.34,0,0,0,145,104Q144,92.4,143.07,80.76Z"/><path class="cls-8" d="M143.78,89.6c-.23-2.95-.47-5.89-.71-8.84l-14.36.71q-.11,3.93-.18,7.89A23.5,23.5,0,0,0,143.78,89.6Z"/><path class="cls-7" d="M99.16,211.22c-13.75,6.19-31.35,2.33-41.24-9.05s-11.29-29.33-3-42c16.38,1.69,32.5,5.88,47.25,14C101.65,186.53,101.12,199,99.16,211.22Z"/><path class="cls-8" d="M100.27,202.91c-26,3.35-42.72-8.83-49.81-15.59a34.42,34.42,0,0,0,7.46,14.85c9.89,11.38,27.49,15.24,41.24,9.05C99.6,208.46,100,205.69,100.27,202.91Z"/><path class="cls-5" d="M58.37,189.46a9.66,9.66,0,0,0,9.23,10.12"/><path class="cls-9" d="M101.34,178.71a107.15,107.15,0,0,1-54.79-20,106.77,106.77,0,0,1,52.63-51.17s4.27,28.4,4.72,43.08A126.56,126.56,0,0,1,101.34,178.71Z"/><path class="cls-7" d="M217.89,132c2.4-.74,4.79-1.49,7.17-2.3,9-3,18-6.89,25.22-13.1S262.9,101.49,263.1,92c.17-7.94-3.27-15.68-8.36-21.77S243,59.5,236,55.67A121.44,121.44,0,0,0,155.57,42.9c0,7.57.48,14.42.34,21.26a80.79,80.79,0,0,1,50.55,8.89c4.37,2.43,9.06,6.47,8.18,11.39a7,7,0,0,1-1.41,3.11s-2.39,14-1.33,23.75S217.89,132,217.89,132Z"/><path class="cls-8" d="M181.49,44.77,167,48.14s.08,7.49.3,15.16a81.31,81.31,0,0,1,24,3.4c2-4.06,2.39-8.38,1.33-13.39C191,45.44,181.49,44.77,181.49,44.77Z"/><path class="cls-8" d="M262,83.72c-10.32,25.14-41.12,32-49.11,33.41a89.33,89.33,0,0,0,5,14.85c2.4-.74,4.79-1.49,7.17-2.3,9-3,18-6.89,25.22-13.1S262.9,101.49,263.1,92A28.32,28.32,0,0,0,262,83.72Z"/><path class="cls-5" d="M256.12,88.49a4.82,4.82,0,0,1-1.61,8.33"/><path class="cls-9" d="M213.23,87.55c-2.09,2.68-6,4.15-9.51,5-16.57,4.14-33.66,5.33-50.77,5.8l-14.28,9.2-19.85-6.53a103.59,103.59,0,0,0-19.64,6.53l-2.55,36.07Q94,194.82,91.36,246c22,4.77,44.86,4.63,67.31,2.54,16-1.48,32.23-4.06,47.08-9.94.19-30.66-2.69-60.63-7.29-90.34,10.87-.16,20.55-.56,30.15-1.65,1.49-21.41-4.47-41.84-15.39-59.17Z"/><path class="cls-2" d="M198.46,148.25c10.87-.16,20.55-.56,30.15-1.65a93.55,93.55,0,0,0-.4-17.18c-7.29,1.46-21,3.85-32.87,3.85A113.81,113.81,0,0,1,198.46,148.25Z"/><path class="cls-5" d="M205.75,238.59c.19-30.66-2.69-60.63-7.29-90.34,10.87-.16,20.55-.56,30.15-1.65"/><path class="cls-5" d="M96.63,143.65Q94,194.82,91.36,246"/><path class="cls-5" d="M166.87,139.72c-17.65-9.44-42.28-2.08-51.86,15.49s-2.43,42.27,15.07,52,42.24,2.77,52.11-14.65S185.62,149.74,166.87,139.72Z"/><path class="cls-8" d="M149.81,139.1c-14.22-.46-28.2,9.09-33.13,22.61s-.41,30,10.68,39,27.94,9.89,39.89,2.08,18.1-23.73,14.57-37.69S165.38,139.6,149.81,139.1Z"/><path class="cls-10" d="M153.43,189.88H135.21c-1.61,0-2.41-.46-2.41-1.37a2,2,0,0,1,.51-1.3c.34-.4,1.43-1.47,3.29-3.22a43.65,43.65,0,0,0,7.65-9.07,7.47,7.47,0,0,0,1.28-3.69,3,3,0,0,0-.77-2.13,2.84,2.84,0,0,0-2.09-.79,4.05,4.05,0,0,0-1.87.34,22.38,22.38,0,0,0-2.84,2.18,2.37,2.37,0,0,1-1.55.48,3.33,3.33,0,0,1-2.31-1,2.85,2.85,0,0,1-1.06-2.12,4.19,4.19,0,0,1,1-2.37,12.07,12.07,0,0,1,2.54-2.5,21.48,21.48,0,0,1,12.82-4.15,17.25,17.25,0,0,1,8.85,2.06,7.3,7.3,0,0,1,3.51,6.15q0,4.68-6.48,10.17c-1.53,1.28-2.3,2.25-2.3,2.89a1.56,1.56,0,0,0,.7,1.27,2.69,2.69,0,0,0,1.68.52,5.84,5.84,0,0,0,4.2-1.82,11.3,11.3,0,0,1,1.25-1.1,1.64,1.64,0,0,1,.84-.18q2.35,0,2.36,4a11.67,11.67,0,0,1-.77,4.07,11.1,11.1,0,0,1-2.07,3.55,4,4,0,0,1-3,1.61,1.81,1.81,0,0,1-1.07-.28,4,4,0,0,1-.91-1.06,2.47,2.47,0,0,0-.95-1A4.77,4.77,0,0,0,153.43,189.88Z"/><path class="cls-7" d="M142.72,116.32c3.77-1.71,6.46-5.25,8-9.08A39.38,39.38,0,0,0,153,98.38c-5.47.15-10.94.23-16.4.3a98,98,0,0,0-17.73,2.37c1.67,4.71,4.17,9.2,8,12.38C131.18,117.07,137.55,118.67,142.72,116.32Z"/><path class="cls-10" d="M94.7,53a17.82,17.82,0,0,1-4-17.64,17.73,17.73,0,0,1,13.9-11.63,8.1,8.1,0,0,1,.78-7.61c1.52-2,6.26-2.59,7.82-.39C119.52,10.75,124.17,3.84,132,2s18.75,2,26.34,8.13c5.91-2.21,15-.67,18.12,4.81s.22,16.14-5.4,20.89a8.1,8.1,0,0,1-3.13,11.71,7.07,7.07,0,0,1,1.1,6.91c-.9,2.28-3.08,4-7.32,4.62a59.69,59.69,0,0,1-42.18,14.26,34.73,34.73,0,0,1-12.37-2.75,19.15,19.15,0,0,1-9.24-8.43Z"/><path class="cls-7" d="M103.37,53.68A13.54,13.54,0,0,0,87.17,49,14.1,14.1,0,0,0,79.3,64.06,14.67,14.67,0,0,0,91.92,75.57a15.3,15.3,0,0,0,15-8.48Z"/><path class="cls-5" d="M86.4,62.22a9.24,9.24,0,0,1,10.86-6.56"/><path class="cls-5" d="M95.25,65.12a12.7,12.7,0,0,1-4.43-8.5"/><path class="cls-7" d="M164.94,50.54a13.53,13.53,0,0,1,15.11-7.48,14.08,14.08,0,0,1,10.42,13.4A14.67,14.67,0,0,1,180.1,70a15.31,15.31,0,0,1-16.22-5.68Z"/><path class="cls-5" d="M183.16,55.91a9.27,9.27,0,0,0-11.86-4.52"/><path class="cls-5" d="M175,60.35a12.67,12.67,0,0,0,2.85-9.15"/><path class="cls-7" d="M167,52.27c-.3,6.38-1.28,12.81-3.87,18.65S156.26,82,150.53,84.81,138,87.88,131.66,86.9c-8.15-1.25-16.16-4.53-22-10.36a25.62,25.62,0,0,1-7.13-23.7A49.14,49.14,0,0,0,107.2,32.3a11,11,0,0,0,9.47,4.34,14.1,14.1,0,0,0,9.49-4.71,20.73,20.73,0,0,0,4.72-9.55,8.88,8.88,0,0,0,5.88,5.18,11.76,11.76,0,0,0,7.87-1.09,11.18,11.18,0,0,0,6.26,6.25c2.83,1.11,6.12,1,9.88,1.14a29.43,29.43,0,0,0,1.75,12.68,7.64,7.64,0,0,0,1.38,2.52A23.32,23.32,0,0,1,167,52.27Z"/><path class="cls-8" d="M163.2,70.79a6.52,6.52,0,0,0-.59-.82,7.14,7.14,0,0,0-10.85,9.29,7.1,7.1,0,0,0,3.62,2.3,30.16,30.16,0,0,0,7.77-10.64S163.18,70.83,163.2,70.79Z"/><path class="cls-8" d="M109.68,76.54a32.59,32.59,0,0,0,6.94,5.25,6.9,6.9,0,0,0,4-1.85,7.14,7.14,0,0,0-9.56-10.61,7.35,7.35,0,0,0-2.37,6.15C109,75.84,109.34,76.2,109.68,76.54Z"/><path class="cls-5" d="M140.77,47.76c2,1.16,4.06,2.31,6.28,3.74a17.93,17.93,0,0,0-4.51,1.85"/><path class="cls-5" d="M128.2,62.46a35.15,35.15,0,0,1,14.69.26"/><path class="cls-5" d="M113.24,45.83a9.61,9.61,0,0,1,14.53-1.34"/><path class="cls-11" d="M122.71,47.93a1.85,1.85,0,1,0,.16,3.24A2,2,0,0,0,122.71,47.93Z"/><path class="cls-11" d="M156.35,48.3a1.85,1.85,0,1,0,.15,3.23A1.94,1.94,0,0,0,156.35,48.3Z"/></g></g></svg>