<svg xmlns="http://www.w3.org/2000/svg" viewBox="0 0 281.15 256.4"><defs><style>.cls-1{isolation:isolate;}.cls-2{opacity:0.12;}.cls-2,.cls-4,.cls-8{mix-blend-mode:multiply;}.cls-3,.cls-4,.cls-6{fill:#030a4c;}.cls-4,.cls-8{opacity:0.15;}.cls-10,.cls-5{fill:none;}.cls-5,.cls-6{stroke:#030a4c;}.cls-10,.cls-19,.cls-5,.cls-6{stroke-linecap:round;stroke-linejoin:round;stroke-width:1.17px;}.cls-7{fill:#f32b36;}.cls-8{fill:#452499;}.cls-9{fill:#fff;}.cls-10,.cls-19{stroke:#2c2355;}.cls-11{fill:#b51d24;}.cls-12{fill:#b45038;}.cls-13{fill:#ffb948;}.cls-14{fill:#ffd087;}.cls-15{fill:#25ca68;}.cls-16{fill:#a34631;}.cls-17{fill:#16954d;}.cls-18{fill:#c25c43;}.cls-19{fill:#2c2355;}</style></defs><g class="cls-1"><g id="Capa_1" data-name="Capa 1"><g class="cls-2"><path class="cls-3" d="M121.22,66.7C93.47,87.87,52.37,87,27.47,111.48c-15.24,15-21.57,37.78-18.54,58.93s14.74,40.52,30.48,55S74.75,249.6,95.13,256c40.77,12.87,87.13,12.21,124.42-8.71,30.76-17.24,53.53-47.48,63.55-81.29s7.63-70.82-4.75-103.84C269.27,38,252.11,13.75,226.69,9,206.43,5.24,186,14.9,169.59,27.41S138.07,53.83,121.22,66.7Z"/><path class="cls-4" d="M218.89,183.81l-81-60.55-1.55-11.53c13.68-.57,21.35-11.91,21.35-11.91,20.53,2.08,19.53-14.56,19.53-14.56l-96.69,6c3.08,19.23,23,9.91,23,9.91,8.94,12.93,22.06,11.13,22.38,11.13s2,12.49,2,12.49L49.18,186.6c-8,40.23,34.71,41.54,34.71,41.54l-1.53,23.35c4.2,1.66,8.47,3.18,12.77,4.54,34.32,10.84,72.59,12.07,106.09-.27,0-14.88-3-36.88-3-36.88C226.73,212.4,218.89,183.81,218.89,183.81Z"/><path class="cls-3" d="M233.62,30.84a6.91,6.91,0,0,0-5.94-5.9,186.4,186.4,0,0,0-36.35-1.07A6.87,6.87,0,0,0,185,30.51c-.31,9.12-.39,18.39-.26,27.74a101.35,101.35,0,0,0-7.5,7.35A38.48,38.48,0,0,0,185,71.28c.35,9.8.92,19.66,1.77,29.49a6.85,6.85,0,0,0,6.05,6.21,171.34,171.34,0,0,0,34,.49,6.9,6.9,0,0,0,6.2-5.74A233.75,233.75,0,0,0,233.62,30.84Z"/><path class="cls-4" d="M226.88,107.47a6.9,6.9,0,0,0,6.2-5.74,220.19,220.19,0,0,0,2.8-27.61c-17.74,19.92-41.55,15-50.14,12.3q.44,7.17,1,14.35a6.85,6.85,0,0,0,6.05,6.21A171.34,171.34,0,0,0,226.88,107.47Z"/><path class="cls-5" d="M233.62,30.84a6.91,6.91,0,0,0-5.94-5.9"/><path class="cls-5" d="M223.82,24.49a187.51,187.51,0,0,0-32.49-.62A6.87,6.87,0,0,0,185,30.51c-.31,9.12-.39,18.39-.26,27.74a101.35,101.35,0,0,0-7.5,7.35A38.48,38.48,0,0,0,185,71.28c.35,9.8.92,19.66,1.77,29.49a6.85,6.85,0,0,0,6.05,6.21,171.34,171.34,0,0,0,34,.49,6.9,6.9,0,0,0,6.2-5.74,230.6,230.6,0,0,0,1.57-62.5"/><path class="cls-3" d="M206.92,71.5A5.14,5.14,0,0,1,205,69.61a6,6,0,0,1-.89-3.24,3.57,3.57,0,0,1,1-2.72,6.3,6.3,0,0,1,2.83-1.39l4.56-1.14q2.91-.76,2.91-2.82a2.4,2.4,0,0,0-1.09-1.92,6.37,6.37,0,0,0-3.72-.8,15.94,15.94,0,0,0-4.5.64,13.26,13.26,0,0,0-3.39,1.44,7.25,7.25,0,0,1-1.7-1.83,4.72,4.72,0,0,1-.72-2.6,4.27,4.27,0,0,1,.87-2.66,6.42,6.42,0,0,1,2.42-1.89,14.33,14.33,0,0,1,3.67-1.1,29.52,29.52,0,0,1,4.71-.37q6.9,0,10.45,3a10.14,10.14,0,0,1,3.58,8q0,9.36-13.15,12ZM205,79.17a5.5,5.5,0,0,1,1.48-4,5.94,5.94,0,1,1-1.48,4Z"/><path class="cls-3" d="M221.31,186.75c.12-8.11-2.64-15.92-6.81-23,0,0-37.69,2.43-39.26,16.33S221.31,186.75,221.31,186.75Z"/><path class="cls-3" d="M181.19,182.41a115.66,115.66,0,0,0,33.31-18.62,71.26,71.26,0,0,0-5.66-8.15,90,90,0,0,0-35.55-26.57s-2.81,15.7-1.27,26.67S181.19,182.41,181.19,182.41Z"/><path class="cls-3" d="M211.62,159.35a136.23,136.23,0,0,1-32.24,19.1c1.07,2.43,1.81,4,1.81,4a115.66,115.66,0,0,0,33.31-18.62C213.6,162.27,212.63,160.79,211.62,159.35Z"/><path class="cls-3" d="M52.13,170.64c-.32.67-.62,1.36-.91,2.05A42.27,42.27,0,0,0,48.36,195s17.85,4.37,37-6.82c0,0-6.55-7.06-18.64-13.18S52.13,170.64,52.13,170.64Z"/><path class="cls-3" d="M94.71,132.94a122.08,122.08,0,0,0-18.45,10.8c-9.92,7.06-19,15.92-24.13,26.9A70,70,0,0,0,79.5,184.85l17.64,1.75s1.79-7,1.49-22.81A164.35,164.35,0,0,0,94.71,132.94Z"/><path class="cls-3" d="M97.71,183.41,86.63,182a81.39,81.39,0,0,1-31.85-16.24,49.14,49.14,0,0,0-2.65,4.9A70.14,70.14,0,0,0,79.5,184.85l17.64,1.75A30.87,30.87,0,0,0,97.71,183.41Z"/><path class="cls-3" d="M95.13,256c32.38,10.22,68.27,11.89,100.36,1.68a281.08,281.08,0,0,0-14-87l-8.2-41.68a94.38,94.38,0,0,0-15.63-4.94l-23.54,15.93-27.69-11.89a120.52,120.52,0,0,0-11.72,4.77L93,168.29c-2.29,27.86-4.56,55.73-6,85C89.7,254.25,92.4,255.17,95.13,256Z"/><path class="cls-4" d="M90.75,196.44c-.9,11.5-1.75,23.08-2.49,34.84,9.9-.76,34.9-5.1,59.9-28.75,0,0,20.61,16,44.57,16.53a280.81,280.81,0,0,0-5.85-29.7C162.18,188.86,119.11,189.35,90.75,196.44Z"/><path class="cls-3" d="M153.25,123.26l-19.13,12.4-23.83-8.78c-1.3.41-2.59.84-3.86,1.29a68.29,68.29,0,0,0,29,23.49,77.91,77.91,0,0,0,22.25-27.53C156.2,123.8,154.72,123.52,153.25,123.26Z"/><path class="cls-3" d="M132.49,121.85a128.24,128.24,0,0,0-22.21,5,58.56,58.56,0,0,0,24.93,19.79,83.8,83.8,0,0,0,18.06-23.42A90.81,90.81,0,0,0,132.49,121.85Z"/><path class="cls-5" d="M195.5,257.71a281.39,281.39,0,0,0-14-87"/><path class="cls-5" d="M93,168.29c-2.29,27.86-4.57,55.72-6,85"/><path class="cls-3" d="M156.49,174.08l3.33-11.7a5.54,5.54,0,0,1,.69-1.71,1.93,1.93,0,0,1,1.52-.9c1,0,1.72,1.1,2,2.1.64,2.63-.36,5.35-1.34,7.87Z"/><path class="cls-3" d="M154.33,177.75A22.06,22.06,0,0,1,180,162.14c.82.16,1.78.53,1.93,1.36.18,1-1,1.7-2,2.05l-.45.16a20.19,20.19,0,0,1,2.33.11,4.81,4.81,0,0,1,1.91.48,2,2,0,0,1,1.1,1.55,2,2,0,0,1-.91,1.65,5.73,5.73,0,0,1-1.79.78l-3.75,1.16a15.36,15.36,0,0,1,6.44.15c.92.25,2,.85,1.92,1.8s-1.12,1.38-2,1.64a102.56,102.56,0,0,0-10.29,3.39,16.79,16.79,0,0,1,7.69,0,3.37,3.37,0,0,1,1.49.64,1.37,1.37,0,0,1,.49,1.46,1.46,1.46,0,0,1-1.23.85,7.51,7.51,0,0,1-1.57-.07,7.18,7.18,0,0,0-4.27,1,25.45,25.45,0,0,0-3.14,2.56,6.28,6.28,0,0,1-3.61,1.69Z"/><path class="cls-5" d="M179.47,165.71A23.39,23.39,0,0,0,167.6,169"/><path class="cls-5" d="M171.66,173.22a46,46,0,0,1,6.7-1.78"/><path class="cls-5" d="M154.33,177.75A22.06,22.06,0,0,1,180,162.14c.82.16,1.78.53,1.93,1.36.18,1-1,1.7-2,2.05l-.45.16a20.19,20.19,0,0,1,2.33.11,4.81,4.81,0,0,1,1.91.48,2,2,0,0,1,1.1,1.55,2,2,0,0,1-.91,1.65,5.73,5.73,0,0,1-1.79.78l-3.75,1.16a15.36,15.36,0,0,1,6.44.15c.92.25,2,.85,1.92,1.8s-1.12,1.38-2,1.64a102.56,102.56,0,0,0-10.29,3.39,16.79,16.79,0,0,1,7.69,0,3.37,3.37,0,0,1,1.49.64,1.37,1.37,0,0,1,.49,1.46,1.46,1.46,0,0,1-1.23.85,7.51,7.51,0,0,1-1.57-.07,7.18,7.18,0,0,0-4.27,1,25.45,25.45,0,0,0-3.14,2.56,6.28,6.28,0,0,1-3.61,1.69Z"/><path class="cls-3" d="M68.57,188.36c11.47-7.53,26.1-9,39.63-6.78s26.23,7.93,38.59,13.89l2.11,1c-12.73,9.19-25.93,17.76-40.68,22.94-9.22,3.24-19.11,5.09-28.81,3.85s-19.2-5.85-25.07-13.67a32.49,32.49,0,0,1-6-14.67Z"/><path class="cls-3" d="M146.79,195.47c-12.36-6-25.06-11.64-38.59-13.89-.45-.08-.9-.14-1.36-.2,1.1.36,22.77,7.65,32.66,15.11,0,0-52.76,32.46-86.91,10.48a28.87,28.87,0,0,0,1.75,2.65c5.87,7.82,15.38,12.42,25.07,13.67s19.59-.61,28.81-3.85c14.75-5.18,27.95-13.75,40.68-22.94Z"/><path class="cls-5" d="M63.21,206.9a4.66,4.66,0,0,0,7,2.71"/><path class="cls-5" d="M68.57,188.36c11.47-7.53,26.1-9,39.63-6.78s26.23,7.93,38.59,13.89l2.11,1c-12.73,9.19-25.93,17.76-40.68,22.94-9.22,3.24-19.11,5.09-28.81,3.85s-19.2-5.85-25.07-13.67"/><path class="cls-3" d="M221.31,186.75c-.16,11.39-7.26,23.16-18.29,26-6,1.57-12.41.44-18.39-1.26-12.46-3.52-24.09-9.36-35.73-15l-2.11-1c-12.36-6-25.06-11.64-38.59-13.89a69.23,69.23,0,0,0-7.76-.86c2.92-3.49,6.14-5.27,10.3-6.77,5.06-1.83,11.69-1.85,18.58-.7L202.14,181Z"/><path class="cls-3" d="M203,212.78c9.41-2.45,15.94-11.37,17.76-21-4.1,5.17-12.09,12.59-24.59,13.43-19.39,1.31-42.06-11-55.88-16.32-6.53-2.52-15.08-4.11-22.3-5.07,9.93,2.82,19.45,7.16,28.78,11.66l2.11,1c11.64,5.66,23.27,11.5,35.73,15C190.61,213.22,197,214.35,203,212.78Z"/><path class="cls-5" d="M203.65,202.77a5.71,5.71,0,0,0,7.81-2.91"/><path class="cls-5" d="M221.31,186.75c-.16,11.39-7.26,23.16-18.29,26-6,1.57-12.41.44-18.39-1.26-12.46-3.52-24.09-9.36-35.73-15l-2.11-1c-12.36-6-25.06-11.64-38.59-13.89a69.23,69.23,0,0,0-7.76-.86c2.92-3.49,6.14-5.27,10.3-6.77,5.06-1.83,11.69-1.85,18.58-.7L202.14,181"/><path class="cls-3" d="M164.46,79.62a20.65,20.65,0,0,0,.84-20.34c3.07-3.48,4.36-9,3.24-14.15a16.39,16.39,0,0,0-9.66-11.65c-4.81-1.89-10.2-1.17-15.32-.42a25.36,25.36,0,0,0-25.33-9.69A26.82,26.82,0,0,0,98.2,42a4.84,4.84,0,0,0-1.12-1.68,1.85,1.85,0,0,0-1.28-.83,1.26,1.26,0,0,0-1.09,1.28,3.5,3.5,0,0,0,.6,1.74A4,4,0,0,1,96,44.18c-3.43-1.09-7.46-1.7-10.24.49s-3.13,6.07-2.9,9.52c.61,9,4.05,17.54,7.37,26.4,8.18,9,20.6,13.09,32.7,14.54,7.24.87,14.67.93,21.71-1A31.91,31.91,0,0,0,164.46,79.62Z"/><path class="cls-3" d="M124.18,108.46c.08,6.93.15,13.85.62,21.26a45.45,45.45,0,0,0,14.7-1q-1.11-10.55-2.21-21.08Z"/><path class="cls-3" d="M137.86,113.1l-.57-5.44-13.11.8c0,1.89,0,3.77.07,5.66A41.12,41.12,0,0,0,137.86,113.1Z"/><path class="cls-3" d="M96.79,77.72a11.71,11.71,0,0,0-13.86,1,12.72,12.72,0,0,0-3.26,13.69A13.91,13.91,0,0,0,91,101.06a15.32,15.32,0,0,0,13.23-5.56Z"/><path class="cls-5" d="M84.37,88.47a9.74,9.74,0,0,1,8.73-4.23"/><path class="cls-5" d="M88.52,85a14.66,14.66,0,0,0,4.18,7.82"/><path class="cls-3" d="M159.82,75.17A11.74,11.74,0,0,1,173.68,74a12.73,12.73,0,0,1,5.39,13,13.88,13.88,0,0,1-9.81,10.29,15.31,15.31,0,0,1-13.95-3.38Z"/><path class="cls-5" d="M173.8,83.81A9.73,9.73,0,0,0,164.5,81"/><path class="cls-5" d="M169.14,81.06a14.62,14.62,0,0,1-2.87,8.4"/><path class="cls-3" d="M161,73.29c-.85,9.25-2.42,18.93-8.15,26.25-8.08,10.35-23.56,13.44-35.7,8.43s-20.65-17-22.41-30.54c4.63-4.81,6.45-12.14,5-19.51a13.71,13.71,0,0,0,11.3-1.5,14.29,14.29,0,0,0,6.21-9.18,5.24,5.24,0,0,0,3.3,4.34,6,6,0,0,0,5-.44,22.38,22.38,0,0,0,14.76,9.22,27.4,27.4,0,0,0,17.29-3.64C158.29,61.87,161.57,66.8,161,73.29Z"/><path class="cls-3" d="M156.36,93.3a8,8,0,0,0-11.07.29,8.27,8.27,0,0,0,.35,11.14,7.9,7.9,0,0,0,.79.61,26.13,26.13,0,0,0,6.39-5.8,29.82,29.82,0,0,0,3.66-6.1Z"/><path class="cls-3" d="M115.25,94.17a8,8,0,0,0-11.06.29,7.2,7.2,0,0,0-1.45,2.36,35.81,35.81,0,0,0,11.64,9.85,7.72,7.72,0,0,0,1.37-1C118.69,103,118.19,97.06,115.25,94.17Z"/><path class="cls-5" d="M129.76,73.4a33.91,33.91,0,0,0,8.72,5.31l-5.24,1.54"/><path class="cls-6" d="M114.42,75.51A1.73,1.73,0,1,0,112,73.66,1.79,1.79,0,0,0,114.42,75.51Z"/><path class="cls-5" d="M106.17,67.94c1.34-1.81,2.87-3.71,5-4.3a6.93,6.93,0,0,1,4.82.65,20.63,20.63,0,0,1,4.06,2.85"/><path class="cls-6" d="M146.78,75.51a1.73,1.73,0,1,0-2.46-1.85A1.8,1.8,0,0,0,146.78,75.51Z"/><path class="cls-5" d="M139.31,67.53a23.17,23.17,0,0,1,11.25,1.25"/><path class="cls-5" d="M120.59,87.21a19.57,19.57,0,0,1,9.17.94"/></g><path class="cls-7" d="M113,58.51C85.28,79.68,44.18,78.83,19.28,103.29,4,118.26-2.29,141.07.74,162.22s14.74,40.52,30.49,55,35.33,24.23,55.71,30.66c40.77,12.88,87.13,12.21,124.42-8.71,30.76-17.24,53.53-47.48,63.55-81.29S282.54,87,270.16,54C261.08,29.79,243.92,5.56,218.5.83c-20.26-3.78-40.73,5.88-57.1,18.39S129.88,45.64,113,58.51Z"/><path class="cls-8" d="M210.7,175.62l-81-60.55-1.55-11.53c13.68-.57,21.35-11.91,21.35-11.91C170,93.71,169,77.07,169,77.07L72.31,83c3.08,19.23,23,9.91,23,9.91,9,12.93,22.06,11.13,22.38,11.13s2,12.49,2,12.49L41,178.41C33,218.64,75.7,220,75.7,220L74.17,243.3q6.31,2.49,12.77,4.54c34.32,10.84,72.59,12.08,106.09-.27,0-14.88-3-36.88-3-36.88C218.54,204.21,210.7,175.62,210.7,175.62Z"/><path class="cls-9" d="M225.43,22.65a6.89,6.89,0,0,0-5.94-5.89,185.63,185.63,0,0,0-36.35-1.08,6.88,6.88,0,0,0-6.38,6.64c-.31,9.12-.39,18.39-.26,27.74a101.35,101.35,0,0,0-7.5,7.35,38.48,38.48,0,0,0,7.83,5.68c.35,9.8.92,19.66,1.77,29.49a6.85,6.85,0,0,0,6.05,6.21,171.34,171.34,0,0,0,34,.49,6.9,6.9,0,0,0,6.2-5.74A233.75,233.75,0,0,0,225.43,22.65Z"/><path class="cls-8" d="M218.69,99.28a6.9,6.9,0,0,0,6.2-5.74,220.19,220.19,0,0,0,2.8-27.61c-17.74,19.92-41.55,15-50.14,12.3q.44,7.18,1,14.35a6.85,6.85,0,0,0,6.05,6.21A171.34,171.34,0,0,0,218.69,99.28Z"/><path class="cls-10" d="M225.43,22.65a6.89,6.89,0,0,0-5.94-5.89"/><path class="cls-10" d="M215.63,16.3a187.51,187.51,0,0,0-32.49-.62,6.88,6.88,0,0,0-6.38,6.64c-.31,9.12-.39,18.39-.26,27.74a101.35,101.35,0,0,0-7.5,7.35,38.48,38.48,0,0,0,7.83,5.68c.35,9.8.92,19.66,1.77,29.49a6.85,6.85,0,0,0,6.05,6.21,171.34,171.34,0,0,0,34,.49,6.9,6.9,0,0,0,6.2-5.74A230.6,230.6,0,0,0,226.46,31"/><path class="cls-11" d="M198.73,63.31a5.05,5.05,0,0,1-1.88-1.89,5.91,5.91,0,0,1-.9-3.24,3.57,3.57,0,0,1,1-2.72,6.3,6.3,0,0,1,2.83-1.39l4.56-1.14q2.91-.76,2.91-2.82a2.4,2.4,0,0,0-1.09-1.92,6.37,6.37,0,0,0-3.72-.8,15.94,15.94,0,0,0-4.5.64,13.24,13.24,0,0,0-3.39,1.45,7.47,7.47,0,0,1-1.7-1.84,4.72,4.72,0,0,1-.72-2.6,4.27,4.27,0,0,1,.87-2.66,6.52,6.52,0,0,1,2.42-1.89,14.33,14.33,0,0,1,3.67-1.1,29.52,29.52,0,0,1,4.71-.37q6.9,0,10.45,3a10.14,10.14,0,0,1,3.58,8q0,9.36-13.15,12ZM196.83,71a5.5,5.5,0,0,1,1.48-4,5.94,5.94,0,1,1-1.48,4Z"/><path class="cls-12" d="M213.13,178.56c.11-8.11-2.65-15.92-6.82-23,0,0-37.69,2.43-39.26,16.33S213.13,178.56,213.13,178.56Z"/><path class="cls-13" d="M173,174.22a115.66,115.66,0,0,0,33.31-18.62,72.15,72.15,0,0,0-5.66-8.15,90,90,0,0,0-35.55-26.57s-2.81,15.7-1.27,26.67S173,174.22,173,174.22Z"/><path class="cls-14" d="M203.43,151.16a136.23,136.23,0,0,1-32.24,19.1c1.07,2.43,1.81,4,1.81,4a115.66,115.66,0,0,0,33.31-18.62C205.41,154.08,204.44,152.6,203.43,151.16Z"/><path class="cls-12" d="M43.94,162.45c-.32.67-.62,1.36-.91,2.05a42.27,42.27,0,0,0-2.86,22.26s17.85,4.37,37-6.82c0,0-6.55-7.06-18.64-13.18S43.94,162.45,43.94,162.45Z"/><path class="cls-13" d="M86.52,124.75a122.08,122.08,0,0,0-18.45,10.8c-9.92,7.06-19,15.92-24.13,26.9a70,70,0,0,0,27.37,14.21L89,178.41s1.8-7,1.49-22.81A164.35,164.35,0,0,0,86.52,124.75Z"/><path class="cls-14" d="M89.52,175.22l-11.08-1.43a81.39,81.39,0,0,1-31.85-16.24,49.14,49.14,0,0,0-2.65,4.9,70,70,0,0,0,27.37,14.21L89,178.41A30.87,30.87,0,0,0,89.52,175.22Z"/><path class="cls-15" d="M86.94,247.84c32.38,10.22,68.27,11.89,100.36,1.68a281.08,281.08,0,0,0-14-87l-8.2-41.68a94.38,94.38,0,0,0-15.63-4.94l-23.54,15.93L98.24,120a120.52,120.52,0,0,0-11.72,4.77L84.83,160.1c-2.28,27.86-4.56,55.73-6,85C81.51,246.06,84.21,247,86.94,247.84Z"/><path class="cls-8" d="M82.56,188.25c-.9,11.5-1.75,23.08-2.49,34.84,9.9-.76,34.9-5.1,59.9-28.75,0,0,20.62,16,44.57,16.53a280.81,280.81,0,0,0-5.85-29.7C154,180.67,110.92,181.16,82.56,188.25Z"/><path class="cls-14" d="M145.06,115.07l-19.13,12.4-23.83-8.78c-1.3.41-2.59.84-3.86,1.29a68.29,68.29,0,0,0,29,23.49,77.91,77.91,0,0,0,22.25-27.53C148,115.61,146.53,115.33,145.06,115.07Z"/><path class="cls-12" d="M124.3,113.66a128.24,128.24,0,0,0-22.21,5A58.56,58.56,0,0,0,127,138.47a83.8,83.8,0,0,0,18.06-23.42A90.77,90.77,0,0,0,124.3,113.66Z"/><path class="cls-10" d="M187.31,249.52a281.39,281.39,0,0,0-14-87"/><path class="cls-10" d="M84.83,160.1c-2.29,27.86-4.57,55.72-6,85"/><path class="cls-12" d="M148.3,165.89l3.33-11.7a5.54,5.54,0,0,1,.69-1.71,2,2,0,0,1,1.52-.9c1,0,1.72,1.1,2,2.1.64,2.63-.36,5.35-1.34,7.87Z"/><path class="cls-12" d="M146.14,169.56A22.06,22.06,0,0,1,171.78,154c.82.16,1.78.53,1.93,1.36.19,1-1,1.7-2,2.05l-.45.16a20.19,20.19,0,0,1,2.33.11,4.81,4.81,0,0,1,1.91.48,2,2,0,0,1,1.1,1.55,2,2,0,0,1-.91,1.65,5.73,5.73,0,0,1-1.79.78l-3.75,1.16a15.36,15.36,0,0,1,6.44.15c.92.25,2,.85,1.92,1.8s-1.12,1.38-2,1.64a102.56,102.56,0,0,0-10.29,3.39,16.79,16.79,0,0,1,7.69,0,3.37,3.37,0,0,1,1.49.64,1.37,1.37,0,0,1,.49,1.46,1.46,1.46,0,0,1-1.23.85,7.51,7.51,0,0,1-1.57-.07,7.18,7.18,0,0,0-4.27,1,25.45,25.45,0,0,0-3.14,2.56,6.28,6.28,0,0,1-3.61,1.69Z"/><path class="cls-10" d="M171.28,157.52a23.3,23.3,0,0,0-11.87,3.32"/><path class="cls-10" d="M163.47,165a46,46,0,0,1,6.7-1.78"/><path class="cls-10" d="M146.14,169.56A22.06,22.06,0,0,1,171.78,154c.82.16,1.78.53,1.93,1.36.19,1-1,1.7-2,2.05l-.45.16a20.19,20.19,0,0,1,2.33.11,4.81,4.81,0,0,1,1.91.48,2,2,0,0,1,1.1,1.55,2,2,0,0,1-.91,1.65,5.73,5.73,0,0,1-1.79.78l-3.75,1.16a15.36,15.36,0,0,1,6.44.15c.92.25,2,.85,1.92,1.8s-1.12,1.38-2,1.64a102.56,102.56,0,0,0-10.29,3.39,16.79,16.79,0,0,1,7.69,0,3.37,3.37,0,0,1,1.49.64,1.37,1.37,0,0,1,.49,1.46,1.46,1.46,0,0,1-1.23.85,7.51,7.51,0,0,1-1.57-.07,7.18,7.18,0,0,0-4.27,1,25.45,25.45,0,0,0-3.14,2.56,6.28,6.28,0,0,1-3.61,1.69Z"/><path class="cls-12" d="M60.38,180.17c11.47-7.53,26.1-9,39.63-6.78s26.23,7.93,38.59,13.89l2.11,1C128,197.5,114.78,206.07,100,211.25c-9.22,3.24-19.11,5.09-28.81,3.85S52,209.25,46.15,201.43a32.49,32.49,0,0,1-6-14.67Z"/><path class="cls-16" d="M138.6,187.28c-12.36-6-25.06-11.64-38.59-13.89-.45-.08-.9-.14-1.36-.2,1.1.36,22.77,7.65,32.66,15.11,0,0-52.76,32.47-86.91,10.48a28.87,28.87,0,0,0,1.75,2.65c5.87,7.82,15.38,12.42,25.07,13.67s19.59-.61,28.81-3.85c14.75-5.18,28-13.75,40.68-22.94Z"/><path class="cls-10" d="M55,198.71a4.67,4.67,0,0,0,7,2.71"/><path class="cls-10" d="M60.38,180.17c11.47-7.53,26.1-9,39.63-6.78s26.23,7.93,38.59,13.89l2.11,1C128,197.5,114.78,206.07,100,211.25c-9.22,3.24-19.11,5.09-28.81,3.85S52,209.25,46.15,201.43"/><path class="cls-12" d="M213.13,178.56c-.17,11.39-7.27,23.16-18.3,26-6,1.57-12.41.44-18.39-1.26-12.46-3.52-24.09-9.36-35.73-15l-2.11-1c-12.36-6-25.06-11.64-38.59-13.89a69.23,69.23,0,0,0-7.76-.86c2.92-3.49,6.14-5.27,10.3-6.77,5.06-1.83,11.69-1.85,18.58-.7L194,172.77Z"/><path class="cls-16" d="M194.83,204.59c9.41-2.45,15.94-11.37,17.76-21-4.1,5.17-12.09,12.59-24.59,13.43-19.39,1.31-42.06-11-55.88-16.32-6.52-2.52-15.08-4.11-22.3-5.07,9.93,2.82,19.45,7.16,28.78,11.66l2.11,1c11.64,5.66,23.27,11.5,35.73,15C182.42,205,188.81,206.16,194.83,204.59Z"/><path class="cls-10" d="M195.46,194.58a5.71,5.71,0,0,0,7.81-2.91"/><path class="cls-10" d="M213.13,178.56c-.17,11.39-7.27,23.16-18.3,26-6,1.57-12.41.44-18.39-1.26-12.46-3.52-24.09-9.36-35.73-15l-2.11-1c-12.36-6-25.06-11.64-38.59-13.89a69.23,69.23,0,0,0-7.76-.86c2.92-3.49,6.14-5.27,10.3-6.77,5.06-1.83,11.69-1.85,18.58-.7L194,172.77"/><path class="cls-17" d="M156.27,71.43a20.65,20.65,0,0,0,.84-20.34c3.07-3.48,4.36-9,3.24-14.15a16.39,16.39,0,0,0-9.66-11.65c-4.81-1.89-10.2-1.17-15.32-.42A25.36,25.36,0,0,0,110,15.18,26.82,26.82,0,0,0,90,33.77a4.84,4.84,0,0,0-1.12-1.68,1.85,1.85,0,0,0-1.28-.83,1.26,1.26,0,0,0-1.09,1.28,3.6,3.6,0,0,0,.6,1.74A4,4,0,0,1,87.8,36c-3.43-1.09-7.46-1.7-10.24.49s-3.13,6.07-2.9,9.52c.61,9,4,17.54,7.37,26.4,8.18,9,20.6,13.09,32.7,14.54,7.24.87,14.67.93,21.71-1A32,32,0,0,0,156.27,71.43Z"/><path class="cls-12" d="M116,100.27c.08,6.93.15,13.85.62,21.26a45.45,45.45,0,0,0,14.7-1Q130.2,110,129.1,99.47Z"/><path class="cls-16" d="M129.67,104.91l-.57-5.44-13.11.8c0,1.89.05,3.77.07,5.66A41.12,41.12,0,0,0,129.67,104.91Z"/><path class="cls-12" d="M88.6,69.53a11.71,11.71,0,0,0-13.86,1,12.72,12.72,0,0,0-3.26,13.69,13.91,13.91,0,0,0,11.32,8.6A15.32,15.32,0,0,0,96,87.31Z"/><path class="cls-10" d="M76.18,80.28a9.74,9.74,0,0,1,8.73-4.23"/><path class="cls-10" d="M80.33,76.84a14.66,14.66,0,0,0,4.18,7.82"/><path class="cls-12" d="M151.63,67a11.74,11.74,0,0,1,13.86-1.17,12.73,12.73,0,0,1,5.39,13,13.88,13.88,0,0,1-9.81,10.29,15.33,15.33,0,0,1-13.95-3.37Z"/><path class="cls-10" d="M165.61,75.62a9.73,9.73,0,0,0-9.3-2.79"/><path class="cls-10" d="M161,72.87a14.62,14.62,0,0,1-2.87,8.4"/><path class="cls-12" d="M152.78,65.1c-.85,9.25-2.42,18.93-8.14,26.25-8.09,10.35-23.57,13.44-35.71,8.43s-20.65-17-22.41-30.54c4.63-4.81,6.45-12.14,5-19.51a13.71,13.71,0,0,0,11.3-1.5A14.29,14.29,0,0,0,109,39.05a5.24,5.24,0,0,0,3.3,4.34,6,6,0,0,0,5-.44A22.38,22.38,0,0,0,132,52.17a27.4,27.4,0,0,0,17.29-3.64C150.1,53.68,153.38,58.61,152.78,65.1Z"/><path class="cls-18" d="M148.17,85.11a8,8,0,0,0-11.07.29,8.27,8.27,0,0,0,.35,11.14,7.9,7.9,0,0,0,.79.61,26.16,26.16,0,0,0,6.4-5.8,30.23,30.23,0,0,0,3.65-6.1Z"/><path class="cls-18" d="M107.06,86A8,8,0,0,0,96,86.27a7.2,7.2,0,0,0-1.45,2.36,35.81,35.81,0,0,0,11.64,9.85,7.24,7.24,0,0,0,1.37-1C110.5,94.82,110,88.87,107.06,86Z"/><path class="cls-10" d="M121.57,65.21a33.91,33.91,0,0,0,8.72,5.31l-5.24,1.54"/><path class="cls-19" d="M106.23,67.32a1.73,1.73,0,1,0-2.46-1.84A1.79,1.79,0,0,0,106.23,67.32Z"/><path class="cls-10" d="M98,59.75c1.34-1.81,2.87-3.71,5-4.3a6.93,6.93,0,0,1,4.82.65A20.63,20.63,0,0,1,111.9,59"/><path class="cls-19" d="M138.59,67.32a1.73,1.73,0,1,0-2.46-1.84A1.8,1.8,0,0,0,138.59,67.32Z"/><path class="cls-10" d="M131.12,59.34a23.17,23.17,0,0,1,11.25,1.25"/><path class="cls-10" d="M112.4,79a19.57,19.57,0,0,1,9.17.94"/></g></g></svg>