<svg xmlns="http://www.w3.org/2000/svg" viewBox="0 0 269.57 277.27"><defs><style>.cls-1{isolation:isolate;}.cls-2{opacity:0.12;}.cls-2,.cls-4,.cls-8{mix-blend-mode:multiply;}.cls-3,.cls-4,.cls-5{fill:#030a4c;}.cls-4,.cls-8{opacity:0.15;}.cls-5,.cls-6{stroke:#030a4c;}.cls-11,.cls-5,.cls-6,.cls-9{stroke-linecap:round;stroke-linejoin:round;}.cls-5,.cls-9{stroke-width:1.14px;}.cls-11,.cls-6{fill:none;stroke-width:1.19px;}.cls-7{fill:#fade41;}.cls-8{fill:#452499;}.cls-16,.cls-9{fill:#2c2355;}.cls-11,.cls-9{stroke:#2c2355;}.cls-10{fill:#fff;}.cls-12{fill:#bba730;}.cls-13{fill:#ff99ac;}.cls-14{fill:#ff8197;}.cls-15{fill:#7c50b8;}.cls-17{fill:#ffb948;}</style></defs><g class="cls-1"><g id="Capa_1" data-name="Capa 1"><g class="cls-2"><path class="cls-3" d="M189.26,77.64C169.11,68.17,150.38,55.26,129,49.2A98,98,0,0,0,65.1,52.81,91.9,91.9,0,0,0,18.44,96.3C8.45,116.54,6.59,140,8.85,162.43c2.79,27.72,12.08,55.57,30.91,76.1,16.2,17.68,38.39,28.84,61.16,36.38,24.27,8,50.3,12.38,75.51,8.1,27-4.59,52.15-19.23,70-40s28.58-47.54,30.73-74.9c1.86-23.82-3.55-49.75-21.14-65.92C238.64,86.14,211.57,88.13,189.26,77.64Z"/><path class="cls-4" d="M225.91,195c30.78-9,31.24-43.76,31.24-43.76l-38.39,4.48-25.21-19.9-50.78-24.61V100.81c10.4-1.24,16.92-11.23,16.92-11.23C177.07,96.87,180.46,82,180.46,82l-4.05-10.8c-10.71-5.69-21.28-11.73-32.34-16.49L77.5,53.92c-2.78,15.43,12.11,15.7,12.11,15.7L86.45,80.78c4.58,23.39,23.26,9.49,23.26,9.49,5.87,12,21.15,11.31,21.15,11.31v9.76s-54.64,24.39-64.55,71.21,31.46,64,31.46,64L96.1,273.25c1.61.57,3.21,1.13,4.82,1.66,24.27,8,50.3,12.38,75.51,8.1a116.52,116.52,0,0,0,39.1-14.33c-4.51-36.55-23.67-57.58-23.67-57.58l2.93-14.56L192,195l1-4.56C201.61,195.49,212.86,198.8,225.91,195Z"/><path class="cls-5" d="M145.16,57.78a1.8,1.8,0,1,0,.45,3.12A1.9,1.9,0,0,0,145.16,57.78Z"/><path class="cls-3" d="M256.62,18.48a9.84,9.84,0,0,0-7.6-7.27A140.26,140.26,0,0,0,196.36,11,10,10,0,0,0,188.14,20a291.82,291.82,0,0,0,.07,46.09,10,10,0,0,0,8.47,9.06l1.9.28c0,3.63-.07,7.29,0,11.36a81.38,81.38,0,0,0,7.89-10.41,159.74,159.74,0,0,0,46.69-2.46,10,10,0,0,0,8.05-9.68C261.5,47.46,260.11,32.58,256.62,18.48Z"/><path class="cls-4" d="M261.22,64.25c.1-5.74,0-11.23-.33-16.57C235.81,62.92,200.54,59.11,187.63,57c.15,3,.33,6.06.58,9.08a10,10,0,0,0,8.47,9.06l1.9.28c0,3.63-.07,7.29,0,11.36a81.38,81.38,0,0,0,7.89-10.41,159.74,159.74,0,0,0,46.69-2.46A10,10,0,0,0,261.22,64.25Z"/><path class="cls-6" d="M200.85,10.21c-1.5.22-3,.47-4.49.74"/><path class="cls-6" d="M192.1,12.82a9.94,9.94,0,0,0-4,7.19,291.82,291.82,0,0,0,.07,46.09,10,10,0,0,0,8.47,9.06l1.9.28c0,3.63-.07,7.29,0,11.36a81.38,81.38,0,0,0,7.89-10.41,159.74,159.74,0,0,0,46.69-2.46,10,10,0,0,0,8.05-9.68c.28-16.79-1.11-31.67-4.6-45.77a9.84,9.84,0,0,0-7.6-7.27,137.25,137.25,0,0,0-39.15-2.07"/><path class="cls-3" d="M218.2,50.44a5.2,5.2,0,0,1-1.83-1.85,5.65,5.65,0,0,1-.87-3.16,3.47,3.47,0,0,1,.92-2.66,6.24,6.24,0,0,1,2.77-1.35l4.44-1.11c1.9-.5,2.84-1.42,2.84-2.75a2.34,2.34,0,0,0-1.07-1.88,6.13,6.13,0,0,0-3.62-.78,15.89,15.89,0,0,0-4.39.62,13.12,13.12,0,0,0-3.31,1.42,7.28,7.28,0,0,1-1.66-1.79,4.62,4.62,0,0,1-.7-2.54,4.16,4.16,0,0,1,.85-2.6,6.37,6.37,0,0,1,2.36-1.84,13.75,13.75,0,0,1,3.58-1.07,29.23,29.23,0,0,1,4.59-.37q6.74,0,10.2,2.95a9.86,9.86,0,0,1,3.49,7.83q.06,9.12-12.83,11.76Zm-1.84,7.48a5.09,5.09,0,1,1,1.47,3.84A5.33,5.33,0,0,1,216.36,57.92Z"/><path class="cls-3" d="M97.45,120.9A71.26,71.26,0,0,0,78.2,140.54a73.48,73.48,0,0,0,35.87,109.13s1.93-41.39-3.21-75.94S97.45,120.9,97.45,120.9Z"/><path class="cls-6" d="M73,192.17a10.87,10.87,0,0,0,2.15,8.07"/><path class="cls-3" d="M181.35,175.2c8.21,7.72,18.45,13.53,29.58,15.29s23.14-.84,31.77-8.08c8-6.7,12.52-16.66,15.3-26.71,6.19-22.36,3.52-48.55-5.32-70l-15.15-2.86a53.73,53.73,0,0,0-2.23-6.51c-1.17-2.79-2.65-5.59-5.08-7.39a2.58,2.58,0,0,0-2.23-.65c-1,.32-1.35,1.59-1.31,2.65.09,2.08,1,4,1.81,6,2.25,5.6,3.22,11.63,4,17.63l-.49,7.32a94.23,94.23,0,0,1,1.94,32.6c-.65,5.67-2.25,11.94-7.15,14.86s-11.16,1.32-15.68-2-7.72-8-11.32-12.26a74.85,74.85,0,0,0-19.68-16.37s-4.64,14.15-3.83,25.21S181.35,175.2,181.35,175.2Z"/><path class="cls-3" d="M260.77,140.81c-4.27,14.89-14.39,37.81-36.51,39.49-25.17,1.9-39.94-12-45.52-18.62,1.31,7.37,2.61,13.52,2.61,13.52,8.21,7.72,18.45,13.53,29.58,15.29s23.13-.84,31.77-8.08c8-6.7,12.52-16.66,15.3-26.71A92.71,92.71,0,0,0,260.77,140.81Z"/><path class="cls-6" d="M229.88,180a5.94,5.94,0,0,0,7.35-3.82"/><path class="cls-6" d="M181.35,175.2c8.21,7.72,18.45,13.53,29.58,15.29s23.14-.84,31.77-8.08c8-6.7,12.52-16.66,15.3-26.71"/><path class="cls-3" d="M243.57,80.5a14.31,14.31,0,0,1-1.71-1.85,5.21,5.21,0,0,0-2-1.53,2.24,2.24,0,0,0-2.35.39,3.37,3.37,0,0,0-.7,2c-.48,4.09-.93,8.32.28,12.26.35,1.14,1,2.38,2.19,2.59a2.46,2.46,0,0,0,2.33-1.11,7,7,0,0,0,1-2.53A31.25,31.25,0,0,0,243.57,80.5Z"/><path class="cls-6" d="M243.57,80.5a14.31,14.31,0,0,1-1.71-1.85,5.21,5.21,0,0,0-2-1.53,2.24,2.24,0,0,0-2.35.39,3.37,3.37,0,0,0-.7,2c-.48,4.09-.93,8.32.28,12.26.35,1.14,1,2.38,2.19,2.59a2.46,2.46,0,0,0,2.33-1.11,7,7,0,0,0,1-2.53A31.25,31.25,0,0,0,243.57,80.5Z"/><path class="cls-3" d="M248.59,87.26c.24-2.79.46-5.7-.67-8.28a3.19,3.19,0,0,0-2.06-2A2.64,2.64,0,0,0,243.35,78a6.18,6.18,0,0,0-1,2.58,26,26,0,0,0,.07,11.71,4.67,4.67,0,0,0,.62,1.6,2.06,2.06,0,0,0,1.44.93c1.08.1,1.93-.87,2.42-1.8A15.17,15.17,0,0,0,248.59,87.26Z"/><path class="cls-6" d="M248.59,87.26c.24-2.79.46-5.7-.67-8.28a3.19,3.19,0,0,0-2.06-2A2.64,2.64,0,0,0,243.35,78a6.18,6.18,0,0,0-1,2.58,26,26,0,0,0,.07,11.71,4.67,4.67,0,0,0,.62,1.6,2.06,2.06,0,0,0,1.44.93c1.08.1,1.93-.87,2.42-1.8A15.17,15.17,0,0,0,248.59,87.26Z"/><path class="cls-3" d="M253.44,85.82a11.21,11.21,0,0,0-.61-5.56c-.37-1-1-2-2-2.16a2.17,2.17,0,0,0-2,1,5.77,5.77,0,0,0-.84,2.19,19.39,19.39,0,0,0,.47,10.14c.3.89.86,1.9,1.77,1.95s1.46-.76,1.84-1.53C253,90.05,253.12,88,253.44,85.82Z"/><path class="cls-6" d="M253.44,85.82a11.21,11.21,0,0,0-.61-5.56c-.37-1-1-2-2-2.16a2.17,2.17,0,0,0-2,1,5.77,5.77,0,0,0-.84,2.19,19.39,19.39,0,0,0,.47,10.14c.3.89.86,1.9,1.77,1.95s1.46-.76,1.84-1.53C253,90.05,253.12,88,253.44,85.82Z"/><path class="cls-3" d="M232,101.84c-.69-1.52-2.15-2.52-3.45-3.57s-2.58-2.42-2.62-4.1c0-1.5,1-2.81,1.87-4,1.89-2.39,3.86-4.86,6.55-6.3.77-.42,1.86-.69,2.44,0s.19,1.69-.23,2.47a38,38,0,0,0-3.16,7,16.29,16.29,0,0,1,18.11,3.56"/><path class="cls-6" d="M232,101.84c-.69-1.52-2.15-2.52-3.45-3.57s-2.58-2.42-2.62-4.1c0-1.5,1-2.81,1.87-4,1.89-2.39,3.86-4.86,6.55-6.3.77-.42,1.86-.69,2.44,0s.19,1.69-.23,2.47a38,38,0,0,0-3.16,7,16.29,16.29,0,0,1,18.11,3.56"/><path class="cls-3" d="M169.18,113.47a76.28,76.28,0,0,0-35.68-4.89A69.1,69.1,0,0,0,105.67,116s.78,22.5,21.19,29.38,33.36-4,38-13A38,38,0,0,0,169.18,113.47Z"/><path class="cls-3" d="M169.71,113.68a56.7,56.7,0,0,1-10,17.16,31.71,31.71,0,0,1-21.88,10.5c-7.55.3-15-2.94-20.58-8A44,44,0,0,1,106,115.87l-.3.15a71.69,71.69,0,0,0-8.22,4.88h0a626.35,626.35,0,0,0,5,84,253.57,253.57,0,0,0,82.68-3.39c6.38-14.19,4.74-30.63,1.61-45.87-2.52-12.26-5.93-24.54-6.63-36.95h0a78.71,78.71,0,0,0-10.91-5.25"/><path class="cls-4" d="M185.11,201.54a46.19,46.19,0,0,0,2.83-8.38c-7.43-2.79-30.14-10.64-49.1-10a112.91,112.91,0,0,0-38,8.06c.48,4.57,1,9.14,1.57,13.73A253.57,253.57,0,0,0,185.11,201.54Z"/><path class="cls-6" d="M117.56,170.52a264.08,264.08,0,0,1,38.32-2.71"/><path class="cls-3" d="M97.77,196.1c1.44,5.06,3,10.86,5.36,17.88-1.24,19.86-2.49,39.74-3.62,60.45l1.41.48c24.27,8,50.3,12.38,75.51,8.1a115.9,115.9,0,0,0,33.95-11.47c-2.48-22.56-10-42.81-22-60-.07-5.19.94-10,1.95-14.87C160.59,187.14,128,187.39,97.77,196.1Z"/><path class="cls-4" d="M154.91,284.66q-1.59-14.1-3.17-28.2a13.92,13.92,0,0,1-12.07-6.93,24.13,24.13,0,0,1-2.58-8.34C133.8,256,147.15,261.9,147.15,261.9v22.49C149.74,284.56,152.32,284.64,154.91,284.66Z"/><path class="cls-6" d="M136.56,236.91c.47,4.34,1,8.81,3.11,12.62a13.92,13.92,0,0,0,12.07,6.93q1.59,14.1,3.17,28.2"/><path class="cls-3" d="M189.19,211.25A244.38,244.38,0,0,1,103,216a1.65,1.65,0,0,1-1.42-1.66h0a1.61,1.61,0,0,1,1.8-1.55,254.89,254.89,0,0,0,85.13-4.72,1.61,1.61,0,0,1,1.91,1.14v.05A1.63,1.63,0,0,1,189.19,211.25Z"/><path class="cls-3" d="M103,43.28c-4.19-4.51-10.56-7.69-16.49-6a14,14,0,0,0-7.71,5.86A16.92,16.92,0,0,0,81.18,64a16.94,16.94,0,0,0,21,1.38Z"/><path class="cls-4" d="M97.3,38.85c-4.61,5.79-7.68,17.68-2.62,29.37a15.87,15.87,0,0,0,7.46-2.85L103,43.28A22.45,22.45,0,0,0,97.3,38.85Z"/><path class="cls-3" d="M161,36.12a16.87,16.87,0,0,1,27.74,19.2,18.84,18.84,0,0,1-10.42,7.56,23.72,23.72,0,0,1-13,0Z"/><path class="cls-4" d="M169.74,63.65c8.07-15.6-.71-27.33-4.6-31.44a16.22,16.22,0,0,0-4.1,3.91l4.35,26.74A25.61,25.61,0,0,0,169.74,63.65Z"/><path class="cls-3" d="M165.36,68.48a49.23,49.23,0,0,0,3.45-17.94A28.05,28.05,0,0,0,163,33.46a27.59,27.59,0,0,0-12.25-8.28A45.65,45.65,0,0,0,136,22.83c-8.31-.11-16.78,1.35-24.11,5.29S98.48,38.65,96.18,46.64a25.19,25.19,0,0,0,5.49,23.68c-.39,2.79,1.25,5.57,3.51,7.26a20.34,20.34,0,0,0,7.8,3.09,89,89,0,0,0,30.56,1.47,36.25,36.25,0,0,0,12.79-3.6A19.23,19.23,0,0,0,165.36,68.48Z"/><path class="cls-3" d="M128.92,89.58c-.18,7.74,0,15.49.44,23.49a53.61,53.61,0,0,0,15.38-.09,169.14,169.14,0,0,0-1.47-22.26Z"/><path class="cls-3" d="M144.27,100.56c-.25-3.29-.57-6.57-1-9.84l-14.35-1.14c-.09,3.87-.09,7.74,0,11.64C132.92,102.41,139.49,103.55,144.27,100.56Z"/><path class="cls-3" d="M102.72,63.71A14.55,14.55,0,0,0,85.86,72.2a14,14,0,0,0,25,12.51Z"/><path class="cls-6" d="M91,77.43a10.82,10.82,0,0,1,9.7-5.22"/><path class="cls-6" d="M99.7,80.78a13.07,13.07,0,0,1-4-7.56"/><path class="cls-3" d="M87.94,64.53c-.55.13-.73.86-.52,1.41A4.25,4.25,0,0,0,88.5,67.3a12.27,12.27,0,0,0,1,1,2.1,2.1,0,0,0,1.29.54,1.08,1.08,0,0,0,1.06-.72,1.8,1.8,0,0,0-.56-1.47,15.29,15.29,0,0,0-1.46-1.55A2,2,0,0,0,87.94,64.53Z"/><path class="cls-3" d="M84.11,70a1,1,0,0,0,0,1.5,4.45,4.45,0,0,0,1.51.87,13,13,0,0,0,1.32.59,2.17,2.17,0,0,0,1.4,0,1.09,1.09,0,0,0,.72-1.07C89,71.36,88.51,71,88,70.73a14.79,14.79,0,0,0-1.93-.91A2,2,0,0,0,84.11,70Z"/><path class="cls-3" d="M162.49,62.29a14.55,14.55,0,0,1,18.17,5.13,14,14,0,0,1-22.17,17Z"/><path class="cls-6" d="M176.66,73.51a10.86,10.86,0,0,0-10.53-3.27"/><path class="cls-6" d="M168.71,78.46a13.05,13.05,0,0,0,2.53-8.18"/><path class="cls-3" d="M172.5,58.35c-.42-.38-1.13-.11-1.46.36a4.34,4.34,0,0,0-.51,1.67,13.52,13.52,0,0,0-.28,1.41,2.09,2.09,0,0,0,.29,1.37,1.06,1.06,0,0,0,1.19.47c.5-.18.74-.76.9-1.29a16.39,16.39,0,0,0,.45-2.08A2,2,0,0,0,172.5,58.35Z"/><path class="cls-3" d="M178.84,61.5a1,1,0,0,0-1.5-.16,4.55,4.55,0,0,0-1.05,1.39,11.85,11.85,0,0,0-.73,1.24,2.09,2.09,0,0,0-.21,1.38,1.08,1.08,0,0,0,1,.85,1.77,1.77,0,0,0,1.28-.91,14,14,0,0,0,1.13-1.8A2,2,0,0,0,178.84,61.5Z"/><path class="cls-3" d="M162.49,62.29c3.19,11.19-1.63,24.08-11.16,30.77s-23,7-33,1-16.15-17.65-15.6-30.34c16.16-1.67,31.39-10.8,40.86-23.21C145.84,49.9,153.34,57.86,162.49,62.29Z"/><path class="cls-3" d="M157.8,76.61a7.78,7.78,0,0,0-9.89,4.15,8,8,0,0,0,4.2,10,7.13,7.13,0,0,0,1.56.45,29.19,29.19,0,0,0,7.8-11.3A8.58,8.58,0,0,0,157.8,76.61Z"/><path class="cls-3" d="M117.91,81.88a7.82,7.82,0,0,0-9.28,3,30.94,30.94,0,0,0,9.69,9.2c.57.34,1.15.65,1.73.94a7.66,7.66,0,0,0,2.41-2.71C124.31,88.75,121.58,83.46,117.91,81.88Z"/><path class="cls-5" d="M146.7,62.74a1.8,1.8,0,1,0,.45,3.12A1.9,1.9,0,0,0,146.7,62.74Z"/><path class="cls-5" d="M116.4,65.65a1.8,1.8,0,1,0,.45,3.12A1.9,1.9,0,0,0,116.4,65.65Z"/><path class="cls-5" d="M144.54,72.86a34.31,34.31,0,0,0-6.51,5,4.26,4.26,0,0,0,6.51-5Z"/><path class="cls-6" d="M126.87,63.29a18.67,18.67,0,0,0-3.37,6.43,16.65,16.65,0,0,0,6.72,1.63"/><path class="cls-6" d="M137.81,57a7,7,0,0,1,12.28-.38"/></g><path class="cls-7" d="M181.27,69.65C161.12,60.18,142.39,47.27,121,41.21a98,98,0,0,0-63.85,3.61A91.9,91.9,0,0,0,10.45,88.31C.46,108.55-1.4,132,.86,154.44c2.79,27.72,12.08,55.57,30.91,76.1,16.2,17.68,38.39,28.84,61.16,36.38,24.27,8,50.3,12.38,75.51,8.1,27.05-4.59,52.15-19.23,70.05-40s28.58-47.54,30.73-74.9c1.86-23.82-3.55-49.75-21.14-65.92C230.65,78.15,203.58,80.14,181.27,69.65Z"/><path class="cls-8" d="M217.92,187c30.78-9,31.24-43.76,31.24-43.76l-38.39,4.48-25.21-19.9L134.78,103.2V92.82c10.4-1.24,16.91-11.23,16.91-11.23C169.08,88.88,172.47,74,172.47,74l-4.05-10.8c-10.71-5.69-21.28-11.73-32.34-16.49l-66.57-.74c-2.78,15.43,12.11,15.7,12.11,15.7L78.46,72.79c4.58,23.39,23.26,9.49,23.26,9.49,5.87,12,21.15,11.31,21.15,11.31v9.76s-54.64,24.39-64.55,71.21,31.46,64,31.46,64l-1.67,26.74c1.61.57,3.21,1.13,4.82,1.66,24.27,8,50.3,12.38,75.51,8.1a116.52,116.52,0,0,0,39.1-14.33c-4.52-36.55-23.67-57.58-23.67-57.58l2.93-14.56L184,187l1-4.56C193.62,187.5,204.87,190.81,217.92,187Z"/><path class="cls-9" d="M137.17,49.79a1.8,1.8,0,1,0,.45,3.12A1.9,1.9,0,0,0,137.17,49.79Z"/><path class="cls-10" d="M248.63,10.49A9.84,9.84,0,0,0,241,3.22,140.26,140.26,0,0,0,188.37,3,10,10,0,0,0,180.15,12a291.82,291.82,0,0,0,.07,46.09,10,10,0,0,0,8.47,9.06l1.9.28c0,3.63-.07,7.29,0,11.36a81.38,81.38,0,0,0,7.89-10.41,159.74,159.74,0,0,0,46.69-2.46,10,10,0,0,0,8-9.68C253.51,39.47,252.11,24.59,248.63,10.49Z"/><path class="cls-8" d="M253.23,56.26c.1-5.74,0-11.23-.33-16.57C227.82,54.93,192.55,51.12,179.64,49c.15,3,.33,6.06.58,9.08a10,10,0,0,0,8.47,9.06l1.9.28c0,3.63-.07,7.29,0,11.36a81.38,81.38,0,0,0,7.89-10.41,159.74,159.74,0,0,0,46.69-2.46A10,10,0,0,0,253.23,56.26Z"/><path class="cls-11" d="M192.86,2.22c-1.5.22-3,.47-4.49.74"/><path class="cls-11" d="M184.11,4.83a9.94,9.94,0,0,0-4,7.19,291.82,291.82,0,0,0,.07,46.09,10,10,0,0,0,8.47,9.06l1.9.28c0,3.63-.07,7.29,0,11.36a81.38,81.38,0,0,0,7.89-10.41,159.74,159.74,0,0,0,46.69-2.46,10,10,0,0,0,8-9.68c.28-16.79-1.12-31.67-4.6-45.77A9.84,9.84,0,0,0,241,3.22a137.27,137.27,0,0,0-39.15-2.07"/><path class="cls-12" d="M210.21,42.45a5.12,5.12,0,0,1-1.83-1.85,5.65,5.65,0,0,1-.87-3.16,3.47,3.47,0,0,1,.92-2.66,6.25,6.25,0,0,1,2.76-1.35l4.45-1.11c1.9-.5,2.84-1.42,2.84-2.75a2.34,2.34,0,0,0-1.07-1.88,6.13,6.13,0,0,0-3.62-.78,15.89,15.89,0,0,0-4.39.62A13.12,13.12,0,0,0,206.09,29a7.28,7.28,0,0,1-1.66-1.79,4.62,4.62,0,0,1-.7-2.54,4.16,4.16,0,0,1,.85-2.6,6.31,6.31,0,0,1,2.35-1.84,14,14,0,0,1,3.59-1.07,29.23,29.23,0,0,1,4.59-.37q6.73,0,10.2,3a9.86,9.86,0,0,1,3.49,7.83q0,9.12-12.83,11.76Zm-1.84,7.48a5.09,5.09,0,1,1,1.47,3.84A5.33,5.33,0,0,1,208.37,49.93Z"/><path class="cls-13" d="M89.46,112.91a71.26,71.26,0,0,0-19.25,19.64,73.48,73.48,0,0,0,35.87,109.13s1.93-41.39-3.21-75.94S89.46,112.91,89.46,112.91Z"/><path class="cls-11" d="M65,184.18a10.87,10.87,0,0,0,2.15,8.07"/><path class="cls-13" d="M173.36,167.21c8.21,7.72,18.45,13.53,29.58,15.29s23.13-.84,31.77-8.08c8-6.7,12.52-16.66,15.3-26.71,6.19-22.36,3.52-48.55-5.32-70l-15.15-2.86a53.73,53.73,0,0,0-2.23-6.51c-1.17-2.79-2.65-5.59-5.08-7.39a2.58,2.58,0,0,0-2.23-.65c-1,.32-1.35,1.59-1.31,2.65.09,2.08,1,4,1.81,6,2.25,5.6,3.22,11.63,4,17.63L224,93.85a94.23,94.23,0,0,1,1.94,32.6c-.65,5.67-2.25,11.94-7.15,14.86s-11.16,1.32-15.68-1.95-7.72-8-11.32-12.26a74.85,74.85,0,0,0-19.68-16.37s-4.64,14.15-3.83,25.21S173.36,167.21,173.36,167.21Z"/><path class="cls-14" d="M252.78,132.82c-4.27,14.89-14.39,37.81-36.51,39.49-25.17,1.9-39.94-12-45.52-18.62,1.31,7.37,2.61,13.52,2.61,13.52,8.21,7.72,18.45,13.53,29.58,15.29s23.13-.84,31.77-8.08c8-6.7,12.52-16.66,15.3-26.71A92.71,92.71,0,0,0,252.78,132.82Z"/><path class="cls-11" d="M221.89,172a5.94,5.94,0,0,0,7.35-3.82"/><path class="cls-11" d="M173.36,167.21c8.21,7.72,18.45,13.53,29.58,15.29s23.13-.84,31.77-8.08c8-6.7,12.52-16.66,15.3-26.71"/><path class="cls-13" d="M235.58,72.51a14.31,14.31,0,0,1-1.71-1.85,5.21,5.21,0,0,0-2-1.53,2.24,2.24,0,0,0-2.35.39,3.37,3.37,0,0,0-.7,2c-.48,4.09-.93,8.32.28,12.26.35,1.14,1,2.38,2.19,2.59a2.46,2.46,0,0,0,2.33-1.11,7,7,0,0,0,1-2.53A31.25,31.25,0,0,0,235.58,72.51Z"/><path class="cls-11" d="M235.58,72.51a14.31,14.31,0,0,1-1.71-1.85,5.21,5.21,0,0,0-2-1.53,2.24,2.24,0,0,0-2.35.39,3.37,3.37,0,0,0-.7,2c-.48,4.09-.93,8.32.28,12.26.35,1.14,1,2.38,2.19,2.59a2.46,2.46,0,0,0,2.33-1.11,7,7,0,0,0,1-2.53A31.25,31.25,0,0,0,235.58,72.51Z"/><path class="cls-13" d="M240.6,79.27c.24-2.79.46-5.7-.67-8.28a3.19,3.19,0,0,0-2.06-2A2.64,2.64,0,0,0,235.36,70a6.18,6.18,0,0,0-1,2.58,26,26,0,0,0,.07,11.71,4.67,4.67,0,0,0,.62,1.6,2.06,2.06,0,0,0,1.44.93c1.08.1,1.93-.87,2.42-1.8A15.17,15.17,0,0,0,240.6,79.27Z"/><path class="cls-11" d="M240.6,79.27c.24-2.79.46-5.7-.67-8.28a3.19,3.19,0,0,0-2.06-2A2.64,2.64,0,0,0,235.36,70a6.18,6.18,0,0,0-1,2.58,26,26,0,0,0,.07,11.71,4.67,4.67,0,0,0,.62,1.6,2.06,2.06,0,0,0,1.44.93c1.08.1,1.93-.87,2.42-1.8A15.17,15.17,0,0,0,240.6,79.27Z"/><path class="cls-13" d="M245.45,77.83a11.21,11.21,0,0,0-.61-5.56c-.37-1-1-2-2-2.16a2.17,2.17,0,0,0-2,1,5.77,5.77,0,0,0-.84,2.19,19.39,19.39,0,0,0,.47,10.14c.3.89.86,1.9,1.77,2s1.46-.76,1.84-1.53C245,82.06,245.13,80,245.45,77.83Z"/><path class="cls-11" d="M245.45,77.83a11.21,11.21,0,0,0-.61-5.56c-.37-1-1-2-2-2.16a2.17,2.17,0,0,0-2,1,5.77,5.77,0,0,0-.84,2.19,19.39,19.39,0,0,0,.47,10.14c.3.89.86,1.9,1.77,2s1.46-.76,1.84-1.53C245,82.06,245.13,80,245.45,77.83Z"/><path class="cls-13" d="M224,93.85c-.69-1.52-2.15-2.52-3.45-3.57s-2.58-2.42-2.62-4.1c0-1.5,1-2.81,1.87-4,1.89-2.39,3.86-4.86,6.55-6.3.77-.42,1.86-.69,2.44,0s.19,1.69-.23,2.47a38,38,0,0,0-3.16,7,16.29,16.29,0,0,1,18.11,3.56"/><path class="cls-11" d="M224,93.85c-.69-1.52-2.15-2.52-3.45-3.57s-2.58-2.42-2.62-4.1c0-1.5,1-2.81,1.87-4,1.89-2.39,3.86-4.86,6.55-6.3.77-.42,1.86-.69,2.44,0s.19,1.69-.23,2.47a38,38,0,0,0-3.16,7,16.29,16.29,0,0,1,18.11,3.56"/><path class="cls-13" d="M161.19,105.48a76.28,76.28,0,0,0-35.68-4.89A69.1,69.1,0,0,0,97.68,108s.78,22.5,21.19,29.38,33.36-4,38-13A38,38,0,0,0,161.19,105.48Z"/><path class="cls-10" d="M161.72,105.69a56.7,56.7,0,0,1-10,17.16,31.71,31.71,0,0,1-21.88,10.5c-7.55.3-15-2.94-20.58-8A44,44,0,0,1,98,107.88l-.3.15a71.69,71.69,0,0,0-8.22,4.88h0a626.35,626.35,0,0,0,5,84,253.57,253.57,0,0,0,82.68-3.39c6.38-14.19,4.74-30.63,1.61-45.87-2.52-12.26-5.93-24.54-6.63-36.95h0a78.71,78.71,0,0,0-10.91-5.25"/><path class="cls-8" d="M177.12,193.55a46.19,46.19,0,0,0,2.83-8.38c-7.43-2.79-30.14-10.64-49.1-10a112.91,112.91,0,0,0-38,8.06c.48,4.57,1,9.14,1.57,13.73A253.57,253.57,0,0,0,177.12,193.55Z"/><path class="cls-11" d="M109.57,162.53a264.08,264.08,0,0,1,38.32-2.71"/><path class="cls-15" d="M89.78,188.11c1.44,5.06,3,10.86,5.36,17.88-1.24,19.86-2.49,39.74-3.62,60.45l1.41.48c24.27,8,50.3,12.38,75.51,8.1a115.9,115.9,0,0,0,33.95-11.47c-2.48-22.56-10-42.81-22-60-.07-5.19.94-10,1.94-14.87C152.6,179.15,120,179.4,89.78,188.11Z"/><path class="cls-8" d="M146.92,276.67q-1.59-14.1-3.17-28.2a13.92,13.92,0,0,1-12.07-6.93,24.13,24.13,0,0,1-2.58-8.34c-3.29,14.85,10.06,20.71,10.06,20.71V276.4C141.75,276.57,144.33,276.65,146.92,276.67Z"/><path class="cls-11" d="M128.57,228.92c.47,4.34,1,8.81,3.11,12.62a13.92,13.92,0,0,0,12.07,6.93q1.59,14.1,3.17,28.2"/><path class="cls-16" d="M181.2,203.26A244.38,244.38,0,0,1,95,208a1.65,1.65,0,0,1-1.42-1.66h0a1.61,1.61,0,0,1,1.8-1.55,254.89,254.89,0,0,0,85.13-4.72,1.61,1.61,0,0,1,1.91,1.14v.05A1.63,1.63,0,0,1,181.2,203.26Z"/><path class="cls-15" d="M95,35.29c-4.19-4.51-10.56-7.69-16.49-6a14,14,0,0,0-7.71,5.86A16.92,16.92,0,0,0,73.19,56a16.94,16.94,0,0,0,21,1.38Z"/><path class="cls-8" d="M89.31,30.86c-4.61,5.79-7.68,17.68-2.62,29.37a15.87,15.87,0,0,0,7.46-2.85L95,35.29A22.23,22.23,0,0,0,89.31,30.86Z"/><path class="cls-15" d="M153.05,28.13a16.87,16.87,0,0,1,27.74,19.2,18.84,18.84,0,0,1-10.42,7.56,23.72,23.72,0,0,1-13,0Z"/><path class="cls-8" d="M161.75,55.66c8.07-15.6-.71-27.33-4.6-31.44a16.22,16.22,0,0,0-4.1,3.91l4.35,26.74A25.61,25.61,0,0,0,161.75,55.66Z"/><path class="cls-15" d="M157.37,60.49a49.23,49.23,0,0,0,3.45-17.94A28.05,28.05,0,0,0,155,25.47a27.59,27.59,0,0,0-12.25-8.28A45.65,45.65,0,0,0,128,14.84c-8.31-.11-16.78,1.35-24.11,5.29S90.49,30.66,88.19,38.65a25.19,25.19,0,0,0,5.49,23.68c-.39,2.79,1.25,5.57,3.51,7.26a20.34,20.34,0,0,0,7.8,3.09,89,89,0,0,0,30.56,1.47,36.25,36.25,0,0,0,12.79-3.6A19.23,19.23,0,0,0,157.37,60.49Z"/><path class="cls-13" d="M120.93,81.59c-.18,7.74,0,15.49.44,23.49a53.61,53.61,0,0,0,15.38-.09,169.14,169.14,0,0,0-1.47-22.26Z"/><path class="cls-14" d="M136.28,92.57c-.25-3.29-.57-6.57-1-9.84l-14.35-1.14c-.09,3.87-.09,7.74,0,11.64C124.93,94.42,131.5,95.56,136.28,92.57Z"/><path class="cls-13" d="M94.73,55.72a14.55,14.55,0,0,0-16.86,8.49,14,14,0,0,0,25,12.51Z"/><path class="cls-11" d="M83,69.44a10.82,10.82,0,0,1,9.7-5.22"/><path class="cls-11" d="M91.71,72.79a13.07,13.07,0,0,1-4-7.56"/><path class="cls-17" d="M80,56.54c-.55.13-.73.86-.52,1.41a4.25,4.25,0,0,0,1.08,1.36,12.27,12.27,0,0,0,1,1,2.1,2.1,0,0,0,1.29.54,1.08,1.08,0,0,0,1.06-.72,1.8,1.8,0,0,0-.56-1.47,15.29,15.29,0,0,0-1.46-1.55A2,2,0,0,0,80,56.54Z"/><path class="cls-17" d="M76.12,62a1,1,0,0,0,0,1.5,4.45,4.45,0,0,0,1.51.87,13,13,0,0,0,1.32.59,2.17,2.17,0,0,0,1.4,0,1.09,1.09,0,0,0,.72-1.07C81,63.37,80.52,63,80,62.74a14.79,14.79,0,0,0-1.93-.91A2,2,0,0,0,76.12,62Z"/><path class="cls-13" d="M154.5,54.3a14.55,14.55,0,0,1,18.17,5.13,14,14,0,0,1-22.17,17Z"/><path class="cls-11" d="M168.67,65.52a10.86,10.86,0,0,0-10.53-3.27"/><path class="cls-11" d="M160.72,70.47a13.05,13.05,0,0,0,2.53-8.18"/><path class="cls-17" d="M164.51,50.36c-.42-.38-1.13-.11-1.46.36a4.34,4.34,0,0,0-.51,1.67,13.52,13.52,0,0,0-.28,1.41,2.09,2.09,0,0,0,.29,1.37,1.06,1.06,0,0,0,1.19.47c.5-.18.74-.76.9-1.29a16.39,16.39,0,0,0,.45-2.08A2,2,0,0,0,164.51,50.36Z"/><path class="cls-17" d="M170.85,53.51a1,1,0,0,0-1.5-.16,4.55,4.55,0,0,0-1,1.39,11.85,11.85,0,0,0-.73,1.24,2.09,2.09,0,0,0-.21,1.38,1.08,1.08,0,0,0,1,.85,1.77,1.77,0,0,0,1.28-.91,14,14,0,0,0,1.13-1.8A2,2,0,0,0,170.85,53.51Z"/><path class="cls-13" d="M154.5,54.3c3.19,11.19-1.63,24.08-11.16,30.77s-23,7-33,1S94.18,68.41,94.73,55.72c16.16-1.67,31.39-10.8,40.86-23.21C137.85,41.91,145.35,49.87,154.5,54.3Z"/><path class="cls-14" d="M149.81,68.62a7.78,7.78,0,0,0-9.89,4.15,8,8,0,0,0,4.2,10,7.13,7.13,0,0,0,1.56.45,29.19,29.19,0,0,0,7.8-11.3A8.58,8.58,0,0,0,149.81,68.62Z"/><path class="cls-14" d="M109.92,73.89a7.82,7.82,0,0,0-9.28,3,30.94,30.94,0,0,0,9.69,9.2c.57.34,1.15.65,1.73.94a7.66,7.66,0,0,0,2.41-2.71C116.32,80.76,113.59,75.47,109.92,73.89Z"/><path class="cls-9" d="M138.71,54.75a1.8,1.8,0,1,0,.45,3.12A1.9,1.9,0,0,0,138.71,54.75Z"/><path class="cls-9" d="M108.41,57.66a1.8,1.8,0,1,0,.45,3.12A1.9,1.9,0,0,0,108.41,57.66Z"/><path class="cls-9" d="M136.55,64.87a34.31,34.31,0,0,0-6.51,5,4.26,4.26,0,0,0,6.51-5Z"/><path class="cls-11" d="M118.88,55.3a18.5,18.5,0,0,0-3.37,6.43,16.48,16.48,0,0,0,6.72,1.62"/><path class="cls-11" d="M129.82,49a7,7,0,0,1,12.28-.38"/></g></g></svg>