<svg xmlns="http://www.w3.org/2000/svg" xmlns:xlink="http://www.w3.org/1999/xlink" viewBox="0 0 297.67 256.28"><defs><style>.cls-1,.cls-16,.cls-20,.cls-22,.cls-26,.cls-6,.cls-7{fill:none;}.cls-2{isolation:isolate;}.cls-3{opacity:0.12;}.cls-14,.cls-29,.cls-3,.cls-5{mix-blend-mode:multiply;}.cls-4,.cls-5,.cls-8{fill:#030a4c;}.cls-14,.cls-29,.cls-5{opacity:0.15;}.cls-6,.cls-7,.cls-8{stroke:#030a4c;}.cls-16,.cls-20,.cls-22,.cls-23,.cls-26,.cls-6,.cls-7,.cls-8{stroke-linecap:round;stroke-linejoin:round;}.cls-16,.cls-23,.cls-6,.cls-8{stroke-width:1.14px;}.cls-20,.cls-22,.cls-26,.cls-7{stroke-width:2.28px;}.cls-9{clip-path:url(#clip-path);}.cls-10{clip-path:url(#clip-path-2);}.cls-11{clip-path:url(#clip-path-3);}.cls-12{clip-path:url(#clip-path-4);}.cls-13{fill:#2879c9;}.cls-14,.cls-30{fill:#452499;}.cls-15{fill:#fff;}.cls-16,.cls-23{stroke:#2c2355;}.cls-17{fill:#105699;}.cls-18{fill:#e95e3f;}.cls-19{fill:#ff99ac;}.cls-20{stroke:#7c50b8;}.cls-21{fill:#ff8197;}.cls-22{stroke:#fff;}.cls-23{fill:#2c2355;}.cls-24{fill:#f78d7c;}.cls-25{clip-path:url(#clip-path-5);}.cls-26{stroke:#e5d669;}.cls-27{fill:#e5d669;}.cls-28{clip-path:url(#clip-path-6);}.cls-31{clip-path:url(#clip-path-7);}.cls-32{clip-path:url(#clip-path-8);}</style><clipPath id="clip-path"><path class="cls-1" d="M187.28,193a31.88,31.88,0,0,0,35.63,18.14c12.16-2.56,21.9-12.15,27.7-23.14s8.75-23.31,10.64-35.6l-29.53-5.57a91.9,91.9,0,0,1-5,13,15.58,15.58,0,0,1-2.95,4.61,6,6,0,0,1-5,1.88,6.15,6.15,0,0,1-4.3-3.54,18.33,18.33,0,0,1-1.37-5.59l-3.18-23.54c-.73-5.4-1.47-10.84-3.22-16s-4.59-10.09-8.88-13.46a26.13,26.13,0,0,0-8.73-4.36s-5.35,30.19-6.44,51.26S187.28,193,187.28,193Z"/></clipPath><clipPath id="clip-path-2"><path class="cls-1" d="M83.35,195.92a32.17,32.17,0,0,1-3.63-4.74c-8.43-13.23-9.62-30.44-4.46-45.26,4.91-14.11,15.19-26,27.74-34.16,0,0,12.79,25.3,6.61,47.27s-26.94,36.89-26.94,36.89"/></clipPath><clipPath id="clip-path-3"><path class="cls-1" d="M149.58,97.25c-15.65,1.08-31.27,5.17-44.68,13.32-.64.38-1.27.78-1.9,1.19a337,337,0,0,1,.18,36.79c-2.49,35.8-6.09,70.89-10.5,105.84A222.84,222.84,0,0,0,201.8,260a629.47,629.47,0,0,0-10.87-124.93A262.81,262.81,0,0,1,189.1,99.8a60.16,60.16,0,0,0-12.4-2.06A247.86,247.86,0,0,0,149.58,97.25Z"/></clipPath><clipPath id="clip-path-4"><path class="cls-1" d="M113.75,119a194.65,194.65,0,0,0-26.13,54.71l-4.27,22.24a18.21,18.21,0,0,0,6.28,4.49c5.59,2.28,12.12.9,17.38-2.06,11.61-6.52,17.87-19.45,22.79-31.82q6-15.12,10.81-30.72A253.36,253.36,0,0,0,113.75,119Z"/></clipPath><clipPath id="clip-path-5"><path class="cls-1" d="M179.29,185a31.88,31.88,0,0,0,35.63,18.14c12.16-2.56,21.9-12.15,27.7-23.14s8.75-23.31,10.64-35.6l-29.53-5.57a91.9,91.9,0,0,1-5,13,15.58,15.58,0,0,1-2.95,4.61,6,6,0,0,1-5,1.88,6.15,6.15,0,0,1-4.3-3.54,18.33,18.33,0,0,1-1.37-5.59l-3.18-23.54c-.73-5.4-1.47-10.84-3.22-16s-4.59-10.09-8.88-13.46a26.13,26.13,0,0,0-8.73-4.36s-5.35,30.19-6.44,51.26S179.29,185,179.29,185Z"/></clipPath><clipPath id="clip-path-6"><path class="cls-1" d="M75.36,187.93a32.17,32.17,0,0,1-3.63-4.74c-8.43-13.23-9.62-30.44-4.46-45.26,4.91-14.11,15.19-26,27.74-34.16,0,0,12.79,25.3,6.61,47.27s-26.94,36.89-26.94,36.89"/></clipPath><clipPath id="clip-path-7"><path class="cls-1" d="M141.59,89.26c-15.65,1.08-31.27,5.17-44.68,13.31-.64.39-1.27.79-1.9,1.2a337,337,0,0,1,.18,36.79c-2.49,35.8-6.09,70.89-10.5,105.84A222.84,222.84,0,0,0,193.81,252a629.47,629.47,0,0,0-10.87-124.93,262.81,262.81,0,0,1-1.83-35.25,60.16,60.16,0,0,0-12.4-2.06A247.86,247.86,0,0,0,141.59,89.26Z"/></clipPath><clipPath id="clip-path-8"><path class="cls-1" d="M105.76,111a194.65,194.65,0,0,0-26.13,54.71l-4.27,22.24a18.21,18.21,0,0,0,6.28,4.49c5.59,2.28,12.12.9,17.38-2.06,11.61-6.52,17.87-19.45,22.79-31.82q6-15.12,10.81-30.72A253.36,253.36,0,0,0,105.76,111Z"/></clipPath></defs><g class="cls-2"><g id="Capa_1" data-name="Capa 1"><g class="cls-3"><path class="cls-4" d="M149.46,42.68c35.54,10.21,75-11.79,109.9.38,24.63,8.58,41.27,33.38,45.21,59.16s-3.19,52.19-14.53,75.67c-13.66,28.29-34.37,54.21-62.45,68.3-19.86,10-42.48,13.54-64.69,13-42.77-1-85.68-17.46-115.54-48.11S2,135.42,10.15,93.42C13.73,75,21.82,57.22,35,43.91S66.74,22.16,85.46,23.08c29.44,1.45,55.65,24.87,85,21.64"/><path class="cls-5" d="M263.44,126s6.55-2.93,7.75-5.34a3.22,3.22,0,0,0-.82-4s3.91-2.11,4.81-4.18a6.21,6.21,0,0,0-.3-4.55L255,120.57S240,161.74,239.36,162.49,217.57,170,217.57,170l-7.71-13.25s-10.09-35.07-19.72-51.1-3.76-38.42-3.76-38.42c19.56-4.19,14.45-19.89,14.45-19.89L97.93,69c-5.82,13.66,7.12,19.17,8.25,19.45C105,88.82,94,123.37,94,123.37l-20.39,38c-6.4,38.8,19.12,45.64,19.12,45.64L89,241.18a175.7,175.7,0,0,0,74,18.05,151.68,151.68,0,0,0,43.81-5.08c.64-16.42-1.14-38.52-1.14-38.52,27.32,4.4,44.7-10.28,52-38.39A180.94,180.94,0,0,0,263.44,126Z"/><path class="cls-4" d="M282.32,25.94a10.41,10.41,0,0,0-7.74-7.69,113.27,113.27,0,0,0-49.64-.18,10.42,10.42,0,0,0-8.27,9.7q-.42,9.52-.19,19.14a51.84,51.84,0,0,0-11.7,6.56,37.23,37.23,0,0,0,12.09,3.3c.52,8.92,1.44,17.92,2.8,27a10.48,10.48,0,0,0,8.8,8.77,141.35,141.35,0,0,0,47.81-.77A10.42,10.42,0,0,0,284.77,83,157.42,157.42,0,0,0,282.32,25.94Z"/><path class="cls-5" d="M218.28,73c.4,3.59.85,7.19,1.39,10.81a10.48,10.48,0,0,0,8.8,8.77,141.35,141.35,0,0,0,47.81-.77A10.42,10.42,0,0,0,284.77,83a171.92,171.92,0,0,0,1.49-23.37C259.12,75.22,230.65,74.38,218.28,73Z"/><path class="cls-6" d="M221.77,19.31a10.4,10.4,0,0,0-2.55,2.12"/><path class="cls-6" d="M216.67,27.77q-.42,9.52-.19,19.14a51.84,51.84,0,0,0-11.7,6.56,37.23,37.23,0,0,0,12.09,3.3c.52,8.92,1.44,17.92,2.8,27a10.48,10.48,0,0,0,8.8,8.77,141.35,141.35,0,0,0,47.81-.77A10.42,10.42,0,0,0,284.77,83a157.42,157.42,0,0,0-2.45-57,10.41,10.41,0,0,0-7.74-7.69,110.39,110.39,0,0,0-39.87-1.84"/><path class="cls-4" d="M245.93,61a5.09,5.09,0,0,1-1.83-1.84,5.67,5.67,0,0,1-.87-3.16,3.47,3.47,0,0,1,.92-2.66A6.36,6.36,0,0,1,246.91,52l4.45-1.1c1.9-.51,2.84-1.42,2.84-2.75a2.33,2.33,0,0,0-1.07-1.88,6.13,6.13,0,0,0-3.62-.78,15.52,15.52,0,0,0-4.39.62,13.14,13.14,0,0,0-3.31,1.41,7.11,7.11,0,0,1-1.66-1.79,4.58,4.58,0,0,1-.7-2.53,4.14,4.14,0,0,1,.85-2.6,6.22,6.22,0,0,1,2.35-1.84,13.57,13.57,0,0,1,3.59-1.07,28.07,28.07,0,0,1,4.59-.37q6.73,0,10.2,3a9.85,9.85,0,0,1,3.49,7.82q0,9.13-12.83,11.76Zm-1.84,7.49a5.09,5.09,0,1,1,1.47,3.84A5.33,5.33,0,0,1,244.09,68.51Z"/><path class="cls-4" d="M196.67,109.44c-7-7.41-10.19-17.77-11.34-27.93s-.56-20.44-1.34-30.64-3.08-20.66-9.27-28.8A36.66,36.66,0,0,0,144.49,8,39.18,39.18,0,0,0,115,23.93a21.24,21.24,0,0,0-.94-3.85c-.16-.49-.5-1.1-1-1s-.59.63-.64,1.07A14.92,14.92,0,0,0,113,26c-1.37-.78-2.61-1.6-3.94-2.25-.5-.25-1.26-.39-1.49.12a1.08,1.08,0,0,0,.26,1,24.67,24.67,0,0,0,4.11,4.61c-5.76,3.45-9.07,10.37-9.56,17.1s1.38,13.36,3.23,19.84c2.09,11.31-.6,22.62-5.44,32.4-2.25,4.57-5,8.93-6.59,13.76s-2,10.35,1.36,15.29C127.53,125.77,159.89,119.42,196.67,109.44Z"/><path class="cls-4" d="M113.48,58.43A13.56,13.56,0,0,0,98.67,64a14.51,14.51,0,0,0,.44,15.95A15.59,15.59,0,0,0,114,86a16.91,16.91,0,0,0,12.66-10.14Z"/><path class="cls-6" d="M103.78,75.14a10.59,10.59,0,0,1,9.64-7.89"/><path class="cls-6" d="M108.18,69a10.6,10.6,0,0,0,5,7.67"/><path class="cls-7" d="M113.78,81.77A7.19,7.19,0,0,1,117.52,88a4.39,4.39,0,0,1-2.46,4.16,4,4,0,0,1-4.59-2,7.55,7.55,0,0,1-.85-4.12"/><path class="cls-4" d="M177.16,38.09a42.38,42.38,0,0,1,1.77,26.26A33.22,33.22,0,0,1,163,84.94c-9.63,5.12-21.83,4.42-31.39-.84s-16.48-14.69-19.36-26a29.19,29.19,0,0,0,8.08-13.23,77.93,77.93,0,0,0,2.79-15.22C138.8,39.15,158.38,41.94,177.16,38.09Z"/><path class="cls-4" d="M178,61.45a7.09,7.09,0,0,0-7.26,12.18,6.71,6.71,0,0,0,3.52.91,34.84,34.84,0,0,0,4.65-10.19c.16-.59.31-1.2.44-1.8A6.5,6.5,0,0,0,178,61.45Z"/><path class="cls-4" d="M134.31,72a7.37,7.37,0,0,0-9.72,2.47,6.78,6.78,0,0,0-.9,3.79,36.92,36.92,0,0,0,7.91,5.87l1.2.61a7,7,0,0,0,4-3A7.37,7.37,0,0,0,134.31,72Z"/><path class="cls-7" d="M142.08,60.06a12,12,0,0,1-16.28.23A12,12,0,0,1,125.44,44a12,12,0,0,1,16.28-.49A12,12,0,0,1,142.08,60.06Z"/><path class="cls-7" d="M144.83,48.92a7.5,7.5,0,0,1,4.13-3,7.36,7.36,0,0,1,4.83.32"/><path class="cls-7" d="M172.26,49a12,12,0,0,1-16.28.24A12,12,0,0,1,155.62,33a12,12,0,0,1,16.27-.48A11.93,11.93,0,0,1,172.26,49Z"/><path class="cls-6" d="M136,51.39a5.16,5.16,0,0,0-4.19-.57,6,6,0,0,0-3.53,3.25l-3-2.17"/><path class="cls-6" d="M129.86,52c-.39-.63-.79-1.25-1.18-1.87"/><path class="cls-6" d="M132.48,50.67c-.08-.45-.17-.91-.28-1.37"/><path class="cls-6" d="M160.92,44.14a5.19,5.19,0,0,1,3.74-2A6,6,0,0,1,169.09,44L171.16,41"/><path class="cls-6" d="M166.91,42.58c.15-.72.31-1.45.48-2.16"/><path class="cls-6" d="M164,42.25q-.12-.68-.21-1.38"/><path class="cls-6" d="M149.79,47c2,1.13,4,2.25,6,3.51a15,15,0,0,1-4.38,4.12"/><path class="cls-8" d="M161.15,59.74c-.49.07-1,.08-1.49.17a2.29,2.29,0,0,0-1.3.68,1.18,1.18,0,0,0-.17,1.38,1.57,1.57,0,0,0,1.29.57,4.4,4.4,0,0,0,2.17-.48,2.29,2.29,0,0,0,.95-.82,1.18,1.18,0,0,0,.05-1.2C162.43,59.68,161.94,59.62,161.15,59.74Z"/><path class="cls-4" d="M177.16,38.09a13.56,13.56,0,0,1,15.06-4.82,14.53,14.53,0,0,1,9.52,12.81,15.65,15.65,0,0,1-7.91,14A16.92,16.92,0,0,1,177.6,60Z"/><path class="cls-6" d="M195.39,45.58a10.6,10.6,0,0,0-12.26-2.19"/><path class="cls-6" d="M188.55,42.36a10.61,10.61,0,0,1-.6,9.13"/><path class="cls-7" d="M188.48,58.37a7.15,7.15,0,0,1,3,6.66,4.4,4.4,0,0,1-2.92,3.84,4,4,0,0,1-4.33-2.53,7.69,7.69,0,0,1-.32-4.36"/><path class="cls-4" d="M187.28,193a31.88,31.88,0,0,0,35.63,18.14c12.16-2.56,21.9-12.15,27.7-23.14s8.75-23.31,10.64-35.6l-29.53-5.57a91.9,91.9,0,0,1-5,13,15.58,15.58,0,0,1-2.95,4.61,6,6,0,0,1-5,1.88,6.15,6.15,0,0,1-4.3-3.54,18.33,18.33,0,0,1-1.37-5.59l-3.18-23.54c-.73-5.4-1.47-10.84-3.22-16s-4.59-10.09-8.88-13.46a26.13,26.13,0,0,0-8.73-4.36s-5.35,30.19-6.44,51.26S187.28,193,187.28,193Z"/><g class="cls-9"><path class="cls-7" d="M187.3,130.65a79.74,79.74,0,0,0,20.8-14.73"/><path class="cls-7" d="M188.94,148.92a81.36,81.36,0,0,0,22.73-12.68"/><path class="cls-7" d="M190.59,169.56a76.68,76.68,0,0,0,23.08-11.19"/><path class="cls-7" d="M219.74,164.58a88.34,88.34,0,0,1-28.05,39"/><path class="cls-7" d="M222.39,164.35a98.77,98.77,0,0,1,12.78,46.85"/><path class="cls-7" d="M225.23,159.22A60.8,60.8,0,0,1,259,183"/></g><path class="cls-5" d="M256.67,173.11c-5.57,8.2-17.47,22.2-34.79,24.15-15.92,1.8-29.32-7.6-36.83-14.51,1.14,6.24,2.23,10.22,2.23,10.22a31.88,31.88,0,0,0,35.63,18.14c12.16-2.56,21.9-12.15,27.7-23.14A85.32,85.32,0,0,0,256.67,173.11Z"/><path class="cls-6" d="M187.28,193a31.88,31.88,0,0,0,35.63,18.14c12.16-2.56,21.9-12.15,27.7-23.14s8.75-23.31,10.64-35.6"/><path class="cls-4" d="M241.75,116.18l13.95-11.44c1.85-1.52,3.78-3.08,6.1-3.69,1-.25,2.33-.15,2.66.82.27.75-.27,1.53-.79,2.14s-1,1.11-1.45,1.66h0a41.71,41.71,0,0,1,5.53-2.62c.93-.35,2.07-.63,2.82,0a2,2,0,0,1,.38,2.13,5.47,5.47,0,0,1-1.36,1.82c-.53.52-1.07,1-1.62,1.54,1.42-.6,2.85-1.17,4.3-1.67a4.81,4.81,0,0,1,2.35-.39,1.78,1.78,0,0,1,1.58,1.55,2.61,2.61,0,0,1-1.17,1.86A75.65,75.65,0,0,1,267,116c.55-.16,1.1-.32,1.65-.46.93-.25,2.13-.37,2.65.43a1.6,1.6,0,0,1-.09,1.67,4.58,4.58,0,0,1-1.29,1.19,77,77,0,0,1-7.8,4.57l-6.68,5.15L240.64,121Z"/><path class="cls-4" d="M261.25,152.37c1.52-9.89,1.36-19.49.82-29l-4.49,0a17.28,17.28,0,0,0-14.62-7,18.79,18.79,0,0,0-3.88-8.77c-.72-.9-1.82-1.82-2.9-1.43-1.29.46-1.33,2.25-1.16,3.61a90.29,90.29,0,0,1-3.3,37.07Z"/><path class="cls-6" d="M257.58,123.34a17.28,17.28,0,0,0-14.62-7,18.79,18.79,0,0,0-3.88-8.77c-.72-.9-1.82-1.82-2.9-1.43-1.29.46-1.33,2.25-1.16,3.61a90.29,90.29,0,0,1-3.3,37.07"/><path class="cls-6" d="M259.06,119.08A54.11,54.11,0,0,1,267,116"/><path class="cls-6" d="M255.49,114.79c3.78-2,8.54-4.53,12.48-6.23"/><path class="cls-6" d="M252,112.48a106.86,106.86,0,0,1,10.23-6.81"/><path class="cls-6" d="M248.38,110.74l7.32-6c1.85-1.52,3.78-3.08,6.1-3.69,1-.25,2.33-.15,2.66.82.27.75-.27,1.53-.79,2.14s-1,1.11-1.45,1.66h0a41.71,41.71,0,0,1,5.53-2.62c.93-.35,2.07-.63,2.82,0a2,2,0,0,1,.38,2.13,5.47,5.47,0,0,1-1.36,1.82c-.53.52-1.07,1-1.62,1.54,1.42-.6,2.85-1.17,4.3-1.67a4.81,4.81,0,0,1,2.35-.39,1.78,1.78,0,0,1,1.58,1.55,2.61,2.61,0,0,1-1.17,1.86A75.65,75.65,0,0,1,267,116c.55-.16,1.1-.32,1.65-.46.93-.25,2.13-.37,2.65.43a1.6,1.6,0,0,1-.09,1.67,4.58,4.58,0,0,1-1.29,1.19,77,77,0,0,1-7.8,4.57"/><path class="cls-6" d="M250.3,111.68c3.37,1.44,7.86,4.26,9.6,9.34"/><path class="cls-4" d="M262.46,150.39a65.43,65.43,0,0,0-30.26-6.17,2.81,2.81,0,0,0-2.7,2.54l0,.49a2.78,2.78,0,0,0,2.26,3,167.69,167.69,0,0,1,28,8,2.79,2.79,0,0,0,3.75-2l.56-2.72A2.78,2.78,0,0,0,262.46,150.39Z"/><path class="cls-6" d="M262.46,150.39a65.43,65.43,0,0,0-30.26-6.17,2.81,2.81,0,0,0-2.7,2.54l0,.49a2.78,2.78,0,0,0,2.26,3,167.69,167.69,0,0,1,28,8,2.79,2.79,0,0,0,3.75-2l.56-2.72A2.78,2.78,0,0,0,262.46,150.39Z"/><path class="cls-4" d="M83.35,195.92a32.17,32.17,0,0,1-3.63-4.74c-8.43-13.23-9.62-30.44-4.46-45.26,4.91-14.11,15.19-26,27.74-34.16,0,0,12.79,25.3,6.61,47.27s-26.94,36.89-26.94,36.89"/><g class="cls-10"><path class="cls-7" d="M83.36,125.32a46.24,46.24,0,0,1,19.61,16"/><path class="cls-7" d="M75.61,138.79c8.08,3.88,16.48,8,21.82,15.2"/><path class="cls-7" d="M70.54,162.36a35.12,35.12,0,0,0,19.62,5"/></g><path class="cls-4" d="M83.35,195.92l-.27-.3-.41.3Z"/><path class="cls-4" d="M94,185.58c-9.24-.8-16.22-5.6-20.39-9.26a47.59,47.59,0,0,0,6.16,14.86,32.16,32.16,0,0,0,3.36,4.44A85.72,85.72,0,0,0,94,185.58Z"/><path class="cls-4" d="M189.1,99.8a46,46,0,0,0-6.43-1.39l-33.9,18.89-33.08-12.24a84.21,84.21,0,0,0-10.79,5.5c-.64.39-1.27.79-1.9,1.2a337,337,0,0,1,.18,36.79c-2.23,32.12-5.36,63.66-9.17,95a176.42,176.42,0,0,0,68.89,15.64,155.21,155.21,0,0,0,38.93-3.83,629.73,629.73,0,0,0-10.9-120.35A262.81,262.81,0,0,1,189.1,99.8Z"/><g class="cls-11"><path class="cls-7" d="M102.38,129.33a233.51,233.51,0,0,0,90.6-.81"/><path class="cls-7" d="M101.45,148.4a214.61,214.61,0,0,0,93.32.37"/><path class="cls-7" d="M100.27,168a243.22,243.22,0,0,0,99.26-2.2"/><path class="cls-7" d="M98.62,184.64a248.28,248.28,0,0,0,101.79.07"/><path class="cls-7" d="M97.44,203.48a390.62,390.62,0,0,0,103.48,2"/><path class="cls-7" d="M94.09,222.62A277.55,277.55,0,0,0,204.65,224"/><path class="cls-7" d="M91.66,240.68c18.51,3,37.06,6,55.78,7.19s37.68.39,55.9-4.05"/></g><path class="cls-6" d="M103.18,148.55c-2.23,32.12-5.36,63.66-9.17,95"/><path class="cls-6" d="M201.84,255.4a629.74,629.74,0,0,0-10.91-120.35"/><path class="cls-4" d="M178.91,98,156.83,116.4l-38.18-12.52c-1,.38-2,.76-3,1.18,3.51,6.36,7.72,12.39,13.24,17.09,6.17,5.24,14.14,8.71,22.22,8.25,8.51-.5,16.39-5.33,21.81-11.9,4.76-5.79,7.78-12.82,9.71-20.09C181.42,98.22,180.16,98.08,178.91,98Z"/><path class="cls-4" d="M169.87,117.21a37.81,37.81,0,0,0,9-19.26c-.73-.07-1.47-.15-2.21-.21a247.86,247.86,0,0,0-27.12-.49,106.9,106.9,0,0,0-31,6.62,53.18,53.18,0,0,0,11.14,14.74c5,4.47,11.36,7.65,18.06,8C156.08,127.15,164.28,123.3,169.87,117.21Z"/><path class="cls-5" d="M149.58,97.25q-3.87.27-7.71.79l-40.32,71.82q-1.67,20.25-3.77,40.3c6.28-.5,19-3.23,28.83-16.66,13.48-18.51,22.57-78.71,22.57-78.71s13.11-.92,16.6-17.61C160.16,97,154.34,97.05,149.58,97.25Z"/><path class="cls-4" d="M113.75,119a194.65,194.65,0,0,0-26.13,54.71l-4.27,22.24a18.21,18.21,0,0,0,6.28,4.49c5.59,2.28,12.12.9,17.38-2.06,11.61-6.52,17.87-19.45,22.79-31.82q6-15.12,10.81-30.72A253.36,253.36,0,0,0,113.75,119Z"/><g class="cls-12"><path class="cls-7" d="M87,169.21a67.47,67.47,0,0,0,33.34,24.72"/><path class="cls-7" d="M92.69,154.91a59.1,59.1,0,0,0,37.36,19.49"/><path class="cls-7" d="M101.13,137.09a55.79,55.79,0,0,0,37.37,20.62"/></g><path class="cls-5" d="M104.79,184.64a31.46,31.46,0,0,1-19.1-.92l-2.34,12.2a18.21,18.21,0,0,0,6.28,4.49c5.59,2.28,12.12.9,17.38-2.06,11.61-6.52,17.87-19.45,22.79-31.82.68-1.7,1.33-3.41,2-5.12C124.68,171.58,115.19,182,104.79,184.64Z"/><path class="cls-6" d="M83.35,195.92a18.21,18.21,0,0,0,6.28,4.49c5.59,2.28,12.12.9,17.38-2.06,11.61-6.52,17.87-19.45,22.79-31.82q6-15.12,10.81-30.72A253.36,253.36,0,0,0,113.75,119a194.65,194.65,0,0,0-26.13,54.71"/><path class="cls-4" d="M168.07,70.62c-.74-1-2.35-.62-3.48,0-7.37,3.85-13.3,10.51-21.31,12.73a58.27,58.27,0,0,0-3.85-8.25c-.57-1-1.46-2-2.57-1.85a2,2,0,0,0-1.45,1.49,6.08,6.08,0,0,0,0,2.17c.4,4.24.65,8.57-.39,12.7-1.37,5.47-4.88,10.15-8.63,14.37S118.5,112.16,115,117.2c-.41.58-.81,1.18-1.22,1.77h0l12.86,9.55,14,7.29q3.7-12.07,6.67-24.37c6.31-2.47,11.16-6.61,13.18-11.93a17.35,17.35,0,0,0-2.22-16.19c2.67-3.21,5.82-6.23,8.8-9.4C167.91,73,168.8,71.64,168.07,70.62Z"/><path class="cls-6" d="M168.07,70.62c-.74-1-2.35-.62-3.48,0-7.37,3.85-13.3,10.51-21.31,12.73a58.27,58.27,0,0,0-3.85-8.25c-.57-1-1.46-2-2.57-1.85a2,2,0,0,0-1.45,1.49,6.08,6.08,0,0,0,0,2.17c.4,4.24.65,8.57-.39,12.7-1.37,5.47-4.88,10.15-8.63,14.37S118.5,112.16,115,117.2c-.41.58-.81,1.18-1.22,1.77h0l12.86,9.55,14,7.29q3.7-12.07,6.67-24.37c6.31-2.47,11.16-6.61,13.18-11.93a17.35,17.35,0,0,0-2.22-16.19c2.67-3.21,5.82-6.23,8.8-9.4C167.91,73,168.8,71.64,168.07,70.62Z"/><path class="cls-4" d="M137.6,138.91c-8.56-5-17-10.39-25.35-16.07a3.18,3.18,0,0,1-.84-4.4,11.7,11.7,0,0,1,1.16-1.45,3.13,3.13,0,0,1,3.47-.78,71.28,71.28,0,0,1,25.51,17.87,3.13,3.13,0,0,1,.65,3.06h0A3.16,3.16,0,0,1,137.6,138.91Z"/><path class="cls-6" d="M137.6,138.91c-8.56-5-17-10.39-25.35-16.07a3.18,3.18,0,0,1-.84-4.4,11.7,11.7,0,0,1,1.16-1.45,3.13,3.13,0,0,1,3.47-.78,71.28,71.28,0,0,1,25.51,17.87,3.13,3.13,0,0,1,.65,3.06h0A3.16,3.16,0,0,1,137.6,138.91Z"/></g><path class="cls-13" d="M141.47,34.69c35.54,10.21,75-11.79,109.9.38,24.63,8.58,41.27,33.38,45.21,59.16s-3.19,52.19-14.53,75.67c-13.66,28.29-34.37,54.21-62.45,68.3-19.86,10-42.48,13.54-64.69,13-42.78-1-85.68-17.46-115.54-48.11S-6,127.43,2.16,85.43C5.74,67,13.83,49.23,27,35.92S58.75,14.17,77.47,15.09c29.44,1.45,55.65,24.87,84.95,21.64"/><path class="cls-14" d="M255.45,118s6.55-2.93,7.75-5.34a3.22,3.22,0,0,0-.82-4s3.91-2.11,4.81-4.18a6.21,6.21,0,0,0-.3-4.55l-19.84,12.64S232,153.75,231.37,154.5,209.58,162,209.58,162l-7.71-13.25s-10.09-35.07-19.72-51.1-3.76-38.42-3.76-38.42c19.56-4.19,14.45-19.89,14.45-19.89L89.94,61c-5.82,13.66,7.12,19.17,8.25,19.45C97,80.83,86,115.38,86,115.38l-20.39,38c-6.4,38.8,19.12,45.64,19.12,45.64L81,233.19a175.7,175.7,0,0,0,74,18.05,151.68,151.68,0,0,0,43.81-5.08c.64-16.42-1.14-38.52-1.14-38.52,27.32,4.4,44.7-10.28,52-38.39A180.94,180.94,0,0,0,255.45,118Z"/><path class="cls-15" d="M274.33,18a10.41,10.41,0,0,0-7.74-7.69A113.27,113.27,0,0,0,217,10.08a10.42,10.42,0,0,0-8.27,9.7q-.42,9.52-.19,19.14a51.84,51.84,0,0,0-11.7,6.56,37.23,37.23,0,0,0,12.09,3.3c.52,8.92,1.44,17.92,2.8,27.05a10.48,10.48,0,0,0,8.8,8.77,141.35,141.35,0,0,0,47.81-.77A10.42,10.42,0,0,0,276.78,75,157.42,157.42,0,0,0,274.33,18Z"/><path class="cls-14" d="M210.29,65c.4,3.59.85,7.19,1.39,10.81a10.48,10.48,0,0,0,8.8,8.77,141.35,141.35,0,0,0,47.81-.77A10.42,10.42,0,0,0,276.78,75a171.92,171.92,0,0,0,1.49-23.37C251.13,67.23,222.66,66.39,210.29,65Z"/><path class="cls-16" d="M213.78,11.32a10.4,10.4,0,0,0-2.55,2.12"/><path class="cls-16" d="M208.68,19.78q-.42,9.52-.19,19.14a51.84,51.84,0,0,0-11.7,6.56,37.23,37.23,0,0,0,12.09,3.3c.52,8.92,1.44,17.92,2.8,27.05a10.48,10.48,0,0,0,8.8,8.77,141.35,141.35,0,0,0,47.81-.77A10.42,10.42,0,0,0,276.78,75a157.42,157.42,0,0,0-2.45-57,10.41,10.41,0,0,0-7.74-7.69,110.39,110.39,0,0,0-39.87-1.84"/><path class="cls-17" d="M237.94,53a5.09,5.09,0,0,1-1.83-1.84,5.67,5.67,0,0,1-.87-3.16,3.47,3.47,0,0,1,.92-2.66A6.36,6.36,0,0,1,238.92,44l4.45-1.1c1.9-.51,2.84-1.42,2.84-2.76a2.33,2.33,0,0,0-1.07-1.87,6.13,6.13,0,0,0-3.62-.78,15.52,15.52,0,0,0-4.39.62,13.14,13.14,0,0,0-3.31,1.41,6.93,6.93,0,0,1-1.66-1.79,4.58,4.58,0,0,1-.7-2.53,4.14,4.14,0,0,1,.85-2.6,6.22,6.22,0,0,1,2.35-1.84,13.57,13.57,0,0,1,3.59-1.07,28.07,28.07,0,0,1,4.59-.37q6.74,0,10.2,3a9.85,9.85,0,0,1,3.49,7.82q0,9.13-12.83,11.76Zm-1.84,7.49a5.09,5.09,0,1,1,1.47,3.84A5.33,5.33,0,0,1,236.1,60.52Z"/><path class="cls-18" d="M188.68,101.45c-7.05-7.41-10.19-17.77-11.34-27.93s-.56-20.44-1.34-30.64-3.08-20.66-9.27-28.8A36.66,36.66,0,0,0,136.5,0,39.18,39.18,0,0,0,107,15.94a21.24,21.24,0,0,0-.94-3.85c-.16-.49-.5-1.1-1-1s-.59.63-.64,1.07A14.92,14.92,0,0,0,105,18c-1.37-.78-2.61-1.6-3.94-2.25-.5-.25-1.26-.39-1.49.12a1.08,1.08,0,0,0,.26,1,24.67,24.67,0,0,0,4.11,4.61c-5.76,3.45-9.07,10.37-9.56,17.1s1.38,13.36,3.23,19.84C99.66,69.72,97,81,92.13,90.81c-2.25,4.57-5,8.93-6.59,13.76s-2,10.35,1.36,15.29C119.54,117.78,151.9,111.43,188.68,101.45Z"/><path class="cls-19" d="M105.49,50.44A13.56,13.56,0,0,0,90.68,56a14.51,14.51,0,0,0,.44,16A15.59,15.59,0,0,0,106,78,16.91,16.91,0,0,0,118.67,67.9Z"/><path class="cls-16" d="M95.79,67.15a10.59,10.59,0,0,1,9.64-7.89"/><path class="cls-16" d="M100.19,61a10.6,10.6,0,0,0,5,7.67"/><path class="cls-20" d="M105.79,73.78a7.19,7.19,0,0,1,3.74,6.27,4.39,4.39,0,0,1-2.46,4.16,4,4,0,0,1-4.59-2,7.55,7.55,0,0,1-.85-4.12"/><path class="cls-19" d="M169.17,30.1a42.38,42.38,0,0,1,1.77,26.26C168.59,65,162.88,72.76,155,77c-9.63,5.12-21.83,4.42-31.39-.84s-16.48-14.69-19.36-26a29.19,29.19,0,0,0,8.08-13.23,77.93,77.93,0,0,0,2.79-15.22C130.81,31.16,150.39,34,169.17,30.1Z"/><path class="cls-21" d="M170,53.46a7.09,7.09,0,0,0-7.26,12.18,6.71,6.71,0,0,0,3.52.91,34.84,34.84,0,0,0,4.65-10.19c.16-.59.31-1.2.44-1.8A6.5,6.5,0,0,0,170,53.46Z"/><path class="cls-21" d="M126.32,64a7.37,7.37,0,0,0-9.72,2.47,6.78,6.78,0,0,0-.9,3.79,36.92,36.92,0,0,0,7.91,5.87l1.2.61a7,7,0,0,0,4-3A7.37,7.37,0,0,0,126.32,64Z"/><path class="cls-22" d="M134.09,52.07a12,12,0,0,1-16.28.23A12,12,0,0,1,117.45,36a12,12,0,0,1,16.28-.49A12,12,0,0,1,134.09,52.07Z"/><path class="cls-22" d="M136.84,40.93a7.5,7.5,0,0,1,4.13-3,7.36,7.36,0,0,1,4.83.32"/><path class="cls-22" d="M164.27,41.05a12,12,0,0,1-16.28.24A12,12,0,0,1,147.63,25a12,12,0,0,1,16.27-.48A11.93,11.93,0,0,1,164.27,41.05Z"/><path class="cls-16" d="M128,43.4a5.16,5.16,0,0,0-4.19-.57,6,6,0,0,0-3.53,3.25l-3-2.17"/><path class="cls-16" d="M121.87,44c-.39-.63-.79-1.25-1.18-1.87"/><path class="cls-16" d="M124.49,42.68c-.08-.45-.17-.91-.28-1.37"/><path class="cls-16" d="M152.93,36.15a5.19,5.19,0,0,1,3.74-2A6,6,0,0,1,161.1,36L163.17,33"/><path class="cls-16" d="M158.92,34.59c.15-.72.31-1.45.48-2.16"/><path class="cls-16" d="M156,34.26q-.12-.67-.21-1.38"/><path class="cls-16" d="M141.8,39c2,1.13,4,2.25,6,3.51a15,15,0,0,1-4.38,4.12"/><path class="cls-23" d="M153.16,51.75c-.49.07-1,.08-1.49.17a2.29,2.29,0,0,0-1.3.68A1.18,1.18,0,0,0,150.2,54a1.6,1.6,0,0,0,1.29.57,4.4,4.4,0,0,0,2.17-.48,2.29,2.29,0,0,0,1-.82,1.18,1.18,0,0,0,0-1.2C154.44,51.69,154,51.63,153.16,51.75Z"/><path class="cls-19" d="M169.17,30.1a13.56,13.56,0,0,1,15.06-4.82,14.53,14.53,0,0,1,9.52,12.81,15.65,15.65,0,0,1-7.91,14A16.92,16.92,0,0,1,169.61,52Z"/><path class="cls-16" d="M187.4,37.59a10.6,10.6,0,0,0-12.26-2.19"/><path class="cls-16" d="M180.56,34.37a10.61,10.61,0,0,1-.6,9.13"/><path class="cls-20" d="M180.49,50.38a7.15,7.15,0,0,1,3,6.66,4.4,4.4,0,0,1-2.92,3.84,4,4,0,0,1-4.33-2.53,7.69,7.69,0,0,1-.32-4.36"/><path class="cls-24" d="M179.29,185a31.88,31.88,0,0,0,35.63,18.14c12.16-2.56,21.9-12.15,27.7-23.14s8.75-23.31,10.64-35.6l-29.53-5.57a91.9,91.9,0,0,1-5,13,15.58,15.58,0,0,1-2.95,4.61,6,6,0,0,1-5,1.88,6.15,6.15,0,0,1-4.3-3.54,18.33,18.33,0,0,1-1.37-5.59l-3.18-23.54c-.73-5.4-1.47-10.84-3.22-16s-4.59-10.09-8.88-13.46a26.13,26.13,0,0,0-8.73-4.36s-5.35,30.19-6.44,51.26S179.29,185,179.29,185Z"/><g class="cls-25"><path class="cls-26" d="M179.31,122.66a79.74,79.74,0,0,0,20.8-14.73"/><path class="cls-26" d="M181,140.93a81.36,81.36,0,0,0,22.73-12.68"/><path class="cls-26" d="M182.6,161.57a76.68,76.68,0,0,0,23.08-11.19"/><path class="cls-26" d="M211.75,156.59a88.34,88.34,0,0,1-28.05,39"/><path class="cls-26" d="M214.4,156.36a98.77,98.77,0,0,1,12.78,46.85"/><path class="cls-26" d="M217.24,151.23A60.8,60.8,0,0,1,251,175"/></g><path class="cls-14" d="M248.68,165.12c-5.57,8.2-17.47,22.2-34.79,24.15-15.92,1.8-29.32-7.6-36.83-14.51C178.2,181,179.29,185,179.29,185a31.88,31.88,0,0,0,35.63,18.14c12.16-2.56,21.9-12.15,27.7-23.14A85.32,85.32,0,0,0,248.68,165.12Z"/><path class="cls-16" d="M179.29,185a31.88,31.88,0,0,0,35.63,18.14c12.16-2.56,21.9-12.15,27.7-23.14s8.75-23.31,10.64-35.6"/><path class="cls-19" d="M233.76,108.19l14-11.44c1.85-1.52,3.78-3.08,6.1-3.69,1-.25,2.33-.15,2.66.82.27.75-.27,1.53-.79,2.14s-1,1.11-1.45,1.66h0a41.71,41.71,0,0,1,5.53-2.62c.93-.35,2.07-.63,2.82,0a2,2,0,0,1,.38,2.13A5.47,5.47,0,0,1,261.6,99c-.53.52-1.07,1-1.62,1.54,1.42-.6,2.85-1.17,4.3-1.67a4.81,4.81,0,0,1,2.35-.39,1.78,1.78,0,0,1,1.58,1.55,2.61,2.61,0,0,1-1.17,1.86A75.65,75.65,0,0,1,259,108c.55-.16,1.1-.32,1.65-.46.93-.25,2.13-.37,2.65.43a1.6,1.6,0,0,1-.09,1.67,4.58,4.58,0,0,1-1.29,1.19,77,77,0,0,1-7.8,4.57l-6.68,5.15L232.65,113Z"/><path class="cls-19" d="M253.26,144.38c1.52-9.89,1.36-19.49.82-29l-4.49,0a17.28,17.28,0,0,0-14.62-7,18.79,18.79,0,0,0-3.88-8.77c-.72-.9-1.82-1.82-2.9-1.43-1.29.46-1.33,2.25-1.16,3.61a90.29,90.29,0,0,1-3.3,37.07Z"/><path class="cls-16" d="M249.59,115.35a17.28,17.28,0,0,0-14.62-7,18.79,18.79,0,0,0-3.88-8.77c-.72-.9-1.82-1.82-2.9-1.43-1.29.46-1.33,2.25-1.16,3.61a90.29,90.29,0,0,1-3.3,37.07"/><path class="cls-16" d="M251.07,111.09A54.11,54.11,0,0,1,259,108"/><path class="cls-16" d="M247.5,106.8c3.78-2,8.54-4.53,12.48-6.23"/><path class="cls-16" d="M244,104.49a106.86,106.86,0,0,1,10.23-6.81"/><path class="cls-16" d="M240.39,102.75l7.32-6c1.85-1.52,3.78-3.08,6.1-3.69,1-.25,2.33-.15,2.66.82.27.75-.27,1.53-.79,2.14s-1,1.11-1.45,1.66h0a41.71,41.71,0,0,1,5.53-2.62c.93-.35,2.07-.63,2.82,0a2,2,0,0,1,.38,2.13A5.47,5.47,0,0,1,261.6,99c-.53.52-1.07,1-1.62,1.54,1.42-.6,2.85-1.17,4.3-1.67a4.81,4.81,0,0,1,2.35-.39,1.78,1.78,0,0,1,1.58,1.55,2.61,2.61,0,0,1-1.17,1.86A75.65,75.65,0,0,1,259,108c.55-.16,1.1-.32,1.65-.46.93-.25,2.13-.37,2.65.43a1.6,1.6,0,0,1-.09,1.67,4.58,4.58,0,0,1-1.29,1.19,77,77,0,0,1-7.8,4.57"/><path class="cls-16" d="M242.31,103.69c3.37,1.44,7.86,4.26,9.6,9.34"/><path class="cls-27" d="M254.47,142.4a65.43,65.43,0,0,0-30.26-6.17,2.81,2.81,0,0,0-2.7,2.54l0,.49a2.77,2.77,0,0,0,2.26,3,167.69,167.69,0,0,1,28,8,2.79,2.79,0,0,0,3.75-2l.56-2.72A2.78,2.78,0,0,0,254.47,142.4Z"/><path class="cls-16" d="M254.47,142.4a65.43,65.43,0,0,0-30.26-6.17,2.81,2.81,0,0,0-2.7,2.54l0,.49a2.77,2.77,0,0,0,2.26,3,167.69,167.69,0,0,1,28,8,2.79,2.79,0,0,0,3.75-2l.56-2.72A2.78,2.78,0,0,0,254.47,142.4Z"/><path class="cls-24" d="M75.36,187.93a32.17,32.17,0,0,1-3.63-4.74c-8.43-13.23-9.62-30.44-4.46-45.26,4.91-14.11,15.19-26,27.74-34.16,0,0,12.79,25.3,6.61,47.27s-26.94,36.89-26.94,36.89"/><g class="cls-28"><path class="cls-26" d="M75.37,117.33a46.24,46.24,0,0,1,19.61,16"/><path class="cls-26" d="M67.62,130.8c8.08,3.88,16.48,8,21.82,15.2"/><path class="cls-26" d="M62.55,154.37a35.12,35.12,0,0,0,19.62,5"/></g><g class="cls-29"><path class="cls-30" d="M75.36,187.93l-.27-.3-.41.3Z"/><path class="cls-30" d="M86,177.59c-9.24-.8-16.22-5.6-20.39-9.26a47.59,47.59,0,0,0,6.16,14.86,32.16,32.16,0,0,0,3.36,4.44A85.72,85.72,0,0,0,86,177.59Z"/></g><path class="cls-24" d="M181.11,91.81a46,46,0,0,0-6.43-1.39l-33.9,18.89L107.7,97.07a84.21,84.21,0,0,0-10.79,5.5c-.64.39-1.27.79-1.9,1.2a337,337,0,0,1,.18,36.79c-2.23,32.12-5.36,63.66-9.17,95a176.42,176.42,0,0,0,68.89,15.64,155.21,155.21,0,0,0,38.93-3.83,629.73,629.73,0,0,0-10.9-120.35A262.81,262.81,0,0,1,181.11,91.81Z"/><g class="cls-31"><path class="cls-26" d="M94.39,121.34a233.51,233.51,0,0,0,90.6-.81"/><path class="cls-26" d="M93.46,140.41a214.61,214.61,0,0,0,93.32.37"/><path class="cls-26" d="M92.28,160a243.22,243.22,0,0,0,99.26-2.2"/><path class="cls-26" d="M90.63,176.65a248.28,248.28,0,0,0,101.79.07"/><path class="cls-26" d="M89.45,195.49a390.19,390.19,0,0,0,103.48,2"/><path class="cls-26" d="M86.1,214.63A277.55,277.55,0,0,0,196.66,216"/><path class="cls-26" d="M83.67,232.69c18.51,3,37.06,6,55.78,7.19s37.68.39,55.9-4"/></g><path class="cls-16" d="M95.19,140.56c-2.23,32.12-5.36,63.66-9.17,95"/><path class="cls-16" d="M193.85,247.41a629.74,629.74,0,0,0-10.91-120.35"/><path class="cls-27" d="M170.92,90l-22.08,18.45L110.66,95.89c-1,.38-2,.76-3,1.18,3.51,6.36,7.72,12.39,13.24,17.09,6.17,5.24,14.14,8.71,22.22,8.24,8.51-.49,16.39-5.32,21.81-11.89,4.76-5.79,7.78-12.82,9.71-20.09C173.43,90.23,172.17,90.09,170.92,90Z"/><path class="cls-19" d="M161.88,109.22a37.81,37.81,0,0,0,9-19.26c-.73-.07-1.47-.15-2.21-.21a247.86,247.86,0,0,0-27.12-.49,106.9,106.9,0,0,0-30.95,6.62,53.18,53.18,0,0,0,11.14,14.74c5,4.47,11.36,7.65,18.06,8C148.09,119.16,156.29,115.31,161.88,109.22Z"/><path class="cls-14" d="M141.59,89.26q-3.87.27-7.71.79L93.56,161.87q-1.66,20.25-3.77,40.3c6.28-.5,19-3.23,28.83-16.66C132.1,167,141.19,106.8,141.19,106.8s13.11-.92,16.6-17.61C152.17,89,146.35,89.06,141.59,89.26Z"/><path class="cls-24" d="M105.76,111a194.65,194.65,0,0,0-26.13,54.71l-4.27,22.24a18.21,18.21,0,0,0,6.28,4.49c5.59,2.28,12.12.9,17.38-2.06,11.61-6.52,17.87-19.45,22.79-31.82q6-15.12,10.81-30.72A253.36,253.36,0,0,0,105.76,111Z"/><g class="cls-32"><path class="cls-26" d="M79,161.22a67.47,67.47,0,0,0,33.34,24.72"/><path class="cls-26" d="M84.7,146.92a59.1,59.1,0,0,0,37.36,19.49"/><path class="cls-26" d="M93.14,129.1a55.79,55.79,0,0,0,37.37,20.62"/></g><path class="cls-14" d="M96.8,176.65a31.46,31.46,0,0,1-19.1-.92l-2.34,12.2a18.21,18.21,0,0,0,6.28,4.49c5.59,2.28,12.12.9,17.38-2.06,11.61-6.52,17.87-19.45,22.79-31.82.68-1.7,1.33-3.41,2-5.12C116.69,163.59,107.2,174,96.8,176.65Z"/><path class="cls-16" d="M75.36,187.93a18.21,18.21,0,0,0,6.28,4.49c5.59,2.28,12.12.9,17.38-2.06,11.61-6.52,17.87-19.45,22.79-31.82q6-15.12,10.81-30.72A253.36,253.36,0,0,0,105.76,111a194.65,194.65,0,0,0-26.13,54.71"/><path class="cls-19" d="M160.08,62.63c-.74-1-2.35-.62-3.48,0-7.37,3.85-13.3,10.51-21.31,12.73a58.27,58.27,0,0,0-3.85-8.25c-.57-1-1.46-2-2.57-1.85a2,2,0,0,0-1.45,1.49,6.08,6.08,0,0,0,0,2.17c.4,4.24.65,8.57-.39,12.7-1.37,5.47-4.88,10.15-8.63,14.37s-7.84,8.21-11.37,13.25c-.41.58-.81,1.18-1.22,1.77h0l12.86,9.55,14,7.29q3.7-12.07,6.67-24.37c6.31-2.47,11.16-6.61,13.18-11.93a17.35,17.35,0,0,0-2.22-16.19c2.67-3.21,5.82-6.23,8.8-9.4C159.92,65,160.81,63.65,160.08,62.63Z"/><path class="cls-16" d="M160.08,62.63c-.74-1-2.35-.62-3.48,0-7.37,3.85-13.3,10.51-21.31,12.73a58.27,58.27,0,0,0-3.85-8.25c-.57-1-1.46-2-2.57-1.85a2,2,0,0,0-1.45,1.49,6.08,6.08,0,0,0,0,2.17c.4,4.24.65,8.57-.39,12.7-1.37,5.47-4.88,10.15-8.63,14.37s-7.84,8.21-11.37,13.25c-.41.58-.81,1.18-1.22,1.77h0l12.86,9.55,14,7.29q3.7-12.07,6.67-24.37c6.31-2.47,11.16-6.61,13.18-11.93a17.35,17.35,0,0,0-2.22-16.19c2.67-3.21,5.82-6.23,8.8-9.4C159.92,65,160.81,63.65,160.08,62.63Z"/><path class="cls-27" d="M129.61,130.92c-8.56-5-17-10.39-25.35-16.07a3.18,3.18,0,0,1-.84-4.4,11.7,11.7,0,0,1,1.16-1.45,3.13,3.13,0,0,1,3.47-.78,71.28,71.28,0,0,1,25.51,17.87,3.13,3.13,0,0,1,.65,3.06h0A3.16,3.16,0,0,1,129.61,130.92Z"/><path class="cls-16" d="M129.61,130.92c-8.56-5-17-10.39-25.35-16.07a3.18,3.18,0,0,1-.84-4.4,11.7,11.7,0,0,1,1.16-1.45,3.13,3.13,0,0,1,3.47-.78,71.28,71.28,0,0,1,25.51,17.87,3.13,3.13,0,0,1,.65,3.06h0A3.16,3.16,0,0,1,129.61,130.92Z"/></g></g></svg>