<svg xmlns="http://www.w3.org/2000/svg" xmlns:xlink="http://www.w3.org/1999/xlink" viewBox="0 0 262.92 269.97"><defs><style>.cls-1,.cls-15,.cls-23,.cls-6{fill:none;}.cls-2{isolation:isolate;}.cls-3{opacity:0.12;}.cls-13,.cls-3,.cls-5{mix-blend-mode:multiply;}.cls-4,.cls-5,.cls-7{fill:#030a4c;}.cls-13,.cls-5{opacity:0.15;}.cls-6,.cls-7{stroke:#030a4c;}.cls-15,.cls-20,.cls-23,.cls-6,.cls-7{stroke-linecap:round;stroke-linejoin:round;stroke-width:1.17px;}.cls-8{clip-path:url(#clip-path);}.cls-9{clip-path:url(#clip-path-2);}.cls-10{clip-path:url(#clip-path-3);}.cls-11{clip-path:url(#clip-path-4);}.cls-12{fill:#f8952e;}.cls-13{fill:#452499;}.cls-14{fill:#fff;}.cls-15,.cls-20{stroke:#2c2355;}.cls-16{fill:#d07e1c;}.cls-17{fill:#2879c9;}.cls-18{fill:#ff614c;}.cls-19{fill:#f04f44;}.cls-20{fill:#2c2355;}.cls-21{fill:#5b93c1;}.cls-22{clip-path:url(#clip-path-5);}.cls-23{stroke:#ff79f8;}.cls-24{clip-path:url(#clip-path-6);}.cls-25{fill:#ff79f8;}.cls-26{clip-path:url(#clip-path-7);}.cls-27{clip-path:url(#clip-path-8);}</style><clipPath id="clip-path"><path class="cls-1" d="M94.67,139a92.7,92.7,0,0,0-19.59,17.6,94.14,94.14,0,0,0-21.61,60.13c0,.91,0,1.83.07,2.75H99.9s4.84-28.49,3.91-45.38S94.67,139,94.67,139Z"/></clipPath><clipPath id="clip-path-2"><path class="cls-1" d="M94.67,139c10.73-7.2,24.08-12.08,36.81-14.35,13.9-1,28.58-1.77,41,4.54,13.41,6.83,21.89,21.35,23.73,36.27s-2.33,30.12-10.26,44.77c3.31,19.53,6.62,39.07,8.53,59.64a189.76,189.76,0,0,1-111.18-.08,212.57,212.57,0,0,1,6.77-45.39A180.69,180.69,0,0,0,94.64,139"/></clipPath><clipPath id="clip-path-3"><path class="cls-1" d="M135.75,225l-9.45-14.26h0q-24.36.87-48.6,3.8l-24.16,4.93c.38,8.67,2.52,17.6,8.76,23.49,5.56,5.25,13.44,7.19,21,8.25a137.5,137.5,0,0,0,45.43-1.37Z"/></clipPath><clipPath id="clip-path-4"><path class="cls-1" d="M206.45,161.94c2.05,5.73,3.86,11.55,5.53,17.33,3.81,13.21,7.08,27.32,3.32,40.54-1.23,4.33-3.27,8.55-6.62,11.54A18.55,18.55,0,0,1,193,235.46a21.59,21.59,0,0,1-13.52-9.19c-4.15-6.15-5.12-13.84-6-21.21q-2.2-18.88-4.42-37.83"/></clipPath><clipPath id="clip-path-5"><path class="cls-1" d="M86.48,130.81a92.7,92.7,0,0,0-19.59,17.6,94.14,94.14,0,0,0-21.61,60.13c0,.91,0,1.83.07,2.75H91.71s4.84-28.49,3.91-45.38S86.48,130.81,86.48,130.81Z"/></clipPath><clipPath id="clip-path-6"><path class="cls-1" d="M86.48,130.81c10.73-7.2,24.08-12.08,36.81-14.35,13.9-1,28.58-1.77,41,4.54,13.41,6.83,21.89,21.35,23.73,36.27s-2.33,30.12-10.26,44.77c3.31,19.53,6.62,39.07,8.53,59.64a189.84,189.84,0,0,1-111.18-.07,212.56,212.56,0,0,1,6.77-45.4,180.57,180.57,0,0,0,4.58-85.44"/></clipPath><clipPath id="clip-path-7"><path class="cls-1" d="M127.56,216.82l-9.45-14.26h0q-24.36.87-48.6,3.8l-24.16,4.93c.38,8.67,2.52,17.6,8.76,23.49,5.56,5.25,13.44,7.19,21,8.25a137.5,137.5,0,0,0,45.43-1.37Z"/></clipPath><clipPath id="clip-path-8"><path class="cls-1" d="M198.26,153.75c2.05,5.73,3.86,11.55,5.53,17.33,3.81,13.21,7.08,27.32,3.32,40.54-1.23,4.33-3.27,8.55-6.62,11.54a18.55,18.55,0,0,1-15.67,4.11,21.59,21.59,0,0,1-13.52-9.19c-4.15-6.15-5.12-13.84-6-21.21Q163.12,178,160.9,159"/></clipPath></defs><g class="cls-2"><g id="Capa_1" data-name="Capa 1"><g class="cls-3"><path class="cls-4" d="M189.94,57.71c17.79,22.7,50.37,30.43,66,54.65a95.33,95.33,0,0,1,14.75,60c-3.48,37.8-30.45,71-64.45,87.93-37.56,18.65-83.8,18.75-121.44.27S19,205.4,10.75,164.28,14.43,78.49,42,46.92C61.69,24.42,90,8.32,119.9,8.19S169.57,31.73,189.94,57.71Z"/><path class="cls-5" d="M177.94,118.46l-7.1-23.26c6-6.91,3.4-12.61,3.4-12.61L157.36,72l.37-12.82-78.38,1C72.09,72.27,80.66,83.9,80.66,83.9l-3.93,6.17c-7.18,11.49,4.16,16.12,4.16,16.12l-5.8,13.53c-5.81,22,14.47,25.35,14.47,25.35-47.45,39.76-42.22,78.11-38.12,92.1a135.13,135.13,0,0,0,33.39,23.36c36,17.67,79.83,18.34,116.43,2.07l-4.63-22.3c11.29.65,25.28-1.73,22.27-36.45S177.94,118.46,177.94,118.46Z"/><path class="cls-4" d="M193.3,96.43h-.07a.6.6,0,0,1-.5-.45c-.94-4-1.52-7.49-2-10.94-3.71-.05-7.33-.21-10.77-.49a12.23,12.23,0,0,1-11.13-10.8,309.63,309.63,0,0,1-1.36-50.68,12.24,12.24,0,0,1,10.21-11.43,111.28,111.28,0,0,1,34-.7A12.27,12.27,0,0,1,222,20.8h0A193.5,193.5,0,0,1,225.38,72,12.38,12.38,0,0,1,215,83.4c-4.93.73-10,1.22-15.21,1.47l-5.94,11.25A.59.59,0,0,1,193.3,96.43Z"/><path class="cls-5" d="M168.12,67.11q.28,3.35.66,6.64a12.23,12.23,0,0,0,11.13,10.8c3.44.28,7.06.44,10.77.49.53,3.45,1.11,6.92,2,10.94a.6.6,0,0,0,.5.45h.07a.59.59,0,0,0,.52-.31l5.94-11.25c5.17-.25,10.28-.74,15.21-1.47A12.38,12.38,0,0,0,225.38,72c.42-6.3.54-12.54.35-18.77C208.91,67.13,177.35,67.36,168.12,67.11Z"/><path class="cls-6" d="M187.9,10.32a111.76,111.76,0,0,1,23.76.62A12.27,12.27,0,0,1,222,20.8h0A193.5,193.5,0,0,1,225.38,72,12.38,12.38,0,0,1,215,83.4c-4.93.73-10,1.22-15.21,1.47l-5.94,11.25a.59.59,0,0,1-.52.31h-.07a.6.6,0,0,1-.5-.45c-.94-4-1.52-7.49-2-10.94-3.71-.05-7.33-.21-10.77-.49a12.23,12.23,0,0,1-11.13-10.8,309.63,309.63,0,0,1-1.36-50.68,12.2,12.2,0,0,1,7-10.43"/><path class="cls-6" d="M177.63,11.64c1.16-.21,2.32-.39,3.49-.56"/><path class="cls-4" d="M191,52.36a5.36,5.36,0,0,1-1.88-1.89,5.83,5.83,0,0,1-.89-3.24,3.56,3.56,0,0,1,.95-2.73A6.3,6.3,0,0,1,192,43.12L196.58,42c1.95-.51,2.92-1.46,2.91-2.82a2.34,2.34,0,0,0-1.09-1.92,6.24,6.24,0,0,0-3.71-.8,15.94,15.94,0,0,0-4.5.63,13.44,13.44,0,0,0-3.39,1.45,7.25,7.25,0,0,1-1.7-1.83,4.67,4.67,0,0,1-.72-2.6,4.31,4.31,0,0,1,.86-2.67,6.56,6.56,0,0,1,2.42-1.88,14,14,0,0,1,3.68-1.1,28.31,28.31,0,0,1,4.71-.37q6.9,0,10.45,3a10.16,10.16,0,0,1,3.58,8q0,9.35-13.16,12ZM189.13,60a5.23,5.23,0,0,1,5.59-5.52A5.62,5.62,0,1,1,189.13,60Z"/><path class="cls-4" d="M97.26,143.52a23.31,23.31,0,0,1-22.7-15.89c-2.94-9.5,1.28-20.73,9.06-25a101.73,101.73,0,0,1-.05-18A25.76,25.76,0,0,1,79,57.78C82.75,49,91.91,42.72,100.81,42.69c3.31-5.35,9.28-8.55,15.36-10.2a39,39,0,0,1,23.6.77,31.56,31.56,0,0,1,17.52,15.53A26.6,26.6,0,0,1,157.36,72s5.17,18.89,5.49,19.77c6.15-.65,12.33,3,15.48,8.28s3.5,12,1.69,17.93a35.54,35.54,0,0,1-10.13,15.28Z"/><path class="cls-4" d="M122.29,109c.44,7,.88,14.05,1.7,21.68a29.15,29.15,0,0,0,16.32-1.88q-1.81-10.23-3.65-20.44Z"/><path class="cls-4" d="M137.84,115q-.59-3.31-1.18-6.62l-14.37.64c.15,2.39.31,4.78.47,7.19A25.59,25.59,0,0,0,137.84,115Z"/><path class="cls-4" d="M93.59,80.49a14.4,14.4,0,0,0-14.65,3.45,14,14,0,0,0-2.88,14.72,13.58,13.58,0,0,0,12.47,8.24,13.24,13.24,0,0,0,12-8.79Z"/><path class="cls-6" d="M81.68,97.06a8,8,0,0,1,8.59-7.61"/><path class="cls-6" d="M85.36,90.71a10.4,10.4,0,0,0,5.88,6.36"/><path class="cls-4" d="M91.36,104.4a3,3,0,1,0-.51,5.14A3.14,3.14,0,0,0,91.36,104.4Z"/><path class="cls-4" d="M151.79,71.67A14.39,14.39,0,0,1,166.61,69a14,14,0,0,1,8.49,12.37,13.62,13.62,0,0,1-8.19,12.51,13.21,13.21,0,0,1-14.52-3.31Z"/><path class="cls-6" d="M169.3,82.16a8,8,0,0,0-10.91-3.57"/><path class="cls-6" d="M163.41,77.8A10.43,10.43,0,0,1,160.53,86"/><path class="cls-4" d="M160,93.23a3,3,0,1,1,2.51,4.51A3.14,3.14,0,0,1,160,93.23Z"/><path class="cls-4" d="M153.08,67.49c.57,7.14.8,17.82-.61,24.83s-5.07,13.9-11.21,17.58c-6.95,4.16-15.76,3.55-23.63,1.6a36,36,0,0,1-11.52-4.68,30.52,30.52,0,0,1-9.79-11.68,54.09,54.09,0,0,1-4.82-15,57.42,57.42,0,0,0,12.15-18.54,36.08,36.08,0,0,0,3.58,6.61c.5.73,1.25,1.53,2.1,1.29s1.1-1.5,1-2.46c-.16-2.43-.62-4.85-.71-6.94C121.94,68.45,137.69,68.65,153.08,67.49Z"/><path class="cls-4" d="M150.69,94.49a7.58,7.58,0,0,0-9.56,11.75,7.36,7.36,0,0,0,3.05,1.51,26.49,26.49,0,0,0,7.5-12.31A6.38,6.38,0,0,0,150.69,94.49Z"/><path class="cls-4" d="M111.51,95.38A7.89,7.89,0,0,0,101,96.58a7.29,7.29,0,0,0-1.51,3.71,27.09,27.09,0,0,0,6.64,6.53,25.54,25.54,0,0,0,3,1.72,7.29,7.29,0,0,0,3.83-2.66A7.88,7.88,0,0,0,111.51,95.38Z"/><path class="cls-7" d="M124.55,98.42a3.24,3.24,0,1,1,2.91-3.76A3.29,3.29,0,0,1,124.55,98.42Z"/><path class="cls-6" d="M127.26,77.59a16.36,16.36,0,0,0,6.24,3.31l-3.65,2.27"/><path class="cls-7" d="M142.54,80.19a1.28,1.28,0,1,0-1.12-2A1.32,1.32,0,0,0,142.54,80.19Z"/><path class="cls-6" d="M137.08,73.08a12.85,12.85,0,0,1,11.29,2.53"/><path class="cls-7" d="M113.46,83a1.27,1.27,0,1,0-1.88-1.26A1.32,1.32,0,0,0,113.46,83Z"/><path class="cls-6" d="M107.35,75.52a6.78,6.78,0,0,1,11.62,0"/><path class="cls-4" d="M94.67,139a92.7,92.7,0,0,0-19.59,17.6,94.14,94.14,0,0,0-21.61,60.13c0,.91,0,1.83.07,2.75H99.9s4.84-28.49,3.91-45.38S94.67,139,94.67,139Z"/><g class="cls-8"><path class="cls-6" d="M68.56,161.51a84.41,84.41,0,0,1,29.49,19.82"/><path class="cls-6" d="M56.08,187.18a254.5,254.5,0,0,1,42.4,11.74"/><path class="cls-6" d="M51.17,212.41a191,191,0,0,1,44.57-.82"/></g><path class="cls-4" d="M196.2,165.46c-1.84-14.92-10.32-29.44-23.73-36.27a45.32,45.32,0,0,0-12.83-4.14l-20.83,14.88L106,132.69A84.85,84.85,0,0,0,94.67,139l0,0a180.57,180.57,0,0,1-4.58,85.44,210.08,210.08,0,0,0-6.13,35.67l.9.46c33.65,16.52,74.16,18.18,109.2,5-1.95-19-5-37.17-8.09-55.33C193.87,195.58,198,180.39,196.2,165.46Z"/><g class="cls-9"><path class="cls-6" d="M196.39,236.7s-67-1.74-113.1,2.43"/><path class="cls-6" d="M78.7,258s71.65-2.87,122.44,1.53"/><path class="cls-6" d="M92.47,148.77A256.09,256.09,0,0,1,190,140.43"/><path class="cls-6" d="M92,169.14a381,381,0,0,1,109.12-9.28"/><path class="cls-6" d="M94.52,188.28a347.55,347.55,0,0,1,107.37-9.74"/><path class="cls-6" d="M93.69,205.56a361.74,361.74,0,0,1,98-2.44"/></g><path class="cls-5" d="M185.94,210.23a103.83,103.83,0,0,0,4.57-9.55c-2.06-22.41-4.68-50.53-4.89-51.27s-1.39-6.62-2.51-12.22a39.61,39.61,0,0,0-10.64-8,44.48,44.48,0,0,0-11.26-3.84l2.16,36.59a21.83,21.83,0,0,0-1.16,8.8c.27,5.44,1.88,7.39,1.88,7.39s-.45,23,1.74,35.08a79.75,79.75,0,0,0,2.44,10.16L87.81,233.91a212.2,212.2,0,0,0-3.76,24.71,143.88,143.88,0,0,0,36,.41s7.75,2.78,19.44-3.24c0,0,24.19-6.83,41.08-18.28A15.08,15.08,0,0,0,191,241.65C189.46,231.07,187.71,220.65,185.94,210.23Z"/><path class="cls-6" d="M83.91,260.07a210.11,210.11,0,0,1,6.15-35.67,180.72,180.72,0,0,0,7.31-63.73"/><path class="cls-4" d="M154.48,124.38l-17,13-27.33-6.5c-1.41.58-2.81,1.17-4.18,1.81C112,143,124.61,149,136.35,147c11.12-1.95,20.52-11,23.29-21.93C157.94,124.75,156.21,124.54,154.48,124.38Z"/><path class="cls-6" d="M185.94,210.23c3.08,18.16,6.15,36.33,8.11,55.32"/><path class="cls-4" d="M154.5,124.36c-7.57-.71-15.41-.23-23,.29a105.93,105.93,0,0,0-21.33,6.22c4.88,8.45,15.23,13.54,24.9,11.92C144.4,141.23,152.3,133.52,154.5,124.36Z"/><path class="cls-4" d="M135.75,225l-9.45-14.26h0q-24.36.87-48.6,3.8l-24.16,4.93c.38,8.67,2.52,17.6,8.76,23.49,5.56,5.25,13.44,7.19,21,8.25a137.5,137.5,0,0,0,45.43-1.37Z"/><g class="cls-10"><path class="cls-6" d="M67.33,248.77a70.05,70.05,0,0,0,29.92-38.83"/><path class="cls-6" d="M108.41,210.11a244,244,0,0,1-9,44.94"/></g><path class="cls-5" d="M91.25,244A63.49,63.49,0,0,1,54.6,228.1c1.21,5.65,3.54,10.94,7.7,14.87,5.56,5.25,13.44,7.19,21,8.25a137.5,137.5,0,0,0,45.43-1.37L132,238.3C118.08,242.05,102.93,244.92,91.25,244Z"/><path class="cls-6" d="M53.54,219.48c.38,8.67,2.52,17.6,8.76,23.49,5.56,5.25,13.44,7.19,21,8.25a137.5,137.5,0,0,0,45.43-1.37l7-24.84-9.45-14.26h0q-24.36.87-48.6,3.8"/><path class="cls-4" d="M181.61,211.44q-27.62-1.68-55.31-.69c-.28,10.66-.08,25.95,2.44,39.1a160.25,160.25,0,0,0,56.88-23.3S183.56,210.87,181.61,211.44Z"/><path class="cls-4" d="M170.54,225.24a340.7,340.7,0,0,1-43.3,14.3c.37,3.5.86,7,1.5,10.31a160.25,160.25,0,0,0,56.88-23.3s-2.06-15.68-4-15.11q-7.05-.44-14.13-.68A61.66,61.66,0,0,0,170.54,225.24Z"/><path class="cls-4" d="M134,210.78a104.18,104.18,0,0,1,3.3,37.06,1.84,1.84,0,0,1-1.08,1.51,26.55,26.55,0,0,1-14.13,2.08,1.83,1.83,0,0,1-1.54-1.43,125.23,125.23,0,0,1-2.28-38.15,1.84,1.84,0,0,1,1.38-1.61,35,35,0,0,1,12.77-.8A1.87,1.87,0,0,1,134,210.78Z"/><path class="cls-5" d="M120.56,250a1.83,1.83,0,0,0,1.54,1.43,26.55,26.55,0,0,0,14.13-2.08,1.84,1.84,0,0,0,1.08-1.51,103.5,103.5,0,0,0,.39-11.14c-6,1.75-12.36,3.41-18.68,4.71C119.43,244.28,119.93,247.14,120.56,250Z"/><path class="cls-6" d="M134,210.78a104.18,104.18,0,0,1,3.3,37.06,1.84,1.84,0,0,1-1.08,1.51,26.55,26.55,0,0,1-14.13,2.08,1.83,1.83,0,0,1-1.54-1.43,125.23,125.23,0,0,1-2.28-38.15,1.84,1.84,0,0,1,1.38-1.61,35,35,0,0,1,12.77-.8A1.87,1.87,0,0,1,134,210.78Z"/><path class="cls-4" d="M206.45,161.94c-6.6-18.45-15.71-36.12-30.74-49.74A177.73,177.73,0,0,0,153.9,85.68a4.9,4.9,0,0,0-1.67-1.23,1.67,1.67,0,0,0-1.91.41c-.58.76-.12,1.85.36,2.68q3.42,6,7.24,11.73a17.91,17.91,0,0,0-5.12,1.66,18.83,18.83,0,0,0-3.65-5.8,3.25,3.25,0,0,0-1-.83,1.23,1.23,0,0,0-1.26.09,1.68,1.68,0,0,0-.45,1.51c.23,3.15,2.21,5.85,4.11,8.37a25,25,0,0,0,13.09,16.65c1.86,15.58,3.68,31,5.47,46.31a43.27,43.27,0,0,0,23.39,1.91C204.94,166.46,206.45,161.94,206.45,161.94Z"/><path class="cls-6" d="M175.71,112.2A177.73,177.73,0,0,0,153.9,85.68a4.9,4.9,0,0,0-1.67-1.23,1.67,1.67,0,0,0-1.91.41c-.58.76-.12,1.85.36,2.68q3.42,6,7.24,11.73a17.91,17.91,0,0,0-5.12,1.66,18.83,18.83,0,0,0-3.65-5.8,3.25,3.25,0,0,0-1-.83,1.23,1.23,0,0,0-1.26.09,1.68,1.68,0,0,0-.45,1.51c.23,3.15,2.21,5.85,4.11,8.37a25,25,0,0,0,13.09,16.65c1.86,15.58,3.68,31,5.47,46.31"/><path class="cls-4" d="M167.33,113.11a7.9,7.9,0,0,1-7.56-6.16,4.47,4.47,0,0,0-3.62,1.1c-1,.76-1.83,1.69-2.78,2.48-.63.53-1.52,1-2.23.6s-.7-1.47-.49-2.27a9.75,9.75,0,0,1,1.49-3.16v0a11.41,11.41,0,0,0-3.34,3.44,8.82,8.82,0,0,1-1,1.49,1.9,1.9,0,0,1-1.61.63,1.73,1.73,0,0,1-1.23-1.16,3.61,3.61,0,0,1,0-1.76,8.57,8.57,0,0,1,2.1-4.14,12.17,12.17,0,0,0-2.29,1.62c-.7.62-1.5,1.37-2.42,1.18a1.8,1.8,0,0,1-1.27-1.84,4.16,4.16,0,0,1,.88-2.23c3.29-4.8,12-7.32,17.51-4.42"/><path class="cls-6" d="M156.7,102.18a10,10,0,0,0-4.56,3.52"/><path class="cls-6" d="M167.33,113.11a7.9,7.9,0,0,1-7.56-6.16,4.47,4.47,0,0,0-3.62,1.1c-1,.76-1.83,1.69-2.78,2.48-.63.53-1.52,1-2.23.6s-.7-1.47-.49-2.27a9.75,9.75,0,0,1,1.49-3.16v0a11.41,11.41,0,0,0-3.34,3.44,8.82,8.82,0,0,1-1,1.49,1.9,1.9,0,0,1-1.61.63,1.73,1.73,0,0,1-1.23-1.16,3.61,3.61,0,0,1,0-1.76,8.57,8.57,0,0,1,2.1-4.14,12.17,12.17,0,0,0-2.29,1.62c-.7.62-1.5,1.37-2.42,1.18a1.8,1.8,0,0,1-1.27-1.84,4.16,4.16,0,0,1,.88-2.23c3.29-4.8,12-7.32,17.51-4.42"/><path class="cls-6" d="M155.13,99.87a19.15,19.15,0,0,0-5.41,2.11,11.29,11.29,0,0,0-2.72,2.25"/><path class="cls-4" d="M206.45,161.94c2.05,5.73,3.86,11.55,5.53,17.33,3.81,13.21,7.08,27.32,3.32,40.54-1.23,4.33-3.27,8.55-6.62,11.54A18.55,18.55,0,0,1,193,235.46a21.59,21.59,0,0,1-13.52-9.19c-4.15-6.15-5.12-13.84-6-21.21q-2.2-18.88-4.42-37.83"/><g class="cls-11"><path class="cls-6" d="M169.64,190.46a90.55,90.55,0,0,0,45.67-6.29"/><path class="cls-6" d="M172.14,207.4a81.89,81.89,0,0,0,46.11-4.14"/><path class="cls-6" d="M176.94,225.33a66,66,0,0,0,39.12-4.16"/></g><path class="cls-5" d="M173.51,205.06c.86,7.37,1.83,15.06,6,21.21A21.59,21.59,0,0,0,193,235.46a18.55,18.55,0,0,0,15.67-4.11c3.35-3,5.39-7.21,6.62-11.54a41.92,41.92,0,0,0,1.39-7.33c-4.95,4.85-12,8.73-21.23,7-11.81-2.23-18.7-11.3-22.46-18.74Z"/><path class="cls-6" d="M215.3,219.81c-1.23,4.33-3.27,8.55-6.62,11.54A18.55,18.55,0,0,1,193,235.46a21.59,21.59,0,0,1-13.52-9.19c-4.15-6.15-5.12-13.84-6-21.21q-2.2-18.88-4.42-37.83"/><path class="cls-4" d="M206.14,156.57a21.86,21.86,0,0,1,4.57,15.16,3.56,3.56,0,0,1-2.31,3A75.75,75.75,0,0,1,171,178.37a3.65,3.65,0,0,1-3.08-3.26c-.34-3.5-.63-6.86-.78-10.19a3.61,3.61,0,0,1,2.38-3.6,114.11,114.11,0,0,1,33.61-6.12A3.63,3.63,0,0,1,206.14,156.57Z"/><path class="cls-6" d="M206.14,156.57a21.86,21.86,0,0,1,4.57,15.16,3.56,3.56,0,0,1-2.31,3A75.75,75.75,0,0,1,171,178.37a3.65,3.65,0,0,1-3.08-3.26c-.34-3.5-.63-6.86-.78-10.19a3.61,3.61,0,0,1,2.38-3.6,114.11,114.11,0,0,1,33.61-6.12A3.63,3.63,0,0,1,206.14,156.57Z"/></g><path class="cls-12" d="M181.75,49.52c17.79,22.7,50.37,30.43,66,54.65a95.33,95.33,0,0,1,14.75,60c-3.48,37.8-30.45,71-64.45,87.93-37.56,18.65-83.8,18.75-121.44.27S10.8,197.21,2.56,156.09,6.24,70.3,33.84,38.73C53.5,16.23,81.83.13,111.71,0S161.38,23.54,181.75,49.52Z"/><path class="cls-13" d="M169.75,110.27,162.65,87c6-6.91,3.4-12.61,3.4-12.61L149.17,63.77,149.54,51l-78.38,1c-7.26,12.16,1.31,23.79,1.31,23.79l-3.93,6.17C61.36,93.37,72.7,98,72.7,98l-5.8,13.53c-5.81,22,14.47,25.35,14.47,25.35C33.92,176.64,39.15,215,43.25,229a135.13,135.13,0,0,0,33.39,23.36c36,17.67,79.83,18.34,116.43,2.07l-4.63-22.3c11.29.65,25.28-1.73,22.27-36.45S169.75,110.27,169.75,110.27Z"/><path class="cls-14" d="M185.11,88.24H185a.6.6,0,0,1-.5-.45c-.94-4-1.52-7.49-2-10.94-3.71,0-7.33-.21-10.77-.49a12.23,12.23,0,0,1-11.13-10.8,309.63,309.63,0,0,1-1.36-50.68A12.24,12.24,0,0,1,169.44,3.45a111.28,111.28,0,0,1,34-.7,12.27,12.27,0,0,1,10.37,9.86h0a193.55,193.55,0,0,1,3.35,51.22,12.38,12.38,0,0,1-10.41,11.38c-4.93.73-10,1.22-15.21,1.47l-5.94,11.25A.59.59,0,0,1,185.11,88.24Z"/><path class="cls-13" d="M159.93,58.92q.28,3.34.66,6.64a12.23,12.23,0,0,0,11.13,10.8c3.44.28,7.06.44,10.77.49.53,3.45,1.11,6.92,2,10.94a.6.6,0,0,0,.5.45h.07a.59.59,0,0,0,.52-.31l5.94-11.25c5.17-.25,10.28-.74,15.21-1.47a12.38,12.38,0,0,0,10.41-11.38c.42-6.31.54-12.55.36-18.78C200.72,58.94,169.16,59.17,159.93,58.92Z"/><path class="cls-15" d="M179.71,2.13a111.76,111.76,0,0,1,23.76.62,12.27,12.27,0,0,1,10.37,9.86h0a193.55,193.55,0,0,1,3.35,51.22,12.38,12.38,0,0,1-10.41,11.38c-4.93.73-10,1.22-15.21,1.47l-5.94,11.25a.59.59,0,0,1-.52.31H185a.6.6,0,0,1-.5-.45c-.94-4-1.52-7.49-2-10.94-3.71,0-7.33-.21-10.77-.49a12.23,12.23,0,0,1-11.13-10.8,309.63,309.63,0,0,1-1.36-50.68,12.2,12.2,0,0,1,7-10.43"/><path class="cls-15" d="M169.44,3.45c1.16-.21,2.32-.39,3.49-.56"/><path class="cls-16" d="M182.83,44.17A5.36,5.36,0,0,1,181,42.28a5.91,5.91,0,0,1-.89-3.24,3.56,3.56,0,0,1,.95-2.73,6.3,6.3,0,0,1,2.83-1.38l4.55-1.14Q191.32,33,191.3,31a2.34,2.34,0,0,0-1.09-1.92,6.24,6.24,0,0,0-3.71-.8,15.94,15.94,0,0,0-4.5.63,13.44,13.44,0,0,0-3.39,1.45,7.25,7.25,0,0,1-1.7-1.83,4.67,4.67,0,0,1-.72-2.6,4.31,4.31,0,0,1,.86-2.67,6.56,6.56,0,0,1,2.42-1.88,14,14,0,0,1,3.68-1.1,28.31,28.31,0,0,1,4.71-.37q6.9,0,10.45,3a10.16,10.16,0,0,1,3.58,8q0,9.34-13.16,12Zm-1.89,7.67a5.23,5.23,0,0,1,5.59-5.52,5.62,5.62,0,1,1-5.59,5.52Z"/><path class="cls-17" d="M89.07,135.33a23.29,23.29,0,0,1-22.69-15.89c-2.95-9.5,1.27-20.73,9.05-25a101.73,101.73,0,0,1-.05-18,25.76,25.76,0,0,1-4.57-26.82c3.75-8.82,12.91-15.06,21.81-15.09C95.93,29.15,101.9,26,108,24.3a39,39,0,0,1,23.6.77A31.56,31.56,0,0,1,149.1,40.6a26.6,26.6,0,0,1,.07,23.17s5.17,18.89,5.49,19.77c6.15-.65,12.33,3,15.48,8.28s3.5,12,1.69,17.93A35.54,35.54,0,0,1,161.7,125Z"/><path class="cls-18" d="M114.1,100.8c.44,7,.88,14,1.7,21.68a29.15,29.15,0,0,0,16.32-1.88q-1.81-10.23-3.65-20.44Z"/><path class="cls-19" d="M129.65,106.78q-.59-3.32-1.18-6.62l-14.37.64c.15,2.39.31,4.78.47,7.19A25.59,25.59,0,0,0,129.65,106.78Z"/><path class="cls-18" d="M85.4,72.3a14.4,14.4,0,0,0-14.65,3.45,14,14,0,0,0-2.88,14.72,13.58,13.58,0,0,0,12.47,8.24,13.23,13.23,0,0,0,12-8.79Z"/><path class="cls-15" d="M73.49,88.87a8,8,0,0,1,8.59-7.61"/><path class="cls-15" d="M77.17,82.52a10.4,10.4,0,0,0,5.88,6.36"/><path class="cls-14" d="M83.17,96.22a3,3,0,1,0-.51,5.13A3.13,3.13,0,0,0,83.17,96.22Z"/><path class="cls-18" d="M143.6,63.48a14.39,14.39,0,0,1,14.82-2.63,14,14,0,0,1,8.49,12.37,13.62,13.62,0,0,1-8.19,12.51,13.21,13.21,0,0,1-14.52-3.31Z"/><path class="cls-15" d="M161.11,74A8,8,0,0,0,150.2,70.4"/><path class="cls-15" d="M155.22,69.61a10.43,10.43,0,0,1-2.88,8.16"/><path class="cls-14" d="M151.85,85a3,3,0,1,1,2.51,4.51A3.14,3.14,0,0,1,151.85,85Z"/><path class="cls-18" d="M144.89,59.31c.57,7.13.8,17.81-.61,24.82s-5.07,13.9-11.2,17.58c-7,4.16-15.77,3.55-23.64,1.6a36,36,0,0,1-11.52-4.68A30.52,30.52,0,0,1,88.13,87a54.09,54.09,0,0,1-4.82-15A57.42,57.42,0,0,0,95.46,53.42,36.08,36.08,0,0,0,99,60c.5.73,1.25,1.53,2.1,1.29s1.1-1.49,1-2.46c-.17-2.43-.63-4.85-.72-6.94C113.75,60.26,129.5,60.46,144.89,59.31Z"/><path class="cls-19" d="M142.51,86.3a7.58,7.58,0,0,0-9.57,11.75A7.36,7.36,0,0,0,136,99.56a26.49,26.49,0,0,0,7.5-12.31A6.78,6.78,0,0,0,142.51,86.3Z"/><path class="cls-19" d="M103.32,87.2a7.87,7.87,0,0,0-10.53,1.19,7.29,7.29,0,0,0-1.51,3.71,27.09,27.09,0,0,0,6.64,6.53,25.54,25.54,0,0,0,3,1.72,7.29,7.29,0,0,0,3.83-2.66A7.86,7.86,0,0,0,103.32,87.2Z"/><path class="cls-20" d="M116.36,90.23a3.24,3.24,0,1,1,2.91-3.76A3.29,3.29,0,0,1,116.36,90.23Z"/><path class="cls-15" d="M119.07,69.4a16.36,16.36,0,0,0,6.24,3.31L121.66,75"/><path class="cls-20" d="M134.35,72a1.28,1.28,0,1,0-1.12-2A1.32,1.32,0,0,0,134.35,72Z"/><path class="cls-15" d="M128.89,64.89a12.85,12.85,0,0,1,11.29,2.53"/><path class="cls-20" d="M105.27,74.82a1.27,1.27,0,1,0-1.88-1.26A1.32,1.32,0,0,0,105.27,74.82Z"/><path class="cls-15" d="M99.16,67.33a6.78,6.78,0,0,1,11.62,0"/><path class="cls-21" d="M86.48,130.81a92.7,92.7,0,0,0-19.59,17.6,94.14,94.14,0,0,0-21.61,60.13c0,.91,0,1.83.07,2.75H91.71s4.84-28.49,3.91-45.38S86.48,130.81,86.48,130.81Z"/><g class="cls-22"><path class="cls-23" d="M60.37,153.32a84.41,84.41,0,0,1,29.49,19.82"/><path class="cls-23" d="M47.89,179a254.5,254.5,0,0,1,42.4,11.74"/><path class="cls-23" d="M43,204.22a191,191,0,0,1,44.57-.82"/></g><path class="cls-21" d="M188,157.27c-1.84-14.92-10.32-29.44-23.73-36.27a45.32,45.32,0,0,0-12.83-4.14l-20.83,14.88L97.8,124.5a84.85,84.85,0,0,0-11.32,6.31l0,0a180.57,180.57,0,0,1-4.58,85.44,210.08,210.08,0,0,0-6.13,35.67l.9.46c33.65,16.52,74.16,18.18,109.2,5-2-19-5-37.17-8.09-55.33C185.68,187.39,189.85,172.2,188,157.27Z"/><g class="cls-24"><path class="cls-23" d="M188.2,228.51s-67-1.74-113.1,2.43"/><path class="cls-23" d="M70.51,249.79s71.65-2.87,122.44,1.53"/><path class="cls-23" d="M84.28,140.58a256.09,256.09,0,0,1,97.56-8.34"/><path class="cls-23" d="M83.83,161A381,381,0,0,1,193,151.67"/><path class="cls-23" d="M86.33,180.09a347.55,347.55,0,0,1,107.37-9.74"/><path class="cls-23" d="M85.5,197.37a361.74,361.74,0,0,1,98-2.44"/></g><path class="cls-13" d="M177.75,202q2.56-4.74,4.58-9.55c-2.07-22.41-4.69-50.53-4.9-51.27S176,134.6,174.92,129a39.61,39.61,0,0,0-10.64-8A44.48,44.48,0,0,0,153,117.16l2.16,36.59a21.83,21.83,0,0,0-1.16,8.8c.27,5.44,1.88,7.39,1.88,7.39s-.45,23,1.74,35.08a79.75,79.75,0,0,0,2.44,10.16L79.62,225.72a212.2,212.2,0,0,0-3.76,24.71,143.88,143.88,0,0,0,36,.41s7.75,2.78,19.44-3.24c0,0,24.19-6.83,41.08-18.28a15.08,15.08,0,0,0,10.49,4.14C181.27,222.88,179.52,212.46,177.75,202Z"/><path class="cls-15" d="M75.72,251.88a210.11,210.11,0,0,1,6.15-35.67,180.72,180.72,0,0,0,7.31-63.73"/><path class="cls-25" d="M146.29,116.19l-17,13L102,122.69c-1.41.58-2.81,1.17-4.18,1.81,6,10.27,18.62,16.34,30.36,14.29,11.12-1.95,20.52-11,23.29-21.93C149.75,116.56,148,116.35,146.29,116.19Z"/><path class="cls-15" d="M177.75,202c3.08,18.16,6.15,36.33,8.11,55.32"/><path class="cls-18" d="M146.31,116.17c-7.57-.71-15.41-.23-23,.29A105.93,105.93,0,0,0,102,122.68c4.88,8.45,15.23,13.54,24.9,11.92C136.21,133,144.11,125.33,146.31,116.17Z"/><path class="cls-21" d="M127.56,216.82l-9.45-14.26h0q-24.36.87-48.6,3.8l-24.16,4.93c.38,8.67,2.52,17.6,8.76,23.49,5.56,5.25,13.44,7.19,21,8.25a137.5,137.5,0,0,0,45.43-1.37Z"/><g class="cls-26"><path class="cls-23" d="M59.14,240.58a70.05,70.05,0,0,0,29.92-38.83"/><path class="cls-23" d="M100.22,201.92a244,244,0,0,1-9,44.94"/></g><path class="cls-13" d="M83.06,235.8a63.49,63.49,0,0,1-36.65-15.89c1.21,5.65,3.54,10.94,7.7,14.87,5.56,5.25,13.44,7.19,21,8.25a137.5,137.5,0,0,0,45.43-1.37l3.26-11.55C109.89,233.86,94.74,236.73,83.06,235.8Z"/><path class="cls-15" d="M45.35,211.29c.38,8.67,2.52,17.6,8.76,23.49,5.56,5.25,13.44,7.19,21,8.25a137.5,137.5,0,0,0,45.43-1.37l7-24.84-9.45-14.26h0q-24.36.87-48.6,3.8"/><path class="cls-18" d="M173.43,203.25q-27.63-1.68-55.32-.69c-.28,10.66-.08,25.95,2.44,39.1a160.17,160.17,0,0,0,56.88-23.3S175.37,202.68,173.43,203.25Z"/><path class="cls-19" d="M162.35,217.05a340.7,340.7,0,0,1-43.3,14.3c.37,3.5.86,7,1.5,10.31a160.17,160.17,0,0,0,56.88-23.3s-2.06-15.68-4-15.11q-7.06-.44-14.14-.68A61.66,61.66,0,0,0,162.35,217.05Z"/><path class="cls-17" d="M125.82,202.59a104.18,104.18,0,0,1,3.3,37.06,1.84,1.84,0,0,1-1.08,1.51,26.55,26.55,0,0,1-14.13,2.08,1.83,1.83,0,0,1-1.54-1.43,125.21,125.21,0,0,1-2.28-38.15,1.84,1.84,0,0,1,1.38-1.61,35,35,0,0,1,12.77-.8A1.87,1.87,0,0,1,125.82,202.59Z"/><path class="cls-13" d="M112.37,241.81a1.83,1.83,0,0,0,1.54,1.43A26.55,26.55,0,0,0,128,241.16a1.84,1.84,0,0,0,1.08-1.51,103.5,103.5,0,0,0,.39-11.14c-6,1.75-12.36,3.41-18.68,4.71C111.24,236.09,111.74,239,112.37,241.81Z"/><path class="cls-15" d="M125.82,202.59a104.18,104.18,0,0,1,3.3,37.06,1.84,1.84,0,0,1-1.08,1.51,26.55,26.55,0,0,1-14.13,2.08,1.83,1.83,0,0,1-1.54-1.43,125.21,125.21,0,0,1-2.28-38.15,1.84,1.84,0,0,1,1.38-1.61,35,35,0,0,1,12.77-.8A1.87,1.87,0,0,1,125.82,202.59Z"/><path class="cls-18" d="M198.26,153.75c-6.6-18.45-15.71-36.12-30.74-49.74a177.73,177.73,0,0,0-21.81-26.52A4.9,4.9,0,0,0,144,76.26a1.69,1.69,0,0,0-1.91.41c-.58.76-.12,1.85.36,2.68q3.42,6,7.24,11.73a17.6,17.6,0,0,0-5.12,1.67A18.75,18.75,0,0,0,141,86.94a3.39,3.39,0,0,0-1-.83,1.23,1.23,0,0,0-1.26.09,1.68,1.68,0,0,0-.45,1.51c.23,3.15,2.21,5.85,4.11,8.37a25,25,0,0,0,13.09,16.65c1.86,15.58,3.68,31,5.47,46.31A43.27,43.27,0,0,0,184.29,161C196.75,158.27,198.26,153.75,198.26,153.75Z"/><path class="cls-15" d="M167.52,104a177.73,177.73,0,0,0-21.81-26.52A4.9,4.9,0,0,0,144,76.26a1.69,1.69,0,0,0-1.91.41c-.58.76-.12,1.85.36,2.68q3.42,6,7.24,11.73a17.6,17.6,0,0,0-5.12,1.67A18.75,18.75,0,0,0,141,86.94a3.39,3.39,0,0,0-1-.83,1.23,1.23,0,0,0-1.26.09,1.68,1.68,0,0,0-.45,1.51c.23,3.15,2.21,5.85,4.11,8.37a25,25,0,0,0,13.09,16.65c1.86,15.58,3.68,31,5.47,46.31"/><path class="cls-18" d="M159.14,104.92a7.9,7.9,0,0,1-7.56-6.16,4.47,4.47,0,0,0-3.62,1.1c-1,.76-1.83,1.69-2.78,2.48-.63.53-1.52,1-2.23.6s-.7-1.47-.49-2.27A9.75,9.75,0,0,1,144,97.51v0A11.41,11.41,0,0,0,140.6,101a8.82,8.82,0,0,1-1,1.49,1.9,1.9,0,0,1-1.61.63,1.71,1.71,0,0,1-1.23-1.16,3.61,3.61,0,0,1,0-1.76,8.57,8.57,0,0,1,2.1-4.14,12.17,12.17,0,0,0-2.29,1.62c-.7.62-1.5,1.37-2.42,1.18A1.8,1.8,0,0,1,132.83,97a4.1,4.1,0,0,1,.88-2.22c3.29-4.81,12-7.33,17.51-4.43"/><path class="cls-15" d="M148.51,94A10,10,0,0,0,144,97.51"/><path class="cls-15" d="M159.14,104.92a7.9,7.9,0,0,1-7.56-6.16,4.47,4.47,0,0,0-3.62,1.1c-1,.76-1.83,1.69-2.78,2.48-.63.53-1.52,1-2.23.6s-.7-1.47-.49-2.27A9.75,9.75,0,0,1,144,97.51v0A11.41,11.41,0,0,0,140.6,101a8.82,8.82,0,0,1-1,1.49,1.9,1.9,0,0,1-1.61.63,1.71,1.71,0,0,1-1.23-1.16,3.61,3.61,0,0,1,0-1.76,8.57,8.57,0,0,1,2.1-4.14,12.17,12.17,0,0,0-2.29,1.62c-.7.62-1.5,1.37-2.42,1.18A1.8,1.8,0,0,1,132.83,97a4.1,4.1,0,0,1,.88-2.22c3.29-4.81,12-7.33,17.51-4.43"/><path class="cls-15" d="M146.94,91.68a19.15,19.15,0,0,0-5.41,2.11A11.29,11.29,0,0,0,138.81,96"/><path class="cls-21" d="M198.26,153.75c2.05,5.73,3.86,11.55,5.53,17.33,3.81,13.21,7.08,27.32,3.32,40.54-1.23,4.33-3.27,8.55-6.62,11.54a18.55,18.55,0,0,1-15.67,4.11,21.59,21.59,0,0,1-13.52-9.19c-4.15-6.15-5.12-13.84-6-21.21Q163.12,178,160.9,159"/><g class="cls-27"><path class="cls-23" d="M161.45,182.27A90.55,90.55,0,0,0,207.12,176"/><path class="cls-23" d="M164,199.21a81.89,81.89,0,0,0,46.11-4.14"/><path class="cls-23" d="M168.75,217.14A66,66,0,0,0,207.87,213"/></g><path class="cls-13" d="M165.32,196.87c.86,7.37,1.83,15.06,6,21.21a21.59,21.59,0,0,0,13.52,9.19,18.55,18.55,0,0,0,15.67-4.11c3.35-3,5.39-7.21,6.62-11.54a41.92,41.92,0,0,0,1.39-7.33c-4.95,4.85-12,8.73-21.23,7-11.81-2.23-18.7-11.3-22.46-18.74Z"/><path class="cls-15" d="M207.11,211.62c-1.23,4.33-3.27,8.55-6.62,11.54a18.55,18.55,0,0,1-15.67,4.11,21.59,21.59,0,0,1-13.52-9.19c-4.15-6.15-5.12-13.84-6-21.21Q163.12,178,160.9,159"/><path class="cls-17" d="M198,148.38a21.86,21.86,0,0,1,4.57,15.16,3.56,3.56,0,0,1-2.31,3,75.75,75.75,0,0,1-37.39,3.61,3.65,3.65,0,0,1-3.08-3.26c-.34-3.5-.63-6.86-.78-10.19a3.61,3.61,0,0,1,2.38-3.6A114.11,114.11,0,0,1,195,147,3.63,3.63,0,0,1,198,148.38Z"/><path class="cls-15" d="M198,148.38a21.86,21.86,0,0,1,4.57,15.16,3.56,3.56,0,0,1-2.31,3,75.75,75.75,0,0,1-37.39,3.61,3.65,3.65,0,0,1-3.08-3.26c-.34-3.5-.63-6.86-.78-10.19a3.61,3.61,0,0,1,2.38-3.6A114.11,114.11,0,0,1,195,147,3.63,3.63,0,0,1,198,148.38Z"/></g></g></svg>