<svg xmlns="http://www.w3.org/2000/svg" viewBox="0 0 290.72 249.5"><defs><style>.cls-1{isolation:isolate;}.cls-2{opacity:0.12;}.cls-2,.cls-4,.cls-8{mix-blend-mode:multiply;}.cls-3,.cls-4,.cls-6{fill:#030a4c;}.cls-4,.cls-8{opacity:0.15;}.cls-11,.cls-5{fill:none;}.cls-5,.cls-6{stroke:#030a4c;}.cls-11,.cls-14,.cls-5,.cls-6{stroke-linecap:round;stroke-linejoin:round;stroke-width:1.17px;}.cls-7{fill:#8e45b7;}.cls-8{fill:#452499;}.cls-9{fill:#ff99ac;}.cls-10{fill:#ff8197;}.cls-11,.cls-14{stroke:#2c2355;}.cls-12{fill:#f9e895;}.cls-13{fill:#fade41;}.cls-14{fill:#2c2355;}.cls-15{fill:#fff;}.cls-16{fill:#5e2d80;}</style></defs><g class="cls-1"><g id="Capa_1" data-name="Capa 1"><g class="cls-2"><path class="cls-3" d="M73.46,229.38c-36-38.86-53.08-94.49-45.1-146.85,3-19.67,9.83-39.61,24.18-53.41C72.74,9.69,103.56,6.29,131.45,9c16.42,1.6,33.8,5.56,45,17.63s14.31,30.47,25.8,42.53c13,13.68,33.88,16.29,49.55,26.86,12.55,8.46,21.28,21.89,25.67,36.37,9.2,30.32-.7,64.79-22.19,88.07s-53.26,35.74-84.93,36.9S100.05,258.07,73.46,229.38Z"/><path class="cls-4" d="M277.51,132.4c-.44-1.48-.95-3-1.49-4.4l-31.64,42.5s-63.59-25.37-63.57-26-25.38-38.23-25.38-38.23l-.63-8.73s15.1,3.24,20.65-11.86c0,0,18.8,6.3,18.8-14.15L105.5,68.79s-1,9.61,9.26,13.42c0,0,4.08,23.47,27.5,15.67l-1.59,9.35L98.13,148.52,79.46,187.86l-35.24-1.75a178.32,178.32,0,0,0,14.42,24.81c9.78,5.34,29.86,12.2,51.87-4.08,0,0-2.56,28.84-7,42.86,21.64,8.48,45.79,8.44,66.83,7.67a131,131,0,0,0,50.54-12.08c.42-10.55.87-31.81-1.68-49.33,0,0,45.93,23.89,61.69-39.65A81.25,81.25,0,0,0,277.51,132.4Z"/><path class="cls-3" d="M207.21,184.9A54.53,54.53,0,0,0,226,192.06c12.11,2.05,25.3-.87,34.42-9.09,5.43-4.9,9.21-11.36,12.34-18A132.15,132.15,0,0,0,285,119.91c3.31-1.79,6.06-3,8.59-4.67.73-.47,1.54-1.22,1.36-2.14A1.58,1.58,0,0,0,294,112a2.59,2.59,0,0,0-1-.18c1.34-.72,2.66-1.49,3.94-2.32.64-.41,1.34-1,1.36-1.72a1.64,1.64,0,0,0-1.21-1.45,4.27,4.27,0,0,0-2,0,38.24,38.24,0,0,0-5.69,1.34,47,47,0,0,0,4.2-3.25,1.94,1.94,0,0,0,.84-1.33,1.27,1.27,0,0,0-.89-1.11,3.25,3.25,0,0,0-1.49-.1,24.33,24.33,0,0,0-9.8,3.65,27.83,27.83,0,0,0,2.57-6.18,4.06,4.06,0,0,0,.22-1.58,1.44,1.44,0,0,0-2.41-1.08,4.75,4.75,0,0,0-1.11,1.25A53.06,53.06,0,0,1,276,105.1a15.46,15.46,0,0,1-7.7,4.55L263,111.82a112.6,112.6,0,0,1-14.84,33.71c-2.23,3.42-5.15,7.05-9.22,7.4s-7.14-2.49-9.41-6Z"/><path class="cls-3" d="M226,192.06a54.53,54.53,0,0,1-18.83-7.16l4.68-8c4.38,4.09,14.59,10.58,32,5.35s31.24-29,37.69-42A131.81,131.81,0,0,1,272.8,165c-3.13,6.62-6.91,13.08-12.34,18C251.34,191.19,238.15,194.11,226,192.06Z"/><path class="cls-5" d="M282.28,105.51c-1.66,1-3.28,2.09-4.87,3.18"/><path class="cls-5" d="M289.42,107.65a38.91,38.91,0,0,0-7.06,3"/><path class="cls-5" d="M284.64,114.19c2.56-1.11,5.17-2.24,7.94-2.37H293"/><path class="cls-5" d="M207.21,184.9A54.53,54.53,0,0,0,226,192.06c12.11,2.05,25.3-.87,34.42-9.09,5.43-4.9,9.21-11.36,12.34-18A132.15,132.15,0,0,0,285,119.91c3.31-1.79,6.06-3,8.59-4.67.73-.47,1.54-1.22,1.36-2.14A1.58,1.58,0,0,0,294,112a2.59,2.59,0,0,0-1-.18c1.34-.72,2.66-1.49,3.94-2.32.64-.41,1.34-1,1.36-1.72a1.64,1.64,0,0,0-1.21-1.45,4.27,4.27,0,0,0-2,0,38.24,38.24,0,0,0-5.69,1.34,47,47,0,0,0,4.2-3.25,1.94,1.94,0,0,0,.84-1.33,1.27,1.27,0,0,0-.89-1.11,3.25,3.25,0,0,0-1.49-.1,24.33,24.33,0,0,0-9.8,3.65,27.83,27.83,0,0,0,2.57-6.18,4.06,4.06,0,0,0,.22-1.58,1.44,1.44,0,0,0-2.41-1.08,4.75,4.75,0,0,0-1.11,1.25A53.06,53.06,0,0,1,276,105.1a15.46,15.46,0,0,1-7.7,4.55"/><path class="cls-5" d="M247.31,181.86a5.88,5.88,0,0,1-8.87,2.77"/><path class="cls-3" d="M263,111.82a38.54,38.54,0,0,1-4.46-6.54,4.83,4.83,0,0,1-.56-1.68,2,2,0,0,1,.55-1.62,2,2,0,0,1,2-.26,5.54,5.54,0,0,1,1.72,1.21c1.88,1.74,3.61,3.64,5.87,6.11a7.87,7.87,0,0,1,9.76,3.84"/><path class="cls-5" d="M263,111.82a38.54,38.54,0,0,1-4.46-6.54,4.83,4.83,0,0,1-.56-1.68,2,2,0,0,1,.55-1.62,2,2,0,0,1,2-.26,5.54,5.54,0,0,1,1.72,1.21c1.88,1.74,3.61,3.64,5.87,6.11a7.87,7.87,0,0,1,9.76,3.84"/><path class="cls-3" d="M229.49,147c-5-9.56-7.39-21.2-12.23-30.85s-12.93-18.7-23.61-20.33c0,0-2.06,29.08,1,47.47A161.58,161.58,0,0,0,205,178.13Z"/><path class="cls-4" d="M210.91,164.42s-3.46-15-11.47-28l-5.5,1.68c.19,1.8.42,3.53.69,5.18A161.58,161.58,0,0,0,205,178.13l6.2-7.89A25.37,25.37,0,0,1,210.91,164.42Z"/><path class="cls-3" d="M212.4,186a85.51,85.51,0,0,0,22.23-31.39,7,7,0,0,0-.35-6,37.12,37.12,0,0,0-4.71-6.68,2.53,2.53,0,0,0-4.16.5,119.92,119.92,0,0,1-23.83,32.1,4.06,4.06,0,0,0-.6,5.17,22.05,22.05,0,0,0,6.68,6.68A4,4,0,0,0,212.4,186Z"/><path class="cls-4" d="M210.91,164.42v0a122.66,122.66,0,0,1-9.32,10.07,4.06,4.06,0,0,0-.6,5.17,22.05,22.05,0,0,0,6.68,6.68,4,4,0,0,0,4.74-.34c1.8-1.59,3.5-3.29,5.15-5C217.23,180.75,210.24,176.5,210.91,164.42Z"/><path class="cls-3" d="M108.63,199.17a54.47,54.47,0,0,1-17.82,9.39c-11.76,3.52-25.22,2.23-35.27-4.82-6-4.2-10.53-10.15-14.44-16.34a131.79,131.79,0,0,1-17.57-43.26c-3.51-1.37-6.39-2.27-9.1-3.58-.79-.38-1.68-1-1.62-2a1.59,1.59,0,0,1,.81-1.21,2.48,2.48,0,0,1,.92-.29q-2.13-.83-4.2-1.82c-.68-.34-1.44-.79-1.55-1.55a1.61,1.61,0,0,1,1-1.59,4.46,4.46,0,0,1,2-.26,39,39,0,0,1,5.81.65,47.68,47.68,0,0,1-4.56-2.72,1.91,1.91,0,0,1-1-1.22,1.28,1.28,0,0,1,.75-1.21,3.33,3.33,0,0,1,1.47-.28,24.39,24.39,0,0,1,10.17,2.43,27.67,27.67,0,0,1-3.31-5.82,4.4,4.4,0,0,1-.41-1.54,1.62,1.62,0,0,1,.65-1.4,1.65,1.65,0,0,1,1.61,0,4.6,4.6,0,0,1,1.26,1.11,54,54,0,0,0,6.38,6.45,15.45,15.45,0,0,0,8.2,3.57l5.57,1.51a112.29,112.29,0,0,0,18.83,31.64c2.63,3.13,6,6.38,10.06,6.23s6.78-3.35,8.61-7.07Z"/><path class="cls-3" d="M90.81,208.56a54.47,54.47,0,0,0,17.82-9.39L103,191.84c-3.85,4.59-13.19,12.27-31.08,9.2S37.39,176.1,29.4,164A131.16,131.16,0,0,0,41.1,187.4c3.91,6.19,8.45,12.14,14.44,16.34C65.59,210.79,79.05,212.08,90.81,208.56Z"/><path class="cls-5" d="M24.44,129.52c1.77.78,3.51,1.67,5.22,2.56"/><path class="cls-5" d="M17.61,132.52A38.72,38.72,0,0,1,25,134.66"/><path class="cls-5" d="M23.15,138.42A23,23,0,0,0,15,137a3.29,3.29,0,0,0-.44.05"/><path class="cls-5" d="M108.63,199.17a54.47,54.47,0,0,1-17.82,9.39c-11.76,3.52-25.22,2.23-35.27-4.82-6-4.2-10.53-10.15-14.44-16.34a131.79,131.79,0,0,1-17.57-43.26c-3.51-1.37-6.39-2.27-9.1-3.58-.79-.38-1.68-1-1.62-2a1.59,1.59,0,0,1,.81-1.21,2.48,2.48,0,0,1,.92-.29q-2.13-.83-4.2-1.82c-.68-.34-1.44-.79-1.55-1.55a1.61,1.61,0,0,1,1-1.59,4.46,4.46,0,0,1,2-.26,39,39,0,0,1,5.81.65,47.68,47.68,0,0,1-4.56-2.72,1.91,1.91,0,0,1-1-1.22,1.28,1.28,0,0,1,.75-1.21,3.33,3.33,0,0,1,1.47-.28,24.39,24.39,0,0,1,10.17,2.43,27.67,27.67,0,0,1-3.31-5.82,4.4,4.4,0,0,1-.41-1.54,1.62,1.62,0,0,1,.65-1.4,1.65,1.65,0,0,1,1.61,0,4.6,4.6,0,0,1,1.26,1.11,54,54,0,0,0,6.38,6.45,15.45,15.45,0,0,0,8.2,3.57"/><path class="cls-5" d="M68.46,201a5.89,5.89,0,0,0,9.14,1.67"/><path class="cls-3" d="M44.39,133.43a38.72,38.72,0,0,0,3.62-7,4.73,4.73,0,0,0,.35-1.73,1.9,1.9,0,0,0-.74-1.54,2,2,0,0,0-2,0,5.46,5.46,0,0,0-1.56,1.4c-1.65,2-3.13,4.06-5.08,6.79a7.84,7.84,0,0,0-9.22,5"/><path class="cls-5" d="M44.39,133.43a38.72,38.72,0,0,0,3.62-7,4.73,4.73,0,0,0,.35-1.73,1.9,1.9,0,0,0-.74-1.54,2,2,0,0,0-2,0,5.46,5.46,0,0,0-1.56,1.4c-1.65,2-3.13,4.06-5.08,6.79a7.84,7.84,0,0,0-9.22,5"/><path class="cls-3" d="M109.79,104.56c-10.2,3.52-16.54,13.87-19.58,24.23s-3.61,21.33-6.82,31.64a27.48,27.48,0,0,1-1.5,3.8s6,14.29,12.44,22.14a66.79,66.79,0,0,0,14.3,12.8,69.89,69.89,0,0,0,11.68-11.7s1.67-21.82,0-40.38S109.79,104.56,109.79,104.56Z"/><path class="cls-4" d="M113.36,142.8c2.46,26.35-5.24,43.08-5.24,43.08a10.42,10.42,0,0,1-5.34,8.93,61,61,0,0,0,5.85,4.36,69.52,69.52,0,0,0,11.68-11.7s1.67-21.82,0-40.38A115.22,115.22,0,0,0,118.05,133C114.73,132.19,112.58,134.45,113.36,142.8Z"/><path class="cls-3" d="M86,160.48a104.35,104.35,0,0,1,27.62,35.38,3.33,3.33,0,0,1-.9,4,27.92,27.92,0,0,1-5.41,3.54,3.37,3.37,0,0,1-4.09-.82,216,216,0,0,1-23.81-34.38,3.27,3.27,0,0,1-.16-2.83l1.48-3.56A3.39,3.39,0,0,1,86,160.48Z"/><path class="cls-4" d="M103.18,202.57a3.37,3.37,0,0,0,4.09.82,27.92,27.92,0,0,0,5.41-3.54,3.33,3.33,0,0,0,.9-4,103.83,103.83,0,0,0-5.46-10h0c-.63,9.62-9.81,10.44-10,10.45C99.78,198.44,101.45,200.52,103.18,202.57Z"/><path class="cls-3" d="M193.65,95.78c-13.24-2-30.78,9.41-44.1,10.9-13.36.92-27.1-6.5-39.76-2.12l2.89,31.21a452.26,452.26,0,0,1-3,116.09c20,6.31,41.64,6.21,60.72,5.51a132.16,132.16,0,0,0,43.93-9.22,230,230,0,0,0-15.93-114.32Z"/><path class="cls-3" d="M211.77,178.61a229.14,229.14,0,0,0-8.67-32.36,204.56,204.56,0,0,1-88.77,10.15q1,17,.65,34.23A175.13,175.13,0,0,0,211.77,178.61Z"/><path class="cls-5" d="M198.39,133.83a230.06,230.06,0,0,1,16,114.32"/><path class="cls-5" d="M109.68,251.86a452.26,452.26,0,0,0,3-116.09"/><path class="cls-3" d="M151.2,115.9c-.24-.08-24.47-11.93-24.73-12.06-1.26-.19-2.52-.36-3.76-.47A33.79,33.79,0,0,0,131,123.13c5.09,5.58,12.64,9.06,20.18,8.53,8.26-.59,15.75-5.89,20.22-12.86,4-6.19,5.79-13.55,6.22-20.92-1.58.49-3.16,1-4.75,1.6C172.66,99.61,151.44,116,151.2,115.9Z"/><path class="cls-3" d="M167.78,117.1a33.25,33.25,0,0,0,5.05-17.62c-8.1,2.88-16.27,6.42-23.28,7.2-7.67.53-15.46-1.69-23.1-2.85a33.53,33.53,0,0,0,7.28,15.64c4.19,4.77,10.37,8,16.76,7.84C157.47,127.13,164,122.87,167.78,117.1Z"/><path class="cls-3" d="M140.25,89.61c-.22,6.93-.45,13.87-.76,21.47a23,23,0,0,0,17.64-1,159,159,0,0,1-1.28-21.48Z"/><path class="cls-3" d="M155.85,88.64l-15.6,1c-.1,3.17-.2,6.35-.31,9.59a34.76,34.76,0,0,1,7.3-1.1,47.2,47.2,0,0,1,8.86.76C155.91,95.45,155.82,92.05,155.85,88.64Z"/><path class="cls-3" d="M114.17,55.53a10.29,10.29,0,0,0-8.79,6.11,11,11,0,0,0,1.3,10.71,11.87,11.87,0,0,0,9.8,4.65Z"/><path class="cls-3" d="M162.9,23a15.39,15.39,0,1,1,28.95,8.33,15.79,15.79,0,0,1-15.17,8.1Z"/><path class="cls-4" d="M164.54,17.26A14.94,14.94,0,0,0,162.9,23l13.78,16.43a15.14,15.14,0,0,0,7.54-1.21A29.56,29.56,0,0,0,164.54,17.26Z"/><path class="cls-3" d="M180.43,59.5c5.48-1.73,11.95,1.55,14.08,6.89a13.24,13.24,0,0,1-4.77,15.25,14.77,14.77,0,0,1-16.5-.24C172.26,73.53,172.7,62,180.43,59.5Z"/><path class="cls-5" d="M182.1,65.73a11.27,11.27,0,0,1,9.67,6.13"/><path class="cls-5" d="M180.81,74.7a16.33,16.33,0,0,0,6.68-7.39"/><path class="cls-3" d="M113.07,53.26c.49,5.75.27,11.55.71,17.31s1.59,11.61,4.58,16.56,8,8.89,13.81,9.37c4.82.41,9.51-1.57,14.33-2,5.17-.43,10.51,1,15.5-.45,5.44-1.54,9.53-6.23,11.75-11.43s2.83-10.91,3.42-16.61c4.9-4.8,6.84-12.08,6.27-18.92a31.66,31.66,0,0,0-15.63-24.48,30.29,30.29,0,0,0-29.74.09c-4.15-4-10.9-4.35-16.06-1.84s-8.84,7.42-11,12.73a24.6,24.6,0,0,0-2,10.27A13.08,13.08,0,0,0,113.07,53.26Z"/><path class="cls-3" d="M173.46,48.88a16.69,16.69,0,0,1-19.88,22.46C149,70.08,145.22,67,140.92,65a27.07,27.07,0,0,0-21.66-.3,40.4,40.4,0,0,1-1.37-17.42c4.64-2.42,8.36-6.55,9.65-10.7C139,47.84,156.53,52.55,173.46,48.88Z"/><path class="cls-3" d="M166.17,69.78a6.15,6.15,0,0,0-11.91,1.72A17.15,17.15,0,0,0,166.17,69.78Z"/><path class="cls-3" d="M122.32,59.56A6.09,6.09,0,0,0,118.38,61c.24,1.18.53,2.39.88,3.66a26.85,26.85,0,0,1,8.38-2A6.15,6.15,0,0,0,122.32,59.56Z"/><path class="cls-5" d="M140.67,55.26a34.08,34.08,0,0,1-6.6,5.73,17.66,17.66,0,0,0,5,1.68"/><path class="cls-5" d="M122.32,54.3a7,7,0,0,1,10.52.82"/><path class="cls-5" d="M151.82,58.71a9.62,9.62,0,0,1,12.93,3.48"/><path class="cls-6" d="M143.77,72a2.3,2.3,0,0,0-1.89-.84,1.73,1.73,0,0,0-1.56,1.27,2.18,2.18,0,0,0,3.38,2A1.68,1.68,0,0,0,143.77,72Z"/><path class="cls-3" d="M100.8,88a70.38,70.38,0,0,0-9.56-.83A492,492,0,0,0,92,27.71a10.08,10.08,0,0,0-9.25-9.54A160.35,160.35,0,0,0,48,18.86a10,10,0,0,0-8.63,8.82A347.25,347.25,0,0,0,38.75,95a10.07,10.07,0,0,0,8.71,9.1,171.25,171.25,0,0,0,33.65,1.12A10.08,10.08,0,0,0,90.52,96l.12-1.54Z"/><path class="cls-4" d="M90.52,96l.12-1.54L100.8,88a70.38,70.38,0,0,0-9.56-.83q1-14.45,1.24-29C73.88,79.61,50.31,83.66,38,84.18c.2,3.57.44,7.16.75,10.78a10.07,10.07,0,0,0,8.71,9.1,171.25,171.25,0,0,0,33.65,1.12A10.08,10.08,0,0,0,90.52,96Z"/><path class="cls-5" d="M38.33,38.53A353.41,353.41,0,0,0,38.75,95a10.07,10.07,0,0,0,8.71,9.1,171.25,171.25,0,0,0,33.65,1.12A10.08,10.08,0,0,0,90.52,96l.12-1.54L100.8,88a70.38,70.38,0,0,0-9.56-.83A492,492,0,0,0,92,27.71a10.08,10.08,0,0,0-9.25-9.54,162,162,0,0,0-32.47.4"/><path class="cls-5" d="M38.89,32q-.16,1.7-.3,3.39"/><path class="cls-5" d="M45.66,19.45a10.07,10.07,0,0,0-4.48,3.45"/><path class="cls-3" d="M60.41,67.12a5.28,5.28,0,0,1-1.88-1.89,5.91,5.91,0,0,1-.9-3.24,3.6,3.6,0,0,1,1-2.73,6.31,6.31,0,0,1,2.82-1.38L66,56.74c2-.51,2.92-1.46,2.91-2.82A2.37,2.37,0,0,0,67.79,52a6.3,6.3,0,0,0-3.72-.8,15.94,15.94,0,0,0-4.5.63,13.36,13.36,0,0,0-3.38,1.45,7.11,7.11,0,0,1-1.71-1.83,4.66,4.66,0,0,1-.71-2.6,4.25,4.25,0,0,1,.86-2.67,6.48,6.48,0,0,1,2.42-1.88,13.9,13.9,0,0,1,3.68-1.1,28.27,28.27,0,0,1,4.7-.37q6.9,0,10.46,3a10.15,10.15,0,0,1,3.57,8q.06,9.35-13.15,12.05Zm-1.89,7.67a5.8,5.8,0,0,1,9.71-4,5.51,5.51,0,0,1-4.07,9.47,5.23,5.23,0,0,1-5.64-5.47Z"/></g><path class="cls-7" d="M65.28,221.19c-36-38.86-53.09-94.49-45.11-146.85,3-19.67,9.83-39.61,24.18-53.41C64.55,1.5,95.37-1.9,123.26.82c16.42,1.6,33.8,5.56,45,17.63S182.61,48.92,194.1,61c13,13.68,33.88,16.29,49.55,26.86,12.55,8.46,21.28,21.89,25.67,36.37,9.2,30.32-.7,64.79-22.18,88.07S193.87,248,162.2,249.18,91.86,249.88,65.28,221.19Z"/><path class="cls-8" d="M269.32,124.21c-.44-1.48-.95-2.95-1.49-4.4l-31.64,42.5s-63.59-25.37-63.57-26-25.38-38.23-25.38-38.23l-.63-8.73s15.1,3.24,20.65-11.86c0,0,18.81,6.3,18.81-14.15L97.31,60.6s-1,9.61,9.26,13.42c0,0,4.08,23.47,27.5,15.67L132.48,99,89.94,140.33,71.27,179.67,36,177.92a178.32,178.32,0,0,0,14.42,24.81c9.78,5.34,29.86,12.2,51.87-4.08,0,0-2.56,28.84-6.95,42.86C117,250,141.16,250,162.2,249.18a131,131,0,0,0,50.54-12.08c.42-10.55.87-31.81-1.68-49.33,0,0,45.93,23.89,61.69-39.65A81.25,81.25,0,0,0,269.32,124.21Z"/><path class="cls-9" d="M199,176.71a54.53,54.53,0,0,0,18.83,7.16c12.11,2,25.3-.87,34.42-9.09,5.43-4.9,9.21-11.36,12.34-18a132.15,132.15,0,0,0,12.17-45.08c3.31-1.79,6.06-3,8.59-4.67.73-.47,1.54-1.22,1.36-2.14a1.58,1.58,0,0,0-.94-1.11,2.59,2.59,0,0,0-1-.18c1.34-.72,2.66-1.49,3.94-2.32.64-.41,1.34-1,1.36-1.72a1.64,1.64,0,0,0-1.21-1.45,4.27,4.27,0,0,0-2,0,38.24,38.24,0,0,0-5.69,1.34,47,47,0,0,0,4.2-3.25,1.94,1.94,0,0,0,.84-1.33,1.27,1.27,0,0,0-.89-1.11,3.25,3.25,0,0,0-1.49-.1,24.33,24.33,0,0,0-9.8,3.65,27.83,27.83,0,0,0,2.57-6.18,4.06,4.06,0,0,0,.22-1.58,1.58,1.58,0,0,0-.82-1.3,1.61,1.61,0,0,0-1.59.22,4.75,4.75,0,0,0-1.11,1.25,53.81,53.81,0,0,1-5.54,7.18,15.54,15.54,0,0,1-7.71,4.55l-5.34,2.17a112.6,112.6,0,0,1-14.84,33.71c-2.23,3.42-5.15,7-9.22,7.4s-7.14-2.49-9.41-6Z"/><path class="cls-10" d="M217.85,183.87A54.53,54.53,0,0,1,199,176.71l4.68-8c4.38,4.09,14.59,10.58,32,5.35s31.24-29,37.69-42a131.56,131.56,0,0,1-8.75,24.69c-3.13,6.62-6.91,13.08-12.34,18C243.15,183,230,185.92,217.85,183.87Z"/><path class="cls-11" d="M274.09,97.32c-1.66,1-3.28,2.09-4.87,3.18"/><path class="cls-11" d="M281.23,99.46a39.63,39.63,0,0,0-7.06,3"/><path class="cls-11" d="M276.45,106c2.56-1.11,5.17-2.24,7.94-2.37h.45"/><path class="cls-11" d="M199,176.71a54.53,54.53,0,0,0,18.83,7.16c12.11,2,25.3-.87,34.42-9.09,5.43-4.9,9.21-11.36,12.34-18a132.15,132.15,0,0,0,12.17-45.08c3.31-1.79,6.06-3,8.59-4.67.73-.47,1.54-1.22,1.36-2.14a1.58,1.58,0,0,0-.94-1.11,2.59,2.59,0,0,0-1-.18c1.34-.72,2.66-1.49,3.94-2.32.64-.41,1.34-1,1.36-1.72a1.64,1.64,0,0,0-1.21-1.45,4.27,4.27,0,0,0-2,0,38.24,38.24,0,0,0-5.69,1.34,47,47,0,0,0,4.2-3.25,1.94,1.94,0,0,0,.84-1.33,1.27,1.27,0,0,0-.89-1.11,3.25,3.25,0,0,0-1.49-.1,24.33,24.33,0,0,0-9.8,3.65,27.83,27.83,0,0,0,2.57-6.18,4.06,4.06,0,0,0,.22-1.58,1.58,1.58,0,0,0-.82-1.3,1.61,1.61,0,0,0-1.59.22,4.75,4.75,0,0,0-1.11,1.25,53.81,53.81,0,0,1-5.54,7.18,15.54,15.54,0,0,1-7.71,4.55"/><path class="cls-11" d="M239.12,173.67a5.88,5.88,0,0,1-8.87,2.77"/><path class="cls-9" d="M254.77,103.63a38.54,38.54,0,0,1-4.46-6.54,4.85,4.85,0,0,1-.56-1.67,2,2,0,0,1,.55-1.63,2,2,0,0,1,2-.26A5.42,5.42,0,0,1,254,94.74c1.88,1.74,3.61,3.64,5.87,6.11a7.87,7.87,0,0,1,9.76,3.84"/><path class="cls-11" d="M254.77,103.63a38.54,38.54,0,0,1-4.46-6.54,4.85,4.85,0,0,1-.56-1.67,2,2,0,0,1,.55-1.63,2,2,0,0,1,2-.26A5.42,5.42,0,0,1,254,94.74c1.88,1.74,3.61,3.64,5.87,6.11a7.87,7.87,0,0,1,9.76,3.84"/><path class="cls-12" d="M221.3,138.77c-5-9.56-7.39-21.2-12.23-30.85s-12.93-18.7-23.61-20.33c0,0-2.06,29.08,1,47.47a161.58,161.58,0,0,0,10.4,34.88Z"/><path class="cls-8" d="M202.72,156.23s-3.46-15-11.47-28l-5.5,1.68c.19,1.8.42,3.53.69,5.18a161.58,161.58,0,0,0,10.4,34.88l6.2-7.89A25.37,25.37,0,0,1,202.72,156.23Z"/><path class="cls-13" d="M204.21,177.78a85.51,85.51,0,0,0,22.23-31.39,7,7,0,0,0-.35-6,37.12,37.12,0,0,0-4.71-6.68,2.53,2.53,0,0,0-4.16.5,119.92,119.92,0,0,1-23.83,32.1,4.06,4.06,0,0,0-.6,5.17,22.05,22.05,0,0,0,6.68,6.68A4,4,0,0,0,204.21,177.78Z"/><path class="cls-8" d="M202.72,156.23v0a119.37,119.37,0,0,1-9.32,10.07,4.06,4.06,0,0,0-.6,5.17,22.05,22.05,0,0,0,6.68,6.68,4,4,0,0,0,4.74-.34c1.8-1.59,3.5-3.29,5.15-5C209,172.56,202.05,168.31,202.72,156.23Z"/><path class="cls-9" d="M100.44,191a54.47,54.47,0,0,1-17.82,9.39c-11.76,3.52-25.22,2.23-35.27-4.82-6-4.2-10.53-10.15-14.44-16.34A131.79,131.79,0,0,1,15.34,136c-3.51-1.37-6.39-2.26-9.1-3.58-.79-.38-1.68-1-1.62-2a1.59,1.59,0,0,1,.81-1.21,2.48,2.48,0,0,1,.92-.29q-2.13-.83-4.2-1.82c-.68-.34-1.44-.79-1.55-1.55a1.61,1.61,0,0,1,1-1.59,4.46,4.46,0,0,1,2-.26,39,39,0,0,1,5.81.65,47.68,47.68,0,0,1-4.56-2.72,1.91,1.91,0,0,1-1-1.22,1.28,1.28,0,0,1,.75-1.21,3.35,3.35,0,0,1,1.47-.28,24.39,24.39,0,0,1,10.17,2.43,27.67,27.67,0,0,1-3.31-5.82,4.4,4.4,0,0,1-.41-1.54,1.62,1.62,0,0,1,.65-1.4,1.65,1.65,0,0,1,1.61,0,4.6,4.6,0,0,1,1.26,1.11,54,54,0,0,0,6.38,6.45,15.45,15.45,0,0,0,8.2,3.57l5.57,1.51A112.29,112.29,0,0,0,55,156.88c2.63,3.13,6,6.38,10.06,6.23s6.78-3.35,8.61-7.07Z"/><path class="cls-10" d="M82.62,200.37A54.47,54.47,0,0,0,100.44,191l-5.62-7.33c-3.85,4.59-13.19,12.27-31.08,9.2S29.2,167.91,21.21,155.77a131.16,131.16,0,0,0,11.7,23.44c3.91,6.19,8.45,12.14,14.44,16.34C57.4,202.6,70.86,203.89,82.62,200.37Z"/><path class="cls-11" d="M16.25,121.33c1.77.78,3.51,1.67,5.22,2.56"/><path class="cls-11" d="M9.42,124.33a38.72,38.72,0,0,1,7.38,2.14"/><path class="cls-11" d="M15,130.23a23,23,0,0,0-8.17-1.38,3.29,3.29,0,0,0-.44.05"/><path class="cls-11" d="M100.44,191a54.47,54.47,0,0,1-17.82,9.39c-11.76,3.52-25.22,2.23-35.27-4.82-6-4.2-10.53-10.15-14.44-16.34A131.79,131.79,0,0,1,15.34,136c-3.51-1.37-6.39-2.26-9.1-3.58-.79-.38-1.68-1-1.62-2a1.59,1.59,0,0,1,.81-1.21,2.48,2.48,0,0,1,.92-.29q-2.13-.83-4.2-1.82c-.68-.34-1.44-.79-1.55-1.55a1.61,1.61,0,0,1,1-1.59,4.46,4.46,0,0,1,2-.26,39,39,0,0,1,5.81.65,47.68,47.68,0,0,1-4.56-2.72,1.91,1.91,0,0,1-1-1.22,1.28,1.28,0,0,1,.75-1.21,3.35,3.35,0,0,1,1.47-.28,24.39,24.39,0,0,1,10.17,2.43,27.67,27.67,0,0,1-3.31-5.82,4.4,4.4,0,0,1-.41-1.54,1.62,1.62,0,0,1,.65-1.4,1.65,1.65,0,0,1,1.61,0,4.6,4.6,0,0,1,1.26,1.11,54,54,0,0,0,6.38,6.45,15.45,15.45,0,0,0,8.2,3.57"/><path class="cls-11" d="M60.27,192.85a5.89,5.89,0,0,0,9.14,1.67"/><path class="cls-9" d="M36.2,125.24a38.39,38.39,0,0,0,3.62-7,4.73,4.73,0,0,0,.35-1.73,1.9,1.9,0,0,0-.74-1.54,2,2,0,0,0-2,0,5.46,5.46,0,0,0-1.56,1.4c-1.65,2-3.13,4.06-5.08,6.79a7.84,7.84,0,0,0-9.22,5"/><path class="cls-11" d="M36.2,125.24a38.39,38.39,0,0,0,3.62-7,4.73,4.73,0,0,0,.35-1.73,1.9,1.9,0,0,0-.74-1.54,2,2,0,0,0-2,0,5.46,5.46,0,0,0-1.56,1.4c-1.65,2-3.13,4.06-5.08,6.79a7.84,7.84,0,0,0-9.22,5"/><path class="cls-12" d="M101.6,96.37C91.4,99.89,85.06,110.24,82,120.6s-3.61,21.33-6.82,31.64a27.48,27.48,0,0,1-1.5,3.8s6,14.29,12.44,22.14a66.79,66.79,0,0,0,14.3,12.8,69.52,69.52,0,0,0,11.68-11.7s1.67-21.82,0-40.38S101.6,96.37,101.6,96.37Z"/><path class="cls-8" d="M105.17,134.61c2.46,26.35-5.24,43.08-5.24,43.08a10.42,10.42,0,0,1-5.34,8.93,61,61,0,0,0,5.85,4.36,69.52,69.52,0,0,0,11.68-11.7s1.67-21.82,0-40.38a115.52,115.52,0,0,0-2.26-14.06C106.54,124,104.39,126.26,105.17,134.61Z"/><path class="cls-13" d="M77.77,152.29a104.35,104.35,0,0,1,27.62,35.38,3.33,3.33,0,0,1-.9,4,27.92,27.92,0,0,1-5.41,3.54,3.37,3.37,0,0,1-4.09-.82A216,216,0,0,1,71.18,160a3.27,3.27,0,0,1-.16-2.83l1.48-3.56A3.39,3.39,0,0,1,77.77,152.29Z"/><path class="cls-8" d="M95,194.38a3.37,3.37,0,0,0,4.09.82,27.92,27.92,0,0,0,5.41-3.54,3.33,3.33,0,0,0,.9-4,103.83,103.83,0,0,0-5.46-10h0c-.63,9.62-9.81,10.44-10,10.45C91.59,190.25,93.26,192.33,95,194.38Z"/><path class="cls-12" d="M185.46,87.59c-13.24-2-30.78,9.41-44.1,10.9-13.36.92-27.1-6.5-39.76-2.12l2.89,31.21a452.26,452.26,0,0,1-3,116.09c20,6.31,41.64,6.21,60.72,5.51A132.16,132.16,0,0,0,206.13,240,230,230,0,0,0,190.2,125.64Z"/><path class="cls-13" d="M203.58,170.42a229.14,229.14,0,0,0-8.67-32.36,204.56,204.56,0,0,1-88.77,10.15q1,17,.65,34.23A175.13,175.13,0,0,0,203.58,170.42Z"/><path class="cls-11" d="M190.2,125.64a230.06,230.06,0,0,1,16,114.32"/><path class="cls-11" d="M101.49,243.67a452.26,452.26,0,0,0,3-116.09"/><path class="cls-13" d="M143,107.71c-.24-.08-24.47-11.93-24.73-12.06-1.26-.19-2.52-.36-3.76-.47a33.79,33.79,0,0,0,8.25,19.76c5.09,5.58,12.64,9.06,20.18,8.53,8.26-.59,15.75-5.89,20.22-12.86,4-6.19,5.79-13.55,6.22-20.92-1.57.49-3.16,1-4.75,1.6C164.47,91.42,143.25,107.79,143,107.71Z"/><path class="cls-9" d="M159.59,108.91a33.23,33.23,0,0,0,5-17.62c-8.1,2.88-16.27,6.42-23.28,7.2-7.67.53-15.46-1.69-23.1-2.85a33.53,33.53,0,0,0,7.28,15.64c4.19,4.77,10.37,8,16.76,7.84C149.28,118.94,155.76,114.68,159.59,108.91Z"/><path class="cls-9" d="M132.07,81.42c-.23,6.93-.46,13.87-.77,21.47a23,23,0,0,0,17.64-1,159,159,0,0,1-1.28-21.48Z"/><path class="cls-10" d="M147.66,80.45l-15.59,1c-.11,3.17-.21,6.35-.32,9.59a34.76,34.76,0,0,1,7.3-1.1,47.2,47.2,0,0,1,8.86.76C147.72,87.26,147.63,83.86,147.66,80.45Z"/><path class="cls-9" d="M106,47.34a10.29,10.29,0,0,0-8.79,6.11,11,11,0,0,0,1.3,10.71,11.87,11.87,0,0,0,9.8,4.65Z"/><path class="cls-13" d="M154.71,14.8A15.78,15.78,0,0,1,165.32,1.28,15.78,15.78,0,0,1,181.85,6a15.79,15.79,0,0,1,1.81,17.1,15.79,15.79,0,0,1-15.17,8.1Z"/><path class="cls-8" d="M156.35,9.07a14.94,14.94,0,0,0-1.64,5.73l13.78,16.43A15.14,15.14,0,0,0,176,30,29.56,29.56,0,0,0,156.35,9.07Z"/><path class="cls-9" d="M172.24,51.31c5.48-1.73,11.95,1.55,14.08,6.89a13.24,13.24,0,0,1-4.77,15.25,14.77,14.77,0,0,1-16.5-.24C164.07,65.34,164.51,53.77,172.24,51.31Z"/><path class="cls-11" d="M173.91,57.54a11.27,11.27,0,0,1,9.67,6.13"/><path class="cls-11" d="M172.62,66.51a16.33,16.33,0,0,0,6.68-7.39"/><path class="cls-13" d="M104.88,45.07c.49,5.75.27,11.55.71,17.31s1.59,11.61,4.58,16.56,8,8.89,13.81,9.37c4.82.41,9.51-1.57,14.33-2,5.17-.43,10.51,1,15.5-.45,5.44-1.54,9.53-6.23,11.75-11.43s2.83-10.91,3.42-16.61c4.9-4.8,6.84-12.08,6.27-18.92a31.66,31.66,0,0,0-15.63-24.48,30.29,30.29,0,0,0-29.74.09c-4.15-4-10.9-4.35-16.06-1.84s-8.84,7.42-11,12.73a24.6,24.6,0,0,0-2,10.27A13.08,13.08,0,0,0,104.88,45.07Z"/><path class="cls-9" d="M165.27,40.69a16.68,16.68,0,0,1-19.88,22.46c-4.56-1.26-8.36-4.39-12.66-6.36a27.07,27.07,0,0,0-21.66-.3,40.4,40.4,0,0,1-1.37-17.42c4.64-2.42,8.36-6.55,9.65-10.7C130.82,39.65,148.34,44.36,165.27,40.69Z"/><path class="cls-10" d="M158,61.59a6.15,6.15,0,0,0-11.91,1.72A17.15,17.15,0,0,0,158,61.59Z"/><path class="cls-10" d="M114.13,51.37a6.09,6.09,0,0,0-3.94,1.46c.24,1.18.53,2.39.88,3.66a26.57,26.57,0,0,1,8.38-2A6.14,6.14,0,0,0,114.13,51.37Z"/><path class="cls-11" d="M132.48,47.07a34.08,34.08,0,0,1-6.6,5.73,17.66,17.66,0,0,0,5,1.68"/><path class="cls-11" d="M114.13,46.11a7,7,0,0,1,10.52.82"/><path class="cls-11" d="M143.63,50.52A9.62,9.62,0,0,1,156.56,54"/><path class="cls-14" d="M135.58,63.83a2.3,2.3,0,0,0-1.89-.84,1.73,1.73,0,0,0-1.56,1.27,2.18,2.18,0,0,0,3.38,2A1.68,1.68,0,0,0,135.58,63.83Z"/><path class="cls-15" d="M92.61,79.84A68.79,68.79,0,0,0,83.05,79a492.21,492.21,0,0,0,.72-59.5A10.08,10.08,0,0,0,74.52,10a160.35,160.35,0,0,0-34.75.69,10,10,0,0,0-8.63,8.82,347.25,347.25,0,0,0-.58,67.28,10.06,10.06,0,0,0,8.71,9.1A171.25,171.25,0,0,0,72.92,97a10.08,10.08,0,0,0,9.41-9.14l.12-1.54Z"/><path class="cls-8" d="M82.33,87.85l.12-1.54,10.16-6.47A68.79,68.79,0,0,0,83.05,79q1-14.46,1.24-29C65.69,71.42,42.12,75.47,29.81,76c.2,3.57.44,7.16.75,10.78a10.06,10.06,0,0,0,8.71,9.1A171.25,171.25,0,0,0,72.92,97,10.08,10.08,0,0,0,82.33,87.85Z"/><path class="cls-11" d="M30.14,30.34a353.41,353.41,0,0,0,.42,56.43,10.06,10.06,0,0,0,8.71,9.1A171.25,171.25,0,0,0,72.92,97a10.08,10.08,0,0,0,9.41-9.14l.12-1.54,10.16-6.47A68.79,68.79,0,0,0,83.05,79a492.21,492.21,0,0,0,.72-59.5A10.08,10.08,0,0,0,74.52,10a162,162,0,0,0-32.47.4"/><path class="cls-11" d="M30.7,23.77q-.16,1.69-.3,3.39"/><path class="cls-11" d="M37.47,11.26A10.12,10.12,0,0,0,33,14.71"/><path class="cls-16" d="M52.22,58.93A5.28,5.28,0,0,1,50.34,57a5.91,5.91,0,0,1-.9-3.24,3.6,3.6,0,0,1,1-2.73,6.31,6.31,0,0,1,2.82-1.38l4.56-1.14q2.92-.77,2.91-2.82a2.37,2.37,0,0,0-1.09-1.92,6.27,6.27,0,0,0-3.72-.8,15.94,15.94,0,0,0-4.5.63A13.36,13.36,0,0,0,48,45.09a7.11,7.11,0,0,1-1.71-1.83,4.66,4.66,0,0,1-.71-2.6A4.25,4.25,0,0,1,46.44,38a6.48,6.48,0,0,1,2.42-1.88A13.9,13.9,0,0,1,52.54,35a28.27,28.27,0,0,1,4.7-.37q6.9,0,10.46,3a10.15,10.15,0,0,1,3.57,8q.06,9.34-13.15,12ZM50.33,66.6a5.8,5.8,0,0,1,9.71-4A5.51,5.51,0,0,1,56,72.07a5.23,5.23,0,0,1-5.64-5.47Z"/></g></g></svg>