<svg xmlns="http://www.w3.org/2000/svg" viewBox="0 0 301.6 256.83"><defs><style>.cls-1{isolation:isolate;}.cls-2{opacity:0.12;}.cls-2,.cls-4,.cls-8{mix-blend-mode:multiply;}.cls-3,.cls-4{fill:#030a4c;}.cls-4,.cls-8{opacity:0.15;}.cls-10,.cls-15,.cls-5,.cls-6{fill:none;stroke-linecap:round;stroke-linejoin:round;}.cls-5,.cls-6{stroke:#030a4c;}.cls-10,.cls-5{stroke-width:1.17px;}.cls-15,.cls-6{stroke-width:2.34px;}.cls-7{fill:#f44db0;}.cls-8{fill:#452499;}.cls-9{fill:#fff;}.cls-10{stroke:#2c2355;}.cls-11{fill:#b43d81;}.cls-12{fill:#2c2355;}.cls-13{fill:#d46155;}.cls-14{fill:#cf5346;}.cls-15{stroke:#ffb948;}.cls-16{fill:#e5796e;}.cls-17{fill:#25ca68;}.cls-18{fill:#5de1d2;}.cls-19{fill:#16954d;}.cls-20{fill:#00b4a0;}</style></defs><g class="cls-1"><g id="Capa_1" data-name="Capa 1"><g class="cls-2"><path class="cls-3" d="M166.08,72.51c-17.79-5.43-35.71-10.88-54.22-13S74,59,57.23,67c-15.53,7.4-28.12,20.09-36.59,34.81C-.12,137.88,5.56,186.72,34.07,217.33c17.32,18.59,41.27,30.12,65.8,37.65,41.41,12.72,87.66,14.82,127.4-2.26,31.62-13.6,57.68-39.19,71.37-70.2a132.9,132.9,0,0,0,3.07-98.9c-2.78-7.49-6.45-15-12.76-20-7.52-6-17.85-7.67-27.53-6.93-17,1.29-32.64,9.07-48.77,14.46S179.19,76.51,166.08,72.51Z"/><path class="cls-4" d="M243.88,228.71c8.33-11.58,4.86-31.08,4.86-31.08S244.58,181,225,157.89s-63.65-44.28-63.65-44.28L159.88,99c13.58,6.18,25-2.73,25-2.73,18.8,3.53,19.77-8.08,19.77-8.08L200.76,74.1c-12.41,2.16-24.75,1.44-34.68-1.59-12.14-3.71-24.35-7.42-36.77-10.07-17.22-.44-30.9-.23-31,1.54-.23,4.78-10.87,12.91-3.47,24.92s19.9,7.33,19.9,7.33c6.37,7.54,19.25,4.27,19.25,4.27,8.25,3.93,15.84-2.64,15.84-2.64l-1.3,15.75-89.33,23L35.72,178.87C33.06,225.3,82.2,222.69,82.2,222.69l1.23-1.85,10.51,3.39v2.08l-11.7,1c-1.12,4.58,2.3,4.39,2.3,4.39a3,3,0,0,0,2.19,3.47c-.49,4.81,6.93,5.18,6.93,5.18,1.19,6.51,8,.15,8,.15l-1,14.75c39.57,12,83.46,14.3,121.85-.55l-3.6-15.08S235.56,240.28,243.88,228.71ZM101.17,211.26s-29.46-38.4-18.28-38.64S104,165.84,104,165.84Z"/><path class="cls-3" d="M283.4,44.44c-9.86-38.23-64.75-38.07-77.56-3.81C198,61.64,204.73,76.58,217,85c-1.22,2.79-2.59,5.62-3.87,9.37a38.06,38.06,0,0,0,12.78-4.72C253.49,100.25,294.19,86.27,283.4,44.44Z"/><path class="cls-4" d="M285.09,54.85C261.59,75.05,225.33,77.8,209.38,78A35,35,0,0,0,217,85c-1.22,2.79-2.59,5.62-3.87,9.37a38.06,38.06,0,0,0,12.78-4.72C251.06,99.31,287.11,88.54,285.09,54.85Z"/><path class="cls-5" d="M219.48,23A38.22,38.22,0,0,0,215.8,26"/><path class="cls-5" d="M212,30a37.16,37.16,0,0,0-6.12,10.67C198,61.64,204.73,76.58,217,85c-1.22,2.79-2.59,5.62-3.87,9.37a38.06,38.06,0,0,0,12.78-4.72c27.56,10.6,68.26-3.38,57.47-45.21-6.57-25.47-33.12-33.9-53.91-26.56"/><path class="cls-3" d="M237.61,61.3a5.36,5.36,0,0,1-1.88-1.89,6,6,0,0,1-.89-3.24,3.56,3.56,0,0,1,.95-2.73,6.3,6.3,0,0,1,2.83-1.39l4.56-1.13q2.91-.78,2.91-2.82a2.41,2.41,0,0,0-1.1-1.93,6.31,6.31,0,0,0-3.71-.8,15.94,15.94,0,0,0-4.5.64,13.6,13.6,0,0,0-3.39,1.45,7.25,7.25,0,0,1-1.7-1.83A4.75,4.75,0,0,1,231,43a4.3,4.3,0,0,1,.87-2.67,6.44,6.44,0,0,1,2.41-1.88,14,14,0,0,1,3.68-1.1,29.36,29.36,0,0,1,4.71-.38q6.9,0,10.45,3a10.15,10.15,0,0,1,3.58,8q0,9.36-13.15,12.06ZM235.72,69a5.23,5.23,0,0,1,5.59-5.53,5.51,5.51,0,1,1,.06,11A5.23,5.23,0,0,1,235.72,69Z"/><path class="cls-3" d="M152.75,91.52a16.66,16.66,0,0,1-19.25,5c-5.38,3.06-12.75,2.07-18.77-3.62-5.75.74-11.87-.25-16.6-3.59s-6.35-8.82-5.52-14.55c.52-3.56,3.08-6.9,3.55-10.46.44-3.3-2.5-6.94-3.17-10.2s-1.17-6.7-.13-9.87,4.06-5.9,7-5.48a12.16,12.16,0,0,1,5.68-9.46,11,11,0,0,1,11.37-.07,20.38,20.38,0,0,1,11.56-13c5.54-2.31,12.12-2,17,2.18a16.7,16.7,0,0,1,14.83-10.2c6.36-.11,12.6,3.88,15.43,10.7,4.81-1.43,10.31-1.05,14.44,1.79a12.91,12.91,0,0,1,5.12,13.67,6.75,6.75,0,0,1,7.18,6.31c.06,2.51-1.32,5.08-.44,7.43.74,2,2.81,3,4.09,4.69a9.08,9.08,0,0,1,1.45,7.08c-.41,2.44-1.48,4.72-2.57,8.16a16.72,16.72,0,0,1,.3,21.37c-5.07,5.92-14.67,7.27-22.13,3A16.62,16.62,0,0,1,170.13,99C165.08,99,160.1,96.49,152.75,91.52Z"/><path class="cls-3" d="M147.62,86.22c-.68,7.31-1.36,14.63-1.43,22.11a43.72,43.72,0,0,0,16.22.77,219.35,219.35,0,0,1-.53-22.79Z"/><path class="cls-3" d="M147.62,86.22c-.26,2.79-.51,5.58-.73,8.37a23.45,23.45,0,0,0,14.93.73c0-3,0-6,.06-9Z"/><path class="cls-3" d="M121.38,55.27A11.27,11.27,0,0,0,108,49.41,12.29,12.29,0,0,0,99.91,61.8a13.51,13.51,0,0,0,9.64,11.51,15,15,0,0,0,14.62-4.15Z"/><path class="cls-5" d="M106.41,60.24a9.19,9.19,0,0,1,11.23-2.33"/><path class="cls-5" d="M115.1,65.84a8.72,8.72,0,0,1-3.38-8.75"/><path class="cls-6" d="M105.9,71.61a9.2,9.2,0,0,0-1.22,4.2,6.83,6.83,0,0,0,1.95,5.11,5.31,5.31,0,0,0,5.19,1.31,5.76,5.76,0,0,0,3.59-5.71,9.58,9.58,0,0,0-3.19-6.3"/><path class="cls-3" d="M183.53,57.45c2.13-4.87,8.28-7.48,13.35-5.85A12.28,12.28,0,0,1,205,64a13.51,13.51,0,0,1-9.64,11.51,15,15,0,0,1-14.62-4.15Z"/><path class="cls-5" d="M198.49,62.43a9.17,9.17,0,0,0-11.22-2.34"/><path class="cls-5" d="M189.8,68a8.76,8.76,0,0,0,3.39-8.76"/><path class="cls-6" d="M186.89,75.1a8.81,8.81,0,0,0-.67,3.07,6.83,6.83,0,0,0,1.95,5.11,5.28,5.28,0,0,0,5.19,1.31,5.75,5.75,0,0,0,3.58-5.71,9.57,9.57,0,0,0-3.18-6.3"/><path class="cls-3" d="M184.83,55.83a43,43,0,0,1-10.2,29c-3.24,3.79-7.29,7.07-12.08,8.43a25.14,25.14,0,0,1-12.6-.13A38.29,38.29,0,0,1,128.73,79.7a35.33,35.33,0,0,1-7.35-24.43c1.86,1.22,4.52.25,5.89-1.5s1.78-4.05,2.44-6.8a10.31,10.31,0,0,0,5.92-4,12,12,0,0,0,2.09-7.07,9.71,9.71,0,0,0,8.26,8.9,10.16,10.16,0,0,0,10.24-6.14,14.68,14.68,0,0,0,1.4,4.76c.35.71.93,1.48,1.71,1.38s1.18-1.12,1.08-1.94a13.67,13.67,0,0,1-.41-2.44,7,7,0,0,0,6.44,4.79,7.47,7.47,0,0,0,6.69-4.62,7.54,7.54,0,0,0,3.07,5.51,8.84,8.84,0,0,0,5.93,1.49,5.56,5.56,0,0,0-.45,4.61A7.07,7.07,0,0,0,184.83,55.83Z"/><path class="cls-3" d="M176,77.62a6.42,6.42,0,0,0-7.69,10.27,6.1,6.1,0,0,0,2.14,1,33.81,33.81,0,0,0,4.17-4.12A40.73,40.73,0,0,0,178,80.22,6,6,0,0,0,176,77.62Z"/><path class="cls-3" d="M128.73,79.7a36.37,36.37,0,0,0,7.4,7,6.06,6.06,0,0,0,2.72-1.93A6.41,6.41,0,1,0,128.65,77a5.56,5.56,0,0,0-.78,1.51C128.15,78.94,128.44,79.32,128.73,79.7Z"/><path class="cls-5" d="M179,63.43a18.29,18.29,0,0,0-2.53-3,7.84,7.84,0,0,1-11.09.28"/><path class="cls-5" d="M173.64,62.31c.4,1,.77,2,1.17,3"/><path class="cls-5" d="M170.68,62.83c0,1,.06,2,.1,3"/><path class="cls-5" d="M165.57,54A23.45,23.45,0,0,1,176,55.72"/><path class="cls-5" d="M132.35,63.1a17.77,17.77,0,0,1,2.52-3,7.86,7.86,0,0,0,11.1.27"/><path class="cls-5" d="M137.74,62c-.4,1-.78,2-1.18,3"/><path class="cls-5" d="M140.69,62.5l-.09,3"/><path class="cls-5" d="M133.11,53.14a8.29,8.29,0,0,1,14-.35"/><path class="cls-5" d="M156.92,58.67a22.42,22.42,0,0,1,4.39,6.27,19,19,0,0,0-3.84.12"/><path class="cls-5" d="M156.11,72a32.49,32.49,0,0,1-12.54-1.46"/><path class="cls-3" d="M230.58,191.27c2.86-9.05,1.93-18.9-1.15-27.88s-8.2-17.21-13.73-25.06c-5.86-8.29-12.45-16.46-21-22.1,0,0-5.81,65.11,15.16,91.31Z"/><path class="cls-3" d="M110.83,158.94a82.07,82.07,0,0,1-31.26,10.75S65,167.3,56.82,162.9s-16-16.24-16-16.24a64,64,0,0,1,13.74-16C66.68,120.45,82.13,114.32,98,111q5.3-1.09,10.65-1.82Z"/><path class="cls-4" d="M70.88,167.85c4.85,1.21,8.69,1.84,8.69,1.84a82.07,82.07,0,0,0,31.26-10.75l-.47-10.52a14,14,0,0,0-1.76,1.31c-12.52,10.81-36.32,13.4-36.32,13.4S71.67,165.17,70.88,167.85Z"/><path class="cls-3" d="M216.72,256.75a644.45,644.45,0,0,0-15.34-105.81l-6.73-34.71q-1.6-1-3.3-2a51.12,51.12,0,0,0-5.52-2.56L159,126.11l-37-18.3c-4.48.33-8.95.77-13.39,1.39l.22,37.46c-2.66,36.56-4.2,73.2-4.39,109.66C141,266.78,181,268.84,216.72,256.75Z"/><path class="cls-4" d="M208,183.53c-2.24,6-7.39,21.75-5.56,37a25.61,25.61,0,0,0,13.07,20Q213.06,211.84,208,183.53Z"/><path class="cls-5" d="M216.73,256.75a644.47,644.47,0,0,0-15.35-105.81"/><path class="cls-5" d="M108.82,146.66c-2.66,36.56-4.22,73.2-4.41,109.66"/><path class="cls-3" d="M182.6,110.55l-25.68,11.68L125.3,107.61c-1.1.06-2.21.12-3.31.2,2.41,9.26,6.76,18.19,13.81,24.6,7.5,6.81,18.38,10.36,28.07,7.46,6.83-2,12.53-7,16.28-13.1a45.45,45.45,0,0,0,5.68-15.08C184.77,111.28,183.69,110.9,182.6,110.55Z"/><path class="cls-3" d="M170.5,133.2a28.67,28.67,0,0,0,8.73-11.87,69.45,69.45,0,0,0,3.37-10.78c-11.41-3.68-24.12-3.84-36.33-3.66-7,.1-14,.28-21,.71A47.42,47.42,0,0,0,133,124.72a32.14,32.14,0,0,0,17.16,12.07C157.07,138.59,164.8,137.48,170.5,133.2Z"/><path class="cls-3" d="M94.63,225.24a7.92,7.92,0,0,1-5,.48,22.57,22.57,0,0,0-5-.58c-1,.07-2.18.51-2.41,1.5a1.84,1.84,0,0,0,.57,1.64,4.1,4.1,0,0,0,1.55.91c3.77,1.44,8,1.08,11.9-.06Z"/><path class="cls-5" d="M94.63,225.24a7.92,7.92,0,0,1-5,.48,22.57,22.57,0,0,0-5-.58c-1,.07-2.18.51-2.41,1.5a1.84,1.84,0,0,0,.57,1.64,4.1,4.1,0,0,0,1.55.91c3.77,1.44,8,1.08,11.9-.06Z"/><path class="cls-3" d="M96.68,228.84a22.68,22.68,0,0,1-8.49.41,7.19,7.19,0,0,0-2.12-.12,2,2,0,0,0-1.65,1.17,2,2,0,0,0,.6,2,4.77,4.77,0,0,0,2,1,16.46,16.46,0,0,0,12.63-1.66Z"/><path class="cls-5" d="M96.68,228.84a22.68,22.68,0,0,1-8.49.41,7.19,7.19,0,0,0-2.12-.12,2,2,0,0,0-1.65,1.17,2,2,0,0,0,.6,2,4.77,4.77,0,0,0,2,1,16.46,16.46,0,0,0,12.63-1.66Z"/><path class="cls-3" d="M98.56,231.66a21.06,21.06,0,0,1-8.16,1.42,6.28,6.28,0,0,0-2.41.2,1.81,1.81,0,0,0-1.26,1.85c.14.74.87,1.2,1.57,1.51a12.52,12.52,0,0,0,12.87-2Z"/><path class="cls-5" d="M98.56,231.66a21.06,21.06,0,0,1-8.16,1.42,6.28,6.28,0,0,0-2.41.2,1.81,1.81,0,0,0-1.26,1.85c.14.74.87,1.2,1.57,1.51a12.52,12.52,0,0,0,12.87-2Z"/><path class="cls-3" d="M99.24,199.71c.89,1.94,1.8,3.85,2.79,5.73,3.19,6.09,7.24,12.4,6.47,19.23-.71,6.41-5.55,11.58-10.67,15.49a5.08,5.08,0,0,1-2.14,1.12,1.82,1.82,0,0,1-2-1,2.56,2.56,0,0,1,.66-2.27,15.41,15.41,0,0,1,4.7-4.47,13.5,13.5,0,0,1-6.86-11A88.77,88.77,0,0,1,81,215.94"/><path class="cls-5" d="M99.24,199.71c.89,1.94,1.8,3.85,2.79,5.73,3.19,6.09,7.24,12.4,6.47,19.23-.71,6.41-5.55,11.58-10.67,15.49a5.08,5.08,0,0,1-2.14,1.12,1.82,1.82,0,0,1-2-1,2.56,2.56,0,0,1,.66-2.27,15.41,15.41,0,0,1,4.7-4.47,13.5,13.5,0,0,1-6.86-11"/><path class="cls-3" d="M40.81,146.66a50.25,50.25,0,0,0-7.42,24.14A47,47,0,0,0,46.6,204.51a49.84,49.84,0,0,0,34.34,15,70.33,70.33,0,0,0,18.3-19.82h0c-2.83-6.2-5.32-12.57-8.64-18.52-4.36-7.8-10.52-15.08-18.87-18.29Z"/><path class="cls-3" d="M99.24,199.71c-.63-1.38-1.25-2.78-1.86-4.17A73.27,73.27,0,0,1,74.68,219a46.53,46.53,0,0,0,6.26.57,70.33,70.33,0,0,0,18.3-19.82Z"/><path class="cls-3" d="M38.72,150.51a48.89,48.89,0,0,0-5.33,20.29,45.48,45.48,0,0,0,2.44,16c7.52-2.09,13.67-8.88,14.5-16.64A19.89,19.89,0,0,0,38.72,150.51Z"/><path class="cls-4" d="M33.52,175.72A47.27,47.27,0,0,0,46.6,204.51a49.84,49.84,0,0,0,34.34,15,70.26,70.26,0,0,0,7-5.89C59.17,208.15,41.6,187.76,33.52,175.72Z"/><path class="cls-5" d="M33.39,170.8A47,47,0,0,0,46.6,204.51a49.84,49.84,0,0,0,34.34,15,70.33,70.33,0,0,0,18.3-19.82h0c-2.83-6.2-5.32-12.57-8.64-18.52-4.36-7.8-10.52-15.08-18.87-18.29"/><path class="cls-3" d="M250.17,144.1c.39-3.84,2.33-7.34,4.4-10.6s4.33-6.47,5.51-10.14,1.1-8-1.28-11.06l-9.91-4.57a54.28,54.28,0,0,0,.81-15.16,5.2,5.2,0,0,0-.69-2.52,1.9,1.9,0,0,0-2.28-.8c-.82.41-1,1.45-1.15,2.36L242.78,113l-6.84,20.85Z"/><path class="cls-3" d="M253.14,108.56a2.64,2.64,0,0,0-1.79-4.27c-1.64-.16-3,1.18-4,2.53a20.18,20.18,0,0,0-3.52,13.29,4,4,0,0,0,.7,2.18,1.56,1.56,0,0,0,2.06.4,2.25,2.25,0,0,0,.61-.93C249.05,117.6,249.78,112.77,253.14,108.56Z"/><path class="cls-5" d="M253.14,108.56a2.64,2.64,0,0,0-1.79-4.27c-1.64-.16-3,1.18-4,2.53a20.18,20.18,0,0,0-3.52,13.29,4,4,0,0,0,.7,2.18,1.56,1.56,0,0,0,2.06.4,2.25,2.25,0,0,0,.61-.93C249.05,117.6,249.78,112.77,253.14,108.56Z"/><path class="cls-3" d="M256.82,110c.44-1.18.81-2.71-.14-3.53a2.61,2.61,0,0,0-2.92.13,11,11,0,0,0-4.1,5.07,25.46,25.46,0,0,0-2.3,9.31,4.48,4.48,0,0,0,.4,2.54,1.77,1.77,0,0,0,2.2.85,2.66,2.66,0,0,0,1-1.29C252.9,119.16,254.84,115.22,256.82,110Z"/><path class="cls-5" d="M256.82,110c.44-1.18.81-2.71-.14-3.53a2.61,2.61,0,0,0-2.92.13,11,11,0,0,0-4.1,5.07,25.46,25.46,0,0,0-2.3,9.31,4.48,4.48,0,0,0,.4,2.54,1.77,1.77,0,0,0,2.2.85,2.66,2.66,0,0,0,1-1.29C252.9,119.16,254.84,115.22,256.82,110Z"/><path class="cls-3" d="M259.65,114.2a6.89,6.89,0,0,0,.53-2.43,2.35,2.35,0,0,0-1.18-2.06,2.21,2.21,0,0,0-2,.18,5,5,0,0,0-1.5,1.44,16,16,0,0,0-3.17,8.69,4.21,4.21,0,0,0,.2,1.8,1.71,1.71,0,0,0,1.33,1.11c.88.09,1.58-.71,2.08-1.44A29,29,0,0,0,259.65,114.2Z"/><path class="cls-5" d="M259.65,114.2a6.89,6.89,0,0,0,.53-2.43,2.35,2.35,0,0,0-1.18-2.06,2.21,2.21,0,0,0-2,.18,5,5,0,0,0-1.5,1.44,16,16,0,0,0-3.17,8.69,4.21,4.21,0,0,0,.2,1.8,1.71,1.71,0,0,0,1.33,1.11c.88.09,1.58-.71,2.08-1.44A29,29,0,0,0,259.65,114.2Z"/><path class="cls-3" d="M252.49,124.47a8.42,8.42,0,0,0-9-8,27,27,0,0,0-1.34-10.56c-.39-1.15-1.08-2.45-2.29-2.57a2.4,2.4,0,0,0-2.31,2,9,9,0,0,0,.21,3.34c.82,5.15-.32,10.45-2.26,15.29a67.6,67.6,0,0,1-3.24,6.76l3.64,3Z"/><path class="cls-5" d="M252.49,124.47a8.42,8.42,0,0,0-9-8,27,27,0,0,0-1.34-10.56c-.39-1.15-1.08-2.45-2.29-2.57a2.4,2.4,0,0,0-2.31,2,9,9,0,0,0,.21,3.34c.82,5.15-.32,10.45-2.26,15.29a67.6,67.6,0,0,1-3.24,6.76"/><path class="cls-3" d="M232.3,130.79c-1.28,2.39-2.65,4.74-4,7.12a186.3,186.3,0,0,0-14,31.12,168,168,0,0,0-7.72,36.37c-.59,5.87-.78,11.93,1.07,17.53s6.07,10.73,11.77,12.23c5.05,1.33,10.56-.37,14.73-3.52s7.15-7.61,9.57-12.24c6.13-11.71,9.08-24.9,10-38.09a150.44,150.44,0,0,0-2.62-38.81c-6.4-5.59-10.72-9.15-18.83-11.71"/><path class="cls-3" d="M230.45,134.14a60.07,60.07,0,0,1,21.41,12.39c-.23-1.35-.47-2.69-.73-4-6.4-5.59-10.72-9.15-18.83-11.71C231.7,131.92,231.07,133,230.45,134.14Z"/><path class="cls-3" d="M243.88,219.18a20.31,20.31,0,0,0-28.17,14.36,14.12,14.12,0,0,0,3.76,1.62c5.05,1.33,10.56-.37,14.73-3.52s7.15-7.61,9.57-12.24A1.51,1.51,0,0,0,243.88,219.18Z"/><path class="cls-3" d="M219.47,235.16c5.05,1.33,10.56-.37,14.73-3.52s7.08-7.52,9.49-12.09a47.12,47.12,0,0,1-17.4,2.68A25,25,0,0,1,206.22,212a33.63,33.63,0,0,0,1.48,10.9C209.54,228.54,213.77,233.66,219.47,235.16Z"/><path class="cls-5" d="M251.13,142.5c-6.4-5.59-10.72-9.15-18.83-11.71"/><path class="cls-5" d="M232.3,130.79c-1.28,2.39-2.65,4.74-4,7.12a186.3,186.3,0,0,0-14,31.12,168,168,0,0,0-7.72,36.37c-.59,5.87-.78,11.93,1.07,17.53s6.07,10.73,11.77,12.23c5.05,1.33,10.56-.37,14.73-3.52s7.15-7.61,9.57-12.24q1.39-2.67,2.58-5.43"/></g><path class="cls-7" d="M157.89,64.32c-17.79-5.43-35.71-10.88-54.22-12.95S65.8,50.82,49,58.79C33.51,66.19,20.92,78.88,12.45,93.6-8.31,129.69-2.63,178.53,25.88,209.14c17.32,18.59,41.27,30.12,65.8,37.65,41.41,12.72,87.66,14.82,127.4-2.26,31.62-13.6,57.68-39.19,71.37-70.2a132.9,132.9,0,0,0,3.07-98.9c-2.78-7.49-6.45-15-12.76-20-7.52-6-17.85-7.67-27.53-6.93-17,1.29-32.64,9.07-48.77,14.46S171,68.32,157.89,64.32Z"/><path class="cls-8" d="M235.69,220.52c8.33-11.58,4.86-31.08,4.86-31.08s-4.16-16.6-23.78-39.74-63.65-44.28-63.65-44.28l-1.43-14.65c13.58,6.18,25-2.73,25-2.73,18.8,3.53,19.77-8.07,19.77-8.07l-3.86-14.06c-12.41,2.17-24.75,1.44-34.68-1.59-12.14-3.71-24.35-7.42-36.77-10.07-17.22-.44-30.9-.23-31,1.54-.23,4.78-10.87,12.91-3.47,24.92S106.56,88,106.56,88c6.37,7.54,19.25,4.27,19.25,4.27,8.25,3.93,15.84-2.64,15.84-2.64l-1.3,15.75L51,128.46,27.53,170.68C24.87,217.11,74,214.5,74,214.5l1.23-1.85L85.75,216v2.08l-11.7,1c-1.12,4.58,2.3,4.39,2.3,4.39a3,3,0,0,0,2.19,3.47c-.49,4.81,6.93,5.18,6.93,5.18,1.19,6.51,8,.15,8,.15l-1,14.75c39.57,12,83.46,14.3,121.85-.55l-3.6-15.08S227.37,232.09,235.69,220.52ZM93,203.07s-29.46-38.4-18.28-38.64,21.14-6.78,21.14-6.78Z"/><path class="cls-9" d="M275.21,36.25C265.35-2,210.46-1.82,197.65,32.44c-7.86,21-1.11,36,11.18,44.37-1.22,2.79-2.59,5.62-3.87,9.37a38.06,38.06,0,0,0,12.78-4.72C245.3,92.06,286,78.08,275.21,36.25Z"/><path class="cls-8" d="M276.9,46.66c-23.5,20.2-59.76,23-75.71,23.12a35,35,0,0,0,7.64,7c-1.22,2.79-2.59,5.62-3.87,9.37a38.06,38.06,0,0,0,12.78-4.72C242.87,91.12,278.92,80.35,276.9,46.66Z"/><path class="cls-10" d="M211.29,14.82a38.22,38.22,0,0,0-3.68,2.94"/><path class="cls-10" d="M203.77,21.77a37.16,37.16,0,0,0-6.12,10.67c-7.86,21-1.11,36,11.18,44.37-1.22,2.79-2.59,5.62-3.87,9.37a38.06,38.06,0,0,0,12.78-4.72c27.56,10.6,68.26-3.38,57.47-45.21-6.57-25.47-33.12-33.9-53.91-26.56"/><path class="cls-11" d="M229.42,53.11a5.36,5.36,0,0,1-1.88-1.89,6,6,0,0,1-.89-3.24,3.56,3.56,0,0,1,.95-2.73,6.3,6.3,0,0,1,2.83-1.39L235,42.73q2.91-.78,2.91-2.82A2.41,2.41,0,0,0,236.8,38a6.31,6.31,0,0,0-3.71-.8,15.94,15.94,0,0,0-4.5.64,13.6,13.6,0,0,0-3.39,1.45,7.25,7.25,0,0,1-1.7-1.83,4.75,4.75,0,0,1-.72-2.6,4.3,4.3,0,0,1,.87-2.67,6.44,6.44,0,0,1,2.41-1.88,14,14,0,0,1,3.68-1.1,29.36,29.36,0,0,1,4.71-.38q6.9,0,10.45,3a10.15,10.15,0,0,1,3.58,8q0,9.36-13.15,12.06Zm-1.89,7.67a5.24,5.24,0,0,1,5.59-5.53,5.51,5.51,0,1,1,.06,11,5.23,5.23,0,0,1-5.65-5.47Z"/><path class="cls-12" d="M144.56,83.33a16.66,16.66,0,0,1-19.25,5c-5.38,3.06-12.75,2.07-18.77-3.62-5.75.74-11.87-.25-16.6-3.59s-6.35-8.82-5.52-14.55C84.94,63,87.5,59.68,88,56.12c.44-3.3-2.5-6.94-3.17-10.2s-1.17-6.7-.13-9.87,4.07-5.9,7-5.48a12.16,12.16,0,0,1,5.68-9.46A11,11,0,0,1,108.71,21,20.38,20.38,0,0,1,120.27,8c5.54-2.31,12.12-2,17,2.18A16.7,16.7,0,0,1,152.12,0c6.36-.11,12.6,3.88,15.43,10.7,4.81-1.43,10.31-1,14.44,1.79a12.91,12.91,0,0,1,5.12,13.67,6.75,6.75,0,0,1,7.18,6.31c.06,2.51-1.32,5.09-.44,7.43.74,2,2.81,3,4.09,4.69a9.08,9.08,0,0,1,1.45,7.08c-.41,2.44-1.48,4.72-2.57,8.16a16.72,16.72,0,0,1,.3,21.37c-5.07,5.92-14.67,7.27-22.13,3a16.59,16.59,0,0,1-13.05,6.54C156.89,90.78,151.91,88.3,144.56,83.33Z"/><path class="cls-13" d="M139.43,78c-.68,7.31-1.36,14.63-1.43,22.11a43.72,43.72,0,0,0,16.22.77,219.35,219.35,0,0,1-.53-22.79Z"/><path class="cls-14" d="M139.43,78c-.26,2.79-.51,5.58-.73,8.37a23.45,23.45,0,0,0,14.93.73c0-3,0-6,.06-9Z"/><path class="cls-13" d="M113.19,47.08a11.27,11.27,0,0,0-13.35-5.86,12.29,12.29,0,0,0-8.12,12.39,13.51,13.51,0,0,0,9.64,11.51A15,15,0,0,0,116,61Z"/><path class="cls-10" d="M98.22,52.05a9.19,9.19,0,0,1,11.23-2.33"/><path class="cls-10" d="M106.91,57.65a8.72,8.72,0,0,1-3.38-8.75"/><path class="cls-15" d="M97.71,63.42a9.2,9.2,0,0,0-1.22,4.2,6.83,6.83,0,0,0,2,5.11A5.31,5.31,0,0,0,103.63,74a5.76,5.76,0,0,0,3.59-5.71A9.58,9.58,0,0,0,104,62"/><path class="cls-13" d="M175.34,49.26c2.13-4.87,8.28-7.48,13.35-5.85a12.28,12.28,0,0,1,8.11,12.38,13.51,13.51,0,0,1-9.64,11.51,15,15,0,0,1-14.62-4.15Z"/><path class="cls-10" d="M190.3,54.24a9.18,9.18,0,0,0-11.22-2.34"/><path class="cls-10" d="M181.61,59.84A8.76,8.76,0,0,0,185,51.08"/><path class="cls-15" d="M178.7,66.91A8.81,8.81,0,0,0,178,70,6.83,6.83,0,0,0,180,75.09a5.28,5.28,0,0,0,5.19,1.31,5.75,5.75,0,0,0,3.58-5.71,9.53,9.53,0,0,0-3.18-6.3"/><path class="cls-13" d="M176.64,47.64a43,43,0,0,1-10.2,29c-3.24,3.79-7.29,7.07-12.08,8.43a25.14,25.14,0,0,1-12.6-.13,38.29,38.29,0,0,1-21.22-13.38,35.33,35.33,0,0,1-7.35-24.43c1.86,1.22,4.52.25,5.89-1.5s1.78-4,2.44-6.8a10.31,10.31,0,0,0,5.92-4,11.91,11.91,0,0,0,2.09-7.07,9.71,9.71,0,0,0,8.26,8.9A10.16,10.16,0,0,0,148,30.5a14.68,14.68,0,0,0,1.4,4.76c.35.71.93,1.48,1.71,1.38s1.18-1.12,1.08-1.94a13.67,13.67,0,0,1-.41-2.44,7,7,0,0,0,6.44,4.79,7.47,7.47,0,0,0,6.69-4.62A7.54,7.54,0,0,0,168,37.94a8.84,8.84,0,0,0,5.93,1.49,5.56,5.56,0,0,0-.45,4.61A7.07,7.07,0,0,0,176.64,47.64Z"/><path class="cls-16" d="M167.82,69.43a6.42,6.42,0,0,0-7.69,10.27,6.1,6.1,0,0,0,2.14,1,33.81,33.81,0,0,0,4.17-4.12A40.73,40.73,0,0,0,169.82,72,6,6,0,0,0,167.82,69.43Z"/><path class="cls-16" d="M120.54,71.51a36.37,36.37,0,0,0,7.4,7,6.06,6.06,0,0,0,2.72-1.93,6.41,6.41,0,1,0-10.2-7.78,5.56,5.56,0,0,0-.78,1.51C120,70.75,120.25,71.13,120.54,71.51Z"/><path class="cls-10" d="M170.84,55.24a18.29,18.29,0,0,0-2.53-3,7.84,7.84,0,0,1-11.09.28"/><path class="cls-10" d="M165.45,54.12c.4,1,.77,2,1.17,3"/><path class="cls-10" d="M162.5,54.64c0,1,.05,2,.09,3"/><path class="cls-10" d="M157.38,45.85a23.45,23.45,0,0,1,10.41,1.68"/><path class="cls-10" d="M124.16,54.91a17.77,17.77,0,0,1,2.52-3,7.86,7.86,0,0,0,11.1.27"/><path class="cls-10" d="M129.55,53.78c-.4,1-.78,2-1.18,3"/><path class="cls-10" d="M132.5,54.31l-.09,2.95"/><path class="cls-10" d="M124.92,45a8.29,8.29,0,0,1,14-.35"/><path class="cls-10" d="M148.73,50.48a22.22,22.22,0,0,1,4.39,6.27,19,19,0,0,0-3.84.12"/><path class="cls-10" d="M147.92,63.82a32.49,32.49,0,0,1-12.54-1.46"/><path class="cls-17" d="M222.39,183.08c2.86-9.05,1.93-18.9-1.15-27.88S213,138,207.51,130.14c-5.86-8.29-12.45-16.46-21-22.1,0,0-5.81,65.11,15.16,91.31Z"/><path class="cls-17" d="M102.64,150.75A82.07,82.07,0,0,1,71.38,161.5s-14.57-2.39-22.75-6.79-16-16.24-16-16.24a64,64,0,0,1,13.74-16c12.13-10.2,27.58-16.33,43.4-19.63q5.3-1.1,10.65-1.82Z"/><path class="cls-8" d="M62.69,159.66c4.85,1.21,8.69,1.84,8.69,1.84a82.07,82.07,0,0,0,31.26-10.75l-.47-10.52a14.76,14.76,0,0,0-1.76,1.31c-12.52,10.81-36.32,13.4-36.32,13.4S63.48,157,62.69,159.66Z"/><path class="cls-17" d="M208.53,248.56a643.38,643.38,0,0,0-15.34-105.81L186.46,108q-1.59-1-3.3-2a51.12,51.12,0,0,0-5.52-2.56L150.8,117.92l-37-18.3c-4.48.33-9,.77-13.39,1.39l.22,37.46C98,175,96.43,211.67,96.24,248.13,132.82,258.59,172.8,260.65,208.53,248.56Z"/><path class="cls-8" d="M199.83,175.34c-2.24,6-7.39,21.75-5.56,37a25.63,25.63,0,0,0,13.07,20Q204.87,203.65,199.83,175.34Z"/><path class="cls-10" d="M208.54,248.56a643.4,643.4,0,0,0-15.35-105.81"/><path class="cls-10" d="M100.63,138.47C98,175,96.41,211.67,96.22,248.13"/><path class="cls-18" d="M174.41,102.36,148.73,114,117.11,99.42c-1.1.06-2.21.12-3.31.2,2.41,9.26,6.76,18.19,13.82,24.6,7.49,6.81,18.37,10.36,28.07,7.46,6.82-2,12.52-7,16.27-13.1a45.45,45.45,0,0,0,5.68-15.08C176.58,103.09,175.5,102.71,174.41,102.36Z"/><path class="cls-13" d="M162.31,125A28.67,28.67,0,0,0,171,113.14a69.45,69.45,0,0,0,3.37-10.78c-11.41-3.68-24.12-3.84-36.33-3.66-7,.1-14,.28-21,.71a47.42,47.42,0,0,0,7.76,17.12A32.14,32.14,0,0,0,142,128.6C148.88,130.4,156.61,129.29,162.31,125Z"/><path class="cls-13" d="M86.44,217.05a7.92,7.92,0,0,1-5,.48,22.57,22.57,0,0,0-5-.58c-1,.07-2.18.51-2.41,1.5a1.84,1.84,0,0,0,.57,1.64,4.1,4.1,0,0,0,1.55.91c3.77,1.44,8,1.08,11.9-.06Z"/><path class="cls-10" d="M86.44,217.05a7.92,7.92,0,0,1-5,.48,22.57,22.57,0,0,0-5-.58c-1,.07-2.18.51-2.41,1.5a1.84,1.84,0,0,0,.57,1.64,4.1,4.1,0,0,0,1.55.91c3.77,1.44,8,1.08,11.9-.06Z"/><path class="cls-13" d="M88.49,220.65a22.68,22.68,0,0,1-8.49.41,7.19,7.19,0,0,0-2.12-.12,2,2,0,0,0-1.65,1.17,2,2,0,0,0,.6,2,4.77,4.77,0,0,0,2,1,16.46,16.46,0,0,0,12.63-1.66Z"/><path class="cls-10" d="M88.49,220.65a22.68,22.68,0,0,1-8.49.41,7.19,7.19,0,0,0-2.12-.12,2,2,0,0,0-1.65,1.17,2,2,0,0,0,.6,2,4.77,4.77,0,0,0,2,1,16.46,16.46,0,0,0,12.63-1.66Z"/><path class="cls-13" d="M90.37,223.47a21.06,21.06,0,0,1-8.16,1.42,6.28,6.28,0,0,0-2.41.2,1.81,1.81,0,0,0-1.26,1.85,2.37,2.37,0,0,0,1.57,1.51,12.52,12.52,0,0,0,12.87-2Z"/><path class="cls-10" d="M90.37,223.47a21.06,21.06,0,0,1-8.16,1.42,6.28,6.28,0,0,0-2.41.2,1.81,1.81,0,0,0-1.26,1.85,2.37,2.37,0,0,0,1.57,1.51,12.52,12.52,0,0,0,12.87-2Z"/><path class="cls-13" d="M91.05,191.52c.89,1.94,1.8,3.85,2.79,5.73,3.19,6.09,7.24,12.4,6.47,19.23-.71,6.41-5.55,11.58-10.67,15.49a5.08,5.08,0,0,1-2.14,1.12,1.82,1.82,0,0,1-2-1,2.56,2.56,0,0,1,.66-2.27,15.41,15.41,0,0,1,4.7-4.47,13.5,13.5,0,0,1-6.86-11,88.77,88.77,0,0,1-11.21-6.6"/><path class="cls-10" d="M91.05,191.52c.89,1.94,1.8,3.85,2.79,5.73,3.19,6.09,7.24,12.4,6.47,19.23-.71,6.41-5.55,11.58-10.67,15.49a5.08,5.08,0,0,1-2.14,1.12,1.82,1.82,0,0,1-2-1,2.56,2.56,0,0,1,.66-2.27,15.41,15.41,0,0,1,4.7-4.47,13.5,13.5,0,0,1-6.86-11"/><path class="cls-17" d="M32.62,138.47a50.25,50.25,0,0,0-7.42,24.14,47,47,0,0,0,13.21,33.71,49.84,49.84,0,0,0,34.34,15,70.33,70.33,0,0,0,18.3-19.82h0c-2.83-6.2-5.32-12.57-8.64-18.52-4.36-7.8-10.52-15.08-18.87-18.29Z"/><path class="cls-18" d="M91.05,191.52c-.63-1.38-1.25-2.78-1.86-4.17a73.27,73.27,0,0,1-22.7,23.42,46.53,46.53,0,0,0,6.26.57,70.33,70.33,0,0,0,18.3-19.82Z"/><path class="cls-19" d="M30.53,142.32a48.89,48.89,0,0,0-5.33,20.29,45.48,45.48,0,0,0,2.44,16c7.52-2.09,13.67-8.88,14.5-16.64A19.89,19.89,0,0,0,30.53,142.32Z"/><path class="cls-8" d="M25.33,167.53a47.27,47.27,0,0,0,13.08,28.79,49.84,49.84,0,0,0,34.34,15,70.26,70.26,0,0,0,7-5.89C51,200,33.41,179.57,25.33,167.53Z"/><path class="cls-10" d="M25.2,162.61a47,47,0,0,0,13.21,33.71,49.84,49.84,0,0,0,34.34,15,70.33,70.33,0,0,0,18.3-19.82h0c-2.83-6.2-5.32-12.57-8.64-18.52-4.36-7.8-10.52-15.08-18.87-18.29"/><path class="cls-13" d="M242,135.91c.39-3.84,2.33-7.34,4.4-10.6s4.33-6.47,5.51-10.14,1.1-8-1.28-11.06l-9.91-4.57a54.28,54.28,0,0,0,.81-15.16,5.2,5.2,0,0,0-.69-2.52,1.9,1.9,0,0,0-2.28-.8c-.82.41-1,1.45-1.15,2.36l-2.79,21.36-6.85,20.85Z"/><path class="cls-13" d="M245,100.37a2.68,2.68,0,0,0,.37-2.67,2.71,2.71,0,0,0-2.16-1.6c-1.64-.16-3,1.18-4,2.53a20.18,20.18,0,0,0-3.52,13.29,4,4,0,0,0,.7,2.18,1.56,1.56,0,0,0,2.06.4,2.25,2.25,0,0,0,.61-.93C240.86,109.41,241.59,104.58,245,100.37Z"/><path class="cls-10" d="M245,100.37a2.68,2.68,0,0,0,.37-2.67,2.71,2.71,0,0,0-2.16-1.6c-1.64-.16-3,1.18-4,2.53a20.18,20.18,0,0,0-3.52,13.29,4,4,0,0,0,.7,2.18,1.56,1.56,0,0,0,2.06.4,2.25,2.25,0,0,0,.61-.93C240.86,109.41,241.59,104.58,245,100.37Z"/><path class="cls-13" d="M248.63,101.83c.44-1.18.81-2.71-.14-3.53a2.61,2.61,0,0,0-2.92.13,11,11,0,0,0-4.1,5.07,25.46,25.46,0,0,0-2.3,9.31,4.48,4.48,0,0,0,.4,2.54,1.77,1.77,0,0,0,2.2.85,2.66,2.66,0,0,0,1-1.29C244.71,111,246.65,107,248.63,101.83Z"/><path class="cls-10" d="M248.63,101.83c.44-1.18.81-2.71-.14-3.53a2.61,2.61,0,0,0-2.92.13,11,11,0,0,0-4.1,5.07,25.46,25.46,0,0,0-2.3,9.31,4.48,4.48,0,0,0,.4,2.54,1.77,1.77,0,0,0,2.2.85,2.66,2.66,0,0,0,1-1.29C244.71,111,246.65,107,248.63,101.83Z"/><path class="cls-13" d="M251.46,106a6.89,6.89,0,0,0,.53-2.43,2.35,2.35,0,0,0-1.18-2.06,2.21,2.21,0,0,0-2,.18,5,5,0,0,0-1.5,1.44,16,16,0,0,0-3.17,8.69,4.21,4.21,0,0,0,.2,1.8,1.71,1.71,0,0,0,1.33,1.11c.88.09,1.58-.71,2.08-1.44A29,29,0,0,0,251.46,106Z"/><path class="cls-10" d="M251.46,106a6.89,6.89,0,0,0,.53-2.43,2.35,2.35,0,0,0-1.18-2.06,2.21,2.21,0,0,0-2,.18,5,5,0,0,0-1.5,1.44,16,16,0,0,0-3.17,8.69,4.21,4.21,0,0,0,.2,1.8,1.71,1.71,0,0,0,1.33,1.11c.88.09,1.58-.71,2.08-1.44A29,29,0,0,0,251.46,106Z"/><path class="cls-13" d="M244.3,116.28a8.42,8.42,0,0,0-9-8A27,27,0,0,0,234,97.76c-.39-1.16-1.08-2.46-2.29-2.58a2.4,2.4,0,0,0-2.31,2,9,9,0,0,0,.21,3.34c.82,5.15-.32,10.45-2.26,15.29a67.6,67.6,0,0,1-3.24,6.76l3.64,3Z"/><path class="cls-10" d="M244.3,116.28a8.42,8.42,0,0,0-9-8A27,27,0,0,0,234,97.76c-.39-1.16-1.08-2.46-2.29-2.58a2.4,2.4,0,0,0-2.31,2,9,9,0,0,0,.21,3.34c.82,5.15-.32,10.45-2.26,15.29a67.6,67.6,0,0,1-3.24,6.76"/><path class="cls-17" d="M224.11,122.6c-1.28,2.39-2.65,4.74-4,7.12a186.3,186.3,0,0,0-14,31.12,168,168,0,0,0-7.72,36.37c-.59,5.87-.78,11.93,1.07,17.53s6.07,10.73,11.77,12.23c5.05,1.33,10.56-.37,14.73-3.52s7.15-7.61,9.57-12.24c6.13-11.71,9.08-24.9,10-38.09a150.44,150.44,0,0,0-2.62-38.81c-6.4-5.59-10.72-9.15-18.83-11.71"/><path class="cls-18" d="M222.26,126a60.07,60.07,0,0,1,21.41,12.39c-.23-1.35-.47-2.69-.73-4-6.4-5.59-10.72-9.15-18.83-11.71C223.51,123.73,222.88,124.84,222.26,126Z"/><path class="cls-20" d="M235.69,211a20.31,20.31,0,0,0-28.17,14.36,14.12,14.12,0,0,0,3.76,1.62c5.05,1.33,10.56-.37,14.73-3.52s7.15-7.61,9.57-12.24A1.51,1.51,0,0,0,235.69,211Z"/><path class="cls-19" d="M211.28,227c5.05,1.33,10.56-.37,14.73-3.52s7.08-7.52,9.49-12.09A47.12,47.12,0,0,1,218.1,214,24.94,24.94,0,0,1,198,203.84a33.35,33.35,0,0,0,1.47,10.9C201.35,220.35,205.58,225.47,211.28,227Z"/><path class="cls-10" d="M242.94,134.31c-6.4-5.59-10.72-9.15-18.83-11.71"/><path class="cls-10" d="M224.11,122.6c-1.28,2.39-2.65,4.74-4,7.12a186.3,186.3,0,0,0-14,31.12,168,168,0,0,0-7.72,36.37c-.59,5.87-.78,11.93,1.07,17.53s6.07,10.73,11.77,12.23c5.05,1.33,10.56-.37,14.73-3.52s7.15-7.61,9.57-12.24q1.39-2.67,2.58-5.43"/></g></g></svg>