<svg id="Capa_1" data-name="Capa 1" xmlns="http://www.w3.org/2000/svg" viewBox="0 0 253 290"><defs><style>.cls-1{fill:#333;}</style></defs><path class="cls-1" d="M154.08,213.27H99.5a44,44,0,0,1-43.92-43.92V121.26A44,44,0,0,1,99.5,77.33h54.58A44,44,0,0,1,198,121.26v48.09A44,44,0,0,1,154.08,213.27ZM99.5,87.09a34.21,34.21,0,0,0-34.16,34.17v48.09A34.2,34.2,0,0,0,99.5,203.51h54.58a34.2,34.2,0,0,0,34.16-34.16V121.26a34.21,34.21,0,0,0-34.16-34.17Z"/><path class="cls-1" d="M126.79,184.4a39.1,39.1,0,1,1,39.1-39.1A39.14,39.14,0,0,1,126.79,184.4Zm0-68.44a29.34,29.34,0,1,0,29.34,29.34A29.37,29.37,0,0,0,126.79,116Z"/><path class="cls-1" d="M173.4,107.4a8.11,8.11,0,1,1-8.11-8.11A8.11,8.11,0,0,1,173.4,107.4Z"/></svg>