<svg id="Capa_1" data-name="Capa 1" xmlns="http://www.w3.org/2000/svg" viewBox="0 0 253 290"><defs><style>.cls-1{fill:#333;}.cls-2{fill:#fff;}</style></defs><path class="cls-1" d="M177.29,120.47a16.05,16.05,0,0,1-4.65.61l.09-.49c2.42-2,8.53-7.89,9.33-10.67.35-1.2-.06-1.62-.06-1.66l-7.8,3.31-6.53,3h0a26,26,0,0,0-18.95-7.81c-13.57,0-24.57,9.61-24.57,21.47a31.87,31.87,0,0,0,1,8.1c0,.62,0-.62,0,0-8.73-.24-19.93-3.82-29.9-8.87-19.67-10-20.91-16.87-20.91-16.87-3.09,3.28-4.68,14.14-1.55,22.66,2,5.45,8.9,10.35,8.9,10.35h0a21.06,21.06,0,0,1-6.31-1,14,14,0,0,1-4.45-2.17c-1.92,4.68,1.93,13,8.59,19,3.88,3.5,11,5.69,11,5.69l-11.07.31C78.79,176.14,102,182.53,102,182.53h0C95.18,187.76,87.3,191,78.84,191a44.05,44.05,0,0,1-12.63-1.86c11.17,9.2,25.52,15.55,41.13,14.73,41.4-2.17,64.78-37.76,65.89-72.72l.05.08s1.95-1,6.09-5.12a42.88,42.88,0,0,0,6.73-9S179.9,119.76,177.29,120.47Z"/><path class="cls-2" d="M182,108.26c0,.66,0,.07,0,0Z"/></svg>