<?xml version="1.0" encoding="utf-8"?>
<!-- Generator: Adobe Illustrator 24.1.1, SVG Export Plug-In . SVG Version: 6.00 Build 0)  -->
<svg version="1.1" id="Capa_1" xmlns="http://www.w3.org/2000/svg" xmlns:xlink="http://www.w3.org/1999/xlink" x="0px" y="0px"
	 viewBox="0 0 499.15 538.23" style="enable-background:new 0 0 499.15 538.23;" xml:space="preserve">
<style type="text/css">
	.st0{fill:#3DA035;}
	.st1{opacity:0.15;fill:#131039;}
	.st2{fill:#FF614C;}
	.st3{fill:#FF4E42;}
	.st4{fill:none;stroke:#2C2355;stroke-width:2.0384;stroke-linecap:round;stroke-linejoin:round;stroke-miterlimit:10;}
	.st5{fill:#F75546;}
	.st6{fill:#FFFFFF;}
	.st7{fill:#E0E0E0;}
	.st8{fill:#65318A;stroke:#2C2355;stroke-width:1.5;stroke-miterlimit:10;}
	.st9{fill:#F32B36;stroke:#2C2355;stroke-width:1.5;stroke-miterlimit:10;}
	.st10{fill:#105699;stroke:#2C2355;stroke-width:1.5;stroke-miterlimit:10;}
	.st11{fill:#FADE41;stroke:#2C2355;stroke-width:1.5;stroke-miterlimit:10;}
	.st12{fill:#F8952E;stroke:#2C2355;stroke-width:1.5;stroke-miterlimit:10;}
	.st13{fill:#F44DB0;stroke:#2C2355;stroke-width:1.5;stroke-miterlimit:10;}
	.st14{fill:#16954D;stroke:#2C2355;stroke-width:1.5;stroke-miterlimit:10;}
	.st15{fill:#168AA5;}
	.st16{fill:#B5474F;}
	.st17{opacity:0.15;fill:#005759;}
	.st18{fill:#C3565E;}
	.st19{fill:none;stroke:#2C2355;stroke-width:2.2637;stroke-linecap:round;stroke-linejoin:round;stroke-miterlimit:10;}
	.st20{fill:#FADE41;stroke:#2C2355;stroke-width:2;stroke-miterlimit:10;}
	.st21{fill:#2C2355;stroke:#2C2355;stroke-width:2.0384;stroke-linecap:round;stroke-linejoin:round;stroke-miterlimit:10;}
	.st22{fill:none;stroke:#2C2355;stroke-width:2.131;stroke-linecap:round;stroke-linejoin:round;stroke-miterlimit:10;}
</style>
<g>
	<g>
		<path class="st0" d="M287.25,466.07C175.03,496.7,41.48,427.24,7.1,300.97c-24.82-82.87,17.15-187.58,98.66-202.01
			c46.45-8.23,93.49,15.78,140.25,10.06c53.8-6.57,101.79-51.94,155.65-45.92c47.86,5.35,95.09,68.54,97.13,121.96
			C505.98,373.69,404.11,434.17,287.25,466.07z"/>
		<path class="st1" d="M273.38,163.54c0,0,34,2.96,49.73-40.32c0,0,19.49,2.82,20.83-24.06L327.96,79.5
			c-26.84,11.82-53.59,26.06-81.96,29.53c-28.1,3.43-56.3-3.86-84.42-8.45c0.48,7.98,4.71,30.2,37.46,24.05
			c0,0,8.06,27.42,37.3,36.69l1.41,14.52c0,0-94.35,19.15-117.74,84.88c-23.39,65.72-20.97,118.14-9.27,145.96
			c11.69,27.82,52.01,31.45,52.01,31.45l-3.93,22.62c13.41,4.59,27.16,7.96,41.04,10.04l109.38-11.14
			c31.34-9.83,61.11-22.27,87.4-39.36l11.53-53.26L273.24,174.56L273.38,163.54z"/>
	</g>
	<g>
		<g>
			<path class="st16" d="M246.16,152.59c-0.08,8.57-0.17,17.14,1.48,25.22c8.97,5.52,21.04,5.53,30.3-1.14
				c-0.3-9.45-0.61-18.91-0.91-28.36L246.16,152.59z"/>
			<path class="st17" d="M277.48,162.35c-0.15-4.68-0.3-9.36-0.45-14.04l-30.87,4.28c-0.03,3.39-0.06,6.77,0.01,10.13
				C252.75,164.88,264.93,167.4,277.48,162.35z"/>
		</g>
		<g>
			<path d="M331.6,82.39c4.59-8.25,8.39-17.14,9.35-26.53s-1.2-19.39-7.36-26.55c-6.16-7.15-16.69-10.79-25.53-7.46
				c-7.09-11.9-20.76-20.73-35.22-21.75c-14.46-1.02-29.23,5.81-37.82,17.48c0.73-2.41,0.77-5.2,0.08-7.8
				c-0.28-1.05-0.83-2.21-1.9-2.42c-1.23-0.24-2.24,0.92-2.9,1.99c-1.76,2.85-3.12,5.96-4.01,9.2c-1.85-2.67-2.83-5.13-4.29-7.27
				c-0.44-0.64-1.07-1.32-1.84-1.25c-0.89,0.09-1.35,1.09-1.53,1.97c-0.42,2.06-0.25,4.23,0.5,6.2
				c-10.01-0.4-18.97,4.17-24.52,11.15c-5.56,6.98-8,16.04-8.3,24.96c-0.29,8.91,1.42,17.77,3.66,27.87
				c3.82,8.36,10.9,14.94,18.92,19.42c8.02,4.48,16.98,7.03,25.98,8.9c16.12,3.36,32.92,4.65,49.03,1.27
				C300.01,108.37,320,103.25,331.6,82.39z"/>
			<g>
				<g>
					<path class="st16" d="M203.72,80.39c-5.63-6.75-15.73-9.25-23.94-6.11c-8.21,3.14-14.02,11.58-14.26,20.36
						c-0.24,8.79,4.99,17.43,12.77,21.51c7.78,4.08,17.73,3.51,25.13-1.23L203.72,80.39z"/>
					<g>
						<path class="st4" d="M177.95,95.33c4.52-5.56,12.12-8.42,19.18-7.23"/>
						<path class="st4" d="M186.73,89.14c0.67,5.26,3.34,10.25,7.38,13.7"/>
					</g>
				</g>
				<path class="st16" d="M321.8,73.39c4.88-2.46,11.07-1.7,15.55,1.42c4.49,3.12,7.29,8.35,8.02,13.77
					c0.94,6.98-1.5,14.34-6.43,19.37c-4.93,5.03-12.23,7.63-19.23,6.84L321.8,73.39z"/>
				<g>
					<path class="st16" d="M203.72,80.39c2.26,3.32,5.11,6.86,9.1,7.23c3.58,0.33,6.81-2.05,9.42-4.53
						c7.31-6.94,12.86-15.7,16.3-24.07c4.22,7.62,8.48,15.29,13.98,22.05c5.5,6.76,12.37,12.63,20.53,15.67
						c3.52,1.31,7.67,2.02,10.87,0.06c2.45-1.5,3.84-4.32,4.3-7.15c0.45-2.84,0.08-5.73,0.38-9.7c3.83,6.61,12.07,10.35,19.57,8.87
						c7.5-1.48,13.7-8.07,13.64-15.44c5.87,18.63,3.23,39.82-7.3,56.27c-10.53,16.45-28.83,27.75-48.28,29.49
						c-19.45,1.74-39.6-6.25-52.33-21.06C201.15,123.28,196.29,101.98,203.72,80.39z"/>
					<g>
						<path class="st18" d="M316.42,126.45c-4.34-4.66-12.07-6-17.59-2.69c-6.18,3.7-8.53,12.6-4.99,18.87
							c1.01,1.79,2.46,3.27,4.15,4.4c6.51-4.72,12.18-10.6,16.51-17.37C315.17,128.61,315.81,127.54,316.42,126.45z"/>
						<path class="st18" d="M228.3,148.69c7.68-4.07,9.12-13.8,5.26-19.88c-3.87-6.07-12.82-8.19-19-4.48
							c-2.63,1.58-4.57,4.11-5.65,6.97c1.49,2.38,3.14,4.66,4.97,6.79c3.75,4.37,8.17,8.12,13,11.23
							C227.37,149.13,227.84,148.93,228.3,148.69z"/>
					</g>
					<g>
						<path class="st4" d="M231.98,96.95c5.3-3.87,13.18-3.72,18.33,0.34"/>
						<path class="st4" d="M293.61,98.17c2.68-2.06,6.09-3.16,9.47-3.05c3.38,0.11,6.71,1.42,9.26,3.64"/>
						<path class="st4" d="M275.85,96.75c1.92,4.28,3.84,8.56,5.16,13.53c-2.32,0.21-4.64,0.43-6.96,0.64"/>
						<path class="st4" d="M250.02,121.92c4.69,1.79,9.41,3.59,14.35,4.43c4.95,0.84,10.19,0.65,14.76-1.41"/>
					</g>
				</g>
			</g>
		</g>
	</g>
	<g>
		<path class="st6" d="M356.09,239.4c0.48-4.1-13.88-55.54-13.88-55.54c-4.71-2.01-9.71-3.82-14.87-5.42
			c-0.94,3.01-61.96,34.28-61.96,34.28l-71.84-29.09c-2.74,1.11-5.44,2.32-8.08,3.67l7.78,64.77
			c-3.12,70.85-9.82,141.55-21.23,212.74c37.79,10.53,77.71,11.49,115.23,1.25c30.79-8.4,60.53-18.8,87.51-32.99
			C376.47,368.08,370.21,302.88,356.09,239.4z"/>
		<path class="st7" d="M327.34,178.44c-18.51-5.73-39.26-8.51-57.46-6.04l-17.07,0.61c-19.81,0.69-40.6,3.07-59.28,10.62
			c9.43,17.13,24.31,31.44,42.39,38.88c18.65,7.68,40.63,7.65,58.66-1.37C311.22,212.83,323.94,196.65,327.34,178.44z"/>
		<path class="st16" d="M304.8,173.21c-11.86-1.85-23.86-2.3-34.92-0.8l-17.07,0.61c-12.89,0.45-26.2,1.62-39.07,4.46
			c10.19,15.62,29.1,25.27,47.75,24.05C279.49,200.35,296.38,189.1,304.8,173.21z"/>
		<g>
			<path class="st7" d="M368.42,276.29c-27.73-8.34-66.8-7.98-96.54-1.74c-14.02,2.94-27.75,7.3-41.91,9.41
				c-14.17,2.11-29.16,1.82-42.15-4.22l-2.36,28.07c20.26,6.08,41.98,5.07,62.91,2.03c20.93-3.05,41.59-8.07,62.66-9.87
				c21.08-1.8,43.06-0.17,61.92,9.41L368.42,276.29z"/>
		</g>
		<path class="st1" d="M373.12,357.43c-0.75-10.91-1.7-21.8-2.9-32.67c-33.35,15.63-108.65,46.8-186.32,50.87
			c-2.26,20.87-4.84,41.75-7.85,62.67c14.55,2.14,52.68,6.35,83.22-2.59c38.57-11.29,51.06-27.42,55.9-49.19
			c0,0,7.84-2.62,11.58-5.44c3.74-2.82,7.17-10.47,6.97-12.39l26.34-8.91C365.2,358.09,369.95,357.57,373.12,357.43z"/>
	</g>
	<g>
		<g>
			<path class="st6" d="M403.77,355.26c1.84-44.19-1.39-80.16-18.81-123.42c-8.91-22.12-20.83-38.63-42.75-47.98l11.99,154.26
				c0,0,14.98,66.12,49.57,81.72V355.26z"/>
			<path class="st1" d="M390.42,410.63c4.08,3.83,8.52,7.03,13.35,9.21v-64.58c0.14-3.36,0.24-6.67,0.32-9.94l-22.19-10.21
				l-24.1,15.9c0,0,0,0,0,0c0.01,0.01,8.1,6.11,15.33,6.41c7.23,0.31,16.9-0.2,16.9-0.2C382.99,381.67,388.22,401.83,390.42,410.63z
				"/>
		</g>
		<g>
			<path class="st6" d="M399.81,338.96c-2.93,19.15-10.61,41.11-6.04,60.1c2.37,9.83,7.05,19.68,15.69,26.1
				c8.64,6.42,21.87,8.44,30.89,2.72c7.19-4.56,9.35-13.02,12.2-20.5c13.42-35.28,0.37-78.7-29.69-110.85
				c-6.33-6.77-26.75-0.41-35.53-0.39C385.76,309.37,402.22,323.22,399.81,338.96z"/>
			<path class="st16" d="M429.69,304.42c-2.17-2.69-4.69-6.57-7.09-9.13c-3.92-4.2-13.02-2.1-21.65-0.85
				c2.85,8.25,9.72,24.64,9.72,24.64s14.36,1.97,18.98-14.51C429.67,304.52,429.68,304.47,429.69,304.42z"/>
			<path class="st7" d="M440.35,427.88c4.16-2.64,6.93-6.51,8.92-10.79c-0.06-0.73-0.15-1.46-0.31-2.18
				c-1.84-8.18-10.28-14.8-19.47-15.41c-9.19-0.61-18.35,4.77-21.54,12.54c-1.47,3.59-1.62,7.55-0.66,11.3
				c0.71,0.62,1.41,1.25,2.17,1.82C418.09,431.57,431.33,433.6,440.35,427.88z"/>
			<path class="st1" d="M452.55,407.37c0.85-3.47,1.53-6.98,2.05-10.5c-3.74,7.51-11.39,19.47-23.22,22.44
				c-12.88,3.23-25.41-1.62-31.19-4.45c2.42,3.9,5.43,7.44,9.27,10.29c8.64,6.42,21.87,8.44,30.89,2.72
				C447.54,423.32,450.64,415.15,452.55,407.37z"/>
			<path class="st19" d="M393.77,399.06c2.37,9.83,7.05,19.68,15.69,26.1c8.64,6.42,21.87,8.44,30.89,2.72
				c7.19-4.56,10.29-12.73,12.2-20.5c9.27-37.87-1.18-80.76-29.94-112.09"/>
		</g>
	</g>
	<path class="st20" d="M376.33,388.58c6.97,5.38,13.08,10.1,19.98,15.43c-23.09,5.54-44.84,10.75-67.99,16.31
		c-1.8-23.68-3.52-46.39-5.41-71.28c8.37,6.16,15.17,11.16,22.62,16.63c16.41-22.34,32.42-44.13,48.35-65.81
		c16.37,8.14,22.71,28.18,13.21,45.65c-6.3,11.58-15.21,21.74-22.98,32.53C381.74,381.31,379.32,384.53,376.33,388.58z"/>
	<path class="st20" d="M422.01,212.2c1.86,23.49,3.64,46.1,5.59,70.74c-8.06-5.76-14.89-10.65-22.58-16.15
		c-16.25,22.07-32.24,43.79-48.17,65.41c-15.21-7.34-22.2-23.16-15.24-39.89c4.79-11.51,13.24-21.54,20.34-32.03
		c3.75-5.54,8.11-10.67,12.66-16.58c-6.99-5.27-13.18-9.93-20.27-15.27C377.38,222.91,399.25,217.66,422.01,212.2z"/>
	<path class="st16" d="M357.79,303.14c-4.1-0.92-8.38,0.79-11.78,3.24c-3.41,2.46-7.16,2.87-10.43,5.51
		c-1.08,0.87-2.21,1.68-3.37,2.46l25.57,1.52L357.79,303.14z"/>
	<g>
		<path class="st16" d="M321.51,365.1c9.79-1.69,21.82-5.79,30.13-11.68c7.5-1.83,14.75-4.68,21.48-8.46
			c1.17-0.66,2.5-1.8,2.04-3.05c-0.37-1.01-1.65-1.29-2.72-1.35c-4.64-0.26-9.34,0.63-13.56,2.55c6.69-2.85,13.83-5.8,19.63-10.2
			c0.71-0.54,1.42-1.11,1.86-1.88c0.44-0.77,0.58-1.78,0.12-2.54c-0.74-1.21-2.47-1.22-3.88-1.03c-7.37,0.97-13.45,3.54-20.76,5.79
			c7.5-2.59,16.16-6.27,22.2-11.47c1.19-1.02,2.43-2.62,1.65-3.98c-0.7-1.22-2.46-1.17-3.85-0.93c-7.45,1.28-14.32,3.69-21.46,6.17
			c7.32-3.52,14.38-7.58,21.1-12.14c1.42-0.96,3.02-2.46,2.47-4.09c-0.31-0.94-1.29-1.52-2.27-1.66c-0.98-0.14-1.96,0.09-2.92,0.32
			c-7.26,1.76-14.44,3.87-21.5,6.33l-19.04,2.54c-5.87,3.94-14.85,8.83-19.16,14.37L321.51,365.1z"/>
		<path class="st4" d="M321.51,365.1c9.79-1.69,21.82-5.79,30.13-11.68c7.5-1.83,14.75-4.68,21.48-8.46c1.17-0.66,2.5-1.8,2.04-3.05
			c-0.37-1.01-1.65-1.29-2.72-1.35c-4.64-0.26-9.34,0.63-13.56,2.55c6.69-2.85,13.83-5.8,19.63-10.2c0.71-0.54,1.42-1.11,1.86-1.88
			c0.44-0.77,0.58-1.78,0.12-2.54c-0.74-1.21-2.47-1.22-3.88-1.03c-7.37,0.97-13.45,3.54-20.76,5.79c7.5-2.59,16.16-6.27,22.2-11.47
			c1.19-1.02,2.43-2.62,1.65-3.98c-0.7-1.22-2.46-1.17-3.85-0.93c-7.45,1.28-14.32,3.69-21.46,6.17c7.32-3.52,14.38-7.58,21.1-12.14
			c1.42-0.96,3.02-2.46,2.47-4.09c-0.31-0.94-1.29-1.52-2.27-1.66c-0.98-0.14-1.96,0.09-2.92,0.32c-7.26,1.76-14.44,3.87-21.5,6.33"
			/>
	</g>
	<g>
		<path class="st21" d="M289.14,334.22c5.21-2.95,10.7-5.41,16.58-7.39c3.42-1.15,7.19,0.33,8.94,3.48
			c5.74,10.33,9.94,21.53,11.98,33.55c0.54,3.18-1,6.4-3.85,7.89c-6.28,3.28-13.09,5.54-20.09,6.63L289.14,334.22z"/>
		<g>
			<path class="st6" d="M192.92,341.18c24.51-6.99,49.8-11.24,75.26-12.61c7.7-0.41,15.84-0.47,22.58,3.28
				c7.61,4.23,12,12.55,14.71,20.83c5.57,17.04,5.17,37.16-5.79,51.35c-10.32,13.36-27.7,18.98-44.26,22.24
				c-25.49,5.02-51.74,6.19-77.59,3.47c-17.64-1.86-36.48-6.31-47.92-19.86c-8.87-10.5-11.75-24.76-12.87-38.46
				c-2.11-25.69,0.88-51.53,5.32-76.92c5.77-33.02,15.06-67.53,39.36-90.62c7.1-6.75,15.13-12.18,23.75-16.56
				c0,0,9.83,48.96,10.1,80.6C195.83,299.55,192.92,341.18,192.92,341.18z"/>
			<path class="st7" d="M161.22,392.63c-10.99-9.96-28.02-12.34-42.06-6.29c1.88,8.63,5.1,16.85,10.75,23.54
				c10.35,12.26,26.75,17.06,42.84,19.24C175.38,416.08,171.12,401.61,161.22,392.63z"/>
			<path class="st1" d="M299.67,404.02c4.48-5.81,7.18-12.61,8.44-19.79c-22.42,26.55-85.11,35.94-132.05,34.13
				c-27.27-1.05-43.91-11.42-53.28-20.37c1.8,4.28,4.11,8.3,7.13,11.88c11.44,13.55,30.28,18,47.92,19.86
				c25.84,2.72,52.09,1.55,77.59-3.47C271.97,423,289.35,417.39,299.67,404.02z"/>
			<g>
				<path class="st4" d="M192.92,341.18c-2.9,0.83-5.8,1.7-8.68,2.6"/>
				<path class="st4" d="M195.56,267.91c0.27,31.64-2.64,73.27-2.64,73.27c24.51-6.99,49.8-11.24,75.26-12.61
					c7.7-0.41,15.84-0.47,22.58,3.28c7.61,4.23,12,12.55,14.71,20.83c5.57,17.04,5.17,37.16-5.79,51.35
					c-10.32,13.36-27.7,18.98-44.26,22.24c-25.49,5.02-51.74,6.19-77.59,3.47c-17.64-1.86-36.48-6.31-47.92-19.86
					c-8.87-10.5-11.75-24.76-12.87-38.46"/>
			</g>
		</g>
	</g>
	<g>
		<path class="st16" d="M410.67,319.08c-8.11-7.95-17.11-8.79-22.55-11.96c-1.15-0.67-2.3-1.86-1.97-3.15
			c0.31-1.21,1.71-1.73,2.94-1.98c4.52-0.92,9.28-0.63,13.41,0.13c-3.33-2.69-7.47-4.17-11.65-5.07c-4.18-0.9-8.46-1.26-12.67-1.96
			c-1.1-0.18-2.24-0.41-3.16-1.04c-0.91-0.64-1.55-1.82-1.23-2.89c0.39-1.3,1.9-1.85,3.23-2.15c1.14-0.25,2.29-0.45,3.45-0.6
			c-0.55-0.11-1.09-0.23-1.63-0.36c-1.39-0.33-2.82-0.74-3.92-1.66c-1.1-0.92-1.78-2.48-1.27-3.82c0.35-0.92,1.2-1.58,2.12-1.93
			c0.92-0.35,1.92-0.42,2.9-0.46c7.65-0.34,15.36,0.85,22.57,3.45l-16.75-17.28c-0.43-0.44-0.87-0.92-0.97-1.52
			c-0.15-0.99,0.76-1.89,1.75-2.08c0.98-0.19,1.99,0.14,2.92,0.5c7.23,2.79,13.59,7.54,19.02,13.07
			c5.43,5.53,10.87,11.98,15.07,18.49l-1.21,16.28L410.67,319.08z"/>
		<g>
			<path class="st22" d="M380.47,288.4c7.36-0.93,14.98,0.29,21.66,3.51"/>
			<path class="st22" d="M410.67,319.08c-8.11-7.95-17.11-8.79-22.55-11.96c-1.15-0.67-2.3-1.86-1.97-3.15
				c0.31-1.21,1.71-1.73,2.94-1.98c4.52-0.92,9.28-0.63,13.41,0.13c-3.33-2.69-7.47-4.17-11.65-5.07c-4.18-0.9-8.46-1.26-12.67-1.96
				c-1.1-0.18-2.24-0.41-3.16-1.04c-0.91-0.64-1.55-1.82-1.23-2.89c0.39-1.3,1.9-1.85,3.23-2.15c1.14-0.25,2.29-0.45,3.45-0.6
				c-0.55-0.11-1.09-0.23-1.63-0.36c-1.39-0.33-2.82-0.74-3.92-1.66c-1.1-0.92-1.78-2.48-1.27-3.82c0.35-0.92,1.2-1.58,2.12-1.93
				c0.92-0.35,1.92-0.42,2.9-0.46c7.65-0.34,15.36,0.85,22.57,3.45l-16.75-17.28c-0.43-0.44-0.87-0.92-0.97-1.52
				c-0.15-0.99,0.76-1.89,1.75-2.08c0.98-0.19,1.99,0.14,2.92,0.5c7.23,2.79,13.59,7.54,19.02,13.07
				c5.43,5.53,11.19,12.48,15.4,18.99"/>
		</g>
	</g>
	<path class="st15" d="M357.59,538.23h-215.2c-11.77,0-21.4-9.63-21.4-21.4v-70.21c0-11.77,9.63-21.4,21.4-21.4h215.2
		c11.77,0,21.4,9.63,21.4,21.4v70.21C378.99,528.6,369.36,538.23,357.59,538.23z"/>
	<g>
		<path class="st6" d="M158.19,471.39l-11.77,27.68c-0.25,0.69-0.65,1.23-1.17,1.61c-0.53,0.38-1.1,0.57-1.72,0.57
			c-0.98,0-1.71-0.27-2.18-0.82c-0.47-0.54-0.71-1.22-0.71-2.02c0-0.33,0.05-0.67,0.16-1.04l13.57-32.58
			c0.29-0.73,0.74-1.29,1.33-1.69c0.6-0.4,1.24-0.56,1.93-0.49c0.65,0,1.26,0.19,1.83,0.57c0.56,0.38,0.97,0.92,1.23,1.61
			l13.4,31.93c0.18,0.47,0.27,0.91,0.27,1.31c0,0.98-0.32,1.76-0.95,2.34c-0.64,0.58-1.33,0.87-2.1,0.87c-0.65,0-1.24-0.2-1.77-0.6
			c-0.53-0.4-0.94-0.94-1.23-1.63l-11.71-27.3L158.19,471.39z M148.11,492.42l3-6.27h14.71l1.04,6.27H148.11z"/>
		<path class="st6" d="M200.04,494.6c0.94,0,1.73,0.3,2.37,0.9c0.64,0.6,0.95,1.37,0.95,2.32c0,0.91-0.32,1.66-0.95,2.26
			c-0.64,0.6-1.43,0.9-2.37,0.9h-17.71c-0.94,0-1.73-0.32-2.37-0.95c-0.64-0.64-0.95-1.43-0.95-2.37v-31.49
			c0-0.94,0.33-1.73,0.98-2.37s1.49-0.95,2.51-0.95c0.87,0,1.64,0.32,2.32,0.95c0.67,0.64,1.01,1.43,1.01,2.37v29.37l-1.2-0.93
			H200.04z"/>
		<path class="st6" d="M238.89,471.39l-11.77,27.68c-0.25,0.69-0.65,1.23-1.17,1.61c-0.53,0.38-1.1,0.57-1.72,0.57
			c-0.98,0-1.71-0.27-2.18-0.82c-0.47-0.54-0.71-1.22-0.71-2.02c0-0.33,0.05-0.67,0.16-1.04l13.57-32.58
			c0.29-0.73,0.74-1.29,1.33-1.69c0.6-0.4,1.24-0.56,1.93-0.49c0.65,0,1.26,0.19,1.83,0.57c0.56,0.38,0.97,0.92,1.23,1.61
			l13.4,31.93c0.18,0.47,0.27,0.91,0.27,1.31c0,0.98-0.32,1.76-0.95,2.34c-0.64,0.58-1.33,0.87-2.1,0.87c-0.65,0-1.24-0.2-1.77-0.6
			c-0.53-0.4-0.94-0.94-1.23-1.63l-11.71-27.3L238.89,471.39z M228.81,492.42l3-6.27h14.71l1.04,6.27H228.81z"/>
		<path class="st6" d="M285.47,462.83c0.8,0,1.59,0.29,2.37,0.87c0.78,0.58,1.17,1.36,1.17,2.34c0,0.69-0.25,1.38-0.76,2.07
			l-20.87,26.81l-0.65-0.22h18.2c0.94,0,1.73,0.28,2.37,0.84c0.64,0.56,0.95,1.32,0.95,2.26c0,0.91-0.32,1.66-0.95,2.26
			c-0.64,0.6-1.43,0.9-2.37,0.9h-23.92c-0.94,0-1.76-0.33-2.45-1.01c-0.69-0.67-1.04-1.41-1.04-2.21c0-0.69,0.25-1.38,0.76-2.07
			l20.92-26.92l0.49,0.33h-16.51c-0.94,0-1.73-0.29-2.37-0.87c-0.64-0.58-0.95-1.34-0.95-2.29s0.32-1.7,0.95-2.26
			c0.64-0.56,1.43-0.84,2.37-0.84H285.47z"/>
		<path class="st6" d="M309.01,471.39l-11.77,27.68c-0.25,0.69-0.65,1.23-1.17,1.61c-0.53,0.38-1.1,0.57-1.72,0.57
			c-0.98,0-1.71-0.27-2.18-0.82c-0.47-0.54-0.71-1.22-0.71-2.02c0-0.33,0.05-0.67,0.16-1.04l13.57-32.58
			c0.29-0.73,0.74-1.29,1.33-1.69c0.6-0.4,1.24-0.56,1.93-0.49c0.65,0,1.26,0.19,1.83,0.57c0.56,0.38,0.97,0.92,1.23,1.61
			l13.4,31.93c0.18,0.47,0.27,0.91,0.27,1.31c0,0.98-0.32,1.76-0.95,2.34c-0.64,0.58-1.33,0.87-2.1,0.87c-0.65,0-1.24-0.2-1.77-0.6
			c-0.53-0.4-0.94-0.94-1.23-1.63l-11.71-27.3L309.01,471.39z M298.93,492.42l3-6.27h14.71l1.04,6.27H298.93z"/>
		<path class="st6" d="M333.75,500.97c-1.02,0-1.93-0.32-2.72-0.95c-0.8-0.64-1.2-1.43-1.2-2.37v-31.49c0-0.94,0.32-1.73,0.95-2.37
			c0.64-0.64,1.43-0.95,2.37-0.95h15.69c1.89,0,3.66,0.5,5.31,1.5c1.65,1,2.99,2.38,4,4.14c1.02,1.76,1.53,3.79,1.53,6.08
			c0,1.38-0.28,2.72-0.84,4.03c-0.56,1.31-1.33,2.49-2.29,3.54c-0.96,1.05-2.04,1.87-3.24,2.45l0.05-1.25
			c1.02,0.54,1.86,1.19,2.53,1.93c0.67,0.75,1.2,1.54,1.58,2.4c0.38,0.85,0.61,1.77,0.68,2.75c0.15,0.91,0.25,1.71,0.3,2.4
			c0.05,0.69,0.16,1.27,0.33,1.74c0.16,0.47,0.48,0.84,0.95,1.09c0.8,0.47,1.3,1.15,1.5,2.04c0.2,0.89-0.01,1.68-0.63,2.37
			c-0.4,0.47-0.91,0.77-1.53,0.9s-1.24,0.13-1.85,0c-0.62-0.13-1.13-0.3-1.53-0.52c-0.62-0.36-1.24-0.9-1.85-1.61
			c-0.62-0.71-1.12-1.66-1.5-2.86c-0.38-1.2-0.57-2.74-0.57-4.63c0-0.62-0.11-1.19-0.33-1.72c-0.22-0.53-0.53-0.98-0.93-1.36
			c-0.4-0.38-0.91-0.67-1.53-0.87c-0.62-0.2-1.34-0.3-2.18-0.3h-11.01l0.82-1.25v11.82c0,0.95-0.25,1.74-0.76,2.37
			C335.36,500.66,334.66,500.97,333.75,500.97z M335.87,481.47h12.7c0.65,0,1.29-0.3,1.91-0.9c0.62-0.6,1.13-1.42,1.53-2.45
			c0.4-1.04,0.6-2.17,0.6-3.41c0-1.6-0.43-2.93-1.28-4c-0.85-1.07-1.77-1.61-2.75-1.61h-12.59l0.65-1.74v15.42L335.87,481.47z"/>
	</g>
</g>
</svg>
