<?xml version="1.0" encoding="utf-8"?>
<!-- Generator: Adobe Illustrator 24.1.1, SVG Export Plug-In . SVG Version: 6.00 Build 0)  -->
<svg version="1.1" id="Capa_1" xmlns="http://www.w3.org/2000/svg" xmlns:xlink="http://www.w3.org/1999/xlink" x="0px" y="0px"
	 viewBox="0 0 514.56 532.34" style="enable-background:new 0 0 514.56 532.34;" xml:space="preserve">
<style type="text/css">
	.st0{fill:#3DA035;}
	.st1{opacity:0.15;fill:#131039;}
	.st2{fill:#FF614C;}
	.st3{fill:#FF4E42;}
	.st4{fill:none;stroke:#2C2355;stroke-width:2.0384;stroke-linecap:round;stroke-linejoin:round;stroke-miterlimit:10;}
	.st5{fill:#F75546;}
	.st6{fill:#FFFFFF;}
	.st7{fill:#E0E0E0;}
	.st8{fill:#65318A;stroke:#2C2355;stroke-width:1.5;stroke-miterlimit:10;}
	.st9{fill:#F32B36;stroke:#2C2355;stroke-width:1.5;stroke-miterlimit:10;}
	.st10{fill:#105699;stroke:#2C2355;stroke-width:1.5;stroke-miterlimit:10;}
	.st11{fill:#FADE41;stroke:#2C2355;stroke-width:1.5;stroke-miterlimit:10;}
	.st12{fill:#F8952E;stroke:#2C2355;stroke-width:1.5;stroke-miterlimit:10;}
	.st13{fill:#F44DB0;stroke:#2C2355;stroke-width:1.5;stroke-miterlimit:10;}
	.st14{fill:#16954D;stroke:#2C2355;stroke-width:1.5;stroke-miterlimit:10;}
	.st15{fill:#168AA5;}
	.st16{fill:#B5474F;}
	.st17{opacity:0.15;fill:#005759;}
	.st18{fill:#C3565E;}
	.st19{fill:none;stroke:#2C2355;stroke-width:2.2637;stroke-linecap:round;stroke-linejoin:round;stroke-miterlimit:10;}
	.st20{fill:#FADE41;stroke:#2C2355;stroke-width:2;stroke-miterlimit:10;}
	.st21{fill:#2C2355;stroke:#2C2355;stroke-width:2.0384;stroke-linecap:round;stroke-linejoin:round;stroke-miterlimit:10;}
	.st22{fill:none;stroke:#2C2355;stroke-width:2.131;stroke-linecap:round;stroke-linejoin:round;stroke-miterlimit:10;}
</style>
<g>
	<path class="st0" d="M252.23,89.96c-51.13,12.86-105.09-19.36-156.55-7.95C65.97,88.6,40.4,109.7,24.35,136.15
		C8.31,162.61,1.19,194.01,0.13,225.13c-2.36,69.17,26.97,140.73,82.31,180.46c29.15,20.93,63.76,32.38,98.44,40.61
		c47.45,11.26,97.13,16.98,144.81,6.79c65.5-14,123.7-58.83,156.68-118.46c32.98-59.63,40.71-132.96,22.76-198.99
		c-6.99-25.71-18.51-51.44-39.3-67.53c-27.91-21.6-66.75-21.38-100.68-12.69C331.22,64,298.9,78.21,252.23,89.96z"/>
	<path class="st1" d="M456.68,334.88l-196.5-154.29l-2.28-20.97c0,0,17.74,0.81,26.61-16.26c0,0,30.51,6.18,31.85-23.12
		c0,0,24.6-0.67,21.24-24.33l-190.31,2.96c0,0-5.91,21.5,18.28,26.75c0,0,1.07,16.93,15.19,20.7c14.11,3.76,22.18,1.61,22.18,1.61
		s7.26,6.32,20.56,10.08c0,0,0.94,25.4,0.81,24.33c-0.13-1.08-110.34,49.73-110.34,49.73s-83.8,69.13-78.24,124.01
		c9.43,14.5,20.65,27.68,33.56,39.02c27.03,5,59.6-12.63,59.6-12.63l-5.46,45.69c18.49,7.78,37.97,13.42,57.46,18.05
		c47.45,11.26,97.13,16.98,144.81,6.79c11.93-2.55,23.62-6.14,34.96-10.64l7.06-81.67c0,0,35.21,19.35,63.17,15.59
		C458.84,372.51,456.68,334.88,456.68,334.88z"/>
	<g>
		<g>
			<path class="st2" d="M231.27,143.15c-0.19,13.68-0.39,27.35,0.11,41.55c9.78,0.55,19.63,0.11,29.37-1.44l-1.85-39.57
				L231.27,143.15z"/>
			<path class="st3" d="M259.64,159.65l-0.75-15.96l-27.62-0.54c-0.07,5.05-0.13,10.1-0.17,15.18
				C236.6,160.39,248.66,163.83,259.64,159.65z"/>
		</g>
		<g>
			<path d="M209.99,142.54c-7.41,0.8-15,1.59-22.24-0.15c-7.25-1.74-14.21-6.54-16.46-13.65c-1.56-4.96-0.68-10.36-1.46-15.5
				c-1.47-9.73-8.84-18.86-6.4-28.39c0.96-3.73,3.35-6.95,4.52-10.62c1.78-5.59,0.57-11.62,0.63-17.48
				c0.14-13.06,7.15-25.85,18.09-32.99c10.94-7.14,25.47-8.41,37.82-3.51c6.37-13.46,21.93-21.93,36.7-19.97
				c14.76,1.96,27.57,14.2,30.29,30.69c8.88,2.17,16.78,8.06,21.39,15.95s5.86,17.67,3.4,26.46c-1.41,5.03-3.98,9.75-4.72,14.93
				c-1.02,7.13,1.52,14.26,2.05,21.44c0.73,9.88-2.87,20.45-10.84,26.34c-7.97,5.89-20.45,5.71-27.04-1.69L209.99,142.54z"/>
			<g>
				<path class="st2" d="M186.05,75.77c-7.91-6.09-19.51-6.94-28.22-2.06c-8.71,4.88-14.05,15.21-12.98,25.14
					c1.06,9.93,8.46,18.89,18.02,21.82c9.55,2.93,20.7-0.36,27.14-7.99L186.05,75.77z"/>
				<g>
					<path class="st4" d="M158.06,94.75c3.84-6.06,11.52-9.42,18.58-8.14"/>
					<path class="st4" d="M173.93,100.1c-3.12-3.61-4.97-8.3-5.25-13.08"/>
				</g>
			</g>
			<g>
				<path class="st2" d="M298.41,71.14c7.92-6.1,19.51-6.94,28.22-2.06c8.71,4.88,14.05,15.21,12.98,25.14
					c-1.06,9.93-8.46,18.9-18.01,21.82c-9.55,2.93-20.7-0.36-27.15-7.99L298.41,71.14z"/>
				<g>
					<path class="st4" d="M326.39,90.13c-3.84-6.06-11.52-9.42-18.58-8.14"/>
					<path class="st4" d="M310.53,95.48c3.12-3.61,4.97-8.3,5.25-13.08"/>
				</g>
			</g>
			<g>
				<path class="st2" d="M298.41,71.14c0.31,15.46,0.59,31.2-3.66,46.08c-4.25,14.87-13.8,29.02-28.08,34.99
					c-10.22,4.27-21.8,3.98-32.7,2.04c-10.5-1.86-20.99-5.32-29.23-12.07c-9.7-7.94-15.5-19.83-18.34-32.03
					c-2.84-12.2-2.97-24.85-4.64-37.09c25.95-0.33,51.46-13.07,68.94-33.53C261.06,53.12,276.95,62.37,298.41,71.14z"/>
				<g>
					<path class="st5" d="M294.76,117.22c0.01-0.05,0.02-0.1,0.04-0.14c-0.25-0.33-0.52-0.65-0.8-0.95
						c-5.04-5.36-14.37-5.86-19.95-1.07c-5.58,4.79-6.5,14.09-1.98,19.88c2.53,3.23,6.53,5.08,10.61,5.34
						C288.3,133.7,292.37,125.57,294.76,117.22z"/>
					<path class="st5" d="M191.31,115.06c-1.01,0.87-1.87,1.89-2.57,3.01c2.94,8.37,7.47,16.15,13.87,22.15
						c2.32-0.25,4.57-1.03,6.49-2.4c8.14-5.78,7.2-16.34,2.16-21.7C206.22,110.77,196.89,110.27,191.31,115.06z"/>
				</g>
				<g>
					<path class="st4" d="M246.96,80.08c1.36,5.02,5.35,9.24,9.99,11.3c-2.17,1.86-4.63,3.38-7.26,4.49"/>
					<path class="st4" d="M228.69,110.84c9.1,3.06,19.24,2.93,28.26-0.36"/>
					<path class="st4" d="M203.98,88.8c5.72-5.05,14.7-5.97,21.34-2.2"/>
					<path class="st4" d="M260.92,84.86c6.39-4.97,16.17-4.97,22.56,0"/>
				</g>
			</g>
		</g>
	</g>
	<g>
		<g>
			<path class="st6" d="M305.61,181.44c-2.66-0.61-5.32-1.18-8-1.71c-0.75,3.18-37.97,23.97-37.97,23.97l-61.1-21.03
				c-2.09,0.58-4.17,1.19-6.24,1.83l-25.2,258.23c4.58,1.22,9.18,2.37,13.78,3.46c47.45,11.26,97.13,16.98,144.81,6.79
				c8.37-1.79,16.62-4.09,24.72-6.85L305.61,181.44z"/>
			<path class="st2" d="M247.1,174.94c-16.36,0.68-32.69,3.31-48.55,7.73c3.2,21.49,25.49,39.42,48.94,39.19
				c23.66-0.23,45.73-18.92,50.12-42.13C280.99,176.44,264.05,174.8,247.1,174.94z"/>
		</g>
		<path class="st7" d="M448.97,277.58c-9.35-17.17-23.07-31.64-38.09-44.15c-12.91-10.75-26.92-20.15-41.72-28.09
			c-20-10.73-41.44-18.79-63.55-23.91c-1.56,91.1-0.68,182.27,4.42,274.29c5.24-0.75,10.47-1.64,15.66-2.75
			c19.5-4.17,38.35-11.09,56.08-20.3c0.64-39.82-0.65-79.67-3.9-119.36l81.9,20.81C463.09,314.86,458.33,294.76,448.97,277.58z"/>
		<path class="st1" d="M381.2,370.66c-0.66-19.13-1.76-38.25-3.32-57.33l2.81,0.71l-75.71-33.11c0.05,10.73,0.16,21.48,0.3,32.22
			l22.1,10.44l-2.74,7.26C324.63,330.85,350.39,358.44,381.2,370.66z"/>
		<path class="st7" d="M47.91,329.6l90.02-11.74c-0.78,37.27-1.58,75.18-2.43,115.03c14.8,5.42,30.08,9.68,45.38,13.31
			c6.09,1.44,12.21,2.79,18.36,4.03c5.27-88.56,2.98-177.57-6.86-265.74l-0.08,0.01c-19.25,5.98-37.73,14.62-54.69,25.63
			c-4.98,3.24-9.83,6.68-14.53,10.32C87.62,247.96,60.97,286.66,47.91,329.6z"/>
		<path class="st1" d="M200.46,288.51l-62.62,33.5c-0.37,17.62-0.75,35.39-1.13,53.46c12.17-6.68,37.12-21.2,50.22-34.75l-2.62-12.3
			c0,0,8.06-2.75,17.26-6.97C201.32,310.47,200.95,299.49,200.46,288.51z"/>
	</g>
	<g>
		<g>
			<path class="st8" d="M251.92,278.14c0.51,1.1,1.02,2.19,1.52,3.29c4.22,9.45,8.45,18.91,12.66,28.36
				c4.19,9.4,8.39,18.79,12.54,28.2c1.39,3.15,2.6,6.37,3.98,9.52c0.85,1.95-0.02,2.76-1.74,3.4c-5.92,2.21-11.95,3.88-18.27,4.4
				c-4.07,0.33-8.14,0.97-12.2,0.93c-3.25-0.03-6.52-0.1-9.77-1.28c-2.88-1.05-6.18-0.88-9.19-1.64c-3.28-0.83-6.55-1.87-9.64-3.24
				c-3.94-1.75-7.69-3.91-11.52-5.92c-1.7-0.89-1.95-1.92-0.77-3.64c6.4-9.33,12.68-18.74,18.99-28.13
				c3.54-5.27,7.01-10.58,10.56-15.84c3.87-5.74,7.79-11.45,11.69-17.18c0.22-0.32,0.35-0.69,0.53-1.04
				C251.49,278.25,251.7,278.2,251.92,278.14z"/>
			<path class="st9" d="M254.32,278c2.26,0.35,4.54,0.64,6.79,1.06c2.21,0.41,4.4,0.97,6.61,1.4c11.54,2.29,23.09,4.55,34.64,6.84
				c8.28,1.64,16.55,3.31,24.84,4.92c2.67,0.52,2.59,0.43,2.11,2.98c-1.46,7.74-4.45,14.89-8.44,21.61
				c-4.31,7.25-9.5,13.78-15.89,19.39c-5.35,4.7-11.25,8.46-17.42,11.89c-1.48,0.82-2.24,0.83-3.01-0.92
				c-8.92-20.14-17.92-40.25-26.89-60.36c-1.22-2.73-2.43-5.46-3.65-8.19C254.11,278.42,254.22,278.21,254.32,278z"/>
			<path class="st10" d="M206.59,341.94c-5.11-3.1-9.11-7.3-13.12-11.55c-5.96-6.3-10.33-13.6-14.14-21.3
				c-0.03-0.06-0.08-0.12-0.08-0.18c-0.51-4.8-3.81-8.69-4.41-13.48c-0.48-3.84-1.24-7.65-1.69-11.5c-0.26-2.22,0.39-2.7,2.63-2.7
				c4.69,0,9.39,0.16,14.07-0.08c4.39-0.23,8.76-0.91,13.14-1.37c0.73-0.08,1.48-0.01,2.21-0.05c9.48-0.49,18.95-0.99,28.43-1.48
				c4.68-0.24,9.37-0.47,14.05-0.68c0.43-0.02,0.88,0.1,1.8,0.21C235.1,299.3,220.9,320.53,206.59,341.94z"/>
			<path class="st11" d="M314.12,227.82c-20.28,15.53-40.53,31.03-61.05,46.74c-0.15-0.79-0.3-1.21-0.29-1.63
				c0.24-23.88,0.48-47.77,0.74-71.65c0.04-3.35,0.36-3.51,3.63-3.04c2.18,0.31,4.45,0.1,6.61,0.52c3.79,0.74,7.52,1.78,11.28,2.69
				c5.54,1.35,10.68,3.66,15.66,6.41c8.87,4.92,16.46,11.34,22.97,19.08C313.82,227.14,313.9,227.4,314.12,227.82z"/>
			<path class="st12" d="M255.09,275.64c2.1-1.76,4.17-3.57,6.32-5.27c3.85-3.05,7.75-6.04,11.65-9.03
				c3.97-3.05,7.98-6.06,11.95-9.11c7.22-5.55,14.41-11.12,21.62-16.67c2.34-1.8,4.69-3.58,7.02-5.39c1.2-0.93,2.09-0.92,2.9,0.54
				c2.94,5.31,6.24,10.44,8.83,15.91c1.74,3.68,2.47,7.84,3.75,11.75c2.71,8.31,2.56,16.87,2.22,25.43
				c-0.09,2.31-0.62,4.6-1.01,7.31c-25.12-4.96-50.15-9.9-75.17-14.84C255.15,276.07,255.12,275.86,255.09,275.64z"/>
			<path class="st13" d="M250.71,273.92c-5.22-4.8-10.03-9.1-14.71-13.55c-9.25-8.77-18.42-17.63-27.64-26.43
				c-3.78-3.61-7.58-7.19-11.41-10.75c-1.11-1.03-0.75-1.82,0.18-2.67c5.04-4.6,10.6-8.45,16.45-11.96
				c7.66-4.59,15.78-7.83,24.63-9.06c3.31-0.46,6.65-0.71,9.98-0.95c3.07-0.23,3.58,0.23,3.55,3.28
				c-0.16,16.84-0.36,33.68-0.54,50.52c-0.07,6.23-0.09,12.47-0.16,18.7C251.05,271.82,250.88,272.59,250.71,273.92z"/>
			<path class="st14" d="M249.67,275.82c-4.81,0.29-9.07,0.6-13.33,0.8c-10.92,0.52-21.83,0.99-32.75,1.5
				c-9.51,0.44-19.02,0.88-28.53,1.38c-1.7,0.09-2.36-0.32-2.36-2.18c-0.02-7.98,1.41-15.71,3.63-23.35
				c3.05-10.53,8.65-19.64,15.38-28.14c0.33-0.42,0.78-0.75,1.09-1.18c1.04-1.4,1.96-1.19,3.11-0.04
				c3.72,3.72,7.47,7.41,11.29,11.02c5.69,5.36,11.49,10.6,17.17,15.96c8.02,7.57,15.98,15.21,23.97,22.82
				C248.67,274.72,248.96,275.07,249.67,275.82z"/>
		</g>
	</g>
	<path class="st2" d="M203.86,262.21c-4.31-0.5-8.62,1.26-12.12,3.83c-3.49,2.57-6.32,5.92-9.24,9.13l4.84,8.91l22.31-12.9
		L203.86,262.21z"/>
	<path class="st2" d="M305.48,256.43c4.29-0.68,8.67,0.9,12.27,3.32c3.6,2.42,6.56,5.65,9.62,8.73l-4.47,9.1l-22.83-11.96
		L305.48,256.43z"/>
	<g>
		<path class="st2" d="M174.98,326.63c16.31-7.38,32.68-14.78,47.86-24.28c1.1-0.69,2.24-1.42,2.96-2.51
			c0.72-1.08,0.94-2.62,0.16-3.67c-1.14-1.53-3.47-1.19-5.31-0.68c-4.73,1.33-9.41,2.85-13.71,3.82
			c8.04-4.03,15.52-9.18,22.15-15.25c1.22-1.12,2.49-2.94,1.48-4.25c-0.81-1.05-2.44-0.82-3.72-0.45c-5,1.42-9.9,3.2-14.65,5.32l0,0
			c4.42-3.82,8.55-7.97,12.35-12.41c0.84-0.98,1.72-2.29,1.21-3.48c-0.38-0.87-1.41-1.3-2.36-1.26c-0.95,0.05-1.83,0.48-2.68,0.9
			c-4.61,2.31-9.14,4.79-13.58,7.42l0,0c3.75-3.49,7.19-7.3,10.28-11.37c1.03-1.35,2.04-3.2,1.11-4.61
			c-0.61-0.93-1.89-1.25-2.99-1.06c-1.11,0.19-2.09,0.8-3.03,1.39c-8.03,5.07-15.85,10.46-23.67,15.84l-6.35-0.91
			c-7.23,7.96-15.19,15.25-23.76,21.75L174.98,326.63z"/>
		<g>
			<path class="st4" d="M212.2,284.69c-2.92,1.3-5.78,2.73-8.58,4.28"/>
			<path class="st4" d="M197.89,281.68c3.04-2.01,6.13-3.95,9.26-5.81"/>
			<path class="st4" d="M174.98,326.63c16.31-7.38,32.68-14.78,47.86-24.28c1.1-0.69,2.24-1.42,2.96-2.51
				c0.72-1.08,0.94-2.62,0.16-3.67c-1.14-1.53-3.47-1.19-5.31-0.68c-4.73,1.33-9.41,2.85-13.71,3.82
				c8.04-4.03,15.52-9.18,22.15-15.25c1.22-1.12,2.49-2.94,1.48-4.25c-0.81-1.05-2.44-0.82-3.72-0.45c-5,1.42-9.9,3.2-14.65,5.32
				l0,0c4.42-3.82,8.55-7.97,12.35-12.41c0.84-0.98,1.72-2.29,1.21-3.48c-0.38-0.87-1.41-1.3-2.36-1.26
				c-0.95,0.05-1.83,0.48-2.68,0.9c-4.61,2.31-9.14,4.79-13.58,7.42l0,0c3.75-3.49,7.19-7.3,10.28-11.37
				c1.03-1.35,2.04-3.2,1.11-4.61c-0.61-0.93-1.89-1.25-2.99-1.06c-1.11,0.19-2.09,0.8-3.03,1.39
				c-8.03,5.07-15.85,10.46-23.67,15.84"/>
		</g>
	</g>
	<g>
		<path class="st2" d="M337.04,319.59c-16.61-6.69-33.27-13.4-48.83-22.25c-1.13-0.64-2.3-1.33-3.07-2.38
			c-0.77-1.05-1.05-2.58-0.31-3.66c1.07-1.58,3.42-1.34,5.27-0.9c4.78,1.13,9.52,2.45,13.86,3.24c-8.2-3.69-15.89-8.52-22.77-14.31
			c-1.27-1.07-2.61-2.83-1.65-4.18c0.76-1.08,2.4-0.92,3.69-0.61c5.06,1.21,10.03,2.79,14.86,4.7l0,0
			c-4.58-3.63-8.88-7.6-12.86-11.88c-0.88-0.95-1.82-2.21-1.35-3.42c0.34-0.89,1.36-1.36,2.3-1.35c0.95,0.01,1.85,0.4,2.71,0.79
			c4.7,2.12,9.33,4.4,13.88,6.84l0,0c-3.89-3.33-7.49-6.99-10.75-10.93c-1.08-1.31-2.17-3.11-1.3-4.56
			c0.57-0.95,1.83-1.33,2.94-1.18c1.11,0.15,2.12,0.71,3.09,1.27c8.24,4.73,16.28,9.78,24.32,14.84l6.3-1.17
			c7.56,7.65,15.82,14.6,24.65,20.74L337.04,319.59z"/>
		<g>
			<path class="st4" d="M298.09,279.24c2.97,1.18,5.89,2.48,8.75,3.92"/>
			<path class="st4" d="M312.27,275.64c-3.12-1.88-6.29-3.69-9.49-5.41"/>
			<path class="st4" d="M337.04,319.59c-16.61-6.69-33.27-13.4-48.83-22.25c-1.13-0.64-2.3-1.33-3.07-2.38
				c-0.77-1.05-1.05-2.58-0.31-3.66c1.07-1.58,3.42-1.34,5.27-0.9c4.78,1.13,9.52,2.45,13.86,3.24c-8.2-3.69-15.89-8.52-22.77-14.31
				c-1.27-1.07-2.61-2.83-1.65-4.18c0.76-1.08,2.4-0.92,3.69-0.61c5.06,1.21,10.03,2.79,14.86,4.7l0,0
				c-4.58-3.63-8.88-7.6-12.86-11.88c-0.88-0.95-1.82-2.21-1.35-3.42c0.34-0.89,1.36-1.36,2.3-1.35c0.95,0.01,1.85,0.4,2.71,0.79
				c4.7,2.12,9.33,4.4,13.88,6.84l0,0c-3.89-3.33-7.49-6.99-10.75-10.93c-1.08-1.31-2.17-3.11-1.3-4.56
				c0.57-0.95,1.83-1.33,2.94-1.18c1.11,0.15,2.12,0.71,3.09,1.27c8.24,4.73,16.28,9.78,24.32,14.84"/>
		</g>
	</g>
	<g>
		<path class="st7" d="M459.77,334.13c-2.09,12.17-8.22,24.65-19.44,29.81c-9.38,4.31-20.35,2.69-30.37,0.22
			c-27.69-6.81-53.93-19.51-78.99-37.79c5.58-14.07,12.16-27.75,20.01-40.72c29.32,7.56,57.84,18.21,84.94,31.71L459.77,334.13z"/>
		<path class="st4" d="M451.76,354.27c-2.98,4.12-6.76,7.53-11.42,9.67c-9.38,4.31-20.35,2.69-30.37,0.22
			c-27.69-6.81-53.93-19.51-78.99-37.79c5.58-14.07,12.16-27.75,20.01-40.72c29.32,7.56,57.84,18.21,84.94,31.71"/>
	</g>
	<path class="st7" d="M47.91,329.6c-4.16,13.7-6.54,29.93,2.31,41.19c10.3,13.11,30.21,12.65,46.45,8.87
		c30.92-7.19,60.02-22.07,85.21-42.78c-6.65-14.65-13.99-28.99-22.27-41.44c-28.68,2.48-56.86,10.61-82.45,23.79L47.91,329.6z"/>
	<path class="st4" d="M50.22,370.78c10.3,13.11,30.21,12.65,46.45,8.87c30.92-7.19,60.02-22.07,85.21-42.78
		c-6.65-14.65-13.99-28.99-22.27-41.44c-28.68,2.48-56.86,10.61-82.45,23.79"/>
	<path class="st15" d="M409.47,532.34H110.61c-13.24,0-24.07-10.83-24.07-24.07v-58.17c0-13.24,10.83-24.07,24.07-24.07h298.86
		c13.24,0,24.07,10.83,24.07,24.07v58.17C433.54,521.51,422.71,532.34,409.47,532.34z"/>
	<g>
		<path class="st6" d="M133.48,463.16c0.89,0.44,1.41,1.15,1.56,2.1c0.15,0.96-0.09,1.83-0.74,2.61c-0.44,0.62-1.02,0.96-1.72,1.03
			c-0.7,0.07-1.41-0.07-2.13-0.41c-0.82-0.38-1.68-0.67-2.59-0.87c-0.91-0.21-1.85-0.31-2.84-0.31c-1.85,0-3.49,0.29-4.95,0.87
			c-1.45,0.58-2.69,1.41-3.72,2.49c-1.03,1.08-1.8,2.35-2.33,3.82c-0.53,1.47-0.79,3.09-0.79,4.87c0,2.08,0.3,3.9,0.9,5.43
			c0.6,1.54,1.43,2.82,2.49,3.84c1.06,1.03,2.31,1.79,3.74,2.28c1.44,0.5,2.99,0.74,4.66,0.74c0.92,0,1.85-0.08,2.77-0.26
			c0.92-0.17,1.81-0.48,2.67-0.92c0.72-0.34,1.43-0.46,2.13-0.36c0.7,0.1,1.29,0.46,1.77,1.08c0.68,0.85,0.93,1.73,0.74,2.64
			c-0.19,0.91-0.71,1.56-1.56,1.97c-0.89,0.44-1.8,0.81-2.74,1.1c-0.94,0.29-1.89,0.51-2.84,0.67c-0.96,0.15-1.93,0.23-2.92,0.23
			c-2.46,0-4.79-0.39-7-1.18c-2.2-0.79-4.17-1.95-5.89-3.49c-1.73-1.54-3.08-3.46-4.07-5.77c-0.99-2.31-1.49-4.98-1.49-8.02
			c0-2.63,0.45-5.06,1.36-7.28c0.9-2.22,2.19-4.14,3.84-5.77c1.66-1.62,3.61-2.89,5.87-3.79c2.26-0.91,4.72-1.36,7.38-1.36
			c1.5,0,2.97,0.17,4.41,0.51C130.86,462.02,132.21,462.51,133.48,463.16z"/>
		<path class="st6" d="M153.67,469.47L142.6,495.5c-0.24,0.65-0.61,1.15-1.1,1.51c-0.5,0.36-1.03,0.54-1.61,0.54
			c-0.92,0-1.61-0.26-2.05-0.77c-0.44-0.51-0.67-1.14-0.67-1.9c0-0.31,0.05-0.63,0.15-0.97l12.76-30.65
			c0.27-0.68,0.69-1.21,1.26-1.59c0.56-0.38,1.17-0.53,1.82-0.46c0.62,0,1.19,0.18,1.72,0.54c0.53,0.36,0.91,0.86,1.15,1.51
			l12.61,30.04c0.17,0.44,0.26,0.85,0.26,1.23c0,0.92-0.3,1.66-0.9,2.2c-0.6,0.55-1.26,0.82-1.97,0.82c-0.61,0-1.17-0.19-1.67-0.56
			c-0.5-0.38-0.88-0.89-1.15-1.54l-11.02-25.68L153.67,469.47z M144.19,489.25l2.82-5.89h13.84l0.97,5.89H144.19z"/>
		<path class="st6" d="M171.51,467.31c-0.89,0-1.63-0.27-2.23-0.82c-0.6-0.55-0.9-1.26-0.9-2.15c0-0.89,0.3-1.6,0.9-2.13
			c0.6-0.53,1.34-0.79,2.23-0.79h22.76c0.89,0,1.63,0.27,2.23,0.82c0.6,0.55,0.9,1.26,0.9,2.15s-0.3,1.6-0.9,2.13
			c-0.6,0.53-1.34,0.79-2.23,0.79H171.51z M182.84,497.3c-0.96,0-1.74-0.3-2.36-0.9c-0.62-0.6-0.92-1.34-0.92-2.23v-29.73h6.66
			v29.73c0,0.89-0.32,1.63-0.95,2.23C184.64,497,183.83,497.3,182.84,497.3z"/>
		<path class="st6" d="M205.9,461.42h17.17c0.89,0,1.63,0.28,2.23,0.85c0.6,0.56,0.9,1.29,0.9,2.18c0,0.85-0.3,1.55-0.9,2.08
			c-0.6,0.53-1.34,0.79-2.23,0.79h-14.35l0.46-0.87v10l-0.41-0.41h11.99c0.89,0,1.63,0.28,2.23,0.85c0.6,0.56,0.9,1.29,0.9,2.18
			c0,0.85-0.3,1.55-0.9,2.08c-0.6,0.53-1.34,0.79-2.23,0.79h-11.84l0.26-0.41v10.35l-0.41-0.46h14.3c0.89,0,1.63,0.3,2.23,0.9
			c0.6,0.6,0.9,1.29,0.9,2.08c0,0.85-0.3,1.56-0.9,2.1c-0.6,0.55-1.34,0.82-2.23,0.82H205.9c-0.89,0-1.63-0.3-2.23-0.9
			c-0.6-0.6-0.9-1.34-0.9-2.23v-29.63c0-0.89,0.3-1.63,0.9-2.23C204.27,461.72,205.01,461.42,205.9,461.42z"/>
		<path class="st6" d="M249.01,497.81c-2.6,0-5.02-0.48-7.28-1.44s-4.24-2.28-5.95-3.97c-1.71-1.69-3.05-3.65-4.02-5.87
			c-0.97-2.22-1.46-4.61-1.46-7.18c0-2.56,0.49-4.95,1.46-7.18c0.97-2.22,2.31-4.18,4.02-5.87c1.71-1.69,3.69-3.02,5.95-3.97
			c2.26-0.96,4.68-1.43,7.28-1.43c1.61,0,3.16,0.17,4.66,0.51c1.5,0.34,2.89,0.85,4.15,1.54c0.51,0.27,0.9,0.64,1.15,1.1
			c0.26,0.46,0.38,0.93,0.38,1.41c0,0.82-0.27,1.56-0.82,2.2c-0.55,0.65-1.25,0.97-2.1,0.97c-0.27,0-0.56-0.03-0.85-0.1
			c-0.29-0.07-0.57-0.17-0.85-0.31c-0.85-0.38-1.76-0.67-2.72-0.87c-0.96-0.21-1.97-0.31-3.02-0.31c-2.22,0-4.25,0.56-6.07,1.67
			c-1.83,1.11-3.28,2.6-4.36,4.46c-1.08,1.86-1.61,3.92-1.61,6.18c0,2.22,0.54,4.27,1.61,6.15c1.08,1.88,2.53,3.38,4.36,4.49
			c1.83,1.11,3.85,1.67,6.07,1.67c1.02,0,2.15-0.1,3.38-0.31c1.23-0.21,2.24-0.48,3.02-0.82l-0.46,1.54v-8.76l0.87,0.77h-5.69
			c-0.89,0-1.63-0.29-2.23-0.87c-0.6-0.58-0.9-1.31-0.9-2.2c0-0.89,0.3-1.62,0.9-2.2c0.6-0.58,1.34-0.87,2.23-0.87h8.41
			c0.89,0,1.62,0.3,2.2,0.9c0.58,0.6,0.87,1.34,0.87,2.23v10.87c0,0.68-0.16,1.25-0.49,1.69c-0.33,0.44-0.69,0.8-1.1,1.08
			c-1.57,0.96-3.29,1.72-5.15,2.28C253.01,497.53,251.06,497.81,249.01,497.81z"/>
		<path class="st6" d="M300.78,479.36c0,2.56-0.43,4.96-1.28,7.18c-0.85,2.22-2.06,4.18-3.61,5.87c-1.56,1.69-3.4,3.02-5.54,3.97
			c-2.14,0.96-4.47,1.44-7,1.44c-2.53,0-4.85-0.48-6.97-1.44c-2.12-0.96-3.96-2.28-5.51-3.97c-1.56-1.69-2.76-3.65-3.61-5.87
			c-0.85-2.22-1.28-4.61-1.28-7.18c0-2.56,0.43-4.95,1.28-7.18c0.85-2.22,2.06-4.18,3.61-5.87c1.55-1.69,3.39-3.02,5.51-3.97
			c2.12-0.96,4.44-1.43,6.97-1.43c2.53,0,4.86,0.48,7,1.43c2.14,0.96,3.98,2.28,5.54,3.97c1.55,1.69,2.76,3.65,3.61,5.87
			C300.35,474.4,300.78,476.79,300.78,479.36z M294.11,479.36c0-2.29-0.46-4.37-1.38-6.23c-0.92-1.86-2.19-3.34-3.79-4.43
			c-1.61-1.09-3.47-1.64-5.59-1.64c-2.12,0-3.98,0.55-5.59,1.64c-1.61,1.09-2.86,2.56-3.77,4.41c-0.91,1.85-1.36,3.93-1.36,6.25
			c0,2.29,0.45,4.37,1.36,6.23c0.91,1.86,2.16,3.34,3.77,4.43c1.61,1.09,3.47,1.64,5.59,1.64c2.12,0,3.98-0.55,5.59-1.64
			c1.61-1.09,2.87-2.57,3.79-4.43C293.65,483.72,294.11,481.65,294.11,479.36z"/>
		<path class="st6" d="M310.36,497.3c-0.96,0-1.81-0.3-2.56-0.9c-0.75-0.6-1.13-1.34-1.13-2.23v-29.63c0-0.89,0.3-1.63,0.9-2.23
			c0.6-0.6,1.34-0.9,2.23-0.9h14.76c1.78,0,3.44,0.47,5,1.41c1.55,0.94,2.81,2.24,3.77,3.9c0.96,1.66,1.44,3.56,1.44,5.71
			c0,1.3-0.27,2.56-0.79,3.79c-0.53,1.23-1.25,2.34-2.15,3.33c-0.91,0.99-1.92,1.76-3.05,2.31l0.05-1.18
			c0.96,0.51,1.75,1.12,2.38,1.82s1.13,1.45,1.49,2.25c0.36,0.8,0.57,1.67,0.64,2.59c0.14,0.85,0.23,1.61,0.28,2.25
			c0.05,0.65,0.15,1.2,0.31,1.64s0.45,0.79,0.9,1.02c0.75,0.44,1.22,1.09,1.41,1.92c0.19,0.84-0.01,1.58-0.59,2.23
			c-0.38,0.44-0.85,0.73-1.44,0.85c-0.58,0.12-1.16,0.12-1.74,0c-0.58-0.12-1.06-0.28-1.44-0.49c-0.58-0.34-1.16-0.85-1.74-1.51
			c-0.58-0.67-1.05-1.56-1.41-2.69c-0.36-1.13-0.54-2.58-0.54-4.36c0-0.58-0.1-1.12-0.31-1.61s-0.5-0.92-0.87-1.28
			c-0.38-0.36-0.85-0.63-1.44-0.82s-1.26-0.28-2.05-0.28h-10.35l0.77-1.18v11.12c0,0.89-0.24,1.63-0.72,2.23
			C311.88,497,311.21,497.3,310.36,497.3z M312.36,478.95h11.94c0.61,0,1.21-0.28,1.79-0.85c0.58-0.56,1.06-1.33,1.44-2.31
			c0.38-0.97,0.56-2.04,0.56-3.2c0-1.5-0.4-2.76-1.2-3.77c-0.8-1.01-1.67-1.51-2.59-1.51h-11.84l0.62-1.64v14.51L312.36,478.95z"/>
		<path class="st6" d="M348.29,494.17c0,0.89-0.33,1.63-0.97,2.23c-0.65,0.6-1.4,0.9-2.26,0.9c-0.96,0-1.73-0.3-2.31-0.9
			c-0.58-0.6-0.87-1.34-0.87-2.23v-29.63c0-0.89,0.31-1.63,0.92-2.23c0.62-0.6,1.4-0.9,2.36-0.9c0.82,0,1.55,0.3,2.18,0.9
			c0.63,0.6,0.95,1.34,0.95,2.23V494.17z M345.27,459.47c-0.65,0-1.17-0.17-1.56-0.51c-0.39-0.34-0.59-0.79-0.59-1.33
			c0-0.24,0.06-0.47,0.18-0.69c0.12-0.22,0.3-0.45,0.54-0.69l4.41-3.9c0.38-0.31,0.78-0.57,1.2-0.79c0.43-0.22,0.86-0.33,1.31-0.33
			c0.58,0,1.18,0.22,1.79,0.67c0.62,0.44,0.92,1.06,0.92,1.85c0,0.51-0.16,1.02-0.49,1.51c-0.33,0.5-0.79,0.9-1.41,1.2l-5.13,2.72
			c-0.21,0.14-0.41,0.22-0.62,0.26S345.44,459.47,345.27,459.47z"/>
		<path class="st6" d="M369.15,469.47l-11.07,26.04c-0.24,0.65-0.61,1.15-1.1,1.51c-0.5,0.36-1.03,0.54-1.61,0.54
			c-0.92,0-1.61-0.26-2.05-0.77c-0.44-0.51-0.67-1.14-0.67-1.9c0-0.31,0.05-0.63,0.15-0.97l12.76-30.65
			c0.27-0.68,0.69-1.21,1.26-1.59c0.56-0.38,1.17-0.53,1.82-0.46c0.62,0,1.19,0.18,1.72,0.54c0.53,0.36,0.91,0.86,1.15,1.51
			l12.61,30.04c0.17,0.44,0.26,0.85,0.26,1.23c0,0.92-0.3,1.66-0.9,2.2c-0.6,0.55-1.26,0.82-1.97,0.82c-0.61,0-1.17-0.19-1.67-0.56
			c-0.5-0.38-0.88-0.89-1.15-1.54l-11.02-25.68L369.15,469.47z M359.67,489.25l2.82-5.89h13.84l0.97,5.89H359.67z"/>
		<path class="st6" d="M400.26,497.81c-2.39,0-4.54-0.3-6.46-0.9c-1.91-0.6-3.74-1.65-5.48-3.15c-0.44-0.38-0.79-0.8-1.02-1.28
			c-0.24-0.48-0.36-0.96-0.36-1.43c0-0.79,0.28-1.48,0.85-2.08c0.56-0.6,1.27-0.9,2.13-0.9c0.65,0,1.23,0.21,1.74,0.62
			c1.3,1.06,2.59,1.86,3.87,2.41c1.28,0.55,2.86,0.82,4.74,0.82c1.26,0,2.43-0.2,3.49-0.59c1.06-0.39,1.91-0.92,2.56-1.59
			c0.65-0.67,0.97-1.43,0.97-2.28c0-1.03-0.31-1.9-0.92-2.61c-0.62-0.72-1.56-1.32-2.82-1.82c-1.26-0.5-2.87-0.88-4.82-1.15
			c-1.85-0.27-3.47-0.69-4.87-1.26c-1.4-0.56-2.57-1.28-3.51-2.15c-0.94-0.87-1.65-1.9-2.13-3.08c-0.48-1.18-0.72-2.5-0.72-3.97
			c0-2.22,0.57-4.12,1.72-5.69c1.14-1.57,2.69-2.77,4.64-3.59c1.95-0.82,4.1-1.23,6.46-1.23c2.22,0,4.28,0.33,6.18,1
			s3.44,1.51,4.64,2.54c0.99,0.79,1.49,1.69,1.49,2.72c0,0.75-0.29,1.44-0.87,2.05c-0.58,0.62-1.26,0.92-2.05,0.92
			c-0.51,0-0.97-0.15-1.38-0.46c-0.55-0.48-1.28-0.93-2.2-1.36c-0.92-0.43-1.9-0.79-2.92-1.08c-1.02-0.29-1.98-0.44-2.87-0.44
			c-1.47,0-2.71,0.19-3.72,0.56c-1.01,0.38-1.77,0.89-2.28,1.54s-0.77,1.4-0.77,2.25c0,1.03,0.3,1.87,0.9,2.54
			c0.6,0.67,1.46,1.2,2.59,1.59c1.13,0.39,2.48,0.74,4.05,1.05c2.05,0.38,3.85,0.82,5.41,1.33c1.55,0.51,2.84,1.17,3.87,1.97
			c1.03,0.8,1.79,1.81,2.31,3.02c0.51,1.21,0.77,2.69,0.77,4.43c0,2.22-0.62,4.13-1.85,5.74c-1.23,1.61-2.84,2.84-4.84,3.69
			C404.75,497.38,402.59,497.81,400.26,497.81z"/>
	</g>
</g>
</svg>
