<svg xmlns="http://www.w3.org/2000/svg" viewBox="0 0 469.92 535"><defs><style>.cls-1{isolation:isolate;}.cls-2{opacity:0.12;}.cls-2,.cls-4,.cls-8{mix-blend-mode:multiply;}.cls-3,.cls-4,.cls-6{fill:#030a4c;}.cls-4,.cls-8{opacity:0.15;}.cls-11,.cls-5{fill:none;}.cls-5,.cls-6{stroke:#030a4c;}.cls-11,.cls-13,.cls-5,.cls-6{stroke-linecap:round;stroke-linejoin:round;stroke-width:1.91px;}.cls-7{fill:#3da035;}.cls-8{fill:#452499;}.cls-9{fill:#ff614c;}.cls-10{fill:#f04f44;}.cls-11,.cls-13{stroke:#2c2355;}.cls-12{fill:#fff;}.cls-13{fill:#2c2355;}.cls-14{fill:#168aa5;}</style></defs><g class="cls-1"><g id="Capa_1" data-name="Capa 1"><g class="cls-2"><path class="cls-3" d="M337.49,26c-77.05-22.07-164.9-1.5-224.15,52.49S25.45,218,40.26,296.75c6.41,34.11,21.13,67.69,47.07,90.75,29.52,26.25,69.86,36.09,108.74,43.12,44.3,8,90.2,13.45,134,3.26C387.44,420.55,437.42,379.65,463,326.66s26.78-116.93,4.36-171.35S404.1,45,337.49,26Z"/><path class="cls-4" d="M196.07,430.62c44.3,8,90.2,13.45,134,3.26a186.85,186.85,0,0,0,26.42-8.27c-.58-13.87-2.32-40.49-7.41-59.38,0,0,26.17,7,38-14.16S390.4,308,390.4,308L322.69,198.25l-52.63.63-2.68-25.58s17.55.28,26.61-14.73c0,0,28.23,23,36-14.16,0,0-78-25.67-144.85,8.12,0,0,6.47,22.87,33.09,4.73,0,0,9.72,15.94,29.07,17.64L247.18,198s-66.83,66.82-66.83,68-23,58.52-23,58.52l-53.69-1.89L64.78,281.89l-27.16-3.66q.74,7.23,1.94,14.41a102.37,102.37,0,0,0,14.69,2.23s15.86,68.78,61.1,82.12,66.38-9.06,76.2-25.93c0,0-3.76,45.22-5.8,77.61C189.2,429.34,192.64,430,196.07,430.62Z"/><path class="cls-3" d="M312.24,130.23A73.78,73.78,0,0,0,324,65.28,73.81,73.81,0,0,0,278.3,17.67a85.81,85.81,0,0,0-35.67-3.91A79.22,79.22,0,0,0,212.93,22c-9.17,4.79-17.22,12-22.25,21-6,10.69-7.4,23.35-7,35.58.34,9.26,1.72,18.57,5.21,27.16s9.2,16.42,17.68,21.37a65.35,65.35,0,0,0,50.27,30.06C277.1,158.47,297.58,149.45,312.24,130.23Z"/><path class="cls-3" d="M245.32,163.23c-.41,11.29-.82,22.58-.51,34.46,6,.67,12,1.06,18,1.17,3.21.07,6.71-.05,9.87-2.26q-1.45-17.37-2.9-34.74Z"/><path class="cls-3" d="M271,175.49l-1.14-13.63-24.49,1.37c-.16,4.57-.32,9.15-.44,13.75C249.74,179.14,259.15,181.49,271,175.49Z"/><path class="cls-3" d="M203.49,114.53c-10.85-1.73-22.4,5.56-25.52,16.09s2.62,22.93,12.66,27.38,23.07.37,28.78-9Z"/><path class="cls-5" d="M185.11,141.72a17.06,17.06,0,0,1,14.07-14.14"/><path class="cls-5" d="M200.82,142.75a20.15,20.15,0,0,1-9.94-11.32"/><path class="cls-3" d="M201.23,156.05a4.72,4.72,0,1,0,2.05,6.7A4.8,4.8,0,0,0,201.23,156.05Z"/><path class="cls-3" d="M303.14,115.23c10.41-3.49,23,1.79,27.81,11.67s1.2,23-8,29.09-22.7,4.16-29.88-4.15Z"/><path class="cls-5" d="M325.66,138.47a17.06,17.06,0,0,0-16.93-10.56"/><path class="cls-5" d="M310.6,143.06a20.16,20.16,0,0,0,7.09-13.29"/><path class="cls-3" d="M308.47,156.31a4.72,4.72,0,1,1-.92,6.94A4.79,4.79,0,0,1,308.47,156.31Z"/><path class="cls-3" d="M304.79,110.18c.09,17.84-3.89,37-17,49.13-9.67,9-23.56,12.92-36.64,11.19s-25.22-8.9-33.7-19a61.09,61.09,0,0,1-14-37,89.87,89.87,0,0,0,13.7-31.16C240.15,104.37,272.93,114.14,304.79,110.18Z"/><path class="cls-3" d="M285.11,137.55A13.16,13.16,0,0,0,282,155.18a12.13,12.13,0,0,0,5.64,4.32l.21-.19A49.11,49.11,0,0,0,300.7,138.5C296.45,134.94,289.72,134.34,285.11,137.55Z"/><path class="cls-3" d="M214.58,139.12a11.75,11.75,0,0,0-3.24,3.46,59.26,59.26,0,0,0,6.13,8.92,56.6,56.6,0,0,0,10,9.31,10.72,10.72,0,0,0,1.58-.9,12.66,12.66,0,1,0-14.47-20.79Z"/><path class="cls-6" d="M278.38,119.26a2.88,2.88,0,1,0,.24,5A3,3,0,0,0,278.38,119.26Z"/><path class="cls-5" d="M248.36,116.62a39.76,39.76,0,0,0-7.09,8L249,127"/><path class="cls-6" d="M226.36,117.27a2.88,2.88,0,1,0,.24,5A3,3,0,0,0,226.36,117.27Z"/><path class="cls-5" d="M216.25,113.62a21,21,0,0,1,3.8-4.29,7.2,7.2,0,0,1,5.32-1.69c2.39.34,4.24,2.22,5.88,4l2.56,2.75"/><path class="cls-6" d="M265.09,143.34a6.18,6.18,0,0,1-3-.53,3.63,3.63,0,0,1-1.95-2.22,3.74,3.74,0,0,1,.93-3.34,7.38,7.38,0,0,1,3-1.92,5.36,5.36,0,0,1,3.85-.25,3.73,3.73,0,0,1,1.87,4.66A5.43,5.43,0,0,1,265.09,143.34Z"/><path class="cls-3" d="M96.35,277.54c4.49,10.09,8.85,20.37,16.89,27.48s20.9,10,29.53,3.61c4.32-3.2,6.95-8.16,9-13.11,7.74-18.21,10.2-38.19,16.36-57,5.12-15.6,13.74-31.2,27-40.27,0,0,5.65,37.78,5.65,63.71S202,316.71,202,316.71c-4.87,13.35-10.65,26.62-19.76,37.53s-22,19.34-36.13,20.44c-12.54,1-24.89-3.78-35.73-10.16-27-15.92-47.68-43.4-52.65-74.39a65.13,65.13,0,0,1-18.44-3.23c-1.08-.37-2.33-1-2.48-2.09a2.13,2.13,0,0,1,1.08-2,5.83,5.83,0,0,1,2.26-.68c.85-.13,1.7-.24,2.55-.34-3-.7-6.06-1.49-9.05-2.39a9.47,9.47,0,0,1-3.7-1.73,3,3,0,0,1,1.46-5.59,10.06,10.06,0,0,1,3.37.12l13.4,2q-4.63-1.46-9.15-3.24a9.55,9.55,0,0,1-3.78-2.26,3.4,3.4,0,0,1-.5-4.08c1.1-1.49,3.34-1.31,5.15-1a209.05,209.05,0,0,1,20.3,5.07,89.26,89.26,0,0,1-12.16-7.18c-1.41-1-2.93-2.51-2.57-4.21a3.22,3.22,0,0,1,2.89-2.24,8.81,8.81,0,0,1,3.8.75c9.25,3.39,17.86,8.29,26.67,13.47a26.54,26.54,0,0,1,12.71,3.55Z"/><path class="cls-3" d="M202,316.71s-.46-11.35-.81-26.21c-8.74,16.84-34.76,61.21-66.57,61.82-28.28.54-57-26.08-70.87-41,9.05,22.09,25.95,41,46.63,53.21,10.84,6.38,23.19,11.13,35.73,10.15,14.17-1.09,27-9.51,36.13-20.43S197.17,330.06,202,316.71Z"/><path class="cls-5" d="M42.74,281.83a63.4,63.4,0,0,1,14.7.06"/><path class="cls-5" d="M48.22,274.24l14.1,2.11"/><path class="cls-5" d="M60.24,268.77q4.86,1.47,9.63,3.17"/><path class="cls-5" d="M132,363.31a10,10,0,0,0,15.83-.92"/><path class="cls-5" d="M202,316.71c-4.87,13.35-10.65,26.62-19.76,37.53s-22,19.34-36.13,20.44c-12.54,1-24.89-3.78-35.73-10.16-27-15.92-47.68-43.4-52.65-74.39a65.13,65.13,0,0,1-18.44-3.23c-1.08-.37-2.33-1-2.48-2.09a2.13,2.13,0,0,1,1.08-2,5.83,5.83,0,0,1,2.26-.68c.85-.13,1.7-.24,2.55-.34-3-.7-6.06-1.49-9.05-2.39a9.47,9.47,0,0,1-3.7-1.73,3,3,0,0,1,1.46-5.59,10.06,10.06,0,0,1,3.37.12l13.4,2q-4.63-1.46-9.15-3.24a9.55,9.55,0,0,1-3.78-2.26,3.4,3.4,0,0,1-.5-4.08c1.1-1.49,3.34-1.31,5.15-1a209.05,209.05,0,0,1,20.3,5.07,89.26,89.26,0,0,1-12.16-7.18c-1.41-1-2.93-2.51-2.57-4.21a3.22,3.22,0,0,1,2.89-2.24,8.81,8.81,0,0,1,3.8.75c9.25,3.39,17.86,8.29,26.67,13.47a26.54,26.54,0,0,1,12.71,3.55"/><path class="cls-3" d="M67.86,279.8A24.68,24.68,0,0,1,88.34,272a41.88,41.88,0,0,1,10.13-9.77c1.17-.79,2.68-1.54,3.92-.87a2.79,2.79,0,0,1,1.21,2.8,8.31,8.31,0,0,1-1.23,3l-6,10.44"/><path class="cls-5" d="M67.86,279.8A24.68,24.68,0,0,1,88.34,272a41.88,41.88,0,0,1,10.13-9.77c1.17-.79,2.68-1.54,3.92-.87a2.79,2.79,0,0,1,1.21,2.8,8.31,8.31,0,0,1-1.23,3l-6,10.44"/><path class="cls-3" d="M320.94,190.5c15.05,5.41,26.31,18.91,36,32,10.68,14.39,20.91,29.27,28.1,45.68,5.28,12,8.87,25,9.57,38.1,0,0-33.42,12.62-69.16,8.7,0,0-5.54-49.73-6.3-76.66A358.52,358.52,0,0,1,320.94,190.5Z"/><path class="cls-3" d="M314.6,188.77c-19.53-3.73-39.49,6.79-59.45,5.42-15.88-3.29-34.6-7.27-51.19-.62-.4.16-.81.34-1.21.52,0,0-2,27.81-1.93,53.25,0,0,80.81,3,118.2-5Z"/><path class="cls-3" d="M320.94,190.5a42.81,42.81,0,0,0-4.92-1.44c-.47-.11-.94-.2-1.42-.29a276.66,276.66,0,0,0,1.72,49.75c-38.38.31-75.32,1.09-112.23,2.68-.47-15.92-.91-31.53-1.34-47.11a52.06,52.06,0,0,0-7.54,4.16q4.22,116.06-2,231.84l2.85.53c44.3,8,90.2,13.45,134,3.26q8.75-2,17.24-4.92C347.4,349,320.13,270.39,320.94,190.5Z"/><path class="cls-4" d="M343.33,370.75c-2.21-17.63-5.1-35.23-8.07-52.81L206.87,303.27s-1.51,3.87,1,6.51S229,315.54,229,315.54s4.33,16.23,10.75,24.07,19.57,6.7,32.63,2.26C272.34,341.87,302.91,368.8,343.33,370.75Z"/><path class="cls-3" d="M324.37,247.12a445,445,0,0,1-3.43-56.62,42.81,42.81,0,0,0-4.92-1.44c-.47-.11-.94-.2-1.42-.29a276.66,276.66,0,0,0,1.72,49.75c-38.38.31-75.32,1.09-112.23,2.68-.47-15.92-.91-31.53-1.34-47.11a52.06,52.06,0,0,0-7.54,4.16q.93,25.51,1.32,51C239.11,247.16,281.78,245.42,324.37,247.12Z"/><path class="cls-5" d="M193.26,430.09q6.23-115.81,2-231.84"/><path class="cls-5" d="M320.94,190.5C320.13,270.39,347.42,349,347.37,429"/><path class="cls-3" d="M272.34,303.6c-4.6-.91-8-3-11.33-4.77s-7.07-3.46-10.81-2.83c-4.23.71-7.4,4.13-10.23,7.34a27.15,27.15,0,0,0,14.19,5.59C262.56,309.59,272.34,303.6,272.34,303.6Z"/><path class="cls-3" d="M394.62,306.26a83.54,83.54,0,0,1-.45,14.23c-1.78,14.77-9,30.17-22.65,36.09-8.31,3.6-17.76,3.2-26.75,2.11a209.67,209.67,0,0,1-70.84-22.13c-4.16,0-8.18,1.3-12.22,2.24s-8.41,1.48-12.25-.1-6.68-5.19-9-8.77a125.53,125.53,0,0,1-9.38-18.1,74.13,74.13,0,0,1-21.53-4.91,8.78,8.78,0,0,1-3.15-1.79,3.31,3.31,0,0,1-1-3.32c.7-1.92,3.26-2.19,5.3-2.12a325.27,325.27,0,0,1,40.72,4.13l20.87-.22q43.13,1,86.26-.82Z"/><path class="cls-3" d="M392.83,327.77A64.78,64.78,0,0,1,357.42,347c-32.28,5.66-85.08-19.07-85.08-19.07a93,93,0,0,1-32.63.76c.26.42.51.86.77,1.27,2.3,3.58,5.05,7.15,9,8.77s8.21,1.05,12.25.1,8.06-2.28,12.22-2.24a209.67,209.67,0,0,0,70.84,22.13c9,1.09,18.44,1.49,26.75-2.11C382.92,351.63,389.83,340.06,392.83,327.77Z"/><path class="cls-5" d="M365.83,343.09c6.21.19,11.86-5.81,11.32-12"/><path class="cls-5" d="M394.62,306.26a83.54,83.54,0,0,1-.45,14.23c-1.78,14.77-9,30.17-22.65,36.09-8.31,3.6-17.76,3.2-26.75,2.11a209.67,209.67,0,0,1-70.84-22.13c-4.16,0-8.18,1.3-12.22,2.24s-8.41,1.48-12.25-.1-6.68-5.19-9-8.77a125.53,125.53,0,0,1-9.38-18.1,74.13,74.13,0,0,1-21.53-4.91,8.78,8.78,0,0,1-3.15-1.79,3.31,3.31,0,0,1-1-3.32c.7-1.92,3.26-2.19,5.3-2.12a325.27,325.27,0,0,1,40.72,4.13"/><path class="cls-5" d="M246.75,297.24A11,11,0,0,1,250.2,296c3.74-.63,7.47,1,10.81,2.83s6.73,3.86,11.33,4.77q10.77.24,21.53.31,32.37.21,64.73-1.13"/><path class="cls-3" d="M166.7,186a63.65,63.65,0,0,0-15.49-15.7,69.06,69.06,0,0,0,1.3-13.76c-.26-26.51-17.3-49.83-34.65-60-20.84-12.18-48.31-8-68.62,5-14.64,9.42-26.62,23.43-32,40-8.13,25.24.92,55,21.45,71.75s51.13,19.84,74.79,7.86c15.23-7.71,27.09-21.33,33.56-37.12A75.51,75.51,0,0,0,166.7,186Z"/><path class="cls-4" d="M151.21,170.31a69.06,69.06,0,0,0,1.3-13.76,64.93,64.93,0,0,0-1.95-15c-6.57,16.28-21.52,39-54.41,43.86-38,5.62-67.09-4.21-80.25-10a67.85,67.85,0,0,0,22.83,38c20.52,16.78,51.13,19.84,74.79,7.86,15.23-7.71,27.09-21.33,33.56-37.12A75.51,75.51,0,0,0,166.7,186,63.65,63.65,0,0,0,151.21,170.31Z"/><path class="cls-5" d="M56.56,97.44a78.47,78.47,0,0,0-7.32,4.16"/><path class="cls-5" d="M40,108.46c-10.36,8.84-18.57,20.21-22.74,33.14-8.13,25.24.92,55,21.45,71.75s51.13,19.84,74.79,7.86c15.23-7.71,27.09-21.33,33.56-37.12A75.51,75.51,0,0,0,166.7,186a63.65,63.65,0,0,0-15.49-15.7,69.06,69.06,0,0,0,1.3-13.76c-.26-26.51-17.3-49.83-34.65-60-16.25-9.5-36.54-9.08-54.31-2.23"/><path class="cls-3" d="M75.62,171a8.52,8.52,0,0,1-3.07-3.09,9.52,9.52,0,0,1-1.46-5.28,5.85,5.85,0,0,1,1.55-4.45,10.35,10.35,0,0,1,4.62-2.26L84.69,154c3.17-.84,4.76-2.38,4.75-4.61a3.88,3.88,0,0,0-1.78-3.13c-1.19-.89-3.21-1.32-6.07-1.31a26,26,0,0,0-7.34,1,21.88,21.88,0,0,0-5.52,2.36,11.68,11.68,0,0,1-2.78-3,7.62,7.62,0,0,1-1.17-4.24,6.92,6.92,0,0,1,1.41-4.35,10.68,10.68,0,0,1,3.94-3.07,22.72,22.72,0,0,1,6-1.79,46.35,46.35,0,0,1,7.68-.61q11.26-.06,17.06,4.92a16.52,16.52,0,0,1,5.83,13.09q.09,15.25-21.46,19.66Zm-3.09,12.51a9.46,9.46,0,1,1,9.2,8.92,8.53,8.53,0,0,1-9.2-8.92Z"/></g><path class="cls-7" d="M324.13,12.58C247.07-9.48,159.23,11.09,100,65.08S12.09,204.61,26.9,283.39C33.31,317.49,48,351.08,74,374.14c29.52,26.25,69.86,36.09,108.74,43.11,44.3,8,90.19,13.46,134,3.27,57.33-13.33,107.3-54.23,132.92-107.22S476.45,196.37,454,142,390.74,31.65,324.13,12.58Z"/><path class="cls-8" d="M182.71,417.25c44.3,8,90.19,13.46,134,3.27a188.16,188.16,0,0,0,26.42-8.27c-.58-13.87-2.32-40.49-7.41-59.38,0,0,26.17,7,38-14.16s3.27-44,3.27-44l-67.7-109.77-52.63.62L254,159.93s17.56.29,26.62-14.72c0,0,28.22,23,36-14.16,0,0-78-25.67-144.84,8.12,0,0,6.47,22.87,33.09,4.73,0,0,9.72,15.94,29.07,17.64l-.09,23.12S167,251.49,167,252.62s-23,58.53-23,58.53l-53.7-1.89L51.42,268.53l-27.17-3.66c.5,4.82,1.14,9.62,1.95,14.41a103.88,103.88,0,0,0,14.68,2.23S56.75,350.29,102,363.63s66.38-9.07,76.2-25.93c0,0-3.76,45.22-5.8,77.61C175.83,416,179.28,416.63,182.71,417.25Z"/><path d="M298.88,116.87a73.78,73.78,0,0,0,11.79-64.95A73.78,73.78,0,0,0,264.94,4.31,85.83,85.83,0,0,0,229.27.4a79.32,79.32,0,0,0-29.71,8.21c-9.16,4.79-17.21,12-22.24,21-6,10.69-7.4,23.35-7,35.58.34,9.26,1.72,18.57,5.21,27.16s9.2,16.42,17.68,21.37a65.35,65.35,0,0,0,50.27,30.06C263.74,145.11,284.22,136.09,298.88,116.87Z"/><path class="cls-9" d="M232,149.87c-.41,11.29-.83,22.58-.51,34.46,6,.67,12,1.06,18,1.17,3.21.06,6.7-.05,9.87-2.26q-1.46-17.37-2.9-34.74Z"/><path class="cls-10" d="M257.59,162.12l-1.14-13.62L232,149.87c-.16,4.57-.32,9.14-.44,13.75C236.38,165.78,245.79,168.13,257.59,162.12Z"/><path class="cls-9" d="M190.13,101.17c-10.85-1.73-22.41,5.56-25.52,16.09s2.61,22.93,12.65,27.38,23.08.37,28.79-9Z"/><path class="cls-11" d="M171.75,128.36a17.08,17.08,0,0,1,14.07-14.15"/><path class="cls-11" d="M187.46,129.39a20.15,20.15,0,0,1-9.94-11.32"/><path class="cls-12" d="M187.87,142.69a4.72,4.72,0,1,0,2,6.69A4.79,4.79,0,0,0,187.87,142.69Z"/><path class="cls-9" d="M289.77,101.87c10.42-3.49,23,1.79,27.82,11.67s1.2,23-8,29.09-22.71,4.16-29.88-4.15Z"/><path class="cls-11" d="M312.3,125.1a17.09,17.09,0,0,0-16.93-10.56"/><path class="cls-11" d="M297.24,129.7a20.18,20.18,0,0,0,7.09-13.29"/><path class="cls-12" d="M295.1,143a4.72,4.72,0,1,1-.91,6.94A4.79,4.79,0,0,1,295.1,143Z"/><path class="cls-9" d="M291.43,96.81c.09,17.85-3.89,37-17,49.14-9.67,9-23.57,12.92-36.65,11.19s-25.21-8.9-33.69-19a61.09,61.09,0,0,1-14-37A89.66,89.66,0,0,0,203.82,70C226.78,91,259.57,100.78,291.43,96.81Z"/><path class="cls-10" d="M271.75,124.19a13.16,13.16,0,0,0-3.15,17.63,12.13,12.13,0,0,0,5.64,4.32l.21-.19a49.17,49.17,0,0,0,12.89-20.81C283.09,121.58,276.36,121,271.75,124.19Z"/><path class="cls-10" d="M201.22,125.76a11.75,11.75,0,0,0-3.24,3.46,59.26,59.26,0,0,0,6.13,8.92,56.6,56.6,0,0,0,10,9.31,11.26,11.26,0,0,0,1.58-.9,12.66,12.66,0,1,0-14.47-20.79Z"/><path class="cls-13" d="M265,105.89a2.88,2.88,0,1,0,.24,5A3,3,0,0,0,265,105.89Z"/><path class="cls-11" d="M235,103.26a39.76,39.76,0,0,0-7.09,8l7.68,2.45"/><path class="cls-13" d="M213,103.9a2.88,2.88,0,1,0,.24,5A3,3,0,0,0,213,103.9Z"/><path class="cls-11" d="M202.89,100.25A21.22,21.22,0,0,1,206.68,96,7.23,7.23,0,0,1,212,94.28c2.39.34,4.24,2.21,5.88,4l2.56,2.74"/><path class="cls-13" d="M251.73,130a6.14,6.14,0,0,1-3-.53,3.6,3.6,0,0,1-1.95-2.22,3.75,3.75,0,0,1,.92-3.34,7.48,7.48,0,0,1,3-1.92,5.36,5.36,0,0,1,3.85-.25,3.74,3.74,0,0,1,1.87,4.66A5.43,5.43,0,0,1,251.73,130Z"/><path class="cls-9" d="M83,264.18c4.49,10.09,8.85,20.37,16.89,27.48s20.9,10,29.52,3.61c4.32-3.2,6.95-8.17,9.06-13.11,7.74-18.21,10.2-38.2,16.36-57,5.12-15.61,13.74-31.21,27-40.27,0,0,5.65,37.78,5.65,63.71s1.18,54.75,1.18,54.75C183.81,316.7,178,330,168.92,340.88s-22,19.33-36.13,20.43c-12.54,1-24.89-3.77-35.73-10.15-27-15.92-47.68-43.4-52.65-74.39A64.9,64.9,0,0,1,26,273.53c-1.08-.36-2.32-.95-2.47-2.08a2.13,2.13,0,0,1,1.08-2,5.83,5.83,0,0,1,2.25-.68c.85-.13,1.71-.24,2.56-.34-3-.7-6.06-1.49-9.06-2.39a9.64,9.64,0,0,1-3.69-1.73,3.06,3.06,0,0,1,1.46-5.6,10,10,0,0,1,3.36.13l13.41,2c-3.09-1-6.14-2.06-9.15-3.24a9.55,9.55,0,0,1-3.78-2.26,3.4,3.4,0,0,1-.5-4.08c1.09-1.49,3.34-1.31,5.15-1a209.05,209.05,0,0,1,20.3,5.07,89.26,89.26,0,0,1-12.16-7.18c-1.41-1-2.94-2.51-2.57-4.21A3.21,3.21,0,0,1,35,241.78a8.81,8.81,0,0,1,3.8.75c9.25,3.38,17.86,8.29,26.67,13.47a26.57,26.57,0,0,1,12.71,3.55Z"/><path class="cls-10" d="M188.68,303.35s-.46-11.35-.81-26.21C179.13,294,153.11,338.35,121.3,339c-28.28.54-57-26.08-70.87-41,9,22.09,25.95,41,46.63,53.21,10.84,6.38,23.19,11.13,35.73,10.15,14.17-1.1,27-9.51,36.13-20.43S183.81,316.7,188.68,303.35Z"/><path class="cls-11" d="M29.38,268.47a63.4,63.4,0,0,1,14.7.06"/><path class="cls-11" d="M34.86,260.88,49,263"/><path class="cls-11" d="M46.88,255.41c3.23,1,6.45,2,9.63,3.17"/><path class="cls-11" d="M118.59,350a10,10,0,0,0,15.83-.92"/><path class="cls-11" d="M188.68,303.35C183.81,316.7,178,330,168.92,340.88s-22,19.33-36.13,20.43c-12.54,1-24.89-3.77-35.73-10.15-27-15.92-47.68-43.4-52.65-74.39A64.9,64.9,0,0,1,26,273.53c-1.08-.36-2.32-.95-2.47-2.08a2.13,2.13,0,0,1,1.08-2,5.83,5.83,0,0,1,2.25-.68c.85-.13,1.71-.24,2.56-.34-3-.7-6.06-1.49-9.06-2.39a9.64,9.64,0,0,1-3.69-1.73,3.06,3.06,0,0,1,1.46-5.6,10,10,0,0,1,3.36.13l13.41,2c-3.09-1-6.14-2.06-9.15-3.24a9.55,9.55,0,0,1-3.78-2.26,3.4,3.4,0,0,1-.5-4.08c1.09-1.49,3.34-1.31,5.15-1a209.05,209.05,0,0,1,20.3,5.07,89.26,89.26,0,0,1-12.16-7.18c-1.41-1-2.94-2.51-2.57-4.21A3.21,3.21,0,0,1,35,241.78a8.81,8.81,0,0,1,3.8.75c9.25,3.38,17.86,8.29,26.67,13.47a26.57,26.57,0,0,1,12.71,3.55"/><path class="cls-9" d="M54.5,266.44A24.71,24.71,0,0,1,75,258.58a42,42,0,0,1,10.13-9.76c1.17-.79,2.68-1.54,3.92-.87a2.79,2.79,0,0,1,1.21,2.8,8.19,8.19,0,0,1-1.23,3l-6,10.45"/><path class="cls-11" d="M54.5,266.44A24.71,24.71,0,0,1,75,258.58a42,42,0,0,1,10.13-9.76c1.17-.79,2.68-1.54,3.92-.87a2.79,2.79,0,0,1,1.21,2.8,8.19,8.19,0,0,1-1.23,3l-6,10.45"/><path class="cls-9" d="M307.58,177.14c15.05,5.41,26.3,18.9,36,32,10.68,14.38,20.91,29.27,28.1,45.68,5.28,12.05,8.87,25,9.56,38.1,0,0-33.42,12.62-69.16,8.7,0,0-5.53-49.73-6.29-76.66A358.38,358.38,0,0,1,307.58,177.14Z"/><path class="cls-9" d="M301.24,175.4c-19.53-3.72-39.49,6.79-59.45,5.43-15.88-3.29-34.6-7.27-51.19-.62l-1.22.51s-2,27.82-1.92,53.26c0,0,80.81,3,118.2-5Z"/><path class="cls-12" d="M307.58,177.14a40.52,40.52,0,0,0-4.93-1.44l-1.41-.3A276.74,276.74,0,0,0,303,225.16c-38.38.31-75.33,1.09-112.23,2.68-.47-15.92-.91-31.53-1.34-47.12a53.08,53.08,0,0,0-7.54,4.17q4.22,116.06-2,231.84l2.85.52c44.3,8,90.19,13.46,134,3.27q8.75-2,17.24-4.92C334,335.61,306.77,257,307.58,177.14Z"/><path class="cls-8" d="M330,357.39c-2.21-17.63-5.1-35.23-8.07-52.81L193.51,289.91s-1.51,3.87,1,6.51,21,5.76,21,5.76,4.32,16.23,10.75,24.07,19.57,6.7,32.63,2.26C259,328.51,289.55,355.44,330,357.39Z"/><path class="cls-12" d="M311,233.76a443.13,443.13,0,0,1-3.43-56.62,40.52,40.52,0,0,0-4.93-1.44l-1.41-.3A276.74,276.74,0,0,0,303,225.16c-38.38.31-75.33,1.09-112.23,2.68-.47-15.92-.91-31.53-1.34-47.12a53.08,53.08,0,0,0-7.54,4.17c.62,17,1,34,1.32,51C225.75,233.8,268.42,232.06,311,233.76Z"/><path class="cls-11" d="M179.9,416.73q6.22-115.82,1.95-231.84"/><path class="cls-11" d="M307.58,177.14C306.77,257,334.05,335.61,334,415.6"/><path class="cls-9" d="M259,290.24c-4.6-.92-8-3-11.33-4.77s-7.07-3.46-10.81-2.83c-4.23.71-7.4,4.12-10.23,7.34a27.15,27.15,0,0,0,14.19,5.59C249.2,296.23,259,290.24,259,290.24Z"/><path class="cls-9" d="M381.25,292.9a82.56,82.56,0,0,1-.45,14.23c-1.77,14.77-9,30.17-22.64,36.09-8.31,3.6-17.76,3.19-26.75,2.11a209.74,209.74,0,0,1-70.85-22.14c-4.15,0-8.17,1.31-12.21,2.25s-8.41,1.48-12.25-.11-6.68-5.19-9-8.76a124.53,124.53,0,0,1-9.38-18.1,74.27,74.27,0,0,1-21.54-4.91,8.83,8.83,0,0,1-3.14-1.79,3.29,3.29,0,0,1-1-3.32c.69-1.92,3.26-2.2,5.3-2.12a325.27,325.27,0,0,1,40.72,4.13l20.87-.22q43.13,1,86.26-.82Z"/><path class="cls-10" d="M379.47,314.41a64.78,64.78,0,0,1-35.41,19.2C311.78,339.27,259,314.54,259,314.54a93.21,93.21,0,0,1-32.63.76l.77,1.27c2.3,3.57,5,7.14,9,8.76s8.21,1.06,12.25.11,8.06-2.28,12.21-2.25a209.74,209.74,0,0,0,70.85,22.14c9,1.08,18.44,1.49,26.75-2.11C369.56,338.27,376.47,326.7,379.47,314.41Z"/><path class="cls-11" d="M352.47,329.73c6.21.19,11.86-5.81,11.31-12"/><path class="cls-11" d="M381.25,292.9a82.56,82.56,0,0,1-.45,14.23c-1.77,14.77-9,30.17-22.64,36.09-8.31,3.6-17.76,3.19-26.75,2.11a209.74,209.74,0,0,1-70.85-22.14c-4.15,0-8.17,1.31-12.21,2.25s-8.41,1.48-12.25-.11-6.68-5.19-9-8.76a124.53,124.53,0,0,1-9.38-18.1,74.27,74.27,0,0,1-21.54-4.91,8.83,8.83,0,0,1-3.14-1.79,3.29,3.29,0,0,1-1-3.32c.69-1.92,3.26-2.2,5.3-2.12a325.27,325.27,0,0,1,40.72,4.13"/><path class="cls-11" d="M233.39,283.88a10.72,10.72,0,0,1,3.45-1.24c3.74-.63,7.47,1,10.81,2.83s6.73,3.85,11.33,4.77q10.77.24,21.53.31,32.37.21,64.73-1.13"/><path class="cls-12" d="M153.33,172.65A63.27,63.27,0,0,0,137.85,157a69.06,69.06,0,0,0,1.3-13.76c-.26-26.52-17.3-49.83-34.65-60-20.84-12.18-48.32-8-68.62,5-14.64,9.42-26.62,23.43-32,40-8.13,25.24.92,55,21.44,71.75s51.14,19.84,74.79,7.86c15.24-7.71,27.1-21.33,33.57-37.12A75.43,75.43,0,0,0,153.33,172.65Z"/><path class="cls-8" d="M137.85,157a69.06,69.06,0,0,0,1.3-13.76,64.93,64.93,0,0,0-2-15c-6.58,16.28-21.52,39-54.41,43.86-38,5.62-67.09-4.21-80.25-10.05a68,68,0,0,0,22.82,38c20.53,16.78,51.14,19.84,74.79,7.86,15.24-7.71,27.1-21.33,33.57-37.12a75.43,75.43,0,0,0,19.61,1.92A63.27,63.27,0,0,0,137.85,157Z"/><path class="cls-11" d="M43.2,84.08a78.47,78.47,0,0,0-7.32,4.16"/><path class="cls-11" d="M26.66,95.1C16.3,103.94,8.09,115.31,3.92,128.24c-8.13,25.24.92,55,21.44,71.75s51.14,19.84,74.79,7.86c15.24-7.71,27.1-21.33,33.57-37.12a75.43,75.43,0,0,0,19.61,1.92A63.27,63.27,0,0,0,137.85,157a69.06,69.06,0,0,0,1.3-13.76c-.26-26.52-17.3-49.83-34.65-60C88.25,73.73,68,74.15,50.18,81"/><path class="cls-14" d="M62.25,157.6a8.66,8.66,0,0,1-3.06-3.09,9.54,9.54,0,0,1-1.46-5.28,5.84,5.84,0,0,1,1.55-4.45,10.29,10.29,0,0,1,4.62-2.26l7.43-1.85c3.17-.84,4.76-2.38,4.74-4.61a3.89,3.89,0,0,0-1.78-3.14c-1.18-.88-3.2-1.32-6.06-1.3a25.93,25.93,0,0,0-7.34,1A21.88,21.88,0,0,0,55.37,135a11.71,11.71,0,0,1-2.79-3,7.7,7.7,0,0,1-1.16-4.24,6.92,6.92,0,0,1,1.41-4.35,10.68,10.68,0,0,1,3.94-3.07,22.72,22.72,0,0,1,6-1.79,47.4,47.4,0,0,1,7.68-.62q11.25,0,17.06,4.93A16.52,16.52,0,0,1,93.34,136q.07,15.26-21.46,19.66Zm-3.08,12.51a8.53,8.53,0,0,1,9.11-9A9,9,0,1,1,68.37,179a8.52,8.52,0,0,1-9.2-8.92Z"/><rect class="cls-14" x="62.25" y="417" width="378" height="118" rx="12"/><path class="cls-12" d="M121,509.63a23,23,0,0,1-9.85-2.14,19,19,0,0,1-7.44-6.13,5.91,5.91,0,0,1-1.11-3.26,5,5,0,0,1,1.81-3.9,5.47,5.47,0,0,1,3.58-1.58,5.2,5.2,0,0,1,2.74.83,13.74,13.74,0,0,1,2.47,2,12.13,12.13,0,0,0,3.67,2.37,11.54,11.54,0,0,0,4.13.69,10.24,10.24,0,0,0,5.21-1.39,11.21,11.21,0,0,0,3.9-3.72,9.15,9.15,0,0,0,1.49-5v-39a5.26,5.26,0,0,1,1.77-4,5.82,5.82,0,0,1,4.09-1.63,5.5,5.5,0,0,1,5.76,5.67v39a19.66,19.66,0,0,1-3,10.51,22.88,22.88,0,0,1-8,7.8A21.6,21.6,0,0,1,121,509.63Z"/><path class="cls-12" d="M203.34,443.54a5,5,0,0,1,3.9,1.63,5.76,5.76,0,0,1,1.49,4v33.65a27.67,27.67,0,0,1-3.3,13.66,24,24,0,0,1-9.06,9.3,28.59,28.59,0,0,1-26.82,0,23.89,23.89,0,0,1-9.11-9.3,27.67,27.67,0,0,1-3.3-13.66V449.21a5.42,5.42,0,0,1,1.67-4,5.87,5.87,0,0,1,4.28-1.63,5.48,5.48,0,0,1,3.86,1.63,5.35,5.35,0,0,1,1.72,4v33.65a15.47,15.47,0,0,0,2,8A14.24,14.24,0,0,0,183,498a15.44,15.44,0,0,0,7.44-1.86,14.58,14.58,0,0,0,7.71-13.29V449.21a6,6,0,0,1,1.4-4A4.74,4.74,0,0,1,203.34,443.54Z"/><path class="cls-12" d="M253.34,509.63a33.49,33.49,0,0,1-13.19-2.6,34.16,34.16,0,0,1-18.08-17.85,33.29,33.29,0,0,1,0-26,34.16,34.16,0,0,1,18.08-17.85,33.49,33.49,0,0,1,13.19-2.6,38,38,0,0,1,8.46.93,29.4,29.4,0,0,1,7.53,2.79,5,5,0,0,1,2.09,2,5.16,5.16,0,0,1,.7,2.55,6.06,6.06,0,0,1-1.49,4,4.75,4.75,0,0,1-3.81,1.77,6.34,6.34,0,0,1-1.53-.19,6.54,6.54,0,0,1-1.53-.56,25.47,25.47,0,0,0-10.42-2.13,20.74,20.74,0,0,0-11,3,22.41,22.41,0,0,0-7.9,8.08,22.79,22.79,0,0,0,0,22.36,22.24,22.24,0,0,0,7.9,8.13,20.74,20.74,0,0,0,11,3,37.73,37.73,0,0,0,6.14-.55,24.07,24.07,0,0,0,5.48-1.49l-.83,2.79v-15.9l1.58,1.4H255.39a5.57,5.57,0,0,1-4-1.58,5.72,5.72,0,0,1,0-8,5.57,5.57,0,0,1,4-1.58h15.24a5.36,5.36,0,0,1,4,1.63,5.57,5.57,0,0,1,1.58,4v19.71a5.07,5.07,0,0,1-.88,3.07,8.19,8.19,0,0,1-2,1.95,40.59,40.59,0,0,1-9.34,4.13A36.33,36.33,0,0,1,253.34,509.63Z"/><path class="cls-12" d="M311.25,458.22l-20.07,47.23a5.78,5.78,0,0,1-2,2.74,4.9,4.9,0,0,1-2.93,1,4.67,4.67,0,0,1-3.72-1.39,5.1,5.1,0,0,1-1.21-3.44,6.38,6.38,0,0,1,.28-1.77L304.75,447A6,6,0,0,1,307,444.1a4.92,4.92,0,0,1,3.3-.84,5.55,5.55,0,0,1,5.21,3.72l22.87,54.47a6.44,6.44,0,0,1,.46,2.23,5.31,5.31,0,0,1-5.21,5.48,4.89,4.89,0,0,1-3-1,6.64,6.64,0,0,1-2.09-2.79l-20-46.57ZM294.06,494.1l5.11-10.69h25.1L326,494.1Z"/><path class="cls-12" d="M353.45,508.7a7.22,7.22,0,0,1-4.64-1.63,5,5,0,0,1-2.05-4V449.3a5.57,5.57,0,0,1,5.67-5.67H379.2a17.17,17.17,0,0,1,9.06,2.56,19.48,19.48,0,0,1,6.84,7.06,20.42,20.42,0,0,1,2.6,10.37,17.21,17.21,0,0,1-1.44,6.87,21.65,21.65,0,0,1-3.91,6.05,18.25,18.25,0,0,1-5.53,4.18l.1-2.14a15.42,15.42,0,0,1,7,7.39,14.12,14.12,0,0,1,1.17,4.7c.24,1.54.41,2.91.51,4.09a12.41,12.41,0,0,0,.55,3,3.26,3.26,0,0,0,1.63,1.86,5.24,5.24,0,0,1,2.56,3.48,4.36,4.36,0,0,1-1.07,4.05,4.49,4.49,0,0,1-2.6,1.53,7.65,7.65,0,0,1-3.16,0,9.25,9.25,0,0,1-2.61-.88,13.53,13.53,0,0,1-3.16-2.74,13.74,13.74,0,0,1-2.55-4.88,26.64,26.64,0,0,1-1-7.9,7.61,7.61,0,0,0-.56-2.93,6.4,6.4,0,0,0-4.18-3.81,12.15,12.15,0,0,0-3.72-.52H357l1.39-2.13V503a6.24,6.24,0,0,1-1.3,4A4.38,4.38,0,0,1,353.45,508.7Zm3.63-33.28h21.66a4.7,4.7,0,0,0,3.25-1.53,11.54,11.54,0,0,0,2.6-4.18,16.1,16.1,0,0,0,1-5.82,10.61,10.61,0,0,0-2.18-6.83c-1.46-1.82-3-2.74-4.69-2.74H357.26l1.12-3v26.3Z"/></g></g></svg>